M48
; DRILL file {KiCad (6.0.4)} date Tue Mar 28 09:37:20 2023
; FORMAT={-:-/ absolute / metric / decimal}
; #@! TF.CreationDate,2023-03-28T09:37:20-03:00
; #@! TF.GenerationSoftware,Kicad,Pcbnew,(6.0.4)
; #@! TF.FileFunction,Plated,1,2,PTH
FMAT,2
METRIC
; #@! TA.AperFunction,Plated,PTH,ViaDrill
T1C0.500
; #@! TA.AperFunction,Plated,PTH,ViaDrill
T2C1.000
; #@! TA.AperFunction,Plated,PTH,ComponentDrill
T3C1.000
; #@! TA.AperFunction,Plated,PTH,ComponentDrill
T4C1.300
%
G90
G05
T1
X91.5Y-84.0
X95.75Y-108.0
X114.25Y-65.5
X114.25Y-70.5
X125.25Y-67.75
X127.025Y-67.8
X128.0Y-77.5
X133.25Y-77.25
X134.75Y-77.25
X150.512Y-116.487
X152.0Y-100.0
X152.75Y-82.75
X155.5Y-76.75
T2
X111.25Y-74.5
X132.963Y-65.712
T3
X100.0Y-87.46
X100.0Y-90.0
X102.54Y-87.46
X102.54Y-90.0
X105.08Y-87.46
X105.08Y-90.0
X107.62Y-87.46
X107.62Y-90.0
X110.16Y-87.46
X110.16Y-90.0
X112.7Y-87.46
X112.7Y-90.0
X115.24Y-87.46
X115.24Y-90.0
X117.78Y-87.46
X117.78Y-90.0
X120.32Y-87.46
X120.32Y-90.0
X122.86Y-87.46
X122.86Y-90.0
X125.4Y-87.46
X125.4Y-90.0
X127.94Y-87.46
X127.94Y-90.0
X130.48Y-87.46
X130.48Y-90.0
X133.02Y-87.46
X133.02Y-90.0
X135.56Y-87.46
X135.56Y-90.0
X138.1Y-87.46
X138.1Y-90.0
X140.64Y-87.46
X140.64Y-90.0
X141.915Y-70.725
X141.915Y-73.265
X143.18Y-87.46
X143.18Y-90.0
X144.455Y-70.725
X144.455Y-73.265
X145.72Y-87.46
X145.72Y-90.0
X146.995Y-70.725
X146.995Y-73.265
X147.945Y-104.25
X148.26Y-87.46
X148.26Y-90.0
X149.535Y-70.725
X149.535Y-73.265
X150.485Y-104.25
X152.075Y-70.725
X152.075Y-73.265
X153.025Y-104.25
T4
X93.0Y-67.0
X95.0Y-113.0
X95.75Y-78.5
X98.0Y-67.0
X100.0Y-113.0
X103.0Y-67.0
X105.0Y-113.0
X108.0Y-67.0
X110.0Y-113.0
X115.0Y-113.0
X118.25Y-78.5
X120.0Y-113.0
X125.0Y-113.0
X130.0Y-113.0
X135.0Y-113.0
X140.0Y-113.0
X154.75Y-66.0
X160.5Y-113.0
X161.95Y-81.0
X161.95Y-98.0
X163.95Y-75.0
X163.95Y-87.0
X163.95Y-92.0
X163.95Y-104.0
X165.5Y-113.0
X170.5Y-113.0
X175.5Y-113.0
X176.15Y-75.0
X176.15Y-87.0
X176.15Y-92.0
X176.15Y-104.0
X177.25Y-66.0
T0
M30
