G04 #@! TF.GenerationSoftware,KiCad,Pcbnew,5.1.5+dfsg1-2build2*
G04 #@! TF.CreationDate,2021-12-14T17:07:24-03:00*
G04 #@! TF.ProjectId,DomPiWeb,446f6d50-6957-4656-922e-6b696361645f,rev?*
G04 #@! TF.SameCoordinates,Original*
G04 #@! TF.FileFunction,Soldermask,Bot*
G04 #@! TF.FilePolarity,Negative*
%FSLAX46Y46*%
G04 Gerber Fmt 4.6, Leading zero omitted, Abs format (unit mm)*
G04 Created by KiCad (PCBNEW 5.1.5+dfsg1-2build2) date 2021-12-14 17:07:24*
%MOMM*%
%LPD*%
G04 APERTURE LIST*
%ADD10C,0.100000*%
%ADD11C,0.150000*%
%ADD12C,0.300000*%
%ADD13C,0.400000*%
%ADD14O,1.700000X1.700000*%
%ADD15R,1.700000X1.700000*%
%ADD16R,9.400000X10.800000*%
%ADD17R,4.600000X1.100000*%
%ADD18C,2.600000*%
%ADD19R,2.600000X2.600000*%
%ADD20R,1.400000X2.100000*%
%ADD21O,0.600000X1.600000*%
%ADD22O,1.600000X0.600000*%
G04 APERTURE END LIST*
D10*
D11*
X177002200Y-166007200D02*
X177002200Y-198007200D01*
X285002200Y-198007200D01*
X285002200Y-166007200D01*
X177002200Y-166007200D01*
D10*
D11*
X10000000Y-10000000D02*
X10000000Y-200007200D01*
X287002200Y-200007200D01*
X287002200Y-10000000D01*
X10000000Y-10000000D01*
D10*
D11*
X12000000Y-12000000D02*
X12000000Y-198007200D01*
X285002200Y-198007200D01*
X285002200Y-12000000D01*
X12000000Y-12000000D01*
D10*
D11*
X60000000Y-12000000D02*
X60000000Y-10000000D01*
D10*
D11*
X110000000Y-12000000D02*
X110000000Y-10000000D01*
D10*
D11*
X160000000Y-12000000D02*
X160000000Y-10000000D01*
D10*
D11*
X210000000Y-12000000D02*
X210000000Y-10000000D01*
D10*
D11*
X260000000Y-12000000D02*
X260000000Y-10000000D01*
D10*
D11*
X36065476Y-11588095D02*
X35322619Y-11588095D01*
X35694047Y-11588095D02*
X35694047Y-10288095D01*
X35570238Y-10473809D01*
X35446428Y-10597619D01*
X35322619Y-10659523D01*
D10*
D11*
X85322619Y-10411904D02*
X85384523Y-10350000D01*
X85508333Y-10288095D01*
X85817857Y-10288095D01*
X85941666Y-10350000D01*
X86003571Y-10411904D01*
X86065476Y-10535714D01*
X86065476Y-10659523D01*
X86003571Y-10845238D01*
X85260714Y-11588095D01*
X86065476Y-11588095D01*
D10*
D11*
X135260714Y-10288095D02*
X136065476Y-10288095D01*
X135632142Y-10783333D01*
X135817857Y-10783333D01*
X135941666Y-10845238D01*
X136003571Y-10907142D01*
X136065476Y-11030952D01*
X136065476Y-11340476D01*
X136003571Y-11464285D01*
X135941666Y-11526190D01*
X135817857Y-11588095D01*
X135446428Y-11588095D01*
X135322619Y-11526190D01*
X135260714Y-11464285D01*
D10*
D11*
X185941666Y-10721428D02*
X185941666Y-11588095D01*
X185632142Y-10226190D02*
X185322619Y-11154761D01*
X186127380Y-11154761D01*
D10*
D11*
X236003571Y-10288095D02*
X235384523Y-10288095D01*
X235322619Y-10907142D01*
X235384523Y-10845238D01*
X235508333Y-10783333D01*
X235817857Y-10783333D01*
X235941666Y-10845238D01*
X236003571Y-10907142D01*
X236065476Y-11030952D01*
X236065476Y-11340476D01*
X236003571Y-11464285D01*
X235941666Y-11526190D01*
X235817857Y-11588095D01*
X235508333Y-11588095D01*
X235384523Y-11526190D01*
X235322619Y-11464285D01*
D10*
D11*
X285941666Y-10288095D02*
X285694047Y-10288095D01*
X285570238Y-10350000D01*
X285508333Y-10411904D01*
X285384523Y-10597619D01*
X285322619Y-10845238D01*
X285322619Y-11340476D01*
X285384523Y-11464285D01*
X285446428Y-11526190D01*
X285570238Y-11588095D01*
X285817857Y-11588095D01*
X285941666Y-11526190D01*
X286003571Y-11464285D01*
X286065476Y-11340476D01*
X286065476Y-11030952D01*
X286003571Y-10907142D01*
X285941666Y-10845238D01*
X285817857Y-10783333D01*
X285570238Y-10783333D01*
X285446428Y-10845238D01*
X285384523Y-10907142D01*
X285322619Y-11030952D01*
D10*
D11*
X60000000Y-198007200D02*
X60000000Y-200007200D01*
D10*
D11*
X110000000Y-198007200D02*
X110000000Y-200007200D01*
D10*
D11*
X160000000Y-198007200D02*
X160000000Y-200007200D01*
D10*
D11*
X210000000Y-198007200D02*
X210000000Y-200007200D01*
D10*
D11*
X260000000Y-198007200D02*
X260000000Y-200007200D01*
D10*
D11*
X36065476Y-199595295D02*
X35322619Y-199595295D01*
X35694047Y-199595295D02*
X35694047Y-198295295D01*
X35570238Y-198481009D01*
X35446428Y-198604819D01*
X35322619Y-198666723D01*
D10*
D11*
X85322619Y-198419104D02*
X85384523Y-198357200D01*
X85508333Y-198295295D01*
X85817857Y-198295295D01*
X85941666Y-198357200D01*
X86003571Y-198419104D01*
X86065476Y-198542914D01*
X86065476Y-198666723D01*
X86003571Y-198852438D01*
X85260714Y-199595295D01*
X86065476Y-199595295D01*
D10*
D11*
X135260714Y-198295295D02*
X136065476Y-198295295D01*
X135632142Y-198790533D01*
X135817857Y-198790533D01*
X135941666Y-198852438D01*
X136003571Y-198914342D01*
X136065476Y-199038152D01*
X136065476Y-199347676D01*
X136003571Y-199471485D01*
X135941666Y-199533390D01*
X135817857Y-199595295D01*
X135446428Y-199595295D01*
X135322619Y-199533390D01*
X135260714Y-199471485D01*
D10*
D11*
X185941666Y-198728628D02*
X185941666Y-199595295D01*
X185632142Y-198233390D02*
X185322619Y-199161961D01*
X186127380Y-199161961D01*
D10*
D11*
X236003571Y-198295295D02*
X235384523Y-198295295D01*
X235322619Y-198914342D01*
X235384523Y-198852438D01*
X235508333Y-198790533D01*
X235817857Y-198790533D01*
X235941666Y-198852438D01*
X236003571Y-198914342D01*
X236065476Y-199038152D01*
X236065476Y-199347676D01*
X236003571Y-199471485D01*
X235941666Y-199533390D01*
X235817857Y-199595295D01*
X235508333Y-199595295D01*
X235384523Y-199533390D01*
X235322619Y-199471485D01*
D10*
D11*
X285941666Y-198295295D02*
X285694047Y-198295295D01*
X285570238Y-198357200D01*
X285508333Y-198419104D01*
X285384523Y-198604819D01*
X285322619Y-198852438D01*
X285322619Y-199347676D01*
X285384523Y-199471485D01*
X285446428Y-199533390D01*
X285570238Y-199595295D01*
X285817857Y-199595295D01*
X285941666Y-199533390D01*
X286003571Y-199471485D01*
X286065476Y-199347676D01*
X286065476Y-199038152D01*
X286003571Y-198914342D01*
X285941666Y-198852438D01*
X285817857Y-198790533D01*
X285570238Y-198790533D01*
X285446428Y-198852438D01*
X285384523Y-198914342D01*
X285322619Y-199038152D01*
D10*
D11*
X10000000Y-60000000D02*
X12000000Y-60000000D01*
D10*
D11*
X10000000Y-110000000D02*
X12000000Y-110000000D01*
D10*
D11*
X10000000Y-160000000D02*
X12000000Y-160000000D01*
D10*
D11*
X10690476Y-35216666D02*
X11309523Y-35216666D01*
X10566666Y-35588095D02*
X11000000Y-34288095D01*
X11433333Y-35588095D01*
D10*
D11*
X11092857Y-84907142D02*
X11278571Y-84969047D01*
X11340476Y-85030952D01*
X11402380Y-85154761D01*
X11402380Y-85340476D01*
X11340476Y-85464285D01*
X11278571Y-85526190D01*
X11154761Y-85588095D01*
X10659523Y-85588095D01*
X10659523Y-84288095D01*
X11092857Y-84288095D01*
X11216666Y-84350000D01*
X11278571Y-84411904D01*
X11340476Y-84535714D01*
X11340476Y-84659523D01*
X11278571Y-84783333D01*
X11216666Y-84845238D01*
X11092857Y-84907142D01*
X10659523Y-84907142D01*
D10*
D11*
X11402380Y-135464285D02*
X11340476Y-135526190D01*
X11154761Y-135588095D01*
X11030952Y-135588095D01*
X10845238Y-135526190D01*
X10721428Y-135402380D01*
X10659523Y-135278571D01*
X10597619Y-135030952D01*
X10597619Y-134845238D01*
X10659523Y-134597619D01*
X10721428Y-134473809D01*
X10845238Y-134350000D01*
X11030952Y-134288095D01*
X11154761Y-134288095D01*
X11340476Y-134350000D01*
X11402380Y-134411904D01*
D10*
D11*
X10659523Y-185588095D02*
X10659523Y-184288095D01*
X10969047Y-184288095D01*
X11154761Y-184350000D01*
X11278571Y-184473809D01*
X11340476Y-184597619D01*
X11402380Y-184845238D01*
X11402380Y-185030952D01*
X11340476Y-185278571D01*
X11278571Y-185402380D01*
X11154761Y-185526190D01*
X10969047Y-185588095D01*
X10659523Y-185588095D01*
D10*
D11*
X287002200Y-60000000D02*
X285002200Y-60000000D01*
D10*
D11*
X287002200Y-110000000D02*
X285002200Y-110000000D01*
D10*
D11*
X287002200Y-160000000D02*
X285002200Y-160000000D01*
D10*
D11*
X285692676Y-35216666D02*
X286311723Y-35216666D01*
X285568866Y-35588095D02*
X286002200Y-34288095D01*
X286435533Y-35588095D01*
D10*
D11*
X286095057Y-84907142D02*
X286280771Y-84969047D01*
X286342676Y-85030952D01*
X286404580Y-85154761D01*
X286404580Y-85340476D01*
X286342676Y-85464285D01*
X286280771Y-85526190D01*
X286156961Y-85588095D01*
X285661723Y-85588095D01*
X285661723Y-84288095D01*
X286095057Y-84288095D01*
X286218866Y-84350000D01*
X286280771Y-84411904D01*
X286342676Y-84535714D01*
X286342676Y-84659523D01*
X286280771Y-84783333D01*
X286218866Y-84845238D01*
X286095057Y-84907142D01*
X285661723Y-84907142D01*
D10*
D11*
X286404580Y-135464285D02*
X286342676Y-135526190D01*
X286156961Y-135588095D01*
X286033152Y-135588095D01*
X285847438Y-135526190D01*
X285723628Y-135402380D01*
X285661723Y-135278571D01*
X285599819Y-135030952D01*
X285599819Y-134845238D01*
X285661723Y-134597619D01*
X285723628Y-134473809D01*
X285847438Y-134350000D01*
X286033152Y-134288095D01*
X286156961Y-134288095D01*
X286342676Y-134350000D01*
X286404580Y-134411904D01*
D10*
D11*
X285661723Y-185588095D02*
X285661723Y-184288095D01*
X285971247Y-184288095D01*
X286156961Y-184350000D01*
X286280771Y-184473809D01*
X286342676Y-184597619D01*
X286404580Y-184845238D01*
X286404580Y-185030952D01*
X286342676Y-185278571D01*
X286280771Y-185402380D01*
X286156961Y-185526190D01*
X285971247Y-185588095D01*
X285661723Y-185588095D01*
D10*
D11*
X200434342Y-193785771D02*
X200434342Y-192285771D01*
X200791485Y-192285771D01*
X201005771Y-192357200D01*
X201148628Y-192500057D01*
X201220057Y-192642914D01*
X201291485Y-192928628D01*
X201291485Y-193142914D01*
X201220057Y-193428628D01*
X201148628Y-193571485D01*
X201005771Y-193714342D01*
X200791485Y-193785771D01*
X200434342Y-193785771D01*
X202577200Y-193785771D02*
X202577200Y-193000057D01*
X202505771Y-192857200D01*
X202362914Y-192785771D01*
X202077200Y-192785771D01*
X201934342Y-192857200D01*
X202577200Y-193714342D02*
X202434342Y-193785771D01*
X202077200Y-193785771D01*
X201934342Y-193714342D01*
X201862914Y-193571485D01*
X201862914Y-193428628D01*
X201934342Y-193285771D01*
X202077200Y-193214342D01*
X202434342Y-193214342D01*
X202577200Y-193142914D01*
X203077200Y-192785771D02*
X203648628Y-192785771D01*
X203291485Y-192285771D02*
X203291485Y-193571485D01*
X203362914Y-193714342D01*
X203505771Y-193785771D01*
X203648628Y-193785771D01*
X204720057Y-193714342D02*
X204577200Y-193785771D01*
X204291485Y-193785771D01*
X204148628Y-193714342D01*
X204077200Y-193571485D01*
X204077200Y-193000057D01*
X204148628Y-192857200D01*
X204291485Y-192785771D01*
X204577200Y-192785771D01*
X204720057Y-192857200D01*
X204791485Y-193000057D01*
X204791485Y-193142914D01*
X204077200Y-193285771D01*
X205434342Y-193642914D02*
X205505771Y-193714342D01*
X205434342Y-193785771D01*
X205362914Y-193714342D01*
X205434342Y-193642914D01*
X205434342Y-193785771D01*
X205434342Y-192857200D02*
X205505771Y-192928628D01*
X205434342Y-193000057D01*
X205362914Y-192928628D01*
X205434342Y-192857200D01*
X205434342Y-193000057D01*
D10*
D11*
X177002200Y-194507200D02*
X285002200Y-194507200D01*
D10*
D11*
X178434342Y-196585771D02*
X178434342Y-195085771D01*
X179291485Y-196585771D02*
X178648628Y-195728628D01*
X179291485Y-195085771D02*
X178434342Y-195942914D01*
X179934342Y-196585771D02*
X179934342Y-195585771D01*
X179934342Y-195085771D02*
X179862914Y-195157200D01*
X179934342Y-195228628D01*
X180005771Y-195157200D01*
X179934342Y-195085771D01*
X179934342Y-195228628D01*
X181505771Y-196442914D02*
X181434342Y-196514342D01*
X181220057Y-196585771D01*
X181077200Y-196585771D01*
X180862914Y-196514342D01*
X180720057Y-196371485D01*
X180648628Y-196228628D01*
X180577200Y-195942914D01*
X180577200Y-195728628D01*
X180648628Y-195442914D01*
X180720057Y-195300057D01*
X180862914Y-195157200D01*
X181077200Y-195085771D01*
X181220057Y-195085771D01*
X181434342Y-195157200D01*
X181505771Y-195228628D01*
X182791485Y-196585771D02*
X182791485Y-195800057D01*
X182720057Y-195657200D01*
X182577200Y-195585771D01*
X182291485Y-195585771D01*
X182148628Y-195657200D01*
X182791485Y-196514342D02*
X182648628Y-196585771D01*
X182291485Y-196585771D01*
X182148628Y-196514342D01*
X182077200Y-196371485D01*
X182077200Y-196228628D01*
X182148628Y-196085771D01*
X182291485Y-196014342D01*
X182648628Y-196014342D01*
X182791485Y-195942914D01*
X184148628Y-196585771D02*
X184148628Y-195085771D01*
X184148628Y-196514342D02*
X184005771Y-196585771D01*
X183720057Y-196585771D01*
X183577200Y-196514342D01*
X183505771Y-196442914D01*
X183434342Y-196300057D01*
X183434342Y-195871485D01*
X183505771Y-195728628D01*
X183577200Y-195657200D01*
X183720057Y-195585771D01*
X184005771Y-195585771D01*
X184148628Y-195657200D01*
X186005771Y-195800057D02*
X186505771Y-195800057D01*
X186720057Y-196585771D02*
X186005771Y-196585771D01*
X186005771Y-195085771D01*
X186720057Y-195085771D01*
X187362914Y-196442914D02*
X187434342Y-196514342D01*
X187362914Y-196585771D01*
X187291485Y-196514342D01*
X187362914Y-196442914D01*
X187362914Y-196585771D01*
X188077200Y-196585771D02*
X188077200Y-195085771D01*
X188434342Y-195085771D01*
X188648628Y-195157200D01*
X188791485Y-195300057D01*
X188862914Y-195442914D01*
X188934342Y-195728628D01*
X188934342Y-195942914D01*
X188862914Y-196228628D01*
X188791485Y-196371485D01*
X188648628Y-196514342D01*
X188434342Y-196585771D01*
X188077200Y-196585771D01*
X189577200Y-196442914D02*
X189648628Y-196514342D01*
X189577200Y-196585771D01*
X189505771Y-196514342D01*
X189577200Y-196442914D01*
X189577200Y-196585771D01*
X190220057Y-196157200D02*
X190934342Y-196157200D01*
X190077200Y-196585771D02*
X190577200Y-195085771D01*
X191077200Y-196585771D01*
X191577200Y-196442914D02*
X191648628Y-196514342D01*
X191577200Y-196585771D01*
X191505771Y-196514342D01*
X191577200Y-196442914D01*
X191577200Y-196585771D01*
X194577200Y-196585771D02*
X194577200Y-195085771D01*
X194720057Y-196014342D02*
X195148628Y-196585771D01*
X195148628Y-195585771D02*
X194577200Y-196157200D01*
X195791485Y-196585771D02*
X195791485Y-195585771D01*
X195791485Y-195085771D02*
X195720057Y-195157200D01*
X195791485Y-195228628D01*
X195862914Y-195157200D01*
X195791485Y-195085771D01*
X195791485Y-195228628D01*
X197148628Y-196514342D02*
X197005771Y-196585771D01*
X196720057Y-196585771D01*
X196577200Y-196514342D01*
X196505771Y-196442914D01*
X196434342Y-196300057D01*
X196434342Y-195871485D01*
X196505771Y-195728628D01*
X196577200Y-195657200D01*
X196720057Y-195585771D01*
X197005771Y-195585771D01*
X197148628Y-195657200D01*
X198434342Y-196585771D02*
X198434342Y-195800057D01*
X198362914Y-195657200D01*
X198220057Y-195585771D01*
X197934342Y-195585771D01*
X197791485Y-195657200D01*
X198434342Y-196514342D02*
X198291485Y-196585771D01*
X197934342Y-196585771D01*
X197791485Y-196514342D01*
X197720057Y-196371485D01*
X197720057Y-196228628D01*
X197791485Y-196085771D01*
X197934342Y-196014342D01*
X198291485Y-196014342D01*
X198434342Y-195942914D01*
X199791485Y-196585771D02*
X199791485Y-195085771D01*
X199791485Y-196514342D02*
X199648628Y-196585771D01*
X199362914Y-196585771D01*
X199220057Y-196514342D01*
X199148628Y-196442914D01*
X199077200Y-196300057D01*
X199077200Y-195871485D01*
X199148628Y-195728628D01*
X199220057Y-195657200D01*
X199362914Y-195585771D01*
X199648628Y-195585771D01*
X199791485Y-195657200D01*
X202362914Y-195085771D02*
X201648628Y-195085771D01*
X201577200Y-195800057D01*
X201648628Y-195728628D01*
X201791485Y-195657200D01*
X202148628Y-195657200D01*
X202291485Y-195728628D01*
X202362914Y-195800057D01*
X202434342Y-195942914D01*
X202434342Y-196300057D01*
X202362914Y-196442914D01*
X202291485Y-196514342D01*
X202148628Y-196585771D01*
X201791485Y-196585771D01*
X201648628Y-196514342D01*
X201577200Y-196442914D01*
X203077200Y-196442914D02*
X203148628Y-196514342D01*
X203077200Y-196585771D01*
X203005771Y-196514342D01*
X203077200Y-196442914D01*
X203077200Y-196585771D01*
X204577200Y-196585771D02*
X203720057Y-196585771D01*
X204148628Y-196585771D02*
X204148628Y-195085771D01*
X204005771Y-195300057D01*
X203862914Y-195442914D01*
X203720057Y-195514342D01*
X205220057Y-196442914D02*
X205291485Y-196514342D01*
X205220057Y-196585771D01*
X205148628Y-196514342D01*
X205220057Y-196442914D01*
X205220057Y-196585771D01*
X206648628Y-195085771D02*
X205934342Y-195085771D01*
X205862914Y-195800057D01*
X205934342Y-195728628D01*
X206077200Y-195657200D01*
X206434342Y-195657200D01*
X206577200Y-195728628D01*
X206648628Y-195800057D01*
X206720057Y-195942914D01*
X206720057Y-196300057D01*
X206648628Y-196442914D01*
X206577200Y-196514342D01*
X206434342Y-196585771D01*
X206077200Y-196585771D01*
X205934342Y-196514342D01*
X205862914Y-196442914D01*
X207362914Y-196014342D02*
X208505771Y-196014342D01*
X207934342Y-196585771D02*
X207934342Y-195442914D01*
X209862914Y-196585771D02*
X209862914Y-195085771D01*
X209862914Y-196514342D02*
X209720057Y-196585771D01*
X209434342Y-196585771D01*
X209291485Y-196514342D01*
X209220057Y-196442914D01*
X209148628Y-196300057D01*
X209148628Y-195871485D01*
X209220057Y-195728628D01*
X209291485Y-195657200D01*
X209434342Y-195585771D01*
X209720057Y-195585771D01*
X209862914Y-195657200D01*
X210362914Y-195585771D02*
X210934342Y-195585771D01*
X210577200Y-196585771D02*
X210577200Y-195300057D01*
X210648628Y-195157200D01*
X210791485Y-195085771D01*
X210934342Y-195085771D01*
X211362914Y-196514342D02*
X211505771Y-196585771D01*
X211791485Y-196585771D01*
X211934342Y-196514342D01*
X212005771Y-196371485D01*
X212005771Y-196300057D01*
X211934342Y-196157200D01*
X211791485Y-196085771D01*
X211577200Y-196085771D01*
X211434342Y-196014342D01*
X211362914Y-195871485D01*
X211362914Y-195800057D01*
X211434342Y-195657200D01*
X211577200Y-195585771D01*
X211791485Y-195585771D01*
X211934342Y-195657200D01*
X213291485Y-195585771D02*
X213291485Y-196800057D01*
X213220057Y-196942914D01*
X213148628Y-197014342D01*
X213005771Y-197085771D01*
X212791485Y-197085771D01*
X212648628Y-197014342D01*
X213291485Y-196514342D02*
X213148628Y-196585771D01*
X212862914Y-196585771D01*
X212720057Y-196514342D01*
X212648628Y-196442914D01*
X212577200Y-196300057D01*
X212577200Y-195871485D01*
X212648628Y-195728628D01*
X212720057Y-195657200D01*
X212862914Y-195585771D01*
X213148628Y-195585771D01*
X213291485Y-195657200D01*
X214791485Y-196585771D02*
X213934342Y-196585771D01*
X214362914Y-196585771D02*
X214362914Y-195085771D01*
X214220057Y-195300057D01*
X214077200Y-195442914D01*
X213934342Y-195514342D01*
X215434342Y-196014342D02*
X216577200Y-196014342D01*
X217220057Y-195228628D02*
X217291485Y-195157200D01*
X217434342Y-195085771D01*
X217791485Y-195085771D01*
X217934342Y-195157200D01*
X218005771Y-195228628D01*
X218077200Y-195371485D01*
X218077200Y-195514342D01*
X218005771Y-195728628D01*
X217148628Y-196585771D01*
X218077200Y-196585771D01*
X218720057Y-196585771D02*
X218720057Y-195085771D01*
X218720057Y-195657200D02*
X218862914Y-195585771D01*
X219148628Y-195585771D01*
X219291485Y-195657200D01*
X219362914Y-195728628D01*
X219434342Y-195871485D01*
X219434342Y-196300057D01*
X219362914Y-196442914D01*
X219291485Y-196514342D01*
X219148628Y-196585771D01*
X218862914Y-196585771D01*
X218720057Y-196514342D01*
X220720057Y-195585771D02*
X220720057Y-196585771D01*
X220077200Y-195585771D02*
X220077200Y-196371485D01*
X220148628Y-196514342D01*
X220291485Y-196585771D01*
X220505771Y-196585771D01*
X220648628Y-196514342D01*
X220720057Y-196442914D01*
X221434342Y-196585771D02*
X221434342Y-195585771D01*
X221434342Y-195085771D02*
X221362914Y-195157200D01*
X221434342Y-195228628D01*
X221505771Y-195157200D01*
X221434342Y-195085771D01*
X221434342Y-195228628D01*
X222362914Y-196585771D02*
X222220057Y-196514342D01*
X222148628Y-196371485D01*
X222148628Y-195085771D01*
X223577200Y-196585771D02*
X223577200Y-195085771D01*
X223577200Y-196514342D02*
X223434342Y-196585771D01*
X223148628Y-196585771D01*
X223005771Y-196514342D01*
X222934342Y-196442914D01*
X222862914Y-196300057D01*
X222862914Y-195871485D01*
X222934342Y-195728628D01*
X223005771Y-195657200D01*
X223148628Y-195585771D01*
X223434342Y-195585771D01*
X223577200Y-195657200D01*
X224220057Y-195228628D02*
X224291485Y-195157200D01*
X224434342Y-195085771D01*
X224791485Y-195085771D01*
X224934342Y-195157200D01*
X225005771Y-195228628D01*
X225077200Y-195371485D01*
X225077200Y-195514342D01*
X225005771Y-195728628D01*
X224148628Y-196585771D01*
X225077200Y-196585771D01*
D10*
D11*
X177002200Y-191507200D02*
X285002200Y-191507200D01*
D10*
D12*
X264411485Y-193785771D02*
X263911485Y-193071485D01*
X263554342Y-193785771D02*
X263554342Y-192285771D01*
X264125771Y-192285771D01*
X264268628Y-192357200D01*
X264340057Y-192428628D01*
X264411485Y-192571485D01*
X264411485Y-192785771D01*
X264340057Y-192928628D01*
X264268628Y-193000057D01*
X264125771Y-193071485D01*
X263554342Y-193071485D01*
X265625771Y-193714342D02*
X265482914Y-193785771D01*
X265197200Y-193785771D01*
X265054342Y-193714342D01*
X264982914Y-193571485D01*
X264982914Y-193000057D01*
X265054342Y-192857200D01*
X265197200Y-192785771D01*
X265482914Y-192785771D01*
X265625771Y-192857200D01*
X265697200Y-193000057D01*
X265697200Y-193142914D01*
X264982914Y-193285771D01*
X266197200Y-192785771D02*
X266554342Y-193785771D01*
X266911485Y-192785771D01*
X267482914Y-193642914D02*
X267554342Y-193714342D01*
X267482914Y-193785771D01*
X267411485Y-193714342D01*
X267482914Y-193642914D01*
X267482914Y-193785771D01*
X267482914Y-192857200D02*
X267554342Y-192928628D01*
X267482914Y-193000057D01*
X267411485Y-192928628D01*
X267482914Y-192857200D01*
X267482914Y-193000057D01*
D10*
D11*
X178362914Y-193714342D02*
X178577200Y-193785771D01*
X178934342Y-193785771D01*
X179077200Y-193714342D01*
X179148628Y-193642914D01*
X179220057Y-193500057D01*
X179220057Y-193357200D01*
X179148628Y-193214342D01*
X179077200Y-193142914D01*
X178934342Y-193071485D01*
X178648628Y-193000057D01*
X178505771Y-192928628D01*
X178434342Y-192857200D01*
X178362914Y-192714342D01*
X178362914Y-192571485D01*
X178434342Y-192428628D01*
X178505771Y-192357200D01*
X178648628Y-192285771D01*
X179005771Y-192285771D01*
X179220057Y-192357200D01*
X179862914Y-193785771D02*
X179862914Y-192785771D01*
X179862914Y-192285771D02*
X179791485Y-192357200D01*
X179862914Y-192428628D01*
X179934342Y-192357200D01*
X179862914Y-192285771D01*
X179862914Y-192428628D01*
X180434342Y-192785771D02*
X181220057Y-192785771D01*
X180434342Y-193785771D01*
X181220057Y-193785771D01*
X182362914Y-193714342D02*
X182220057Y-193785771D01*
X181934342Y-193785771D01*
X181791485Y-193714342D01*
X181720057Y-193571485D01*
X181720057Y-193000057D01*
X181791485Y-192857200D01*
X181934342Y-192785771D01*
X182220057Y-192785771D01*
X182362914Y-192857200D01*
X182434342Y-193000057D01*
X182434342Y-193142914D01*
X181720057Y-193285771D01*
X183077200Y-193642914D02*
X183148628Y-193714342D01*
X183077200Y-193785771D01*
X183005771Y-193714342D01*
X183077200Y-193642914D01*
X183077200Y-193785771D01*
X183077200Y-192857200D02*
X183148628Y-192928628D01*
X183077200Y-193000057D01*
X183005771Y-192928628D01*
X183077200Y-192857200D01*
X183077200Y-193000057D01*
X184862914Y-193357200D02*
X185577200Y-193357200D01*
X184720057Y-193785771D02*
X185220057Y-192285771D01*
X185720057Y-193785771D01*
X186862914Y-192785771D02*
X186862914Y-193785771D01*
X186505771Y-192214342D02*
X186148628Y-193285771D01*
X187077200Y-193285771D01*
D10*
D11*
X263434342Y-196585771D02*
X263434342Y-195085771D01*
X264791485Y-196585771D02*
X264791485Y-195085771D01*
X264791485Y-196514342D02*
X264648628Y-196585771D01*
X264362914Y-196585771D01*
X264220057Y-196514342D01*
X264148628Y-196442914D01*
X264077200Y-196300057D01*
X264077200Y-195871485D01*
X264148628Y-195728628D01*
X264220057Y-195657200D01*
X264362914Y-195585771D01*
X264648628Y-195585771D01*
X264791485Y-195657200D01*
X265505771Y-196442914D02*
X265577200Y-196514342D01*
X265505771Y-196585771D01*
X265434342Y-196514342D01*
X265505771Y-196442914D01*
X265505771Y-196585771D01*
X265505771Y-195657200D02*
X265577200Y-195728628D01*
X265505771Y-195800057D01*
X265434342Y-195728628D01*
X265505771Y-195657200D01*
X265505771Y-195800057D01*
X268148628Y-196585771D02*
X267291485Y-196585771D01*
X267720057Y-196585771D02*
X267720057Y-195085771D01*
X267577200Y-195300057D01*
X267434342Y-195442914D01*
X267291485Y-195514342D01*
X269862914Y-195014342D02*
X268577200Y-196942914D01*
X271148628Y-196585771D02*
X270291485Y-196585771D01*
X270720057Y-196585771D02*
X270720057Y-195085771D01*
X270577200Y-195300057D01*
X270434342Y-195442914D01*
X270291485Y-195514342D01*
D10*
D11*
X177002200Y-187507200D02*
X285002200Y-187507200D01*
D10*
D13*
X178714580Y-188211961D02*
X179857438Y-188211961D01*
X179036009Y-190211961D02*
X179286009Y-188211961D01*
X180274104Y-190211961D02*
X180440771Y-188878628D01*
X180524104Y-188211961D02*
X180416961Y-188307200D01*
X180500295Y-188402438D01*
X180607438Y-188307200D01*
X180524104Y-188211961D01*
X180500295Y-188402438D01*
X181107438Y-188878628D02*
X181869342Y-188878628D01*
X181476485Y-188211961D02*
X181262200Y-189926247D01*
X181333628Y-190116723D01*
X181512200Y-190211961D01*
X181702676Y-190211961D01*
X182655057Y-190211961D02*
X182476485Y-190116723D01*
X182405057Y-189926247D01*
X182619342Y-188211961D01*
X184190771Y-190116723D02*
X183988390Y-190211961D01*
X183607438Y-190211961D01*
X183428866Y-190116723D01*
X183357438Y-189926247D01*
X183452676Y-189164342D01*
X183571723Y-188973866D01*
X183774104Y-188878628D01*
X184155057Y-188878628D01*
X184333628Y-188973866D01*
X184405057Y-189164342D01*
X184381247Y-189354819D01*
X183405057Y-189545295D01*
X185155057Y-190021485D02*
X185238390Y-190116723D01*
X185131247Y-190211961D01*
X185047914Y-190116723D01*
X185155057Y-190021485D01*
X185131247Y-190211961D01*
X185286009Y-188973866D02*
X185369342Y-189069104D01*
X185262200Y-189164342D01*
X185178866Y-189069104D01*
X185286009Y-188973866D01*
X185262200Y-189164342D01*
D10*
D11*
X178934342Y-185600057D02*
X178434342Y-185600057D01*
X178434342Y-186385771D02*
X178434342Y-184885771D01*
X179148628Y-184885771D01*
X179720057Y-186385771D02*
X179720057Y-185385771D01*
X179720057Y-184885771D02*
X179648628Y-184957200D01*
X179720057Y-185028628D01*
X179791485Y-184957200D01*
X179720057Y-184885771D01*
X179720057Y-185028628D01*
X180648628Y-186385771D02*
X180505771Y-186314342D01*
X180434342Y-186171485D01*
X180434342Y-184885771D01*
X181791485Y-186314342D02*
X181648628Y-186385771D01*
X181362914Y-186385771D01*
X181220057Y-186314342D01*
X181148628Y-186171485D01*
X181148628Y-185600057D01*
X181220057Y-185457200D01*
X181362914Y-185385771D01*
X181648628Y-185385771D01*
X181791485Y-185457200D01*
X181862914Y-185600057D01*
X181862914Y-185742914D01*
X181148628Y-185885771D01*
X182505771Y-186242914D02*
X182577200Y-186314342D01*
X182505771Y-186385771D01*
X182434342Y-186314342D01*
X182505771Y-186242914D01*
X182505771Y-186385771D01*
X182505771Y-185457200D02*
X182577200Y-185528628D01*
X182505771Y-185600057D01*
X182434342Y-185528628D01*
X182505771Y-185457200D01*
X182505771Y-185600057D01*
X184362914Y-186385771D02*
X184362914Y-184885771D01*
X184720057Y-184885771D01*
X184934342Y-184957200D01*
X185077200Y-185100057D01*
X185148628Y-185242914D01*
X185220057Y-185528628D01*
X185220057Y-185742914D01*
X185148628Y-186028628D01*
X185077200Y-186171485D01*
X184934342Y-186314342D01*
X184720057Y-186385771D01*
X184362914Y-186385771D01*
X186077200Y-186385771D02*
X185934342Y-186314342D01*
X185862914Y-186242914D01*
X185791485Y-186100057D01*
X185791485Y-185671485D01*
X185862914Y-185528628D01*
X185934342Y-185457200D01*
X186077200Y-185385771D01*
X186291485Y-185385771D01*
X186434342Y-185457200D01*
X186505771Y-185528628D01*
X186577200Y-185671485D01*
X186577200Y-186100057D01*
X186505771Y-186242914D01*
X186434342Y-186314342D01*
X186291485Y-186385771D01*
X186077200Y-186385771D01*
X187220057Y-186385771D02*
X187220057Y-185385771D01*
X187220057Y-185528628D02*
X187291485Y-185457200D01*
X187434342Y-185385771D01*
X187648628Y-185385771D01*
X187791485Y-185457200D01*
X187862914Y-185600057D01*
X187862914Y-186385771D01*
X187862914Y-185600057D02*
X187934342Y-185457200D01*
X188077200Y-185385771D01*
X188291485Y-185385771D01*
X188434342Y-185457200D01*
X188505771Y-185600057D01*
X188505771Y-186385771D01*
X189220057Y-186385771D02*
X189220057Y-184885771D01*
X189791485Y-184885771D01*
X189934342Y-184957200D01*
X190005771Y-185028628D01*
X190077200Y-185171485D01*
X190077200Y-185385771D01*
X190005771Y-185528628D01*
X189934342Y-185600057D01*
X189791485Y-185671485D01*
X189220057Y-185671485D01*
X190720057Y-186385771D02*
X190720057Y-185385771D01*
X190720057Y-184885771D02*
X190648628Y-184957200D01*
X190720057Y-185028628D01*
X190791485Y-184957200D01*
X190720057Y-184885771D01*
X190720057Y-185028628D01*
X191291485Y-184885771D02*
X191648628Y-186385771D01*
X191934342Y-185314342D01*
X192220057Y-186385771D01*
X192577200Y-184885771D01*
X193720057Y-186314342D02*
X193577200Y-186385771D01*
X193291485Y-186385771D01*
X193148628Y-186314342D01*
X193077200Y-186171485D01*
X193077200Y-185600057D01*
X193148628Y-185457200D01*
X193291485Y-185385771D01*
X193577200Y-185385771D01*
X193720057Y-185457200D01*
X193791485Y-185600057D01*
X193791485Y-185742914D01*
X193077200Y-185885771D01*
X194434342Y-186385771D02*
X194434342Y-184885771D01*
X194434342Y-185457200D02*
X194577200Y-185385771D01*
X194862914Y-185385771D01*
X195005771Y-185457200D01*
X195077200Y-185528628D01*
X195148628Y-185671485D01*
X195148628Y-186100057D01*
X195077200Y-186242914D01*
X195005771Y-186314342D01*
X194862914Y-186385771D01*
X194577200Y-186385771D01*
X194434342Y-186314342D01*
X195791485Y-186242914D02*
X195862914Y-186314342D01*
X195791485Y-186385771D01*
X195720057Y-186314342D01*
X195791485Y-186242914D01*
X195791485Y-186385771D01*
X196505771Y-186385771D02*
X196505771Y-184885771D01*
X196648628Y-185814342D02*
X197077200Y-186385771D01*
X197077200Y-185385771D02*
X196505771Y-185957200D01*
X197720057Y-186385771D02*
X197720057Y-185385771D01*
X197720057Y-184885771D02*
X197648628Y-184957200D01*
X197720057Y-185028628D01*
X197791485Y-184957200D01*
X197720057Y-184885771D01*
X197720057Y-185028628D01*
X199077200Y-186314342D02*
X198934342Y-186385771D01*
X198648628Y-186385771D01*
X198505771Y-186314342D01*
X198434342Y-186242914D01*
X198362914Y-186100057D01*
X198362914Y-185671485D01*
X198434342Y-185528628D01*
X198505771Y-185457200D01*
X198648628Y-185385771D01*
X198934342Y-185385771D01*
X199077200Y-185457200D01*
X200362914Y-186385771D02*
X200362914Y-185600057D01*
X200291485Y-185457200D01*
X200148628Y-185385771D01*
X199862914Y-185385771D01*
X199720057Y-185457200D01*
X200362914Y-186314342D02*
X200220057Y-186385771D01*
X199862914Y-186385771D01*
X199720057Y-186314342D01*
X199648628Y-186171485D01*
X199648628Y-186028628D01*
X199720057Y-185885771D01*
X199862914Y-185814342D01*
X200220057Y-185814342D01*
X200362914Y-185742914D01*
X201720057Y-186385771D02*
X201720057Y-184885771D01*
X201720057Y-186314342D02*
X201577200Y-186385771D01*
X201291485Y-186385771D01*
X201148628Y-186314342D01*
X201077200Y-186242914D01*
X201005771Y-186100057D01*
X201005771Y-185671485D01*
X201077200Y-185528628D01*
X201148628Y-185457200D01*
X201291485Y-185385771D01*
X201577200Y-185385771D01*
X201720057Y-185457200D01*
X202077200Y-186528628D02*
X203220057Y-186528628D01*
X203577200Y-185385771D02*
X203577200Y-186885771D01*
X203577200Y-185457200D02*
X203720057Y-185385771D01*
X204005771Y-185385771D01*
X204148628Y-185457200D01*
X204220057Y-185528628D01*
X204291485Y-185671485D01*
X204291485Y-186100057D01*
X204220057Y-186242914D01*
X204148628Y-186314342D01*
X204005771Y-186385771D01*
X203720057Y-186385771D01*
X203577200Y-186314342D01*
X205577200Y-186314342D02*
X205434342Y-186385771D01*
X205148628Y-186385771D01*
X205005771Y-186314342D01*
X204934342Y-186242914D01*
X204862914Y-186100057D01*
X204862914Y-185671485D01*
X204934342Y-185528628D01*
X205005771Y-185457200D01*
X205148628Y-185385771D01*
X205434342Y-185385771D01*
X205577200Y-185457200D01*
X206220057Y-186385771D02*
X206220057Y-184885771D01*
X206220057Y-185457200D02*
X206362914Y-185385771D01*
X206648628Y-185385771D01*
X206791485Y-185457200D01*
X206862914Y-185528628D01*
X206934342Y-185671485D01*
X206934342Y-186100057D01*
X206862914Y-186242914D01*
X206791485Y-186314342D01*
X206648628Y-186385771D01*
X206362914Y-186385771D01*
X206220057Y-186314342D01*
D10*
D11*
X177002200Y-181507200D02*
X285002200Y-181507200D01*
D10*
D11*
X178362914Y-183614342D02*
X178577200Y-183685771D01*
X178934342Y-183685771D01*
X179077200Y-183614342D01*
X179148628Y-183542914D01*
X179220057Y-183400057D01*
X179220057Y-183257200D01*
X179148628Y-183114342D01*
X179077200Y-183042914D01*
X178934342Y-182971485D01*
X178648628Y-182900057D01*
X178505771Y-182828628D01*
X178434342Y-182757200D01*
X178362914Y-182614342D01*
X178362914Y-182471485D01*
X178434342Y-182328628D01*
X178505771Y-182257200D01*
X178648628Y-182185771D01*
X179005771Y-182185771D01*
X179220057Y-182257200D01*
X179862914Y-183685771D02*
X179862914Y-182185771D01*
X180505771Y-183685771D02*
X180505771Y-182900057D01*
X180434342Y-182757200D01*
X180291485Y-182685771D01*
X180077200Y-182685771D01*
X179934342Y-182757200D01*
X179862914Y-182828628D01*
X181791485Y-183614342D02*
X181648628Y-183685771D01*
X181362914Y-183685771D01*
X181220057Y-183614342D01*
X181148628Y-183471485D01*
X181148628Y-182900057D01*
X181220057Y-182757200D01*
X181362914Y-182685771D01*
X181648628Y-182685771D01*
X181791485Y-182757200D01*
X181862914Y-182900057D01*
X181862914Y-183042914D01*
X181148628Y-183185771D01*
X183077200Y-183614342D02*
X182934342Y-183685771D01*
X182648628Y-183685771D01*
X182505771Y-183614342D01*
X182434342Y-183471485D01*
X182434342Y-182900057D01*
X182505771Y-182757200D01*
X182648628Y-182685771D01*
X182934342Y-182685771D01*
X183077200Y-182757200D01*
X183148628Y-182900057D01*
X183148628Y-183042914D01*
X182434342Y-183185771D01*
X183577200Y-182685771D02*
X184148628Y-182685771D01*
X183791485Y-182185771D02*
X183791485Y-183471485D01*
X183862914Y-183614342D01*
X184005771Y-183685771D01*
X184148628Y-183685771D01*
X184648628Y-183542914D02*
X184720057Y-183614342D01*
X184648628Y-183685771D01*
X184577200Y-183614342D01*
X184648628Y-183542914D01*
X184648628Y-183685771D01*
X184648628Y-182757200D02*
X184720057Y-182828628D01*
X184648628Y-182900057D01*
X184577200Y-182828628D01*
X184648628Y-182757200D01*
X184648628Y-182900057D01*
D10*
D11*
X197002200Y-191507200D02*
X197002200Y-194507200D01*
D10*
D11*
X261002200Y-191507200D02*
X261002200Y-198007200D01*
D14*
X126840000Y-71540000D03*
X126840000Y-69000000D03*
X129380000Y-71540000D03*
X129380000Y-69000000D03*
X131920000Y-71540000D03*
X131920000Y-69000000D03*
X134460000Y-71540000D03*
X134460000Y-69000000D03*
X137000000Y-71540000D03*
D15*
X137000000Y-69000000D03*
D16*
X96125000Y-101000000D03*
D17*
X105275000Y-104400000D03*
X105275000Y-102700000D03*
X105275000Y-101000000D03*
X105275000Y-99300000D03*
X105275000Y-97600000D03*
D18*
X103000000Y-72000000D03*
D19*
X108000000Y-72000000D03*
D18*
X93000000Y-72000000D03*
D19*
X98000000Y-72000000D03*
D20*
X100300000Y-93500000D03*
X104700000Y-93500000D03*
D14*
X100000000Y-90000000D03*
X100000000Y-87460000D03*
X102540000Y-90000000D03*
X102540000Y-87460000D03*
X105080000Y-90000000D03*
X105080000Y-87460000D03*
X107620000Y-90000000D03*
X107620000Y-87460000D03*
X110160000Y-90000000D03*
X110160000Y-87460000D03*
X112700000Y-90000000D03*
X112700000Y-87460000D03*
X115240000Y-90000000D03*
X115240000Y-87460000D03*
X117780000Y-90000000D03*
X117780000Y-87460000D03*
X120320000Y-90000000D03*
X120320000Y-87460000D03*
X122860000Y-90000000D03*
X122860000Y-87460000D03*
X125400000Y-90000000D03*
X125400000Y-87460000D03*
X127940000Y-90000000D03*
X127940000Y-87460000D03*
X130480000Y-90000000D03*
X130480000Y-87460000D03*
X133020000Y-90000000D03*
X133020000Y-87460000D03*
X135560000Y-90000000D03*
X135560000Y-87460000D03*
X138100000Y-90000000D03*
X138100000Y-87460000D03*
X140640000Y-90000000D03*
X140640000Y-87460000D03*
X143180000Y-90000000D03*
X143180000Y-87460000D03*
X145720000Y-90000000D03*
X145720000Y-87460000D03*
X148260000Y-90000000D03*
D15*
X148260000Y-87460000D03*
D10*
G36*
X100999504Y-117488704D02*
G01*
X101023773Y-117492304D01*
X101047571Y-117498265D01*
X101070671Y-117506530D01*
X101092849Y-117517020D01*
X101113893Y-117529633D01*
X101133598Y-117544247D01*
X101151777Y-117560723D01*
X101168253Y-117578902D01*
X101182867Y-117598607D01*
X101195480Y-117619651D01*
X101205970Y-117641829D01*
X101214235Y-117664929D01*
X101220196Y-117688727D01*
X101223796Y-117712996D01*
X101225000Y-117737500D01*
X101225000Y-118412500D01*
X101223796Y-118437004D01*
X101220196Y-118461273D01*
X101214235Y-118485071D01*
X101205970Y-118508171D01*
X101195480Y-118530349D01*
X101182867Y-118551393D01*
X101168253Y-118571098D01*
X101151777Y-118589277D01*
X101133598Y-118605753D01*
X101113893Y-118620367D01*
X101092849Y-118632980D01*
X101070671Y-118643470D01*
X101047571Y-118651735D01*
X101023773Y-118657696D01*
X100999504Y-118661296D01*
X100975000Y-118662500D01*
X100025000Y-118662500D01*
X100000496Y-118661296D01*
X99976227Y-118657696D01*
X99952429Y-118651735D01*
X99929329Y-118643470D01*
X99907151Y-118632980D01*
X99886107Y-118620367D01*
X99866402Y-118605753D01*
X99848223Y-118589277D01*
X99831747Y-118571098D01*
X99817133Y-118551393D01*
X99804520Y-118530349D01*
X99794030Y-118508171D01*
X99785765Y-118485071D01*
X99779804Y-118461273D01*
X99776204Y-118437004D01*
X99775000Y-118412500D01*
X99775000Y-117737500D01*
X99776204Y-117712996D01*
X99779804Y-117688727D01*
X99785765Y-117664929D01*
X99794030Y-117641829D01*
X99804520Y-117619651D01*
X99817133Y-117598607D01*
X99831747Y-117578902D01*
X99848223Y-117560723D01*
X99866402Y-117544247D01*
X99886107Y-117529633D01*
X99907151Y-117517020D01*
X99929329Y-117506530D01*
X99952429Y-117498265D01*
X99976227Y-117492304D01*
X100000496Y-117488704D01*
X100025000Y-117487500D01*
X100975000Y-117487500D01*
X100999504Y-117488704D01*
G37*
G36*
X100999504Y-115413704D02*
G01*
X101023773Y-115417304D01*
X101047571Y-115423265D01*
X101070671Y-115431530D01*
X101092849Y-115442020D01*
X101113893Y-115454633D01*
X101133598Y-115469247D01*
X101151777Y-115485723D01*
X101168253Y-115503902D01*
X101182867Y-115523607D01*
X101195480Y-115544651D01*
X101205970Y-115566829D01*
X101214235Y-115589929D01*
X101220196Y-115613727D01*
X101223796Y-115637996D01*
X101225000Y-115662500D01*
X101225000Y-116337500D01*
X101223796Y-116362004D01*
X101220196Y-116386273D01*
X101214235Y-116410071D01*
X101205970Y-116433171D01*
X101195480Y-116455349D01*
X101182867Y-116476393D01*
X101168253Y-116496098D01*
X101151777Y-116514277D01*
X101133598Y-116530753D01*
X101113893Y-116545367D01*
X101092849Y-116557980D01*
X101070671Y-116568470D01*
X101047571Y-116576735D01*
X101023773Y-116582696D01*
X100999504Y-116586296D01*
X100975000Y-116587500D01*
X100025000Y-116587500D01*
X100000496Y-116586296D01*
X99976227Y-116582696D01*
X99952429Y-116576735D01*
X99929329Y-116568470D01*
X99907151Y-116557980D01*
X99886107Y-116545367D01*
X99866402Y-116530753D01*
X99848223Y-116514277D01*
X99831747Y-116496098D01*
X99817133Y-116476393D01*
X99804520Y-116455349D01*
X99794030Y-116433171D01*
X99785765Y-116410071D01*
X99779804Y-116386273D01*
X99776204Y-116362004D01*
X99775000Y-116337500D01*
X99775000Y-115662500D01*
X99776204Y-115637996D01*
X99779804Y-115613727D01*
X99785765Y-115589929D01*
X99794030Y-115566829D01*
X99804520Y-115544651D01*
X99817133Y-115523607D01*
X99831747Y-115503902D01*
X99848223Y-115485723D01*
X99866402Y-115469247D01*
X99886107Y-115454633D01*
X99907151Y-115442020D01*
X99929329Y-115431530D01*
X99952429Y-115423265D01*
X99976227Y-115417304D01*
X100000496Y-115413704D01*
X100025000Y-115412500D01*
X100975000Y-115412500D01*
X100999504Y-115413704D01*
G37*
G36*
X105999504Y-117451204D02*
G01*
X106023773Y-117454804D01*
X106047571Y-117460765D01*
X106070671Y-117469030D01*
X106092849Y-117479520D01*
X106113893Y-117492133D01*
X106133598Y-117506747D01*
X106151777Y-117523223D01*
X106168253Y-117541402D01*
X106182867Y-117561107D01*
X106195480Y-117582151D01*
X106205970Y-117604329D01*
X106214235Y-117627429D01*
X106220196Y-117651227D01*
X106223796Y-117675496D01*
X106225000Y-117700000D01*
X106225000Y-118375000D01*
X106223796Y-118399504D01*
X106220196Y-118423773D01*
X106214235Y-118447571D01*
X106205970Y-118470671D01*
X106195480Y-118492849D01*
X106182867Y-118513893D01*
X106168253Y-118533598D01*
X106151777Y-118551777D01*
X106133598Y-118568253D01*
X106113893Y-118582867D01*
X106092849Y-118595480D01*
X106070671Y-118605970D01*
X106047571Y-118614235D01*
X106023773Y-118620196D01*
X105999504Y-118623796D01*
X105975000Y-118625000D01*
X105025000Y-118625000D01*
X105000496Y-118623796D01*
X104976227Y-118620196D01*
X104952429Y-118614235D01*
X104929329Y-118605970D01*
X104907151Y-118595480D01*
X104886107Y-118582867D01*
X104866402Y-118568253D01*
X104848223Y-118551777D01*
X104831747Y-118533598D01*
X104817133Y-118513893D01*
X104804520Y-118492849D01*
X104794030Y-118470671D01*
X104785765Y-118447571D01*
X104779804Y-118423773D01*
X104776204Y-118399504D01*
X104775000Y-118375000D01*
X104775000Y-117700000D01*
X104776204Y-117675496D01*
X104779804Y-117651227D01*
X104785765Y-117627429D01*
X104794030Y-117604329D01*
X104804520Y-117582151D01*
X104817133Y-117561107D01*
X104831747Y-117541402D01*
X104848223Y-117523223D01*
X104866402Y-117506747D01*
X104886107Y-117492133D01*
X104907151Y-117479520D01*
X104929329Y-117469030D01*
X104952429Y-117460765D01*
X104976227Y-117454804D01*
X105000496Y-117451204D01*
X105025000Y-117450000D01*
X105975000Y-117450000D01*
X105999504Y-117451204D01*
G37*
G36*
X105999504Y-115376204D02*
G01*
X106023773Y-115379804D01*
X106047571Y-115385765D01*
X106070671Y-115394030D01*
X106092849Y-115404520D01*
X106113893Y-115417133D01*
X106133598Y-115431747D01*
X106151777Y-115448223D01*
X106168253Y-115466402D01*
X106182867Y-115486107D01*
X106195480Y-115507151D01*
X106205970Y-115529329D01*
X106214235Y-115552429D01*
X106220196Y-115576227D01*
X106223796Y-115600496D01*
X106225000Y-115625000D01*
X106225000Y-116300000D01*
X106223796Y-116324504D01*
X106220196Y-116348773D01*
X106214235Y-116372571D01*
X106205970Y-116395671D01*
X106195480Y-116417849D01*
X106182867Y-116438893D01*
X106168253Y-116458598D01*
X106151777Y-116476777D01*
X106133598Y-116493253D01*
X106113893Y-116507867D01*
X106092849Y-116520480D01*
X106070671Y-116530970D01*
X106047571Y-116539235D01*
X106023773Y-116545196D01*
X105999504Y-116548796D01*
X105975000Y-116550000D01*
X105025000Y-116550000D01*
X105000496Y-116548796D01*
X104976227Y-116545196D01*
X104952429Y-116539235D01*
X104929329Y-116530970D01*
X104907151Y-116520480D01*
X104886107Y-116507867D01*
X104866402Y-116493253D01*
X104848223Y-116476777D01*
X104831747Y-116458598D01*
X104817133Y-116438893D01*
X104804520Y-116417849D01*
X104794030Y-116395671D01*
X104785765Y-116372571D01*
X104779804Y-116348773D01*
X104776204Y-116324504D01*
X104775000Y-116300000D01*
X104775000Y-115625000D01*
X104776204Y-115600496D01*
X104779804Y-115576227D01*
X104785765Y-115552429D01*
X104794030Y-115529329D01*
X104804520Y-115507151D01*
X104817133Y-115486107D01*
X104831747Y-115466402D01*
X104848223Y-115448223D01*
X104866402Y-115431747D01*
X104886107Y-115417133D01*
X104907151Y-115404520D01*
X104929329Y-115394030D01*
X104952429Y-115385765D01*
X104976227Y-115379804D01*
X105000496Y-115376204D01*
X105025000Y-115375000D01*
X105975000Y-115375000D01*
X105999504Y-115376204D01*
G37*
G36*
X110999504Y-117488704D02*
G01*
X111023773Y-117492304D01*
X111047571Y-117498265D01*
X111070671Y-117506530D01*
X111092849Y-117517020D01*
X111113893Y-117529633D01*
X111133598Y-117544247D01*
X111151777Y-117560723D01*
X111168253Y-117578902D01*
X111182867Y-117598607D01*
X111195480Y-117619651D01*
X111205970Y-117641829D01*
X111214235Y-117664929D01*
X111220196Y-117688727D01*
X111223796Y-117712996D01*
X111225000Y-117737500D01*
X111225000Y-118412500D01*
X111223796Y-118437004D01*
X111220196Y-118461273D01*
X111214235Y-118485071D01*
X111205970Y-118508171D01*
X111195480Y-118530349D01*
X111182867Y-118551393D01*
X111168253Y-118571098D01*
X111151777Y-118589277D01*
X111133598Y-118605753D01*
X111113893Y-118620367D01*
X111092849Y-118632980D01*
X111070671Y-118643470D01*
X111047571Y-118651735D01*
X111023773Y-118657696D01*
X110999504Y-118661296D01*
X110975000Y-118662500D01*
X110025000Y-118662500D01*
X110000496Y-118661296D01*
X109976227Y-118657696D01*
X109952429Y-118651735D01*
X109929329Y-118643470D01*
X109907151Y-118632980D01*
X109886107Y-118620367D01*
X109866402Y-118605753D01*
X109848223Y-118589277D01*
X109831747Y-118571098D01*
X109817133Y-118551393D01*
X109804520Y-118530349D01*
X109794030Y-118508171D01*
X109785765Y-118485071D01*
X109779804Y-118461273D01*
X109776204Y-118437004D01*
X109775000Y-118412500D01*
X109775000Y-117737500D01*
X109776204Y-117712996D01*
X109779804Y-117688727D01*
X109785765Y-117664929D01*
X109794030Y-117641829D01*
X109804520Y-117619651D01*
X109817133Y-117598607D01*
X109831747Y-117578902D01*
X109848223Y-117560723D01*
X109866402Y-117544247D01*
X109886107Y-117529633D01*
X109907151Y-117517020D01*
X109929329Y-117506530D01*
X109952429Y-117498265D01*
X109976227Y-117492304D01*
X110000496Y-117488704D01*
X110025000Y-117487500D01*
X110975000Y-117487500D01*
X110999504Y-117488704D01*
G37*
G36*
X110999504Y-115413704D02*
G01*
X111023773Y-115417304D01*
X111047571Y-115423265D01*
X111070671Y-115431530D01*
X111092849Y-115442020D01*
X111113893Y-115454633D01*
X111133598Y-115469247D01*
X111151777Y-115485723D01*
X111168253Y-115503902D01*
X111182867Y-115523607D01*
X111195480Y-115544651D01*
X111205970Y-115566829D01*
X111214235Y-115589929D01*
X111220196Y-115613727D01*
X111223796Y-115637996D01*
X111225000Y-115662500D01*
X111225000Y-116337500D01*
X111223796Y-116362004D01*
X111220196Y-116386273D01*
X111214235Y-116410071D01*
X111205970Y-116433171D01*
X111195480Y-116455349D01*
X111182867Y-116476393D01*
X111168253Y-116496098D01*
X111151777Y-116514277D01*
X111133598Y-116530753D01*
X111113893Y-116545367D01*
X111092849Y-116557980D01*
X111070671Y-116568470D01*
X111047571Y-116576735D01*
X111023773Y-116582696D01*
X110999504Y-116586296D01*
X110975000Y-116587500D01*
X110025000Y-116587500D01*
X110000496Y-116586296D01*
X109976227Y-116582696D01*
X109952429Y-116576735D01*
X109929329Y-116568470D01*
X109907151Y-116557980D01*
X109886107Y-116545367D01*
X109866402Y-116530753D01*
X109848223Y-116514277D01*
X109831747Y-116496098D01*
X109817133Y-116476393D01*
X109804520Y-116455349D01*
X109794030Y-116433171D01*
X109785765Y-116410071D01*
X109779804Y-116386273D01*
X109776204Y-116362004D01*
X109775000Y-116337500D01*
X109775000Y-115662500D01*
X109776204Y-115637996D01*
X109779804Y-115613727D01*
X109785765Y-115589929D01*
X109794030Y-115566829D01*
X109804520Y-115544651D01*
X109817133Y-115523607D01*
X109831747Y-115503902D01*
X109848223Y-115485723D01*
X109866402Y-115469247D01*
X109886107Y-115454633D01*
X109907151Y-115442020D01*
X109929329Y-115431530D01*
X109952429Y-115423265D01*
X109976227Y-115417304D01*
X110000496Y-115413704D01*
X110025000Y-115412500D01*
X110975000Y-115412500D01*
X110999504Y-115413704D01*
G37*
G36*
X115999504Y-117488704D02*
G01*
X116023773Y-117492304D01*
X116047571Y-117498265D01*
X116070671Y-117506530D01*
X116092849Y-117517020D01*
X116113893Y-117529633D01*
X116133598Y-117544247D01*
X116151777Y-117560723D01*
X116168253Y-117578902D01*
X116182867Y-117598607D01*
X116195480Y-117619651D01*
X116205970Y-117641829D01*
X116214235Y-117664929D01*
X116220196Y-117688727D01*
X116223796Y-117712996D01*
X116225000Y-117737500D01*
X116225000Y-118412500D01*
X116223796Y-118437004D01*
X116220196Y-118461273D01*
X116214235Y-118485071D01*
X116205970Y-118508171D01*
X116195480Y-118530349D01*
X116182867Y-118551393D01*
X116168253Y-118571098D01*
X116151777Y-118589277D01*
X116133598Y-118605753D01*
X116113893Y-118620367D01*
X116092849Y-118632980D01*
X116070671Y-118643470D01*
X116047571Y-118651735D01*
X116023773Y-118657696D01*
X115999504Y-118661296D01*
X115975000Y-118662500D01*
X115025000Y-118662500D01*
X115000496Y-118661296D01*
X114976227Y-118657696D01*
X114952429Y-118651735D01*
X114929329Y-118643470D01*
X114907151Y-118632980D01*
X114886107Y-118620367D01*
X114866402Y-118605753D01*
X114848223Y-118589277D01*
X114831747Y-118571098D01*
X114817133Y-118551393D01*
X114804520Y-118530349D01*
X114794030Y-118508171D01*
X114785765Y-118485071D01*
X114779804Y-118461273D01*
X114776204Y-118437004D01*
X114775000Y-118412500D01*
X114775000Y-117737500D01*
X114776204Y-117712996D01*
X114779804Y-117688727D01*
X114785765Y-117664929D01*
X114794030Y-117641829D01*
X114804520Y-117619651D01*
X114817133Y-117598607D01*
X114831747Y-117578902D01*
X114848223Y-117560723D01*
X114866402Y-117544247D01*
X114886107Y-117529633D01*
X114907151Y-117517020D01*
X114929329Y-117506530D01*
X114952429Y-117498265D01*
X114976227Y-117492304D01*
X115000496Y-117488704D01*
X115025000Y-117487500D01*
X115975000Y-117487500D01*
X115999504Y-117488704D01*
G37*
G36*
X115999504Y-115413704D02*
G01*
X116023773Y-115417304D01*
X116047571Y-115423265D01*
X116070671Y-115431530D01*
X116092849Y-115442020D01*
X116113893Y-115454633D01*
X116133598Y-115469247D01*
X116151777Y-115485723D01*
X116168253Y-115503902D01*
X116182867Y-115523607D01*
X116195480Y-115544651D01*
X116205970Y-115566829D01*
X116214235Y-115589929D01*
X116220196Y-115613727D01*
X116223796Y-115637996D01*
X116225000Y-115662500D01*
X116225000Y-116337500D01*
X116223796Y-116362004D01*
X116220196Y-116386273D01*
X116214235Y-116410071D01*
X116205970Y-116433171D01*
X116195480Y-116455349D01*
X116182867Y-116476393D01*
X116168253Y-116496098D01*
X116151777Y-116514277D01*
X116133598Y-116530753D01*
X116113893Y-116545367D01*
X116092849Y-116557980D01*
X116070671Y-116568470D01*
X116047571Y-116576735D01*
X116023773Y-116582696D01*
X115999504Y-116586296D01*
X115975000Y-116587500D01*
X115025000Y-116587500D01*
X115000496Y-116586296D01*
X114976227Y-116582696D01*
X114952429Y-116576735D01*
X114929329Y-116568470D01*
X114907151Y-116557980D01*
X114886107Y-116545367D01*
X114866402Y-116530753D01*
X114848223Y-116514277D01*
X114831747Y-116496098D01*
X114817133Y-116476393D01*
X114804520Y-116455349D01*
X114794030Y-116433171D01*
X114785765Y-116410071D01*
X114779804Y-116386273D01*
X114776204Y-116362004D01*
X114775000Y-116337500D01*
X114775000Y-115662500D01*
X114776204Y-115637996D01*
X114779804Y-115613727D01*
X114785765Y-115589929D01*
X114794030Y-115566829D01*
X114804520Y-115544651D01*
X114817133Y-115523607D01*
X114831747Y-115503902D01*
X114848223Y-115485723D01*
X114866402Y-115469247D01*
X114886107Y-115454633D01*
X114907151Y-115442020D01*
X114929329Y-115431530D01*
X114952429Y-115423265D01*
X114976227Y-115417304D01*
X115000496Y-115413704D01*
X115025000Y-115412500D01*
X115975000Y-115412500D01*
X115999504Y-115413704D01*
G37*
G36*
X120999504Y-117488704D02*
G01*
X121023773Y-117492304D01*
X121047571Y-117498265D01*
X121070671Y-117506530D01*
X121092849Y-117517020D01*
X121113893Y-117529633D01*
X121133598Y-117544247D01*
X121151777Y-117560723D01*
X121168253Y-117578902D01*
X121182867Y-117598607D01*
X121195480Y-117619651D01*
X121205970Y-117641829D01*
X121214235Y-117664929D01*
X121220196Y-117688727D01*
X121223796Y-117712996D01*
X121225000Y-117737500D01*
X121225000Y-118412500D01*
X121223796Y-118437004D01*
X121220196Y-118461273D01*
X121214235Y-118485071D01*
X121205970Y-118508171D01*
X121195480Y-118530349D01*
X121182867Y-118551393D01*
X121168253Y-118571098D01*
X121151777Y-118589277D01*
X121133598Y-118605753D01*
X121113893Y-118620367D01*
X121092849Y-118632980D01*
X121070671Y-118643470D01*
X121047571Y-118651735D01*
X121023773Y-118657696D01*
X120999504Y-118661296D01*
X120975000Y-118662500D01*
X120025000Y-118662500D01*
X120000496Y-118661296D01*
X119976227Y-118657696D01*
X119952429Y-118651735D01*
X119929329Y-118643470D01*
X119907151Y-118632980D01*
X119886107Y-118620367D01*
X119866402Y-118605753D01*
X119848223Y-118589277D01*
X119831747Y-118571098D01*
X119817133Y-118551393D01*
X119804520Y-118530349D01*
X119794030Y-118508171D01*
X119785765Y-118485071D01*
X119779804Y-118461273D01*
X119776204Y-118437004D01*
X119775000Y-118412500D01*
X119775000Y-117737500D01*
X119776204Y-117712996D01*
X119779804Y-117688727D01*
X119785765Y-117664929D01*
X119794030Y-117641829D01*
X119804520Y-117619651D01*
X119817133Y-117598607D01*
X119831747Y-117578902D01*
X119848223Y-117560723D01*
X119866402Y-117544247D01*
X119886107Y-117529633D01*
X119907151Y-117517020D01*
X119929329Y-117506530D01*
X119952429Y-117498265D01*
X119976227Y-117492304D01*
X120000496Y-117488704D01*
X120025000Y-117487500D01*
X120975000Y-117487500D01*
X120999504Y-117488704D01*
G37*
G36*
X120999504Y-115413704D02*
G01*
X121023773Y-115417304D01*
X121047571Y-115423265D01*
X121070671Y-115431530D01*
X121092849Y-115442020D01*
X121113893Y-115454633D01*
X121133598Y-115469247D01*
X121151777Y-115485723D01*
X121168253Y-115503902D01*
X121182867Y-115523607D01*
X121195480Y-115544651D01*
X121205970Y-115566829D01*
X121214235Y-115589929D01*
X121220196Y-115613727D01*
X121223796Y-115637996D01*
X121225000Y-115662500D01*
X121225000Y-116337500D01*
X121223796Y-116362004D01*
X121220196Y-116386273D01*
X121214235Y-116410071D01*
X121205970Y-116433171D01*
X121195480Y-116455349D01*
X121182867Y-116476393D01*
X121168253Y-116496098D01*
X121151777Y-116514277D01*
X121133598Y-116530753D01*
X121113893Y-116545367D01*
X121092849Y-116557980D01*
X121070671Y-116568470D01*
X121047571Y-116576735D01*
X121023773Y-116582696D01*
X120999504Y-116586296D01*
X120975000Y-116587500D01*
X120025000Y-116587500D01*
X120000496Y-116586296D01*
X119976227Y-116582696D01*
X119952429Y-116576735D01*
X119929329Y-116568470D01*
X119907151Y-116557980D01*
X119886107Y-116545367D01*
X119866402Y-116530753D01*
X119848223Y-116514277D01*
X119831747Y-116496098D01*
X119817133Y-116476393D01*
X119804520Y-116455349D01*
X119794030Y-116433171D01*
X119785765Y-116410071D01*
X119779804Y-116386273D01*
X119776204Y-116362004D01*
X119775000Y-116337500D01*
X119775000Y-115662500D01*
X119776204Y-115637996D01*
X119779804Y-115613727D01*
X119785765Y-115589929D01*
X119794030Y-115566829D01*
X119804520Y-115544651D01*
X119817133Y-115523607D01*
X119831747Y-115503902D01*
X119848223Y-115485723D01*
X119866402Y-115469247D01*
X119886107Y-115454633D01*
X119907151Y-115442020D01*
X119929329Y-115431530D01*
X119952429Y-115423265D01*
X119976227Y-115417304D01*
X120000496Y-115413704D01*
X120025000Y-115412500D01*
X120975000Y-115412500D01*
X120999504Y-115413704D01*
G37*
G36*
X125999504Y-117488704D02*
G01*
X126023773Y-117492304D01*
X126047571Y-117498265D01*
X126070671Y-117506530D01*
X126092849Y-117517020D01*
X126113893Y-117529633D01*
X126133598Y-117544247D01*
X126151777Y-117560723D01*
X126168253Y-117578902D01*
X126182867Y-117598607D01*
X126195480Y-117619651D01*
X126205970Y-117641829D01*
X126214235Y-117664929D01*
X126220196Y-117688727D01*
X126223796Y-117712996D01*
X126225000Y-117737500D01*
X126225000Y-118412500D01*
X126223796Y-118437004D01*
X126220196Y-118461273D01*
X126214235Y-118485071D01*
X126205970Y-118508171D01*
X126195480Y-118530349D01*
X126182867Y-118551393D01*
X126168253Y-118571098D01*
X126151777Y-118589277D01*
X126133598Y-118605753D01*
X126113893Y-118620367D01*
X126092849Y-118632980D01*
X126070671Y-118643470D01*
X126047571Y-118651735D01*
X126023773Y-118657696D01*
X125999504Y-118661296D01*
X125975000Y-118662500D01*
X125025000Y-118662500D01*
X125000496Y-118661296D01*
X124976227Y-118657696D01*
X124952429Y-118651735D01*
X124929329Y-118643470D01*
X124907151Y-118632980D01*
X124886107Y-118620367D01*
X124866402Y-118605753D01*
X124848223Y-118589277D01*
X124831747Y-118571098D01*
X124817133Y-118551393D01*
X124804520Y-118530349D01*
X124794030Y-118508171D01*
X124785765Y-118485071D01*
X124779804Y-118461273D01*
X124776204Y-118437004D01*
X124775000Y-118412500D01*
X124775000Y-117737500D01*
X124776204Y-117712996D01*
X124779804Y-117688727D01*
X124785765Y-117664929D01*
X124794030Y-117641829D01*
X124804520Y-117619651D01*
X124817133Y-117598607D01*
X124831747Y-117578902D01*
X124848223Y-117560723D01*
X124866402Y-117544247D01*
X124886107Y-117529633D01*
X124907151Y-117517020D01*
X124929329Y-117506530D01*
X124952429Y-117498265D01*
X124976227Y-117492304D01*
X125000496Y-117488704D01*
X125025000Y-117487500D01*
X125975000Y-117487500D01*
X125999504Y-117488704D01*
G37*
G36*
X125999504Y-115413704D02*
G01*
X126023773Y-115417304D01*
X126047571Y-115423265D01*
X126070671Y-115431530D01*
X126092849Y-115442020D01*
X126113893Y-115454633D01*
X126133598Y-115469247D01*
X126151777Y-115485723D01*
X126168253Y-115503902D01*
X126182867Y-115523607D01*
X126195480Y-115544651D01*
X126205970Y-115566829D01*
X126214235Y-115589929D01*
X126220196Y-115613727D01*
X126223796Y-115637996D01*
X126225000Y-115662500D01*
X126225000Y-116337500D01*
X126223796Y-116362004D01*
X126220196Y-116386273D01*
X126214235Y-116410071D01*
X126205970Y-116433171D01*
X126195480Y-116455349D01*
X126182867Y-116476393D01*
X126168253Y-116496098D01*
X126151777Y-116514277D01*
X126133598Y-116530753D01*
X126113893Y-116545367D01*
X126092849Y-116557980D01*
X126070671Y-116568470D01*
X126047571Y-116576735D01*
X126023773Y-116582696D01*
X125999504Y-116586296D01*
X125975000Y-116587500D01*
X125025000Y-116587500D01*
X125000496Y-116586296D01*
X124976227Y-116582696D01*
X124952429Y-116576735D01*
X124929329Y-116568470D01*
X124907151Y-116557980D01*
X124886107Y-116545367D01*
X124866402Y-116530753D01*
X124848223Y-116514277D01*
X124831747Y-116496098D01*
X124817133Y-116476393D01*
X124804520Y-116455349D01*
X124794030Y-116433171D01*
X124785765Y-116410071D01*
X124779804Y-116386273D01*
X124776204Y-116362004D01*
X124775000Y-116337500D01*
X124775000Y-115662500D01*
X124776204Y-115637996D01*
X124779804Y-115613727D01*
X124785765Y-115589929D01*
X124794030Y-115566829D01*
X124804520Y-115544651D01*
X124817133Y-115523607D01*
X124831747Y-115503902D01*
X124848223Y-115485723D01*
X124866402Y-115469247D01*
X124886107Y-115454633D01*
X124907151Y-115442020D01*
X124929329Y-115431530D01*
X124952429Y-115423265D01*
X124976227Y-115417304D01*
X125000496Y-115413704D01*
X125025000Y-115412500D01*
X125975000Y-115412500D01*
X125999504Y-115413704D01*
G37*
G36*
X130999504Y-117451204D02*
G01*
X131023773Y-117454804D01*
X131047571Y-117460765D01*
X131070671Y-117469030D01*
X131092849Y-117479520D01*
X131113893Y-117492133D01*
X131133598Y-117506747D01*
X131151777Y-117523223D01*
X131168253Y-117541402D01*
X131182867Y-117561107D01*
X131195480Y-117582151D01*
X131205970Y-117604329D01*
X131214235Y-117627429D01*
X131220196Y-117651227D01*
X131223796Y-117675496D01*
X131225000Y-117700000D01*
X131225000Y-118375000D01*
X131223796Y-118399504D01*
X131220196Y-118423773D01*
X131214235Y-118447571D01*
X131205970Y-118470671D01*
X131195480Y-118492849D01*
X131182867Y-118513893D01*
X131168253Y-118533598D01*
X131151777Y-118551777D01*
X131133598Y-118568253D01*
X131113893Y-118582867D01*
X131092849Y-118595480D01*
X131070671Y-118605970D01*
X131047571Y-118614235D01*
X131023773Y-118620196D01*
X130999504Y-118623796D01*
X130975000Y-118625000D01*
X130025000Y-118625000D01*
X130000496Y-118623796D01*
X129976227Y-118620196D01*
X129952429Y-118614235D01*
X129929329Y-118605970D01*
X129907151Y-118595480D01*
X129886107Y-118582867D01*
X129866402Y-118568253D01*
X129848223Y-118551777D01*
X129831747Y-118533598D01*
X129817133Y-118513893D01*
X129804520Y-118492849D01*
X129794030Y-118470671D01*
X129785765Y-118447571D01*
X129779804Y-118423773D01*
X129776204Y-118399504D01*
X129775000Y-118375000D01*
X129775000Y-117700000D01*
X129776204Y-117675496D01*
X129779804Y-117651227D01*
X129785765Y-117627429D01*
X129794030Y-117604329D01*
X129804520Y-117582151D01*
X129817133Y-117561107D01*
X129831747Y-117541402D01*
X129848223Y-117523223D01*
X129866402Y-117506747D01*
X129886107Y-117492133D01*
X129907151Y-117479520D01*
X129929329Y-117469030D01*
X129952429Y-117460765D01*
X129976227Y-117454804D01*
X130000496Y-117451204D01*
X130025000Y-117450000D01*
X130975000Y-117450000D01*
X130999504Y-117451204D01*
G37*
G36*
X130999504Y-115376204D02*
G01*
X131023773Y-115379804D01*
X131047571Y-115385765D01*
X131070671Y-115394030D01*
X131092849Y-115404520D01*
X131113893Y-115417133D01*
X131133598Y-115431747D01*
X131151777Y-115448223D01*
X131168253Y-115466402D01*
X131182867Y-115486107D01*
X131195480Y-115507151D01*
X131205970Y-115529329D01*
X131214235Y-115552429D01*
X131220196Y-115576227D01*
X131223796Y-115600496D01*
X131225000Y-115625000D01*
X131225000Y-116300000D01*
X131223796Y-116324504D01*
X131220196Y-116348773D01*
X131214235Y-116372571D01*
X131205970Y-116395671D01*
X131195480Y-116417849D01*
X131182867Y-116438893D01*
X131168253Y-116458598D01*
X131151777Y-116476777D01*
X131133598Y-116493253D01*
X131113893Y-116507867D01*
X131092849Y-116520480D01*
X131070671Y-116530970D01*
X131047571Y-116539235D01*
X131023773Y-116545196D01*
X130999504Y-116548796D01*
X130975000Y-116550000D01*
X130025000Y-116550000D01*
X130000496Y-116548796D01*
X129976227Y-116545196D01*
X129952429Y-116539235D01*
X129929329Y-116530970D01*
X129907151Y-116520480D01*
X129886107Y-116507867D01*
X129866402Y-116493253D01*
X129848223Y-116476777D01*
X129831747Y-116458598D01*
X129817133Y-116438893D01*
X129804520Y-116417849D01*
X129794030Y-116395671D01*
X129785765Y-116372571D01*
X129779804Y-116348773D01*
X129776204Y-116324504D01*
X129775000Y-116300000D01*
X129775000Y-115625000D01*
X129776204Y-115600496D01*
X129779804Y-115576227D01*
X129785765Y-115552429D01*
X129794030Y-115529329D01*
X129804520Y-115507151D01*
X129817133Y-115486107D01*
X129831747Y-115466402D01*
X129848223Y-115448223D01*
X129866402Y-115431747D01*
X129886107Y-115417133D01*
X129907151Y-115404520D01*
X129929329Y-115394030D01*
X129952429Y-115385765D01*
X129976227Y-115379804D01*
X130000496Y-115376204D01*
X130025000Y-115375000D01*
X130975000Y-115375000D01*
X130999504Y-115376204D01*
G37*
G36*
X135999504Y-117451204D02*
G01*
X136023773Y-117454804D01*
X136047571Y-117460765D01*
X136070671Y-117469030D01*
X136092849Y-117479520D01*
X136113893Y-117492133D01*
X136133598Y-117506747D01*
X136151777Y-117523223D01*
X136168253Y-117541402D01*
X136182867Y-117561107D01*
X136195480Y-117582151D01*
X136205970Y-117604329D01*
X136214235Y-117627429D01*
X136220196Y-117651227D01*
X136223796Y-117675496D01*
X136225000Y-117700000D01*
X136225000Y-118375000D01*
X136223796Y-118399504D01*
X136220196Y-118423773D01*
X136214235Y-118447571D01*
X136205970Y-118470671D01*
X136195480Y-118492849D01*
X136182867Y-118513893D01*
X136168253Y-118533598D01*
X136151777Y-118551777D01*
X136133598Y-118568253D01*
X136113893Y-118582867D01*
X136092849Y-118595480D01*
X136070671Y-118605970D01*
X136047571Y-118614235D01*
X136023773Y-118620196D01*
X135999504Y-118623796D01*
X135975000Y-118625000D01*
X135025000Y-118625000D01*
X135000496Y-118623796D01*
X134976227Y-118620196D01*
X134952429Y-118614235D01*
X134929329Y-118605970D01*
X134907151Y-118595480D01*
X134886107Y-118582867D01*
X134866402Y-118568253D01*
X134848223Y-118551777D01*
X134831747Y-118533598D01*
X134817133Y-118513893D01*
X134804520Y-118492849D01*
X134794030Y-118470671D01*
X134785765Y-118447571D01*
X134779804Y-118423773D01*
X134776204Y-118399504D01*
X134775000Y-118375000D01*
X134775000Y-117700000D01*
X134776204Y-117675496D01*
X134779804Y-117651227D01*
X134785765Y-117627429D01*
X134794030Y-117604329D01*
X134804520Y-117582151D01*
X134817133Y-117561107D01*
X134831747Y-117541402D01*
X134848223Y-117523223D01*
X134866402Y-117506747D01*
X134886107Y-117492133D01*
X134907151Y-117479520D01*
X134929329Y-117469030D01*
X134952429Y-117460765D01*
X134976227Y-117454804D01*
X135000496Y-117451204D01*
X135025000Y-117450000D01*
X135975000Y-117450000D01*
X135999504Y-117451204D01*
G37*
G36*
X135999504Y-115376204D02*
G01*
X136023773Y-115379804D01*
X136047571Y-115385765D01*
X136070671Y-115394030D01*
X136092849Y-115404520D01*
X136113893Y-115417133D01*
X136133598Y-115431747D01*
X136151777Y-115448223D01*
X136168253Y-115466402D01*
X136182867Y-115486107D01*
X136195480Y-115507151D01*
X136205970Y-115529329D01*
X136214235Y-115552429D01*
X136220196Y-115576227D01*
X136223796Y-115600496D01*
X136225000Y-115625000D01*
X136225000Y-116300000D01*
X136223796Y-116324504D01*
X136220196Y-116348773D01*
X136214235Y-116372571D01*
X136205970Y-116395671D01*
X136195480Y-116417849D01*
X136182867Y-116438893D01*
X136168253Y-116458598D01*
X136151777Y-116476777D01*
X136133598Y-116493253D01*
X136113893Y-116507867D01*
X136092849Y-116520480D01*
X136070671Y-116530970D01*
X136047571Y-116539235D01*
X136023773Y-116545196D01*
X135999504Y-116548796D01*
X135975000Y-116550000D01*
X135025000Y-116550000D01*
X135000496Y-116548796D01*
X134976227Y-116545196D01*
X134952429Y-116539235D01*
X134929329Y-116530970D01*
X134907151Y-116520480D01*
X134886107Y-116507867D01*
X134866402Y-116493253D01*
X134848223Y-116476777D01*
X134831747Y-116458598D01*
X134817133Y-116438893D01*
X134804520Y-116417849D01*
X134794030Y-116395671D01*
X134785765Y-116372571D01*
X134779804Y-116348773D01*
X134776204Y-116324504D01*
X134775000Y-116300000D01*
X134775000Y-115625000D01*
X134776204Y-115600496D01*
X134779804Y-115576227D01*
X134785765Y-115552429D01*
X134794030Y-115529329D01*
X134804520Y-115507151D01*
X134817133Y-115486107D01*
X134831747Y-115466402D01*
X134848223Y-115448223D01*
X134866402Y-115431747D01*
X134886107Y-115417133D01*
X134907151Y-115404520D01*
X134929329Y-115394030D01*
X134952429Y-115385765D01*
X134976227Y-115379804D01*
X135000496Y-115376204D01*
X135025000Y-115375000D01*
X135975000Y-115375000D01*
X135999504Y-115376204D01*
G37*
G36*
X96862004Y-115776204D02*
G01*
X96886273Y-115779804D01*
X96910071Y-115785765D01*
X96933171Y-115794030D01*
X96955349Y-115804520D01*
X96976393Y-115817133D01*
X96996098Y-115831747D01*
X97014277Y-115848223D01*
X97030753Y-115866402D01*
X97045367Y-115886107D01*
X97057980Y-115907151D01*
X97068470Y-115929329D01*
X97076735Y-115952429D01*
X97082696Y-115976227D01*
X97086296Y-116000496D01*
X97087500Y-116025000D01*
X97087500Y-116975000D01*
X97086296Y-116999504D01*
X97082696Y-117023773D01*
X97076735Y-117047571D01*
X97068470Y-117070671D01*
X97057980Y-117092849D01*
X97045367Y-117113893D01*
X97030753Y-117133598D01*
X97014277Y-117151777D01*
X96996098Y-117168253D01*
X96976393Y-117182867D01*
X96955349Y-117195480D01*
X96933171Y-117205970D01*
X96910071Y-117214235D01*
X96886273Y-117220196D01*
X96862004Y-117223796D01*
X96837500Y-117225000D01*
X96162500Y-117225000D01*
X96137996Y-117223796D01*
X96113727Y-117220196D01*
X96089929Y-117214235D01*
X96066829Y-117205970D01*
X96044651Y-117195480D01*
X96023607Y-117182867D01*
X96003902Y-117168253D01*
X95985723Y-117151777D01*
X95969247Y-117133598D01*
X95954633Y-117113893D01*
X95942020Y-117092849D01*
X95931530Y-117070671D01*
X95923265Y-117047571D01*
X95917304Y-117023773D01*
X95913704Y-116999504D01*
X95912500Y-116975000D01*
X95912500Y-116025000D01*
X95913704Y-116000496D01*
X95917304Y-115976227D01*
X95923265Y-115952429D01*
X95931530Y-115929329D01*
X95942020Y-115907151D01*
X95954633Y-115886107D01*
X95969247Y-115866402D01*
X95985723Y-115848223D01*
X96003902Y-115831747D01*
X96023607Y-115817133D01*
X96044651Y-115804520D01*
X96066829Y-115794030D01*
X96089929Y-115785765D01*
X96113727Y-115779804D01*
X96137996Y-115776204D01*
X96162500Y-115775000D01*
X96837500Y-115775000D01*
X96862004Y-115776204D01*
G37*
G36*
X94787004Y-115776204D02*
G01*
X94811273Y-115779804D01*
X94835071Y-115785765D01*
X94858171Y-115794030D01*
X94880349Y-115804520D01*
X94901393Y-115817133D01*
X94921098Y-115831747D01*
X94939277Y-115848223D01*
X94955753Y-115866402D01*
X94970367Y-115886107D01*
X94982980Y-115907151D01*
X94993470Y-115929329D01*
X95001735Y-115952429D01*
X95007696Y-115976227D01*
X95011296Y-116000496D01*
X95012500Y-116025000D01*
X95012500Y-116975000D01*
X95011296Y-116999504D01*
X95007696Y-117023773D01*
X95001735Y-117047571D01*
X94993470Y-117070671D01*
X94982980Y-117092849D01*
X94970367Y-117113893D01*
X94955753Y-117133598D01*
X94939277Y-117151777D01*
X94921098Y-117168253D01*
X94901393Y-117182867D01*
X94880349Y-117195480D01*
X94858171Y-117205970D01*
X94835071Y-117214235D01*
X94811273Y-117220196D01*
X94787004Y-117223796D01*
X94762500Y-117225000D01*
X94087500Y-117225000D01*
X94062996Y-117223796D01*
X94038727Y-117220196D01*
X94014929Y-117214235D01*
X93991829Y-117205970D01*
X93969651Y-117195480D01*
X93948607Y-117182867D01*
X93928902Y-117168253D01*
X93910723Y-117151777D01*
X93894247Y-117133598D01*
X93879633Y-117113893D01*
X93867020Y-117092849D01*
X93856530Y-117070671D01*
X93848265Y-117047571D01*
X93842304Y-117023773D01*
X93838704Y-116999504D01*
X93837500Y-116975000D01*
X93837500Y-116025000D01*
X93838704Y-116000496D01*
X93842304Y-115976227D01*
X93848265Y-115952429D01*
X93856530Y-115929329D01*
X93867020Y-115907151D01*
X93879633Y-115886107D01*
X93894247Y-115866402D01*
X93910723Y-115848223D01*
X93928902Y-115831747D01*
X93948607Y-115817133D01*
X93969651Y-115804520D01*
X93991829Y-115794030D01*
X94014929Y-115785765D01*
X94038727Y-115779804D01*
X94062996Y-115776204D01*
X94087500Y-115775000D01*
X94762500Y-115775000D01*
X94787004Y-115776204D01*
G37*
G36*
X139749504Y-70751204D02*
G01*
X139773773Y-70754804D01*
X139797571Y-70760765D01*
X139820671Y-70769030D01*
X139842849Y-70779520D01*
X139863893Y-70792133D01*
X139883598Y-70806747D01*
X139901777Y-70823223D01*
X139918253Y-70841402D01*
X139932867Y-70861107D01*
X139945480Y-70882151D01*
X139955970Y-70904329D01*
X139964235Y-70927429D01*
X139970196Y-70951227D01*
X139973796Y-70975496D01*
X139975000Y-71000000D01*
X139975000Y-71675000D01*
X139973796Y-71699504D01*
X139970196Y-71723773D01*
X139964235Y-71747571D01*
X139955970Y-71770671D01*
X139945480Y-71792849D01*
X139932867Y-71813893D01*
X139918253Y-71833598D01*
X139901777Y-71851777D01*
X139883598Y-71868253D01*
X139863893Y-71882867D01*
X139842849Y-71895480D01*
X139820671Y-71905970D01*
X139797571Y-71914235D01*
X139773773Y-71920196D01*
X139749504Y-71923796D01*
X139725000Y-71925000D01*
X138775000Y-71925000D01*
X138750496Y-71923796D01*
X138726227Y-71920196D01*
X138702429Y-71914235D01*
X138679329Y-71905970D01*
X138657151Y-71895480D01*
X138636107Y-71882867D01*
X138616402Y-71868253D01*
X138598223Y-71851777D01*
X138581747Y-71833598D01*
X138567133Y-71813893D01*
X138554520Y-71792849D01*
X138544030Y-71770671D01*
X138535765Y-71747571D01*
X138529804Y-71723773D01*
X138526204Y-71699504D01*
X138525000Y-71675000D01*
X138525000Y-71000000D01*
X138526204Y-70975496D01*
X138529804Y-70951227D01*
X138535765Y-70927429D01*
X138544030Y-70904329D01*
X138554520Y-70882151D01*
X138567133Y-70861107D01*
X138581747Y-70841402D01*
X138598223Y-70823223D01*
X138616402Y-70806747D01*
X138636107Y-70792133D01*
X138657151Y-70779520D01*
X138679329Y-70769030D01*
X138702429Y-70760765D01*
X138726227Y-70754804D01*
X138750496Y-70751204D01*
X138775000Y-70750000D01*
X139725000Y-70750000D01*
X139749504Y-70751204D01*
G37*
G36*
X139749504Y-68676204D02*
G01*
X139773773Y-68679804D01*
X139797571Y-68685765D01*
X139820671Y-68694030D01*
X139842849Y-68704520D01*
X139863893Y-68717133D01*
X139883598Y-68731747D01*
X139901777Y-68748223D01*
X139918253Y-68766402D01*
X139932867Y-68786107D01*
X139945480Y-68807151D01*
X139955970Y-68829329D01*
X139964235Y-68852429D01*
X139970196Y-68876227D01*
X139973796Y-68900496D01*
X139975000Y-68925000D01*
X139975000Y-69600000D01*
X139973796Y-69624504D01*
X139970196Y-69648773D01*
X139964235Y-69672571D01*
X139955970Y-69695671D01*
X139945480Y-69717849D01*
X139932867Y-69738893D01*
X139918253Y-69758598D01*
X139901777Y-69776777D01*
X139883598Y-69793253D01*
X139863893Y-69807867D01*
X139842849Y-69820480D01*
X139820671Y-69830970D01*
X139797571Y-69839235D01*
X139773773Y-69845196D01*
X139749504Y-69848796D01*
X139725000Y-69850000D01*
X138775000Y-69850000D01*
X138750496Y-69848796D01*
X138726227Y-69845196D01*
X138702429Y-69839235D01*
X138679329Y-69830970D01*
X138657151Y-69820480D01*
X138636107Y-69807867D01*
X138616402Y-69793253D01*
X138598223Y-69776777D01*
X138581747Y-69758598D01*
X138567133Y-69738893D01*
X138554520Y-69717849D01*
X138544030Y-69695671D01*
X138535765Y-69672571D01*
X138529804Y-69648773D01*
X138526204Y-69624504D01*
X138525000Y-69600000D01*
X138525000Y-68925000D01*
X138526204Y-68900496D01*
X138529804Y-68876227D01*
X138535765Y-68852429D01*
X138544030Y-68829329D01*
X138554520Y-68807151D01*
X138567133Y-68786107D01*
X138581747Y-68766402D01*
X138598223Y-68748223D01*
X138616402Y-68731747D01*
X138636107Y-68717133D01*
X138657151Y-68704520D01*
X138679329Y-68694030D01*
X138702429Y-68685765D01*
X138726227Y-68679804D01*
X138750496Y-68676204D01*
X138775000Y-68675000D01*
X139725000Y-68675000D01*
X139749504Y-68676204D01*
G37*
G36*
X159437004Y-113276204D02*
G01*
X159461273Y-113279804D01*
X159485071Y-113285765D01*
X159508171Y-113294030D01*
X159530349Y-113304520D01*
X159551393Y-113317133D01*
X159571098Y-113331747D01*
X159589277Y-113348223D01*
X159605753Y-113366402D01*
X159620367Y-113386107D01*
X159632980Y-113407151D01*
X159643470Y-113429329D01*
X159651735Y-113452429D01*
X159657696Y-113476227D01*
X159661296Y-113500496D01*
X159662500Y-113525000D01*
X159662500Y-114475000D01*
X159661296Y-114499504D01*
X159657696Y-114523773D01*
X159651735Y-114547571D01*
X159643470Y-114570671D01*
X159632980Y-114592849D01*
X159620367Y-114613893D01*
X159605753Y-114633598D01*
X159589277Y-114651777D01*
X159571098Y-114668253D01*
X159551393Y-114682867D01*
X159530349Y-114695480D01*
X159508171Y-114705970D01*
X159485071Y-114714235D01*
X159461273Y-114720196D01*
X159437004Y-114723796D01*
X159412500Y-114725000D01*
X158737500Y-114725000D01*
X158712996Y-114723796D01*
X158688727Y-114720196D01*
X158664929Y-114714235D01*
X158641829Y-114705970D01*
X158619651Y-114695480D01*
X158598607Y-114682867D01*
X158578902Y-114668253D01*
X158560723Y-114651777D01*
X158544247Y-114633598D01*
X158529633Y-114613893D01*
X158517020Y-114592849D01*
X158506530Y-114570671D01*
X158498265Y-114547571D01*
X158492304Y-114523773D01*
X158488704Y-114499504D01*
X158487500Y-114475000D01*
X158487500Y-113525000D01*
X158488704Y-113500496D01*
X158492304Y-113476227D01*
X158498265Y-113452429D01*
X158506530Y-113429329D01*
X158517020Y-113407151D01*
X158529633Y-113386107D01*
X158544247Y-113366402D01*
X158560723Y-113348223D01*
X158578902Y-113331747D01*
X158598607Y-113317133D01*
X158619651Y-113304520D01*
X158641829Y-113294030D01*
X158664929Y-113285765D01*
X158688727Y-113279804D01*
X158712996Y-113276204D01*
X158737500Y-113275000D01*
X159412500Y-113275000D01*
X159437004Y-113276204D01*
G37*
G36*
X157362004Y-113276204D02*
G01*
X157386273Y-113279804D01*
X157410071Y-113285765D01*
X157433171Y-113294030D01*
X157455349Y-113304520D01*
X157476393Y-113317133D01*
X157496098Y-113331747D01*
X157514277Y-113348223D01*
X157530753Y-113366402D01*
X157545367Y-113386107D01*
X157557980Y-113407151D01*
X157568470Y-113429329D01*
X157576735Y-113452429D01*
X157582696Y-113476227D01*
X157586296Y-113500496D01*
X157587500Y-113525000D01*
X157587500Y-114475000D01*
X157586296Y-114499504D01*
X157582696Y-114523773D01*
X157576735Y-114547571D01*
X157568470Y-114570671D01*
X157557980Y-114592849D01*
X157545367Y-114613893D01*
X157530753Y-114633598D01*
X157514277Y-114651777D01*
X157496098Y-114668253D01*
X157476393Y-114682867D01*
X157455349Y-114695480D01*
X157433171Y-114705970D01*
X157410071Y-114714235D01*
X157386273Y-114720196D01*
X157362004Y-114723796D01*
X157337500Y-114725000D01*
X156662500Y-114725000D01*
X156637996Y-114723796D01*
X156613727Y-114720196D01*
X156589929Y-114714235D01*
X156566829Y-114705970D01*
X156544651Y-114695480D01*
X156523607Y-114682867D01*
X156503902Y-114668253D01*
X156485723Y-114651777D01*
X156469247Y-114633598D01*
X156454633Y-114613893D01*
X156442020Y-114592849D01*
X156431530Y-114570671D01*
X156423265Y-114547571D01*
X156417304Y-114523773D01*
X156413704Y-114499504D01*
X156412500Y-114475000D01*
X156412500Y-113525000D01*
X156413704Y-113500496D01*
X156417304Y-113476227D01*
X156423265Y-113452429D01*
X156431530Y-113429329D01*
X156442020Y-113407151D01*
X156454633Y-113386107D01*
X156469247Y-113366402D01*
X156485723Y-113348223D01*
X156503902Y-113331747D01*
X156523607Y-113317133D01*
X156544651Y-113304520D01*
X156566829Y-113294030D01*
X156589929Y-113285765D01*
X156613727Y-113279804D01*
X156637996Y-113276204D01*
X156662500Y-113275000D01*
X157337500Y-113275000D01*
X157362004Y-113276204D01*
G37*
G36*
X114787004Y-67776204D02*
G01*
X114811273Y-67779804D01*
X114835071Y-67785765D01*
X114858171Y-67794030D01*
X114880349Y-67804520D01*
X114901393Y-67817133D01*
X114921098Y-67831747D01*
X114939277Y-67848223D01*
X114955753Y-67866402D01*
X114970367Y-67886107D01*
X114982980Y-67907151D01*
X114993470Y-67929329D01*
X115001735Y-67952429D01*
X115007696Y-67976227D01*
X115011296Y-68000496D01*
X115012500Y-68025000D01*
X115012500Y-68975000D01*
X115011296Y-68999504D01*
X115007696Y-69023773D01*
X115001735Y-69047571D01*
X114993470Y-69070671D01*
X114982980Y-69092849D01*
X114970367Y-69113893D01*
X114955753Y-69133598D01*
X114939277Y-69151777D01*
X114921098Y-69168253D01*
X114901393Y-69182867D01*
X114880349Y-69195480D01*
X114858171Y-69205970D01*
X114835071Y-69214235D01*
X114811273Y-69220196D01*
X114787004Y-69223796D01*
X114762500Y-69225000D01*
X114087500Y-69225000D01*
X114062996Y-69223796D01*
X114038727Y-69220196D01*
X114014929Y-69214235D01*
X113991829Y-69205970D01*
X113969651Y-69195480D01*
X113948607Y-69182867D01*
X113928902Y-69168253D01*
X113910723Y-69151777D01*
X113894247Y-69133598D01*
X113879633Y-69113893D01*
X113867020Y-69092849D01*
X113856530Y-69070671D01*
X113848265Y-69047571D01*
X113842304Y-69023773D01*
X113838704Y-68999504D01*
X113837500Y-68975000D01*
X113837500Y-68025000D01*
X113838704Y-68000496D01*
X113842304Y-67976227D01*
X113848265Y-67952429D01*
X113856530Y-67929329D01*
X113867020Y-67907151D01*
X113879633Y-67886107D01*
X113894247Y-67866402D01*
X113910723Y-67848223D01*
X113928902Y-67831747D01*
X113948607Y-67817133D01*
X113969651Y-67804520D01*
X113991829Y-67794030D01*
X114014929Y-67785765D01*
X114038727Y-67779804D01*
X114062996Y-67776204D01*
X114087500Y-67775000D01*
X114762500Y-67775000D01*
X114787004Y-67776204D01*
G37*
G36*
X116862004Y-67776204D02*
G01*
X116886273Y-67779804D01*
X116910071Y-67785765D01*
X116933171Y-67794030D01*
X116955349Y-67804520D01*
X116976393Y-67817133D01*
X116996098Y-67831747D01*
X117014277Y-67848223D01*
X117030753Y-67866402D01*
X117045367Y-67886107D01*
X117057980Y-67907151D01*
X117068470Y-67929329D01*
X117076735Y-67952429D01*
X117082696Y-67976227D01*
X117086296Y-68000496D01*
X117087500Y-68025000D01*
X117087500Y-68975000D01*
X117086296Y-68999504D01*
X117082696Y-69023773D01*
X117076735Y-69047571D01*
X117068470Y-69070671D01*
X117057980Y-69092849D01*
X117045367Y-69113893D01*
X117030753Y-69133598D01*
X117014277Y-69151777D01*
X116996098Y-69168253D01*
X116976393Y-69182867D01*
X116955349Y-69195480D01*
X116933171Y-69205970D01*
X116910071Y-69214235D01*
X116886273Y-69220196D01*
X116862004Y-69223796D01*
X116837500Y-69225000D01*
X116162500Y-69225000D01*
X116137996Y-69223796D01*
X116113727Y-69220196D01*
X116089929Y-69214235D01*
X116066829Y-69205970D01*
X116044651Y-69195480D01*
X116023607Y-69182867D01*
X116003902Y-69168253D01*
X115985723Y-69151777D01*
X115969247Y-69133598D01*
X115954633Y-69113893D01*
X115942020Y-69092849D01*
X115931530Y-69070671D01*
X115923265Y-69047571D01*
X115917304Y-69023773D01*
X115913704Y-68999504D01*
X115912500Y-68975000D01*
X115912500Y-68025000D01*
X115913704Y-68000496D01*
X115917304Y-67976227D01*
X115923265Y-67952429D01*
X115931530Y-67929329D01*
X115942020Y-67907151D01*
X115954633Y-67886107D01*
X115969247Y-67866402D01*
X115985723Y-67848223D01*
X116003902Y-67831747D01*
X116023607Y-67817133D01*
X116044651Y-67804520D01*
X116066829Y-67794030D01*
X116089929Y-67785765D01*
X116113727Y-67779804D01*
X116137996Y-67776204D01*
X116162500Y-67775000D01*
X116837500Y-67775000D01*
X116862004Y-67776204D01*
G37*
G36*
X138474505Y-107401204D02*
G01*
X138498773Y-107404804D01*
X138522572Y-107410765D01*
X138545671Y-107419030D01*
X138567850Y-107429520D01*
X138588893Y-107442132D01*
X138608599Y-107456747D01*
X138626777Y-107473223D01*
X138643253Y-107491401D01*
X138657868Y-107511107D01*
X138670480Y-107532150D01*
X138680970Y-107554329D01*
X138689235Y-107577428D01*
X138695196Y-107601227D01*
X138698796Y-107625495D01*
X138700000Y-107649999D01*
X138700000Y-108350001D01*
X138698796Y-108374505D01*
X138695196Y-108398773D01*
X138689235Y-108422572D01*
X138680970Y-108445671D01*
X138670480Y-108467850D01*
X138657868Y-108488893D01*
X138643253Y-108508599D01*
X138626777Y-108526777D01*
X138608599Y-108543253D01*
X138588893Y-108557868D01*
X138567850Y-108570480D01*
X138545671Y-108580970D01*
X138522572Y-108589235D01*
X138498773Y-108595196D01*
X138474505Y-108598796D01*
X138450001Y-108600000D01*
X137549999Y-108600000D01*
X137525495Y-108598796D01*
X137501227Y-108595196D01*
X137477428Y-108589235D01*
X137454329Y-108580970D01*
X137432150Y-108570480D01*
X137411107Y-108557868D01*
X137391401Y-108543253D01*
X137373223Y-108526777D01*
X137356747Y-108508599D01*
X137342132Y-108488893D01*
X137329520Y-108467850D01*
X137319030Y-108445671D01*
X137310765Y-108422572D01*
X137304804Y-108398773D01*
X137301204Y-108374505D01*
X137300000Y-108350001D01*
X137300000Y-107649999D01*
X137301204Y-107625495D01*
X137304804Y-107601227D01*
X137310765Y-107577428D01*
X137319030Y-107554329D01*
X137329520Y-107532150D01*
X137342132Y-107511107D01*
X137356747Y-107491401D01*
X137373223Y-107473223D01*
X137391401Y-107456747D01*
X137411107Y-107442132D01*
X137432150Y-107429520D01*
X137454329Y-107419030D01*
X137477428Y-107410765D01*
X137501227Y-107404804D01*
X137525495Y-107401204D01*
X137549999Y-107400000D01*
X138450001Y-107400000D01*
X138474505Y-107401204D01*
G37*
G36*
X138474505Y-109401204D02*
G01*
X138498773Y-109404804D01*
X138522572Y-109410765D01*
X138545671Y-109419030D01*
X138567850Y-109429520D01*
X138588893Y-109442132D01*
X138608599Y-109456747D01*
X138626777Y-109473223D01*
X138643253Y-109491401D01*
X138657868Y-109511107D01*
X138670480Y-109532150D01*
X138680970Y-109554329D01*
X138689235Y-109577428D01*
X138695196Y-109601227D01*
X138698796Y-109625495D01*
X138700000Y-109649999D01*
X138700000Y-110350001D01*
X138698796Y-110374505D01*
X138695196Y-110398773D01*
X138689235Y-110422572D01*
X138680970Y-110445671D01*
X138670480Y-110467850D01*
X138657868Y-110488893D01*
X138643253Y-110508599D01*
X138626777Y-110526777D01*
X138608599Y-110543253D01*
X138588893Y-110557868D01*
X138567850Y-110570480D01*
X138545671Y-110580970D01*
X138522572Y-110589235D01*
X138498773Y-110595196D01*
X138474505Y-110598796D01*
X138450001Y-110600000D01*
X137549999Y-110600000D01*
X137525495Y-110598796D01*
X137501227Y-110595196D01*
X137477428Y-110589235D01*
X137454329Y-110580970D01*
X137432150Y-110570480D01*
X137411107Y-110557868D01*
X137391401Y-110543253D01*
X137373223Y-110526777D01*
X137356747Y-110508599D01*
X137342132Y-110488893D01*
X137329520Y-110467850D01*
X137319030Y-110445671D01*
X137310765Y-110422572D01*
X137304804Y-110398773D01*
X137301204Y-110374505D01*
X137300000Y-110350001D01*
X137300000Y-109649999D01*
X137301204Y-109625495D01*
X137304804Y-109601227D01*
X137310765Y-109577428D01*
X137319030Y-109554329D01*
X137329520Y-109532150D01*
X137342132Y-109511107D01*
X137356747Y-109491401D01*
X137373223Y-109473223D01*
X137391401Y-109456747D01*
X137411107Y-109442132D01*
X137432150Y-109429520D01*
X137454329Y-109419030D01*
X137477428Y-109410765D01*
X137501227Y-109404804D01*
X137525495Y-109401204D01*
X137549999Y-109400000D01*
X138450001Y-109400000D01*
X138474505Y-109401204D01*
G37*
G36*
X133474505Y-107401204D02*
G01*
X133498773Y-107404804D01*
X133522572Y-107410765D01*
X133545671Y-107419030D01*
X133567850Y-107429520D01*
X133588893Y-107442132D01*
X133608599Y-107456747D01*
X133626777Y-107473223D01*
X133643253Y-107491401D01*
X133657868Y-107511107D01*
X133670480Y-107532150D01*
X133680970Y-107554329D01*
X133689235Y-107577428D01*
X133695196Y-107601227D01*
X133698796Y-107625495D01*
X133700000Y-107649999D01*
X133700000Y-108350001D01*
X133698796Y-108374505D01*
X133695196Y-108398773D01*
X133689235Y-108422572D01*
X133680970Y-108445671D01*
X133670480Y-108467850D01*
X133657868Y-108488893D01*
X133643253Y-108508599D01*
X133626777Y-108526777D01*
X133608599Y-108543253D01*
X133588893Y-108557868D01*
X133567850Y-108570480D01*
X133545671Y-108580970D01*
X133522572Y-108589235D01*
X133498773Y-108595196D01*
X133474505Y-108598796D01*
X133450001Y-108600000D01*
X132549999Y-108600000D01*
X132525495Y-108598796D01*
X132501227Y-108595196D01*
X132477428Y-108589235D01*
X132454329Y-108580970D01*
X132432150Y-108570480D01*
X132411107Y-108557868D01*
X132391401Y-108543253D01*
X132373223Y-108526777D01*
X132356747Y-108508599D01*
X132342132Y-108488893D01*
X132329520Y-108467850D01*
X132319030Y-108445671D01*
X132310765Y-108422572D01*
X132304804Y-108398773D01*
X132301204Y-108374505D01*
X132300000Y-108350001D01*
X132300000Y-107649999D01*
X132301204Y-107625495D01*
X132304804Y-107601227D01*
X132310765Y-107577428D01*
X132319030Y-107554329D01*
X132329520Y-107532150D01*
X132342132Y-107511107D01*
X132356747Y-107491401D01*
X132373223Y-107473223D01*
X132391401Y-107456747D01*
X132411107Y-107442132D01*
X132432150Y-107429520D01*
X132454329Y-107419030D01*
X132477428Y-107410765D01*
X132501227Y-107404804D01*
X132525495Y-107401204D01*
X132549999Y-107400000D01*
X133450001Y-107400000D01*
X133474505Y-107401204D01*
G37*
G36*
X133474505Y-109401204D02*
G01*
X133498773Y-109404804D01*
X133522572Y-109410765D01*
X133545671Y-109419030D01*
X133567850Y-109429520D01*
X133588893Y-109442132D01*
X133608599Y-109456747D01*
X133626777Y-109473223D01*
X133643253Y-109491401D01*
X133657868Y-109511107D01*
X133670480Y-109532150D01*
X133680970Y-109554329D01*
X133689235Y-109577428D01*
X133695196Y-109601227D01*
X133698796Y-109625495D01*
X133700000Y-109649999D01*
X133700000Y-110350001D01*
X133698796Y-110374505D01*
X133695196Y-110398773D01*
X133689235Y-110422572D01*
X133680970Y-110445671D01*
X133670480Y-110467850D01*
X133657868Y-110488893D01*
X133643253Y-110508599D01*
X133626777Y-110526777D01*
X133608599Y-110543253D01*
X133588893Y-110557868D01*
X133567850Y-110570480D01*
X133545671Y-110580970D01*
X133522572Y-110589235D01*
X133498773Y-110595196D01*
X133474505Y-110598796D01*
X133450001Y-110600000D01*
X132549999Y-110600000D01*
X132525495Y-110598796D01*
X132501227Y-110595196D01*
X132477428Y-110589235D01*
X132454329Y-110580970D01*
X132432150Y-110570480D01*
X132411107Y-110557868D01*
X132391401Y-110543253D01*
X132373223Y-110526777D01*
X132356747Y-110508599D01*
X132342132Y-110488893D01*
X132329520Y-110467850D01*
X132319030Y-110445671D01*
X132310765Y-110422572D01*
X132304804Y-110398773D01*
X132301204Y-110374505D01*
X132300000Y-110350001D01*
X132300000Y-109649999D01*
X132301204Y-109625495D01*
X132304804Y-109601227D01*
X132310765Y-109577428D01*
X132319030Y-109554329D01*
X132329520Y-109532150D01*
X132342132Y-109511107D01*
X132356747Y-109491401D01*
X132373223Y-109473223D01*
X132391401Y-109456747D01*
X132411107Y-109442132D01*
X132432150Y-109429520D01*
X132454329Y-109419030D01*
X132477428Y-109410765D01*
X132501227Y-109404804D01*
X132525495Y-109401204D01*
X132549999Y-109400000D01*
X133450001Y-109400000D01*
X133474505Y-109401204D01*
G37*
G36*
X128474505Y-107401204D02*
G01*
X128498773Y-107404804D01*
X128522572Y-107410765D01*
X128545671Y-107419030D01*
X128567850Y-107429520D01*
X128588893Y-107442132D01*
X128608599Y-107456747D01*
X128626777Y-107473223D01*
X128643253Y-107491401D01*
X128657868Y-107511107D01*
X128670480Y-107532150D01*
X128680970Y-107554329D01*
X128689235Y-107577428D01*
X128695196Y-107601227D01*
X128698796Y-107625495D01*
X128700000Y-107649999D01*
X128700000Y-108350001D01*
X128698796Y-108374505D01*
X128695196Y-108398773D01*
X128689235Y-108422572D01*
X128680970Y-108445671D01*
X128670480Y-108467850D01*
X128657868Y-108488893D01*
X128643253Y-108508599D01*
X128626777Y-108526777D01*
X128608599Y-108543253D01*
X128588893Y-108557868D01*
X128567850Y-108570480D01*
X128545671Y-108580970D01*
X128522572Y-108589235D01*
X128498773Y-108595196D01*
X128474505Y-108598796D01*
X128450001Y-108600000D01*
X127549999Y-108600000D01*
X127525495Y-108598796D01*
X127501227Y-108595196D01*
X127477428Y-108589235D01*
X127454329Y-108580970D01*
X127432150Y-108570480D01*
X127411107Y-108557868D01*
X127391401Y-108543253D01*
X127373223Y-108526777D01*
X127356747Y-108508599D01*
X127342132Y-108488893D01*
X127329520Y-108467850D01*
X127319030Y-108445671D01*
X127310765Y-108422572D01*
X127304804Y-108398773D01*
X127301204Y-108374505D01*
X127300000Y-108350001D01*
X127300000Y-107649999D01*
X127301204Y-107625495D01*
X127304804Y-107601227D01*
X127310765Y-107577428D01*
X127319030Y-107554329D01*
X127329520Y-107532150D01*
X127342132Y-107511107D01*
X127356747Y-107491401D01*
X127373223Y-107473223D01*
X127391401Y-107456747D01*
X127411107Y-107442132D01*
X127432150Y-107429520D01*
X127454329Y-107419030D01*
X127477428Y-107410765D01*
X127501227Y-107404804D01*
X127525495Y-107401204D01*
X127549999Y-107400000D01*
X128450001Y-107400000D01*
X128474505Y-107401204D01*
G37*
G36*
X128474505Y-109401204D02*
G01*
X128498773Y-109404804D01*
X128522572Y-109410765D01*
X128545671Y-109419030D01*
X128567850Y-109429520D01*
X128588893Y-109442132D01*
X128608599Y-109456747D01*
X128626777Y-109473223D01*
X128643253Y-109491401D01*
X128657868Y-109511107D01*
X128670480Y-109532150D01*
X128680970Y-109554329D01*
X128689235Y-109577428D01*
X128695196Y-109601227D01*
X128698796Y-109625495D01*
X128700000Y-109649999D01*
X128700000Y-110350001D01*
X128698796Y-110374505D01*
X128695196Y-110398773D01*
X128689235Y-110422572D01*
X128680970Y-110445671D01*
X128670480Y-110467850D01*
X128657868Y-110488893D01*
X128643253Y-110508599D01*
X128626777Y-110526777D01*
X128608599Y-110543253D01*
X128588893Y-110557868D01*
X128567850Y-110570480D01*
X128545671Y-110580970D01*
X128522572Y-110589235D01*
X128498773Y-110595196D01*
X128474505Y-110598796D01*
X128450001Y-110600000D01*
X127549999Y-110600000D01*
X127525495Y-110598796D01*
X127501227Y-110595196D01*
X127477428Y-110589235D01*
X127454329Y-110580970D01*
X127432150Y-110570480D01*
X127411107Y-110557868D01*
X127391401Y-110543253D01*
X127373223Y-110526777D01*
X127356747Y-110508599D01*
X127342132Y-110488893D01*
X127329520Y-110467850D01*
X127319030Y-110445671D01*
X127310765Y-110422572D01*
X127304804Y-110398773D01*
X127301204Y-110374505D01*
X127300000Y-110350001D01*
X127300000Y-109649999D01*
X127301204Y-109625495D01*
X127304804Y-109601227D01*
X127310765Y-109577428D01*
X127319030Y-109554329D01*
X127329520Y-109532150D01*
X127342132Y-109511107D01*
X127356747Y-109491401D01*
X127373223Y-109473223D01*
X127391401Y-109456747D01*
X127411107Y-109442132D01*
X127432150Y-109429520D01*
X127454329Y-109419030D01*
X127477428Y-109410765D01*
X127501227Y-109404804D01*
X127525495Y-109401204D01*
X127549999Y-109400000D01*
X128450001Y-109400000D01*
X128474505Y-109401204D01*
G37*
G36*
X123474505Y-107401204D02*
G01*
X123498773Y-107404804D01*
X123522572Y-107410765D01*
X123545671Y-107419030D01*
X123567850Y-107429520D01*
X123588893Y-107442132D01*
X123608599Y-107456747D01*
X123626777Y-107473223D01*
X123643253Y-107491401D01*
X123657868Y-107511107D01*
X123670480Y-107532150D01*
X123680970Y-107554329D01*
X123689235Y-107577428D01*
X123695196Y-107601227D01*
X123698796Y-107625495D01*
X123700000Y-107649999D01*
X123700000Y-108350001D01*
X123698796Y-108374505D01*
X123695196Y-108398773D01*
X123689235Y-108422572D01*
X123680970Y-108445671D01*
X123670480Y-108467850D01*
X123657868Y-108488893D01*
X123643253Y-108508599D01*
X123626777Y-108526777D01*
X123608599Y-108543253D01*
X123588893Y-108557868D01*
X123567850Y-108570480D01*
X123545671Y-108580970D01*
X123522572Y-108589235D01*
X123498773Y-108595196D01*
X123474505Y-108598796D01*
X123450001Y-108600000D01*
X122549999Y-108600000D01*
X122525495Y-108598796D01*
X122501227Y-108595196D01*
X122477428Y-108589235D01*
X122454329Y-108580970D01*
X122432150Y-108570480D01*
X122411107Y-108557868D01*
X122391401Y-108543253D01*
X122373223Y-108526777D01*
X122356747Y-108508599D01*
X122342132Y-108488893D01*
X122329520Y-108467850D01*
X122319030Y-108445671D01*
X122310765Y-108422572D01*
X122304804Y-108398773D01*
X122301204Y-108374505D01*
X122300000Y-108350001D01*
X122300000Y-107649999D01*
X122301204Y-107625495D01*
X122304804Y-107601227D01*
X122310765Y-107577428D01*
X122319030Y-107554329D01*
X122329520Y-107532150D01*
X122342132Y-107511107D01*
X122356747Y-107491401D01*
X122373223Y-107473223D01*
X122391401Y-107456747D01*
X122411107Y-107442132D01*
X122432150Y-107429520D01*
X122454329Y-107419030D01*
X122477428Y-107410765D01*
X122501227Y-107404804D01*
X122525495Y-107401204D01*
X122549999Y-107400000D01*
X123450001Y-107400000D01*
X123474505Y-107401204D01*
G37*
G36*
X123474505Y-109401204D02*
G01*
X123498773Y-109404804D01*
X123522572Y-109410765D01*
X123545671Y-109419030D01*
X123567850Y-109429520D01*
X123588893Y-109442132D01*
X123608599Y-109456747D01*
X123626777Y-109473223D01*
X123643253Y-109491401D01*
X123657868Y-109511107D01*
X123670480Y-109532150D01*
X123680970Y-109554329D01*
X123689235Y-109577428D01*
X123695196Y-109601227D01*
X123698796Y-109625495D01*
X123700000Y-109649999D01*
X123700000Y-110350001D01*
X123698796Y-110374505D01*
X123695196Y-110398773D01*
X123689235Y-110422572D01*
X123680970Y-110445671D01*
X123670480Y-110467850D01*
X123657868Y-110488893D01*
X123643253Y-110508599D01*
X123626777Y-110526777D01*
X123608599Y-110543253D01*
X123588893Y-110557868D01*
X123567850Y-110570480D01*
X123545671Y-110580970D01*
X123522572Y-110589235D01*
X123498773Y-110595196D01*
X123474505Y-110598796D01*
X123450001Y-110600000D01*
X122549999Y-110600000D01*
X122525495Y-110598796D01*
X122501227Y-110595196D01*
X122477428Y-110589235D01*
X122454329Y-110580970D01*
X122432150Y-110570480D01*
X122411107Y-110557868D01*
X122391401Y-110543253D01*
X122373223Y-110526777D01*
X122356747Y-110508599D01*
X122342132Y-110488893D01*
X122329520Y-110467850D01*
X122319030Y-110445671D01*
X122310765Y-110422572D01*
X122304804Y-110398773D01*
X122301204Y-110374505D01*
X122300000Y-110350001D01*
X122300000Y-109649999D01*
X122301204Y-109625495D01*
X122304804Y-109601227D01*
X122310765Y-109577428D01*
X122319030Y-109554329D01*
X122329520Y-109532150D01*
X122342132Y-109511107D01*
X122356747Y-109491401D01*
X122373223Y-109473223D01*
X122391401Y-109456747D01*
X122411107Y-109442132D01*
X122432150Y-109429520D01*
X122454329Y-109419030D01*
X122477428Y-109410765D01*
X122501227Y-109404804D01*
X122525495Y-109401204D01*
X122549999Y-109400000D01*
X123450001Y-109400000D01*
X123474505Y-109401204D01*
G37*
G36*
X118474505Y-107401204D02*
G01*
X118498773Y-107404804D01*
X118522572Y-107410765D01*
X118545671Y-107419030D01*
X118567850Y-107429520D01*
X118588893Y-107442132D01*
X118608599Y-107456747D01*
X118626777Y-107473223D01*
X118643253Y-107491401D01*
X118657868Y-107511107D01*
X118670480Y-107532150D01*
X118680970Y-107554329D01*
X118689235Y-107577428D01*
X118695196Y-107601227D01*
X118698796Y-107625495D01*
X118700000Y-107649999D01*
X118700000Y-108350001D01*
X118698796Y-108374505D01*
X118695196Y-108398773D01*
X118689235Y-108422572D01*
X118680970Y-108445671D01*
X118670480Y-108467850D01*
X118657868Y-108488893D01*
X118643253Y-108508599D01*
X118626777Y-108526777D01*
X118608599Y-108543253D01*
X118588893Y-108557868D01*
X118567850Y-108570480D01*
X118545671Y-108580970D01*
X118522572Y-108589235D01*
X118498773Y-108595196D01*
X118474505Y-108598796D01*
X118450001Y-108600000D01*
X117549999Y-108600000D01*
X117525495Y-108598796D01*
X117501227Y-108595196D01*
X117477428Y-108589235D01*
X117454329Y-108580970D01*
X117432150Y-108570480D01*
X117411107Y-108557868D01*
X117391401Y-108543253D01*
X117373223Y-108526777D01*
X117356747Y-108508599D01*
X117342132Y-108488893D01*
X117329520Y-108467850D01*
X117319030Y-108445671D01*
X117310765Y-108422572D01*
X117304804Y-108398773D01*
X117301204Y-108374505D01*
X117300000Y-108350001D01*
X117300000Y-107649999D01*
X117301204Y-107625495D01*
X117304804Y-107601227D01*
X117310765Y-107577428D01*
X117319030Y-107554329D01*
X117329520Y-107532150D01*
X117342132Y-107511107D01*
X117356747Y-107491401D01*
X117373223Y-107473223D01*
X117391401Y-107456747D01*
X117411107Y-107442132D01*
X117432150Y-107429520D01*
X117454329Y-107419030D01*
X117477428Y-107410765D01*
X117501227Y-107404804D01*
X117525495Y-107401204D01*
X117549999Y-107400000D01*
X118450001Y-107400000D01*
X118474505Y-107401204D01*
G37*
G36*
X118474505Y-109401204D02*
G01*
X118498773Y-109404804D01*
X118522572Y-109410765D01*
X118545671Y-109419030D01*
X118567850Y-109429520D01*
X118588893Y-109442132D01*
X118608599Y-109456747D01*
X118626777Y-109473223D01*
X118643253Y-109491401D01*
X118657868Y-109511107D01*
X118670480Y-109532150D01*
X118680970Y-109554329D01*
X118689235Y-109577428D01*
X118695196Y-109601227D01*
X118698796Y-109625495D01*
X118700000Y-109649999D01*
X118700000Y-110350001D01*
X118698796Y-110374505D01*
X118695196Y-110398773D01*
X118689235Y-110422572D01*
X118680970Y-110445671D01*
X118670480Y-110467850D01*
X118657868Y-110488893D01*
X118643253Y-110508599D01*
X118626777Y-110526777D01*
X118608599Y-110543253D01*
X118588893Y-110557868D01*
X118567850Y-110570480D01*
X118545671Y-110580970D01*
X118522572Y-110589235D01*
X118498773Y-110595196D01*
X118474505Y-110598796D01*
X118450001Y-110600000D01*
X117549999Y-110600000D01*
X117525495Y-110598796D01*
X117501227Y-110595196D01*
X117477428Y-110589235D01*
X117454329Y-110580970D01*
X117432150Y-110570480D01*
X117411107Y-110557868D01*
X117391401Y-110543253D01*
X117373223Y-110526777D01*
X117356747Y-110508599D01*
X117342132Y-110488893D01*
X117329520Y-110467850D01*
X117319030Y-110445671D01*
X117310765Y-110422572D01*
X117304804Y-110398773D01*
X117301204Y-110374505D01*
X117300000Y-110350001D01*
X117300000Y-109649999D01*
X117301204Y-109625495D01*
X117304804Y-109601227D01*
X117310765Y-109577428D01*
X117319030Y-109554329D01*
X117329520Y-109532150D01*
X117342132Y-109511107D01*
X117356747Y-109491401D01*
X117373223Y-109473223D01*
X117391401Y-109456747D01*
X117411107Y-109442132D01*
X117432150Y-109429520D01*
X117454329Y-109419030D01*
X117477428Y-109410765D01*
X117501227Y-109404804D01*
X117525495Y-109401204D01*
X117549999Y-109400000D01*
X118450001Y-109400000D01*
X118474505Y-109401204D01*
G37*
G36*
X113474505Y-107401204D02*
G01*
X113498773Y-107404804D01*
X113522572Y-107410765D01*
X113545671Y-107419030D01*
X113567850Y-107429520D01*
X113588893Y-107442132D01*
X113608599Y-107456747D01*
X113626777Y-107473223D01*
X113643253Y-107491401D01*
X113657868Y-107511107D01*
X113670480Y-107532150D01*
X113680970Y-107554329D01*
X113689235Y-107577428D01*
X113695196Y-107601227D01*
X113698796Y-107625495D01*
X113700000Y-107649999D01*
X113700000Y-108350001D01*
X113698796Y-108374505D01*
X113695196Y-108398773D01*
X113689235Y-108422572D01*
X113680970Y-108445671D01*
X113670480Y-108467850D01*
X113657868Y-108488893D01*
X113643253Y-108508599D01*
X113626777Y-108526777D01*
X113608599Y-108543253D01*
X113588893Y-108557868D01*
X113567850Y-108570480D01*
X113545671Y-108580970D01*
X113522572Y-108589235D01*
X113498773Y-108595196D01*
X113474505Y-108598796D01*
X113450001Y-108600000D01*
X112549999Y-108600000D01*
X112525495Y-108598796D01*
X112501227Y-108595196D01*
X112477428Y-108589235D01*
X112454329Y-108580970D01*
X112432150Y-108570480D01*
X112411107Y-108557868D01*
X112391401Y-108543253D01*
X112373223Y-108526777D01*
X112356747Y-108508599D01*
X112342132Y-108488893D01*
X112329520Y-108467850D01*
X112319030Y-108445671D01*
X112310765Y-108422572D01*
X112304804Y-108398773D01*
X112301204Y-108374505D01*
X112300000Y-108350001D01*
X112300000Y-107649999D01*
X112301204Y-107625495D01*
X112304804Y-107601227D01*
X112310765Y-107577428D01*
X112319030Y-107554329D01*
X112329520Y-107532150D01*
X112342132Y-107511107D01*
X112356747Y-107491401D01*
X112373223Y-107473223D01*
X112391401Y-107456747D01*
X112411107Y-107442132D01*
X112432150Y-107429520D01*
X112454329Y-107419030D01*
X112477428Y-107410765D01*
X112501227Y-107404804D01*
X112525495Y-107401204D01*
X112549999Y-107400000D01*
X113450001Y-107400000D01*
X113474505Y-107401204D01*
G37*
G36*
X113474505Y-109401204D02*
G01*
X113498773Y-109404804D01*
X113522572Y-109410765D01*
X113545671Y-109419030D01*
X113567850Y-109429520D01*
X113588893Y-109442132D01*
X113608599Y-109456747D01*
X113626777Y-109473223D01*
X113643253Y-109491401D01*
X113657868Y-109511107D01*
X113670480Y-109532150D01*
X113680970Y-109554329D01*
X113689235Y-109577428D01*
X113695196Y-109601227D01*
X113698796Y-109625495D01*
X113700000Y-109649999D01*
X113700000Y-110350001D01*
X113698796Y-110374505D01*
X113695196Y-110398773D01*
X113689235Y-110422572D01*
X113680970Y-110445671D01*
X113670480Y-110467850D01*
X113657868Y-110488893D01*
X113643253Y-110508599D01*
X113626777Y-110526777D01*
X113608599Y-110543253D01*
X113588893Y-110557868D01*
X113567850Y-110570480D01*
X113545671Y-110580970D01*
X113522572Y-110589235D01*
X113498773Y-110595196D01*
X113474505Y-110598796D01*
X113450001Y-110600000D01*
X112549999Y-110600000D01*
X112525495Y-110598796D01*
X112501227Y-110595196D01*
X112477428Y-110589235D01*
X112454329Y-110580970D01*
X112432150Y-110570480D01*
X112411107Y-110557868D01*
X112391401Y-110543253D01*
X112373223Y-110526777D01*
X112356747Y-110508599D01*
X112342132Y-110488893D01*
X112329520Y-110467850D01*
X112319030Y-110445671D01*
X112310765Y-110422572D01*
X112304804Y-110398773D01*
X112301204Y-110374505D01*
X112300000Y-110350001D01*
X112300000Y-109649999D01*
X112301204Y-109625495D01*
X112304804Y-109601227D01*
X112310765Y-109577428D01*
X112319030Y-109554329D01*
X112329520Y-109532150D01*
X112342132Y-109511107D01*
X112356747Y-109491401D01*
X112373223Y-109473223D01*
X112391401Y-109456747D01*
X112411107Y-109442132D01*
X112432150Y-109429520D01*
X112454329Y-109419030D01*
X112477428Y-109410765D01*
X112501227Y-109404804D01*
X112525495Y-109401204D01*
X112549999Y-109400000D01*
X113450001Y-109400000D01*
X113474505Y-109401204D01*
G37*
G36*
X108474505Y-107401204D02*
G01*
X108498773Y-107404804D01*
X108522572Y-107410765D01*
X108545671Y-107419030D01*
X108567850Y-107429520D01*
X108588893Y-107442132D01*
X108608599Y-107456747D01*
X108626777Y-107473223D01*
X108643253Y-107491401D01*
X108657868Y-107511107D01*
X108670480Y-107532150D01*
X108680970Y-107554329D01*
X108689235Y-107577428D01*
X108695196Y-107601227D01*
X108698796Y-107625495D01*
X108700000Y-107649999D01*
X108700000Y-108350001D01*
X108698796Y-108374505D01*
X108695196Y-108398773D01*
X108689235Y-108422572D01*
X108680970Y-108445671D01*
X108670480Y-108467850D01*
X108657868Y-108488893D01*
X108643253Y-108508599D01*
X108626777Y-108526777D01*
X108608599Y-108543253D01*
X108588893Y-108557868D01*
X108567850Y-108570480D01*
X108545671Y-108580970D01*
X108522572Y-108589235D01*
X108498773Y-108595196D01*
X108474505Y-108598796D01*
X108450001Y-108600000D01*
X107549999Y-108600000D01*
X107525495Y-108598796D01*
X107501227Y-108595196D01*
X107477428Y-108589235D01*
X107454329Y-108580970D01*
X107432150Y-108570480D01*
X107411107Y-108557868D01*
X107391401Y-108543253D01*
X107373223Y-108526777D01*
X107356747Y-108508599D01*
X107342132Y-108488893D01*
X107329520Y-108467850D01*
X107319030Y-108445671D01*
X107310765Y-108422572D01*
X107304804Y-108398773D01*
X107301204Y-108374505D01*
X107300000Y-108350001D01*
X107300000Y-107649999D01*
X107301204Y-107625495D01*
X107304804Y-107601227D01*
X107310765Y-107577428D01*
X107319030Y-107554329D01*
X107329520Y-107532150D01*
X107342132Y-107511107D01*
X107356747Y-107491401D01*
X107373223Y-107473223D01*
X107391401Y-107456747D01*
X107411107Y-107442132D01*
X107432150Y-107429520D01*
X107454329Y-107419030D01*
X107477428Y-107410765D01*
X107501227Y-107404804D01*
X107525495Y-107401204D01*
X107549999Y-107400000D01*
X108450001Y-107400000D01*
X108474505Y-107401204D01*
G37*
G36*
X108474505Y-109401204D02*
G01*
X108498773Y-109404804D01*
X108522572Y-109410765D01*
X108545671Y-109419030D01*
X108567850Y-109429520D01*
X108588893Y-109442132D01*
X108608599Y-109456747D01*
X108626777Y-109473223D01*
X108643253Y-109491401D01*
X108657868Y-109511107D01*
X108670480Y-109532150D01*
X108680970Y-109554329D01*
X108689235Y-109577428D01*
X108695196Y-109601227D01*
X108698796Y-109625495D01*
X108700000Y-109649999D01*
X108700000Y-110350001D01*
X108698796Y-110374505D01*
X108695196Y-110398773D01*
X108689235Y-110422572D01*
X108680970Y-110445671D01*
X108670480Y-110467850D01*
X108657868Y-110488893D01*
X108643253Y-110508599D01*
X108626777Y-110526777D01*
X108608599Y-110543253D01*
X108588893Y-110557868D01*
X108567850Y-110570480D01*
X108545671Y-110580970D01*
X108522572Y-110589235D01*
X108498773Y-110595196D01*
X108474505Y-110598796D01*
X108450001Y-110600000D01*
X107549999Y-110600000D01*
X107525495Y-110598796D01*
X107501227Y-110595196D01*
X107477428Y-110589235D01*
X107454329Y-110580970D01*
X107432150Y-110570480D01*
X107411107Y-110557868D01*
X107391401Y-110543253D01*
X107373223Y-110526777D01*
X107356747Y-110508599D01*
X107342132Y-110488893D01*
X107329520Y-110467850D01*
X107319030Y-110445671D01*
X107310765Y-110422572D01*
X107304804Y-110398773D01*
X107301204Y-110374505D01*
X107300000Y-110350001D01*
X107300000Y-109649999D01*
X107301204Y-109625495D01*
X107304804Y-109601227D01*
X107310765Y-109577428D01*
X107319030Y-109554329D01*
X107329520Y-109532150D01*
X107342132Y-109511107D01*
X107356747Y-109491401D01*
X107373223Y-109473223D01*
X107391401Y-109456747D01*
X107411107Y-109442132D01*
X107432150Y-109429520D01*
X107454329Y-109419030D01*
X107477428Y-109410765D01*
X107501227Y-109404804D01*
X107525495Y-109401204D01*
X107549999Y-109400000D01*
X108450001Y-109400000D01*
X108474505Y-109401204D01*
G37*
G36*
X103474505Y-107401204D02*
G01*
X103498773Y-107404804D01*
X103522572Y-107410765D01*
X103545671Y-107419030D01*
X103567850Y-107429520D01*
X103588893Y-107442132D01*
X103608599Y-107456747D01*
X103626777Y-107473223D01*
X103643253Y-107491401D01*
X103657868Y-107511107D01*
X103670480Y-107532150D01*
X103680970Y-107554329D01*
X103689235Y-107577428D01*
X103695196Y-107601227D01*
X103698796Y-107625495D01*
X103700000Y-107649999D01*
X103700000Y-108350001D01*
X103698796Y-108374505D01*
X103695196Y-108398773D01*
X103689235Y-108422572D01*
X103680970Y-108445671D01*
X103670480Y-108467850D01*
X103657868Y-108488893D01*
X103643253Y-108508599D01*
X103626777Y-108526777D01*
X103608599Y-108543253D01*
X103588893Y-108557868D01*
X103567850Y-108570480D01*
X103545671Y-108580970D01*
X103522572Y-108589235D01*
X103498773Y-108595196D01*
X103474505Y-108598796D01*
X103450001Y-108600000D01*
X102549999Y-108600000D01*
X102525495Y-108598796D01*
X102501227Y-108595196D01*
X102477428Y-108589235D01*
X102454329Y-108580970D01*
X102432150Y-108570480D01*
X102411107Y-108557868D01*
X102391401Y-108543253D01*
X102373223Y-108526777D01*
X102356747Y-108508599D01*
X102342132Y-108488893D01*
X102329520Y-108467850D01*
X102319030Y-108445671D01*
X102310765Y-108422572D01*
X102304804Y-108398773D01*
X102301204Y-108374505D01*
X102300000Y-108350001D01*
X102300000Y-107649999D01*
X102301204Y-107625495D01*
X102304804Y-107601227D01*
X102310765Y-107577428D01*
X102319030Y-107554329D01*
X102329520Y-107532150D01*
X102342132Y-107511107D01*
X102356747Y-107491401D01*
X102373223Y-107473223D01*
X102391401Y-107456747D01*
X102411107Y-107442132D01*
X102432150Y-107429520D01*
X102454329Y-107419030D01*
X102477428Y-107410765D01*
X102501227Y-107404804D01*
X102525495Y-107401204D01*
X102549999Y-107400000D01*
X103450001Y-107400000D01*
X103474505Y-107401204D01*
G37*
G36*
X103474505Y-109401204D02*
G01*
X103498773Y-109404804D01*
X103522572Y-109410765D01*
X103545671Y-109419030D01*
X103567850Y-109429520D01*
X103588893Y-109442132D01*
X103608599Y-109456747D01*
X103626777Y-109473223D01*
X103643253Y-109491401D01*
X103657868Y-109511107D01*
X103670480Y-109532150D01*
X103680970Y-109554329D01*
X103689235Y-109577428D01*
X103695196Y-109601227D01*
X103698796Y-109625495D01*
X103700000Y-109649999D01*
X103700000Y-110350001D01*
X103698796Y-110374505D01*
X103695196Y-110398773D01*
X103689235Y-110422572D01*
X103680970Y-110445671D01*
X103670480Y-110467850D01*
X103657868Y-110488893D01*
X103643253Y-110508599D01*
X103626777Y-110526777D01*
X103608599Y-110543253D01*
X103588893Y-110557868D01*
X103567850Y-110570480D01*
X103545671Y-110580970D01*
X103522572Y-110589235D01*
X103498773Y-110595196D01*
X103474505Y-110598796D01*
X103450001Y-110600000D01*
X102549999Y-110600000D01*
X102525495Y-110598796D01*
X102501227Y-110595196D01*
X102477428Y-110589235D01*
X102454329Y-110580970D01*
X102432150Y-110570480D01*
X102411107Y-110557868D01*
X102391401Y-110543253D01*
X102373223Y-110526777D01*
X102356747Y-110508599D01*
X102342132Y-110488893D01*
X102329520Y-110467850D01*
X102319030Y-110445671D01*
X102310765Y-110422572D01*
X102304804Y-110398773D01*
X102301204Y-110374505D01*
X102300000Y-110350001D01*
X102300000Y-109649999D01*
X102301204Y-109625495D01*
X102304804Y-109601227D01*
X102310765Y-109577428D01*
X102319030Y-109554329D01*
X102329520Y-109532150D01*
X102342132Y-109511107D01*
X102356747Y-109491401D01*
X102373223Y-109473223D01*
X102391401Y-109456747D01*
X102411107Y-109442132D01*
X102432150Y-109429520D01*
X102454329Y-109419030D01*
X102477428Y-109410765D01*
X102501227Y-109404804D01*
X102525495Y-109401204D01*
X102549999Y-109400000D01*
X103450001Y-109400000D01*
X103474505Y-109401204D01*
G37*
G36*
X142974505Y-111901204D02*
G01*
X142998773Y-111904804D01*
X143022572Y-111910765D01*
X143045671Y-111919030D01*
X143067850Y-111929520D01*
X143088893Y-111942132D01*
X143108599Y-111956747D01*
X143126777Y-111973223D01*
X143143253Y-111991401D01*
X143157868Y-112011107D01*
X143170480Y-112032150D01*
X143180970Y-112054329D01*
X143189235Y-112077428D01*
X143195196Y-112101227D01*
X143198796Y-112125495D01*
X143200000Y-112149999D01*
X143200000Y-112850001D01*
X143198796Y-112874505D01*
X143195196Y-112898773D01*
X143189235Y-112922572D01*
X143180970Y-112945671D01*
X143170480Y-112967850D01*
X143157868Y-112988893D01*
X143143253Y-113008599D01*
X143126777Y-113026777D01*
X143108599Y-113043253D01*
X143088893Y-113057868D01*
X143067850Y-113070480D01*
X143045671Y-113080970D01*
X143022572Y-113089235D01*
X142998773Y-113095196D01*
X142974505Y-113098796D01*
X142950001Y-113100000D01*
X142049999Y-113100000D01*
X142025495Y-113098796D01*
X142001227Y-113095196D01*
X141977428Y-113089235D01*
X141954329Y-113080970D01*
X141932150Y-113070480D01*
X141911107Y-113057868D01*
X141891401Y-113043253D01*
X141873223Y-113026777D01*
X141856747Y-113008599D01*
X141842132Y-112988893D01*
X141829520Y-112967850D01*
X141819030Y-112945671D01*
X141810765Y-112922572D01*
X141804804Y-112898773D01*
X141801204Y-112874505D01*
X141800000Y-112850001D01*
X141800000Y-112149999D01*
X141801204Y-112125495D01*
X141804804Y-112101227D01*
X141810765Y-112077428D01*
X141819030Y-112054329D01*
X141829520Y-112032150D01*
X141842132Y-112011107D01*
X141856747Y-111991401D01*
X141873223Y-111973223D01*
X141891401Y-111956747D01*
X141911107Y-111942132D01*
X141932150Y-111929520D01*
X141954329Y-111919030D01*
X141977428Y-111910765D01*
X142001227Y-111904804D01*
X142025495Y-111901204D01*
X142049999Y-111900000D01*
X142950001Y-111900000D01*
X142974505Y-111901204D01*
G37*
G36*
X142974505Y-113901204D02*
G01*
X142998773Y-113904804D01*
X143022572Y-113910765D01*
X143045671Y-113919030D01*
X143067850Y-113929520D01*
X143088893Y-113942132D01*
X143108599Y-113956747D01*
X143126777Y-113973223D01*
X143143253Y-113991401D01*
X143157868Y-114011107D01*
X143170480Y-114032150D01*
X143180970Y-114054329D01*
X143189235Y-114077428D01*
X143195196Y-114101227D01*
X143198796Y-114125495D01*
X143200000Y-114149999D01*
X143200000Y-114850001D01*
X143198796Y-114874505D01*
X143195196Y-114898773D01*
X143189235Y-114922572D01*
X143180970Y-114945671D01*
X143170480Y-114967850D01*
X143157868Y-114988893D01*
X143143253Y-115008599D01*
X143126777Y-115026777D01*
X143108599Y-115043253D01*
X143088893Y-115057868D01*
X143067850Y-115070480D01*
X143045671Y-115080970D01*
X143022572Y-115089235D01*
X142998773Y-115095196D01*
X142974505Y-115098796D01*
X142950001Y-115100000D01*
X142049999Y-115100000D01*
X142025495Y-115098796D01*
X142001227Y-115095196D01*
X141977428Y-115089235D01*
X141954329Y-115080970D01*
X141932150Y-115070480D01*
X141911107Y-115057868D01*
X141891401Y-115043253D01*
X141873223Y-115026777D01*
X141856747Y-115008599D01*
X141842132Y-114988893D01*
X141829520Y-114967850D01*
X141819030Y-114945671D01*
X141810765Y-114922572D01*
X141804804Y-114898773D01*
X141801204Y-114874505D01*
X141800000Y-114850001D01*
X141800000Y-114149999D01*
X141801204Y-114125495D01*
X141804804Y-114101227D01*
X141810765Y-114077428D01*
X141819030Y-114054329D01*
X141829520Y-114032150D01*
X141842132Y-114011107D01*
X141856747Y-113991401D01*
X141873223Y-113973223D01*
X141891401Y-113956747D01*
X141911107Y-113942132D01*
X141932150Y-113929520D01*
X141954329Y-113919030D01*
X141977428Y-113910765D01*
X142001227Y-113904804D01*
X142025495Y-113901204D01*
X142049999Y-113900000D01*
X142950001Y-113900000D01*
X142974505Y-113901204D01*
G37*
G36*
X149974505Y-107901204D02*
G01*
X149998773Y-107904804D01*
X150022572Y-107910765D01*
X150045671Y-107919030D01*
X150067850Y-107929520D01*
X150088893Y-107942132D01*
X150108599Y-107956747D01*
X150126777Y-107973223D01*
X150143253Y-107991401D01*
X150157868Y-108011107D01*
X150170480Y-108032150D01*
X150180970Y-108054329D01*
X150189235Y-108077428D01*
X150195196Y-108101227D01*
X150198796Y-108125495D01*
X150200000Y-108149999D01*
X150200000Y-108850001D01*
X150198796Y-108874505D01*
X150195196Y-108898773D01*
X150189235Y-108922572D01*
X150180970Y-108945671D01*
X150170480Y-108967850D01*
X150157868Y-108988893D01*
X150143253Y-109008599D01*
X150126777Y-109026777D01*
X150108599Y-109043253D01*
X150088893Y-109057868D01*
X150067850Y-109070480D01*
X150045671Y-109080970D01*
X150022572Y-109089235D01*
X149998773Y-109095196D01*
X149974505Y-109098796D01*
X149950001Y-109100000D01*
X149049999Y-109100000D01*
X149025495Y-109098796D01*
X149001227Y-109095196D01*
X148977428Y-109089235D01*
X148954329Y-109080970D01*
X148932150Y-109070480D01*
X148911107Y-109057868D01*
X148891401Y-109043253D01*
X148873223Y-109026777D01*
X148856747Y-109008599D01*
X148842132Y-108988893D01*
X148829520Y-108967850D01*
X148819030Y-108945671D01*
X148810765Y-108922572D01*
X148804804Y-108898773D01*
X148801204Y-108874505D01*
X148800000Y-108850001D01*
X148800000Y-108149999D01*
X148801204Y-108125495D01*
X148804804Y-108101227D01*
X148810765Y-108077428D01*
X148819030Y-108054329D01*
X148829520Y-108032150D01*
X148842132Y-108011107D01*
X148856747Y-107991401D01*
X148873223Y-107973223D01*
X148891401Y-107956747D01*
X148911107Y-107942132D01*
X148932150Y-107929520D01*
X148954329Y-107919030D01*
X148977428Y-107910765D01*
X149001227Y-107904804D01*
X149025495Y-107901204D01*
X149049999Y-107900000D01*
X149950001Y-107900000D01*
X149974505Y-107901204D01*
G37*
G36*
X149974505Y-105901204D02*
G01*
X149998773Y-105904804D01*
X150022572Y-105910765D01*
X150045671Y-105919030D01*
X150067850Y-105929520D01*
X150088893Y-105942132D01*
X150108599Y-105956747D01*
X150126777Y-105973223D01*
X150143253Y-105991401D01*
X150157868Y-106011107D01*
X150170480Y-106032150D01*
X150180970Y-106054329D01*
X150189235Y-106077428D01*
X150195196Y-106101227D01*
X150198796Y-106125495D01*
X150200000Y-106149999D01*
X150200000Y-106850001D01*
X150198796Y-106874505D01*
X150195196Y-106898773D01*
X150189235Y-106922572D01*
X150180970Y-106945671D01*
X150170480Y-106967850D01*
X150157868Y-106988893D01*
X150143253Y-107008599D01*
X150126777Y-107026777D01*
X150108599Y-107043253D01*
X150088893Y-107057868D01*
X150067850Y-107070480D01*
X150045671Y-107080970D01*
X150022572Y-107089235D01*
X149998773Y-107095196D01*
X149974505Y-107098796D01*
X149950001Y-107100000D01*
X149049999Y-107100000D01*
X149025495Y-107098796D01*
X149001227Y-107095196D01*
X148977428Y-107089235D01*
X148954329Y-107080970D01*
X148932150Y-107070480D01*
X148911107Y-107057868D01*
X148891401Y-107043253D01*
X148873223Y-107026777D01*
X148856747Y-107008599D01*
X148842132Y-106988893D01*
X148829520Y-106967850D01*
X148819030Y-106945671D01*
X148810765Y-106922572D01*
X148804804Y-106898773D01*
X148801204Y-106874505D01*
X148800000Y-106850001D01*
X148800000Y-106149999D01*
X148801204Y-106125495D01*
X148804804Y-106101227D01*
X148810765Y-106077428D01*
X148819030Y-106054329D01*
X148829520Y-106032150D01*
X148842132Y-106011107D01*
X148856747Y-105991401D01*
X148873223Y-105973223D01*
X148891401Y-105956747D01*
X148911107Y-105942132D01*
X148932150Y-105929520D01*
X148954329Y-105919030D01*
X148977428Y-105910765D01*
X149001227Y-105904804D01*
X149025495Y-105901204D01*
X149049999Y-105900000D01*
X149950001Y-105900000D01*
X149974505Y-105901204D01*
G37*
G36*
X149974505Y-113901204D02*
G01*
X149998773Y-113904804D01*
X150022572Y-113910765D01*
X150045671Y-113919030D01*
X150067850Y-113929520D01*
X150088893Y-113942132D01*
X150108599Y-113956747D01*
X150126777Y-113973223D01*
X150143253Y-113991401D01*
X150157868Y-114011107D01*
X150170480Y-114032150D01*
X150180970Y-114054329D01*
X150189235Y-114077428D01*
X150195196Y-114101227D01*
X150198796Y-114125495D01*
X150200000Y-114149999D01*
X150200000Y-114850001D01*
X150198796Y-114874505D01*
X150195196Y-114898773D01*
X150189235Y-114922572D01*
X150180970Y-114945671D01*
X150170480Y-114967850D01*
X150157868Y-114988893D01*
X150143253Y-115008599D01*
X150126777Y-115026777D01*
X150108599Y-115043253D01*
X150088893Y-115057868D01*
X150067850Y-115070480D01*
X150045671Y-115080970D01*
X150022572Y-115089235D01*
X149998773Y-115095196D01*
X149974505Y-115098796D01*
X149950001Y-115100000D01*
X149049999Y-115100000D01*
X149025495Y-115098796D01*
X149001227Y-115095196D01*
X148977428Y-115089235D01*
X148954329Y-115080970D01*
X148932150Y-115070480D01*
X148911107Y-115057868D01*
X148891401Y-115043253D01*
X148873223Y-115026777D01*
X148856747Y-115008599D01*
X148842132Y-114988893D01*
X148829520Y-114967850D01*
X148819030Y-114945671D01*
X148810765Y-114922572D01*
X148804804Y-114898773D01*
X148801204Y-114874505D01*
X148800000Y-114850001D01*
X148800000Y-114149999D01*
X148801204Y-114125495D01*
X148804804Y-114101227D01*
X148810765Y-114077428D01*
X148819030Y-114054329D01*
X148829520Y-114032150D01*
X148842132Y-114011107D01*
X148856747Y-113991401D01*
X148873223Y-113973223D01*
X148891401Y-113956747D01*
X148911107Y-113942132D01*
X148932150Y-113929520D01*
X148954329Y-113919030D01*
X148977428Y-113910765D01*
X149001227Y-113904804D01*
X149025495Y-113901204D01*
X149049999Y-113900000D01*
X149950001Y-113900000D01*
X149974505Y-113901204D01*
G37*
G36*
X149974505Y-111901204D02*
G01*
X149998773Y-111904804D01*
X150022572Y-111910765D01*
X150045671Y-111919030D01*
X150067850Y-111929520D01*
X150088893Y-111942132D01*
X150108599Y-111956747D01*
X150126777Y-111973223D01*
X150143253Y-111991401D01*
X150157868Y-112011107D01*
X150170480Y-112032150D01*
X150180970Y-112054329D01*
X150189235Y-112077428D01*
X150195196Y-112101227D01*
X150198796Y-112125495D01*
X150200000Y-112149999D01*
X150200000Y-112850001D01*
X150198796Y-112874505D01*
X150195196Y-112898773D01*
X150189235Y-112922572D01*
X150180970Y-112945671D01*
X150170480Y-112967850D01*
X150157868Y-112988893D01*
X150143253Y-113008599D01*
X150126777Y-113026777D01*
X150108599Y-113043253D01*
X150088893Y-113057868D01*
X150067850Y-113070480D01*
X150045671Y-113080970D01*
X150022572Y-113089235D01*
X149998773Y-113095196D01*
X149974505Y-113098796D01*
X149950001Y-113100000D01*
X149049999Y-113100000D01*
X149025495Y-113098796D01*
X149001227Y-113095196D01*
X148977428Y-113089235D01*
X148954329Y-113080970D01*
X148932150Y-113070480D01*
X148911107Y-113057868D01*
X148891401Y-113043253D01*
X148873223Y-113026777D01*
X148856747Y-113008599D01*
X148842132Y-112988893D01*
X148829520Y-112967850D01*
X148819030Y-112945671D01*
X148810765Y-112922572D01*
X148804804Y-112898773D01*
X148801204Y-112874505D01*
X148800000Y-112850001D01*
X148800000Y-112149999D01*
X148801204Y-112125495D01*
X148804804Y-112101227D01*
X148810765Y-112077428D01*
X148819030Y-112054329D01*
X148829520Y-112032150D01*
X148842132Y-112011107D01*
X148856747Y-111991401D01*
X148873223Y-111973223D01*
X148891401Y-111956747D01*
X148911107Y-111942132D01*
X148932150Y-111929520D01*
X148954329Y-111919030D01*
X148977428Y-111910765D01*
X149001227Y-111904804D01*
X149025495Y-111901204D01*
X149049999Y-111900000D01*
X149950001Y-111900000D01*
X149974505Y-111901204D01*
G37*
G36*
X155374505Y-110801204D02*
G01*
X155398773Y-110804804D01*
X155422572Y-110810765D01*
X155445671Y-110819030D01*
X155467850Y-110829520D01*
X155488893Y-110842132D01*
X155508599Y-110856747D01*
X155526777Y-110873223D01*
X155543253Y-110891401D01*
X155557868Y-110911107D01*
X155570480Y-110932150D01*
X155580970Y-110954329D01*
X155589235Y-110977428D01*
X155595196Y-111001227D01*
X155598796Y-111025495D01*
X155600000Y-111049999D01*
X155600000Y-111950001D01*
X155598796Y-111974505D01*
X155595196Y-111998773D01*
X155589235Y-112022572D01*
X155580970Y-112045671D01*
X155570480Y-112067850D01*
X155557868Y-112088893D01*
X155543253Y-112108599D01*
X155526777Y-112126777D01*
X155508599Y-112143253D01*
X155488893Y-112157868D01*
X155467850Y-112170480D01*
X155445671Y-112180970D01*
X155422572Y-112189235D01*
X155398773Y-112195196D01*
X155374505Y-112198796D01*
X155350001Y-112200000D01*
X154649999Y-112200000D01*
X154625495Y-112198796D01*
X154601227Y-112195196D01*
X154577428Y-112189235D01*
X154554329Y-112180970D01*
X154532150Y-112170480D01*
X154511107Y-112157868D01*
X154491401Y-112143253D01*
X154473223Y-112126777D01*
X154456747Y-112108599D01*
X154442132Y-112088893D01*
X154429520Y-112067850D01*
X154419030Y-112045671D01*
X154410765Y-112022572D01*
X154404804Y-111998773D01*
X154401204Y-111974505D01*
X154400000Y-111950001D01*
X154400000Y-111049999D01*
X154401204Y-111025495D01*
X154404804Y-111001227D01*
X154410765Y-110977428D01*
X154419030Y-110954329D01*
X154429520Y-110932150D01*
X154442132Y-110911107D01*
X154456747Y-110891401D01*
X154473223Y-110873223D01*
X154491401Y-110856747D01*
X154511107Y-110842132D01*
X154532150Y-110829520D01*
X154554329Y-110819030D01*
X154577428Y-110810765D01*
X154601227Y-110804804D01*
X154625495Y-110801204D01*
X154649999Y-110800000D01*
X155350001Y-110800000D01*
X155374505Y-110801204D01*
G37*
G36*
X157374505Y-110801204D02*
G01*
X157398773Y-110804804D01*
X157422572Y-110810765D01*
X157445671Y-110819030D01*
X157467850Y-110829520D01*
X157488893Y-110842132D01*
X157508599Y-110856747D01*
X157526777Y-110873223D01*
X157543253Y-110891401D01*
X157557868Y-110911107D01*
X157570480Y-110932150D01*
X157580970Y-110954329D01*
X157589235Y-110977428D01*
X157595196Y-111001227D01*
X157598796Y-111025495D01*
X157600000Y-111049999D01*
X157600000Y-111950001D01*
X157598796Y-111974505D01*
X157595196Y-111998773D01*
X157589235Y-112022572D01*
X157580970Y-112045671D01*
X157570480Y-112067850D01*
X157557868Y-112088893D01*
X157543253Y-112108599D01*
X157526777Y-112126777D01*
X157508599Y-112143253D01*
X157488893Y-112157868D01*
X157467850Y-112170480D01*
X157445671Y-112180970D01*
X157422572Y-112189235D01*
X157398773Y-112195196D01*
X157374505Y-112198796D01*
X157350001Y-112200000D01*
X156649999Y-112200000D01*
X156625495Y-112198796D01*
X156601227Y-112195196D01*
X156577428Y-112189235D01*
X156554329Y-112180970D01*
X156532150Y-112170480D01*
X156511107Y-112157868D01*
X156491401Y-112143253D01*
X156473223Y-112126777D01*
X156456747Y-112108599D01*
X156442132Y-112088893D01*
X156429520Y-112067850D01*
X156419030Y-112045671D01*
X156410765Y-112022572D01*
X156404804Y-111998773D01*
X156401204Y-111974505D01*
X156400000Y-111950001D01*
X156400000Y-111049999D01*
X156401204Y-111025495D01*
X156404804Y-111001227D01*
X156410765Y-110977428D01*
X156419030Y-110954329D01*
X156429520Y-110932150D01*
X156442132Y-110911107D01*
X156456747Y-110891401D01*
X156473223Y-110873223D01*
X156491401Y-110856747D01*
X156511107Y-110842132D01*
X156532150Y-110829520D01*
X156554329Y-110819030D01*
X156577428Y-110810765D01*
X156601227Y-110804804D01*
X156625495Y-110801204D01*
X156649999Y-110800000D01*
X157350001Y-110800000D01*
X157374505Y-110801204D01*
G37*
G36*
X155374505Y-108301204D02*
G01*
X155398773Y-108304804D01*
X155422572Y-108310765D01*
X155445671Y-108319030D01*
X155467850Y-108329520D01*
X155488893Y-108342132D01*
X155508599Y-108356747D01*
X155526777Y-108373223D01*
X155543253Y-108391401D01*
X155557868Y-108411107D01*
X155570480Y-108432150D01*
X155580970Y-108454329D01*
X155589235Y-108477428D01*
X155595196Y-108501227D01*
X155598796Y-108525495D01*
X155600000Y-108549999D01*
X155600000Y-109450001D01*
X155598796Y-109474505D01*
X155595196Y-109498773D01*
X155589235Y-109522572D01*
X155580970Y-109545671D01*
X155570480Y-109567850D01*
X155557868Y-109588893D01*
X155543253Y-109608599D01*
X155526777Y-109626777D01*
X155508599Y-109643253D01*
X155488893Y-109657868D01*
X155467850Y-109670480D01*
X155445671Y-109680970D01*
X155422572Y-109689235D01*
X155398773Y-109695196D01*
X155374505Y-109698796D01*
X155350001Y-109700000D01*
X154649999Y-109700000D01*
X154625495Y-109698796D01*
X154601227Y-109695196D01*
X154577428Y-109689235D01*
X154554329Y-109680970D01*
X154532150Y-109670480D01*
X154511107Y-109657868D01*
X154491401Y-109643253D01*
X154473223Y-109626777D01*
X154456747Y-109608599D01*
X154442132Y-109588893D01*
X154429520Y-109567850D01*
X154419030Y-109545671D01*
X154410765Y-109522572D01*
X154404804Y-109498773D01*
X154401204Y-109474505D01*
X154400000Y-109450001D01*
X154400000Y-108549999D01*
X154401204Y-108525495D01*
X154404804Y-108501227D01*
X154410765Y-108477428D01*
X154419030Y-108454329D01*
X154429520Y-108432150D01*
X154442132Y-108411107D01*
X154456747Y-108391401D01*
X154473223Y-108373223D01*
X154491401Y-108356747D01*
X154511107Y-108342132D01*
X154532150Y-108329520D01*
X154554329Y-108319030D01*
X154577428Y-108310765D01*
X154601227Y-108304804D01*
X154625495Y-108301204D01*
X154649999Y-108300000D01*
X155350001Y-108300000D01*
X155374505Y-108301204D01*
G37*
G36*
X157374505Y-108301204D02*
G01*
X157398773Y-108304804D01*
X157422572Y-108310765D01*
X157445671Y-108319030D01*
X157467850Y-108329520D01*
X157488893Y-108342132D01*
X157508599Y-108356747D01*
X157526777Y-108373223D01*
X157543253Y-108391401D01*
X157557868Y-108411107D01*
X157570480Y-108432150D01*
X157580970Y-108454329D01*
X157589235Y-108477428D01*
X157595196Y-108501227D01*
X157598796Y-108525495D01*
X157600000Y-108549999D01*
X157600000Y-109450001D01*
X157598796Y-109474505D01*
X157595196Y-109498773D01*
X157589235Y-109522572D01*
X157580970Y-109545671D01*
X157570480Y-109567850D01*
X157557868Y-109588893D01*
X157543253Y-109608599D01*
X157526777Y-109626777D01*
X157508599Y-109643253D01*
X157488893Y-109657868D01*
X157467850Y-109670480D01*
X157445671Y-109680970D01*
X157422572Y-109689235D01*
X157398773Y-109695196D01*
X157374505Y-109698796D01*
X157350001Y-109700000D01*
X156649999Y-109700000D01*
X156625495Y-109698796D01*
X156601227Y-109695196D01*
X156577428Y-109689235D01*
X156554329Y-109680970D01*
X156532150Y-109670480D01*
X156511107Y-109657868D01*
X156491401Y-109643253D01*
X156473223Y-109626777D01*
X156456747Y-109608599D01*
X156442132Y-109588893D01*
X156429520Y-109567850D01*
X156419030Y-109545671D01*
X156410765Y-109522572D01*
X156404804Y-109498773D01*
X156401204Y-109474505D01*
X156400000Y-109450001D01*
X156400000Y-108549999D01*
X156401204Y-108525495D01*
X156404804Y-108501227D01*
X156410765Y-108477428D01*
X156419030Y-108454329D01*
X156429520Y-108432150D01*
X156442132Y-108411107D01*
X156456747Y-108391401D01*
X156473223Y-108373223D01*
X156491401Y-108356747D01*
X156511107Y-108342132D01*
X156532150Y-108329520D01*
X156554329Y-108319030D01*
X156577428Y-108310765D01*
X156601227Y-108304804D01*
X156625495Y-108301204D01*
X156649999Y-108300000D01*
X157350001Y-108300000D01*
X157374505Y-108301204D01*
G37*
G36*
X162874505Y-108301204D02*
G01*
X162898773Y-108304804D01*
X162922572Y-108310765D01*
X162945671Y-108319030D01*
X162967850Y-108329520D01*
X162988893Y-108342132D01*
X163008599Y-108356747D01*
X163026777Y-108373223D01*
X163043253Y-108391401D01*
X163057868Y-108411107D01*
X163070480Y-108432150D01*
X163080970Y-108454329D01*
X163089235Y-108477428D01*
X163095196Y-108501227D01*
X163098796Y-108525495D01*
X163100000Y-108549999D01*
X163100000Y-109450001D01*
X163098796Y-109474505D01*
X163095196Y-109498773D01*
X163089235Y-109522572D01*
X163080970Y-109545671D01*
X163070480Y-109567850D01*
X163057868Y-109588893D01*
X163043253Y-109608599D01*
X163026777Y-109626777D01*
X163008599Y-109643253D01*
X162988893Y-109657868D01*
X162967850Y-109670480D01*
X162945671Y-109680970D01*
X162922572Y-109689235D01*
X162898773Y-109695196D01*
X162874505Y-109698796D01*
X162850001Y-109700000D01*
X162149999Y-109700000D01*
X162125495Y-109698796D01*
X162101227Y-109695196D01*
X162077428Y-109689235D01*
X162054329Y-109680970D01*
X162032150Y-109670480D01*
X162011107Y-109657868D01*
X161991401Y-109643253D01*
X161973223Y-109626777D01*
X161956747Y-109608599D01*
X161942132Y-109588893D01*
X161929520Y-109567850D01*
X161919030Y-109545671D01*
X161910765Y-109522572D01*
X161904804Y-109498773D01*
X161901204Y-109474505D01*
X161900000Y-109450001D01*
X161900000Y-108549999D01*
X161901204Y-108525495D01*
X161904804Y-108501227D01*
X161910765Y-108477428D01*
X161919030Y-108454329D01*
X161929520Y-108432150D01*
X161942132Y-108411107D01*
X161956747Y-108391401D01*
X161973223Y-108373223D01*
X161991401Y-108356747D01*
X162011107Y-108342132D01*
X162032150Y-108329520D01*
X162054329Y-108319030D01*
X162077428Y-108310765D01*
X162101227Y-108304804D01*
X162125495Y-108301204D01*
X162149999Y-108300000D01*
X162850001Y-108300000D01*
X162874505Y-108301204D01*
G37*
G36*
X164874505Y-108301204D02*
G01*
X164898773Y-108304804D01*
X164922572Y-108310765D01*
X164945671Y-108319030D01*
X164967850Y-108329520D01*
X164988893Y-108342132D01*
X165008599Y-108356747D01*
X165026777Y-108373223D01*
X165043253Y-108391401D01*
X165057868Y-108411107D01*
X165070480Y-108432150D01*
X165080970Y-108454329D01*
X165089235Y-108477428D01*
X165095196Y-108501227D01*
X165098796Y-108525495D01*
X165100000Y-108549999D01*
X165100000Y-109450001D01*
X165098796Y-109474505D01*
X165095196Y-109498773D01*
X165089235Y-109522572D01*
X165080970Y-109545671D01*
X165070480Y-109567850D01*
X165057868Y-109588893D01*
X165043253Y-109608599D01*
X165026777Y-109626777D01*
X165008599Y-109643253D01*
X164988893Y-109657868D01*
X164967850Y-109670480D01*
X164945671Y-109680970D01*
X164922572Y-109689235D01*
X164898773Y-109695196D01*
X164874505Y-109698796D01*
X164850001Y-109700000D01*
X164149999Y-109700000D01*
X164125495Y-109698796D01*
X164101227Y-109695196D01*
X164077428Y-109689235D01*
X164054329Y-109680970D01*
X164032150Y-109670480D01*
X164011107Y-109657868D01*
X163991401Y-109643253D01*
X163973223Y-109626777D01*
X163956747Y-109608599D01*
X163942132Y-109588893D01*
X163929520Y-109567850D01*
X163919030Y-109545671D01*
X163910765Y-109522572D01*
X163904804Y-109498773D01*
X163901204Y-109474505D01*
X163900000Y-109450001D01*
X163900000Y-108549999D01*
X163901204Y-108525495D01*
X163904804Y-108501227D01*
X163910765Y-108477428D01*
X163919030Y-108454329D01*
X163929520Y-108432150D01*
X163942132Y-108411107D01*
X163956747Y-108391401D01*
X163973223Y-108373223D01*
X163991401Y-108356747D01*
X164011107Y-108342132D01*
X164032150Y-108329520D01*
X164054329Y-108319030D01*
X164077428Y-108310765D01*
X164101227Y-108304804D01*
X164125495Y-108301204D01*
X164149999Y-108300000D01*
X164850001Y-108300000D01*
X164874505Y-108301204D01*
G37*
G36*
X161374505Y-110801204D02*
G01*
X161398773Y-110804804D01*
X161422572Y-110810765D01*
X161445671Y-110819030D01*
X161467850Y-110829520D01*
X161488893Y-110842132D01*
X161508599Y-110856747D01*
X161526777Y-110873223D01*
X161543253Y-110891401D01*
X161557868Y-110911107D01*
X161570480Y-110932150D01*
X161580970Y-110954329D01*
X161589235Y-110977428D01*
X161595196Y-111001227D01*
X161598796Y-111025495D01*
X161600000Y-111049999D01*
X161600000Y-111950001D01*
X161598796Y-111974505D01*
X161595196Y-111998773D01*
X161589235Y-112022572D01*
X161580970Y-112045671D01*
X161570480Y-112067850D01*
X161557868Y-112088893D01*
X161543253Y-112108599D01*
X161526777Y-112126777D01*
X161508599Y-112143253D01*
X161488893Y-112157868D01*
X161467850Y-112170480D01*
X161445671Y-112180970D01*
X161422572Y-112189235D01*
X161398773Y-112195196D01*
X161374505Y-112198796D01*
X161350001Y-112200000D01*
X160649999Y-112200000D01*
X160625495Y-112198796D01*
X160601227Y-112195196D01*
X160577428Y-112189235D01*
X160554329Y-112180970D01*
X160532150Y-112170480D01*
X160511107Y-112157868D01*
X160491401Y-112143253D01*
X160473223Y-112126777D01*
X160456747Y-112108599D01*
X160442132Y-112088893D01*
X160429520Y-112067850D01*
X160419030Y-112045671D01*
X160410765Y-112022572D01*
X160404804Y-111998773D01*
X160401204Y-111974505D01*
X160400000Y-111950001D01*
X160400000Y-111049999D01*
X160401204Y-111025495D01*
X160404804Y-111001227D01*
X160410765Y-110977428D01*
X160419030Y-110954329D01*
X160429520Y-110932150D01*
X160442132Y-110911107D01*
X160456747Y-110891401D01*
X160473223Y-110873223D01*
X160491401Y-110856747D01*
X160511107Y-110842132D01*
X160532150Y-110829520D01*
X160554329Y-110819030D01*
X160577428Y-110810765D01*
X160601227Y-110804804D01*
X160625495Y-110801204D01*
X160649999Y-110800000D01*
X161350001Y-110800000D01*
X161374505Y-110801204D01*
G37*
G36*
X159374505Y-110801204D02*
G01*
X159398773Y-110804804D01*
X159422572Y-110810765D01*
X159445671Y-110819030D01*
X159467850Y-110829520D01*
X159488893Y-110842132D01*
X159508599Y-110856747D01*
X159526777Y-110873223D01*
X159543253Y-110891401D01*
X159557868Y-110911107D01*
X159570480Y-110932150D01*
X159580970Y-110954329D01*
X159589235Y-110977428D01*
X159595196Y-111001227D01*
X159598796Y-111025495D01*
X159600000Y-111049999D01*
X159600000Y-111950001D01*
X159598796Y-111974505D01*
X159595196Y-111998773D01*
X159589235Y-112022572D01*
X159580970Y-112045671D01*
X159570480Y-112067850D01*
X159557868Y-112088893D01*
X159543253Y-112108599D01*
X159526777Y-112126777D01*
X159508599Y-112143253D01*
X159488893Y-112157868D01*
X159467850Y-112170480D01*
X159445671Y-112180970D01*
X159422572Y-112189235D01*
X159398773Y-112195196D01*
X159374505Y-112198796D01*
X159350001Y-112200000D01*
X158649999Y-112200000D01*
X158625495Y-112198796D01*
X158601227Y-112195196D01*
X158577428Y-112189235D01*
X158554329Y-112180970D01*
X158532150Y-112170480D01*
X158511107Y-112157868D01*
X158491401Y-112143253D01*
X158473223Y-112126777D01*
X158456747Y-112108599D01*
X158442132Y-112088893D01*
X158429520Y-112067850D01*
X158419030Y-112045671D01*
X158410765Y-112022572D01*
X158404804Y-111998773D01*
X158401204Y-111974505D01*
X158400000Y-111950001D01*
X158400000Y-111049999D01*
X158401204Y-111025495D01*
X158404804Y-111001227D01*
X158410765Y-110977428D01*
X158419030Y-110954329D01*
X158429520Y-110932150D01*
X158442132Y-110911107D01*
X158456747Y-110891401D01*
X158473223Y-110873223D01*
X158491401Y-110856747D01*
X158511107Y-110842132D01*
X158532150Y-110829520D01*
X158554329Y-110819030D01*
X158577428Y-110810765D01*
X158601227Y-110804804D01*
X158625495Y-110801204D01*
X158649999Y-110800000D01*
X159350001Y-110800000D01*
X159374505Y-110801204D01*
G37*
G36*
X146474505Y-107901204D02*
G01*
X146498773Y-107904804D01*
X146522572Y-107910765D01*
X146545671Y-107919030D01*
X146567850Y-107929520D01*
X146588893Y-107942132D01*
X146608599Y-107956747D01*
X146626777Y-107973223D01*
X146643253Y-107991401D01*
X146657868Y-108011107D01*
X146670480Y-108032150D01*
X146680970Y-108054329D01*
X146689235Y-108077428D01*
X146695196Y-108101227D01*
X146698796Y-108125495D01*
X146700000Y-108149999D01*
X146700000Y-108850001D01*
X146698796Y-108874505D01*
X146695196Y-108898773D01*
X146689235Y-108922572D01*
X146680970Y-108945671D01*
X146670480Y-108967850D01*
X146657868Y-108988893D01*
X146643253Y-109008599D01*
X146626777Y-109026777D01*
X146608599Y-109043253D01*
X146588893Y-109057868D01*
X146567850Y-109070480D01*
X146545671Y-109080970D01*
X146522572Y-109089235D01*
X146498773Y-109095196D01*
X146474505Y-109098796D01*
X146450001Y-109100000D01*
X145549999Y-109100000D01*
X145525495Y-109098796D01*
X145501227Y-109095196D01*
X145477428Y-109089235D01*
X145454329Y-109080970D01*
X145432150Y-109070480D01*
X145411107Y-109057868D01*
X145391401Y-109043253D01*
X145373223Y-109026777D01*
X145356747Y-109008599D01*
X145342132Y-108988893D01*
X145329520Y-108967850D01*
X145319030Y-108945671D01*
X145310765Y-108922572D01*
X145304804Y-108898773D01*
X145301204Y-108874505D01*
X145300000Y-108850001D01*
X145300000Y-108149999D01*
X145301204Y-108125495D01*
X145304804Y-108101227D01*
X145310765Y-108077428D01*
X145319030Y-108054329D01*
X145329520Y-108032150D01*
X145342132Y-108011107D01*
X145356747Y-107991401D01*
X145373223Y-107973223D01*
X145391401Y-107956747D01*
X145411107Y-107942132D01*
X145432150Y-107929520D01*
X145454329Y-107919030D01*
X145477428Y-107910765D01*
X145501227Y-107904804D01*
X145525495Y-107901204D01*
X145549999Y-107900000D01*
X146450001Y-107900000D01*
X146474505Y-107901204D01*
G37*
G36*
X146474505Y-105901204D02*
G01*
X146498773Y-105904804D01*
X146522572Y-105910765D01*
X146545671Y-105919030D01*
X146567850Y-105929520D01*
X146588893Y-105942132D01*
X146608599Y-105956747D01*
X146626777Y-105973223D01*
X146643253Y-105991401D01*
X146657868Y-106011107D01*
X146670480Y-106032150D01*
X146680970Y-106054329D01*
X146689235Y-106077428D01*
X146695196Y-106101227D01*
X146698796Y-106125495D01*
X146700000Y-106149999D01*
X146700000Y-106850001D01*
X146698796Y-106874505D01*
X146695196Y-106898773D01*
X146689235Y-106922572D01*
X146680970Y-106945671D01*
X146670480Y-106967850D01*
X146657868Y-106988893D01*
X146643253Y-107008599D01*
X146626777Y-107026777D01*
X146608599Y-107043253D01*
X146588893Y-107057868D01*
X146567850Y-107070480D01*
X146545671Y-107080970D01*
X146522572Y-107089235D01*
X146498773Y-107095196D01*
X146474505Y-107098796D01*
X146450001Y-107100000D01*
X145549999Y-107100000D01*
X145525495Y-107098796D01*
X145501227Y-107095196D01*
X145477428Y-107089235D01*
X145454329Y-107080970D01*
X145432150Y-107070480D01*
X145411107Y-107057868D01*
X145391401Y-107043253D01*
X145373223Y-107026777D01*
X145356747Y-107008599D01*
X145342132Y-106988893D01*
X145329520Y-106967850D01*
X145319030Y-106945671D01*
X145310765Y-106922572D01*
X145304804Y-106898773D01*
X145301204Y-106874505D01*
X145300000Y-106850001D01*
X145300000Y-106149999D01*
X145301204Y-106125495D01*
X145304804Y-106101227D01*
X145310765Y-106077428D01*
X145319030Y-106054329D01*
X145329520Y-106032150D01*
X145342132Y-106011107D01*
X145356747Y-105991401D01*
X145373223Y-105973223D01*
X145391401Y-105956747D01*
X145411107Y-105942132D01*
X145432150Y-105929520D01*
X145454329Y-105919030D01*
X145477428Y-105910765D01*
X145501227Y-105904804D01*
X145525495Y-105901204D01*
X145549999Y-105900000D01*
X146450001Y-105900000D01*
X146474505Y-105901204D01*
G37*
G36*
X146474505Y-111901204D02*
G01*
X146498773Y-111904804D01*
X146522572Y-111910765D01*
X146545671Y-111919030D01*
X146567850Y-111929520D01*
X146588893Y-111942132D01*
X146608599Y-111956747D01*
X146626777Y-111973223D01*
X146643253Y-111991401D01*
X146657868Y-112011107D01*
X146670480Y-112032150D01*
X146680970Y-112054329D01*
X146689235Y-112077428D01*
X146695196Y-112101227D01*
X146698796Y-112125495D01*
X146700000Y-112149999D01*
X146700000Y-112850001D01*
X146698796Y-112874505D01*
X146695196Y-112898773D01*
X146689235Y-112922572D01*
X146680970Y-112945671D01*
X146670480Y-112967850D01*
X146657868Y-112988893D01*
X146643253Y-113008599D01*
X146626777Y-113026777D01*
X146608599Y-113043253D01*
X146588893Y-113057868D01*
X146567850Y-113070480D01*
X146545671Y-113080970D01*
X146522572Y-113089235D01*
X146498773Y-113095196D01*
X146474505Y-113098796D01*
X146450001Y-113100000D01*
X145549999Y-113100000D01*
X145525495Y-113098796D01*
X145501227Y-113095196D01*
X145477428Y-113089235D01*
X145454329Y-113080970D01*
X145432150Y-113070480D01*
X145411107Y-113057868D01*
X145391401Y-113043253D01*
X145373223Y-113026777D01*
X145356747Y-113008599D01*
X145342132Y-112988893D01*
X145329520Y-112967850D01*
X145319030Y-112945671D01*
X145310765Y-112922572D01*
X145304804Y-112898773D01*
X145301204Y-112874505D01*
X145300000Y-112850001D01*
X145300000Y-112149999D01*
X145301204Y-112125495D01*
X145304804Y-112101227D01*
X145310765Y-112077428D01*
X145319030Y-112054329D01*
X145329520Y-112032150D01*
X145342132Y-112011107D01*
X145356747Y-111991401D01*
X145373223Y-111973223D01*
X145391401Y-111956747D01*
X145411107Y-111942132D01*
X145432150Y-111929520D01*
X145454329Y-111919030D01*
X145477428Y-111910765D01*
X145501227Y-111904804D01*
X145525495Y-111901204D01*
X145549999Y-111900000D01*
X146450001Y-111900000D01*
X146474505Y-111901204D01*
G37*
G36*
X146474505Y-113901204D02*
G01*
X146498773Y-113904804D01*
X146522572Y-113910765D01*
X146545671Y-113919030D01*
X146567850Y-113929520D01*
X146588893Y-113942132D01*
X146608599Y-113956747D01*
X146626777Y-113973223D01*
X146643253Y-113991401D01*
X146657868Y-114011107D01*
X146670480Y-114032150D01*
X146680970Y-114054329D01*
X146689235Y-114077428D01*
X146695196Y-114101227D01*
X146698796Y-114125495D01*
X146700000Y-114149999D01*
X146700000Y-114850001D01*
X146698796Y-114874505D01*
X146695196Y-114898773D01*
X146689235Y-114922572D01*
X146680970Y-114945671D01*
X146670480Y-114967850D01*
X146657868Y-114988893D01*
X146643253Y-115008599D01*
X146626777Y-115026777D01*
X146608599Y-115043253D01*
X146588893Y-115057868D01*
X146567850Y-115070480D01*
X146545671Y-115080970D01*
X146522572Y-115089235D01*
X146498773Y-115095196D01*
X146474505Y-115098796D01*
X146450001Y-115100000D01*
X145549999Y-115100000D01*
X145525495Y-115098796D01*
X145501227Y-115095196D01*
X145477428Y-115089235D01*
X145454329Y-115080970D01*
X145432150Y-115070480D01*
X145411107Y-115057868D01*
X145391401Y-115043253D01*
X145373223Y-115026777D01*
X145356747Y-115008599D01*
X145342132Y-114988893D01*
X145329520Y-114967850D01*
X145319030Y-114945671D01*
X145310765Y-114922572D01*
X145304804Y-114898773D01*
X145301204Y-114874505D01*
X145300000Y-114850001D01*
X145300000Y-114149999D01*
X145301204Y-114125495D01*
X145304804Y-114101227D01*
X145310765Y-114077428D01*
X145319030Y-114054329D01*
X145329520Y-114032150D01*
X145342132Y-114011107D01*
X145356747Y-113991401D01*
X145373223Y-113973223D01*
X145391401Y-113956747D01*
X145411107Y-113942132D01*
X145432150Y-113929520D01*
X145454329Y-113919030D01*
X145477428Y-113910765D01*
X145501227Y-113904804D01*
X145525495Y-113901204D01*
X145549999Y-113900000D01*
X146450001Y-113900000D01*
X146474505Y-113901204D01*
G37*
D18*
X113000000Y-72000000D03*
D19*
X118000000Y-72000000D03*
D14*
X169880000Y-68500000D03*
X172420000Y-68500000D03*
X174960000Y-68500000D03*
D15*
X177500000Y-68500000D03*
D18*
X98000000Y-113000000D03*
D19*
X93000000Y-113000000D03*
D18*
X113000000Y-113000000D03*
X108000000Y-113000000D03*
D19*
X103000000Y-113000000D03*
D18*
X123000000Y-113000000D03*
D19*
X118000000Y-113000000D03*
D18*
X138000000Y-113000000D03*
X133000000Y-113000000D03*
D19*
X128000000Y-113000000D03*
D21*
X173000000Y-75000000D03*
X172000000Y-75000000D03*
X171000000Y-75000000D03*
X170000000Y-75000000D03*
X169000000Y-75000000D03*
X168000000Y-75000000D03*
X167000000Y-75000000D03*
X166000000Y-75000000D03*
X165000000Y-75000000D03*
X164000000Y-75000000D03*
X163000000Y-75000000D03*
X162000000Y-75000000D03*
X161000000Y-75000000D03*
X160000000Y-75000000D03*
X159000000Y-75000000D03*
X158000000Y-75000000D03*
X157000000Y-75000000D03*
D22*
X153000000Y-79000000D03*
X153000000Y-80000000D03*
X153000000Y-81000000D03*
X153000000Y-82000000D03*
X153000000Y-83000000D03*
X153000000Y-84000000D03*
X153000000Y-85000000D03*
X153000000Y-86000000D03*
X153000000Y-87000000D03*
X153000000Y-88000000D03*
X153000000Y-89000000D03*
X153000000Y-90000000D03*
X153000000Y-91000000D03*
X153000000Y-92000000D03*
X153000000Y-93000000D03*
X153000000Y-94000000D03*
X153000000Y-95000000D03*
D21*
X157000000Y-99000000D03*
X158000000Y-99000000D03*
X159000000Y-99000000D03*
X160000000Y-99000000D03*
X161000000Y-99000000D03*
X162000000Y-99000000D03*
X163000000Y-99000000D03*
X164000000Y-99000000D03*
X165000000Y-99000000D03*
X166000000Y-99000000D03*
X167000000Y-99000000D03*
X168000000Y-99000000D03*
X169000000Y-99000000D03*
X170000000Y-99000000D03*
X171000000Y-99000000D03*
X172000000Y-99000000D03*
X173000000Y-99000000D03*
D22*
X177000000Y-95000000D03*
X177000000Y-94000000D03*
X177000000Y-93000000D03*
X177000000Y-92000000D03*
X177000000Y-91000000D03*
X177000000Y-90000000D03*
X177000000Y-89000000D03*
X177000000Y-88000000D03*
X177000000Y-87000000D03*
X177000000Y-86000000D03*
X177000000Y-85000000D03*
X177000000Y-84000000D03*
X177000000Y-83000000D03*
X177000000Y-82000000D03*
X177000000Y-81000000D03*
X177000000Y-80000000D03*
X177000000Y-79000000D03*
M02*
