%FSLAX45Y45*%
G04 Gerber Fmt 4.5, Leading zero omitted, Abs format (unit mm)*
G04 Created by KiCad (PCBNEW (6.0.4)) date 2023-03-28 09:37:22*
%MOMM*%
%LPD*%
G01*
G04 APERTURE LIST*
%TA.AperFunction,Profile*%
%ADD10C,0.100000*%
%TD*%
%ADD11C,0.200000*%
%ADD12C,0.050000*%
%ADD13C,0.100000*%
%ADD14C,0.130000*%
G04 APERTURE END LIST*
D10*
X9000000Y-12000000D02*
X9000000Y-6000000D01*
X18000000Y-12000000D02*
X18000000Y-6000000D01*
X18000000Y-12000000D02*
X9000000Y-12000000D01*
X18000000Y-6000000D02*
X9000000Y-6000000D01*
D11*
D12*
X9125000Y-8375000D02*
X9175000Y-8425000D01*
X9175000Y-8375000D02*
X9125000Y-8425000D01*
X9550000Y-10775000D02*
X9600000Y-10825000D01*
X9600000Y-10775000D02*
X9550000Y-10825000D01*
X11400000Y-6525000D02*
X11450000Y-6575000D01*
X11450000Y-6525000D02*
X11400000Y-6575000D01*
X11400000Y-7025000D02*
X11450000Y-7075000D01*
X11450000Y-7025000D02*
X11400000Y-7075000D01*
X12500000Y-6750000D02*
X12550000Y-6800000D01*
X12550000Y-6750000D02*
X12500000Y-6800000D01*
X12677500Y-6755000D02*
X12727500Y-6805000D01*
X12727500Y-6755000D02*
X12677500Y-6805000D01*
X12775000Y-7725000D02*
X12825000Y-7775000D01*
X12825000Y-7725000D02*
X12775000Y-7775000D01*
X13300000Y-7700000D02*
X13350000Y-7750000D01*
X13350000Y-7700000D02*
X13300000Y-7750000D01*
X13450000Y-7700000D02*
X13500000Y-7750000D01*
X13500000Y-7700000D02*
X13450000Y-7750000D01*
X15026250Y-11623750D02*
X15076250Y-11673750D01*
X15076250Y-11623750D02*
X15026250Y-11673750D01*
X15175000Y-9975000D02*
X15225000Y-10025000D01*
X15225000Y-9975000D02*
X15175000Y-10025000D01*
X15250000Y-8250000D02*
X15300000Y-8300000D01*
X15300000Y-8250000D02*
X15250000Y-8300000D01*
X15525000Y-7650000D02*
X15575000Y-7700000D01*
X15575000Y-7650000D02*
X15525000Y-7700000D01*
D13*
X11175000Y-7450000D02*
G75*
G03*
X11175000Y-7450000I-50000J0D01*
G01*
X13346250Y-6571250D02*
G75*
G03*
X13346250Y-6571250I-50000J0D01*
G01*
X10000000Y-8696000D02*
X10000000Y-8796000D01*
X9950000Y-8746000D02*
X10050000Y-8746000D01*
X10000000Y-8950000D02*
X10000000Y-9050000D01*
X9950000Y-9000000D02*
X10050000Y-9000000D01*
X10254000Y-8696000D02*
X10254000Y-8796000D01*
X10204000Y-8746000D02*
X10304000Y-8746000D01*
X10254000Y-8950000D02*
X10254000Y-9050000D01*
X10204000Y-9000000D02*
X10304000Y-9000000D01*
X10508000Y-8696000D02*
X10508000Y-8796000D01*
X10458000Y-8746000D02*
X10558000Y-8746000D01*
X10508000Y-8950000D02*
X10508000Y-9050000D01*
X10458000Y-9000000D02*
X10558000Y-9000000D01*
X10762000Y-8696000D02*
X10762000Y-8796000D01*
X10712000Y-8746000D02*
X10812000Y-8746000D01*
X10762000Y-8950000D02*
X10762000Y-9050000D01*
X10712000Y-9000000D02*
X10812000Y-9000000D01*
X11016000Y-8696000D02*
X11016000Y-8796000D01*
X10966000Y-8746000D02*
X11066000Y-8746000D01*
X11016000Y-8950000D02*
X11016000Y-9050000D01*
X10966000Y-9000000D02*
X11066000Y-9000000D01*
X11270000Y-8696000D02*
X11270000Y-8796000D01*
X11220000Y-8746000D02*
X11320000Y-8746000D01*
X11270000Y-8950000D02*
X11270000Y-9050000D01*
X11220000Y-9000000D02*
X11320000Y-9000000D01*
X11524000Y-8696000D02*
X11524000Y-8796000D01*
X11474000Y-8746000D02*
X11574000Y-8746000D01*
X11524000Y-8950000D02*
X11524000Y-9050000D01*
X11474000Y-9000000D02*
X11574000Y-9000000D01*
X11778000Y-8696000D02*
X11778000Y-8796000D01*
X11728000Y-8746000D02*
X11828000Y-8746000D01*
X11778000Y-8950000D02*
X11778000Y-9050000D01*
X11728000Y-9000000D02*
X11828000Y-9000000D01*
X12032000Y-8696000D02*
X12032000Y-8796000D01*
X11982000Y-8746000D02*
X12082000Y-8746000D01*
X12032000Y-8950000D02*
X12032000Y-9050000D01*
X11982000Y-9000000D02*
X12082000Y-9000000D01*
X12286000Y-8696000D02*
X12286000Y-8796000D01*
X12236000Y-8746000D02*
X12336000Y-8746000D01*
X12286000Y-8950000D02*
X12286000Y-9050000D01*
X12236000Y-9000000D02*
X12336000Y-9000000D01*
X12540000Y-8696000D02*
X12540000Y-8796000D01*
X12490000Y-8746000D02*
X12590000Y-8746000D01*
X12540000Y-8950000D02*
X12540000Y-9050000D01*
X12490000Y-9000000D02*
X12590000Y-9000000D01*
X12794000Y-8696000D02*
X12794000Y-8796000D01*
X12744000Y-8746000D02*
X12844000Y-8746000D01*
X12794000Y-8950000D02*
X12794000Y-9050000D01*
X12744000Y-9000000D02*
X12844000Y-9000000D01*
X13048000Y-8696000D02*
X13048000Y-8796000D01*
X12998000Y-8746000D02*
X13098000Y-8746000D01*
X13048000Y-8950000D02*
X13048000Y-9050000D01*
X12998000Y-9000000D02*
X13098000Y-9000000D01*
X13302000Y-8696000D02*
X13302000Y-8796000D01*
X13252000Y-8746000D02*
X13352000Y-8746000D01*
X13302000Y-8950000D02*
X13302000Y-9050000D01*
X13252000Y-9000000D02*
X13352000Y-9000000D01*
X13556000Y-8696000D02*
X13556000Y-8796000D01*
X13506000Y-8746000D02*
X13606000Y-8746000D01*
X13556000Y-8950000D02*
X13556000Y-9050000D01*
X13506000Y-9000000D02*
X13606000Y-9000000D01*
X13810000Y-8696000D02*
X13810000Y-8796000D01*
X13760000Y-8746000D02*
X13860000Y-8746000D01*
X13810000Y-8950000D02*
X13810000Y-9050000D01*
X13760000Y-9000000D02*
X13860000Y-9000000D01*
X14064000Y-8696000D02*
X14064000Y-8796000D01*
X14014000Y-8746000D02*
X14114000Y-8746000D01*
X14064000Y-8950000D02*
X14064000Y-9050000D01*
X14014000Y-9000000D02*
X14114000Y-9000000D01*
X14191500Y-7022500D02*
X14191500Y-7122500D01*
X14141500Y-7072500D02*
X14241500Y-7072500D01*
X14191500Y-7276500D02*
X14191500Y-7376500D01*
X14141500Y-7326500D02*
X14241500Y-7326500D01*
X14318000Y-8696000D02*
X14318000Y-8796000D01*
X14268000Y-8746000D02*
X14368000Y-8746000D01*
X14318000Y-8950000D02*
X14318000Y-9050000D01*
X14268000Y-9000000D02*
X14368000Y-9000000D01*
X14445500Y-7022500D02*
X14445500Y-7122500D01*
X14395500Y-7072500D02*
X14495500Y-7072500D01*
X14445500Y-7276500D02*
X14445500Y-7376500D01*
X14395500Y-7326500D02*
X14495500Y-7326500D01*
X14572000Y-8696000D02*
X14572000Y-8796000D01*
X14522000Y-8746000D02*
X14622000Y-8746000D01*
X14572000Y-8950000D02*
X14572000Y-9050000D01*
X14522000Y-9000000D02*
X14622000Y-9000000D01*
X14699500Y-7022500D02*
X14699500Y-7122500D01*
X14649500Y-7072500D02*
X14749500Y-7072500D01*
X14699500Y-7276500D02*
X14699500Y-7376500D01*
X14649500Y-7326500D02*
X14749500Y-7326500D01*
X14794500Y-10375000D02*
X14794500Y-10475000D01*
X14744500Y-10425000D02*
X14844500Y-10425000D01*
X14826000Y-8696000D02*
X14826000Y-8796000D01*
X14776000Y-8746000D02*
X14876000Y-8746000D01*
X14826000Y-8950000D02*
X14826000Y-9050000D01*
X14776000Y-9000000D02*
X14876000Y-9000000D01*
X14953500Y-7022500D02*
X14953500Y-7122500D01*
X14903500Y-7072500D02*
X15003500Y-7072500D01*
X14953500Y-7276500D02*
X14953500Y-7376500D01*
X14903500Y-7326500D02*
X15003500Y-7326500D01*
X15048500Y-10375000D02*
X15048500Y-10475000D01*
X14998500Y-10425000D02*
X15098500Y-10425000D01*
X15207500Y-7022500D02*
X15207500Y-7122500D01*
X15157500Y-7072500D02*
X15257500Y-7072500D01*
X15207500Y-7276500D02*
X15207500Y-7376500D01*
X15157500Y-7326500D02*
X15257500Y-7326500D01*
X15302500Y-10375000D02*
X15302500Y-10475000D01*
X15252500Y-10425000D02*
X15352500Y-10425000D01*
D14*
X9345962Y-6745962D02*
X9345962Y-6654038D01*
X9254038Y-6654038D01*
X9254038Y-6745962D01*
X9345962Y-6745962D01*
X9545962Y-11345962D02*
X9545962Y-11254038D01*
X9454038Y-11254038D01*
X9454038Y-11345962D01*
X9545962Y-11345962D01*
X9620962Y-7895962D02*
X9620962Y-7804038D01*
X9529038Y-7804038D01*
X9529038Y-7895962D01*
X9620962Y-7895962D01*
X9845962Y-6745962D02*
X9845962Y-6654038D01*
X9754038Y-6654038D01*
X9754038Y-6745962D01*
X9845962Y-6745962D01*
X10045962Y-11345962D02*
X10045962Y-11254038D01*
X9954038Y-11254038D01*
X9954038Y-11345962D01*
X10045962Y-11345962D01*
X10345962Y-6745962D02*
X10345962Y-6654038D01*
X10254038Y-6654038D01*
X10254038Y-6745962D01*
X10345962Y-6745962D01*
X10545962Y-11345962D02*
X10545962Y-11254038D01*
X10454038Y-11254038D01*
X10454038Y-11345962D01*
X10545962Y-11345962D01*
X10845962Y-6745962D02*
X10845962Y-6654038D01*
X10754038Y-6654038D01*
X10754038Y-6745962D01*
X10845962Y-6745962D01*
X11045962Y-11345962D02*
X11045962Y-11254038D01*
X10954038Y-11254038D01*
X10954038Y-11345962D01*
X11045962Y-11345962D01*
X11545962Y-11345962D02*
X11545962Y-11254038D01*
X11454038Y-11254038D01*
X11454038Y-11345962D01*
X11545962Y-11345962D01*
X11870962Y-7895962D02*
X11870962Y-7804038D01*
X11779038Y-7804038D01*
X11779038Y-7895962D01*
X11870962Y-7895962D01*
X12045962Y-11345962D02*
X12045962Y-11254038D01*
X11954038Y-11254038D01*
X11954038Y-11345962D01*
X12045962Y-11345962D01*
X12545962Y-11345962D02*
X12545962Y-11254038D01*
X12454038Y-11254038D01*
X12454038Y-11345962D01*
X12545962Y-11345962D01*
X13045962Y-11345962D02*
X13045962Y-11254038D01*
X12954038Y-11254038D01*
X12954038Y-11345962D01*
X13045962Y-11345962D01*
X13545962Y-11345962D02*
X13545962Y-11254038D01*
X13454038Y-11254038D01*
X13454038Y-11345962D01*
X13545962Y-11345962D01*
X14045962Y-11345962D02*
X14045962Y-11254038D01*
X13954038Y-11254038D01*
X13954038Y-11345962D01*
X14045962Y-11345962D01*
X15520962Y-6645962D02*
X15520962Y-6554038D01*
X15429038Y-6554038D01*
X15429038Y-6645962D01*
X15520962Y-6645962D01*
X16095962Y-11345962D02*
X16095962Y-11254038D01*
X16004038Y-11254038D01*
X16004038Y-11345962D01*
X16095962Y-11345962D01*
X16240962Y-8145962D02*
X16240962Y-8054038D01*
X16149038Y-8054038D01*
X16149038Y-8145962D01*
X16240962Y-8145962D01*
X16240962Y-9845962D02*
X16240962Y-9754038D01*
X16149038Y-9754038D01*
X16149038Y-9845962D01*
X16240962Y-9845962D01*
X16440962Y-7545962D02*
X16440962Y-7454038D01*
X16349038Y-7454038D01*
X16349038Y-7545962D01*
X16440962Y-7545962D01*
X16440962Y-8745962D02*
X16440962Y-8654038D01*
X16349038Y-8654038D01*
X16349038Y-8745962D01*
X16440962Y-8745962D01*
X16440962Y-9245962D02*
X16440962Y-9154038D01*
X16349038Y-9154038D01*
X16349038Y-9245962D01*
X16440962Y-9245962D01*
X16440962Y-10445962D02*
X16440962Y-10354038D01*
X16349038Y-10354038D01*
X16349038Y-10445962D01*
X16440962Y-10445962D01*
X16595962Y-11345962D02*
X16595962Y-11254038D01*
X16504038Y-11254038D01*
X16504038Y-11345962D01*
X16595962Y-11345962D01*
X17095962Y-11345962D02*
X17095962Y-11254038D01*
X17004038Y-11254038D01*
X17004038Y-11345962D01*
X17095962Y-11345962D01*
X17595962Y-11345962D02*
X17595962Y-11254038D01*
X17504038Y-11254038D01*
X17504038Y-11345962D01*
X17595962Y-11345962D01*
X17660962Y-7545962D02*
X17660962Y-7454038D01*
X17569038Y-7454038D01*
X17569038Y-7545962D01*
X17660962Y-7545962D01*
X17660962Y-8745962D02*
X17660962Y-8654038D01*
X17569038Y-8654038D01*
X17569038Y-8745962D01*
X17660962Y-8745962D01*
X17660962Y-9245962D02*
X17660962Y-9154038D01*
X17569038Y-9154038D01*
X17569038Y-9245962D01*
X17660962Y-9245962D01*
X17660962Y-10445962D02*
X17660962Y-10354038D01*
X17569038Y-10354038D01*
X17569038Y-10445962D01*
X17660962Y-10445962D01*
X17770962Y-6645962D02*
X17770962Y-6554038D01*
X17679038Y-6554038D01*
X17679038Y-6645962D01*
X17770962Y-6645962D01*
D11*
X9252619Y-12315476D02*
X9252619Y-12115476D01*
X9300238Y-12115476D01*
X9328810Y-12125000D01*
X9347857Y-12144048D01*
X9357381Y-12163095D01*
X9366905Y-12201190D01*
X9366905Y-12229762D01*
X9357381Y-12267857D01*
X9347857Y-12286905D01*
X9328810Y-12305952D01*
X9300238Y-12315476D01*
X9252619Y-12315476D01*
X9452619Y-12315476D02*
X9452619Y-12182143D01*
X9452619Y-12220238D02*
X9462143Y-12201190D01*
X9471667Y-12191667D01*
X9490714Y-12182143D01*
X9509762Y-12182143D01*
X9576429Y-12315476D02*
X9576429Y-12182143D01*
X9576429Y-12115476D02*
X9566905Y-12125000D01*
X9576429Y-12134524D01*
X9585952Y-12125000D01*
X9576429Y-12115476D01*
X9576429Y-12134524D01*
X9700238Y-12315476D02*
X9681190Y-12305952D01*
X9671667Y-12286905D01*
X9671667Y-12115476D01*
X9805000Y-12315476D02*
X9785952Y-12305952D01*
X9776429Y-12286905D01*
X9776429Y-12115476D01*
X10033571Y-12315476D02*
X10033571Y-12115476D01*
X10100238Y-12258333D01*
X10166905Y-12115476D01*
X10166905Y-12315476D01*
X10347857Y-12315476D02*
X10347857Y-12210714D01*
X10338333Y-12191667D01*
X10319286Y-12182143D01*
X10281190Y-12182143D01*
X10262143Y-12191667D01*
X10347857Y-12305952D02*
X10328810Y-12315476D01*
X10281190Y-12315476D01*
X10262143Y-12305952D01*
X10252619Y-12286905D01*
X10252619Y-12267857D01*
X10262143Y-12248809D01*
X10281190Y-12239286D01*
X10328810Y-12239286D01*
X10347857Y-12229762D01*
X10443095Y-12182143D02*
X10443095Y-12382143D01*
X10443095Y-12191667D02*
X10462143Y-12182143D01*
X10500238Y-12182143D01*
X10519286Y-12191667D01*
X10528810Y-12201190D01*
X10538333Y-12220238D01*
X10538333Y-12277381D01*
X10528810Y-12296428D01*
X10519286Y-12305952D01*
X10500238Y-12315476D01*
X10462143Y-12315476D01*
X10443095Y-12305952D01*
X10624048Y-12296428D02*
X10633571Y-12305952D01*
X10624048Y-12315476D01*
X10614524Y-12305952D01*
X10624048Y-12296428D01*
X10624048Y-12315476D01*
X10624048Y-12191667D02*
X10633571Y-12201190D01*
X10624048Y-12210714D01*
X10614524Y-12201190D01*
X10624048Y-12191667D01*
X10624048Y-12210714D01*
D12*
X8945000Y-12620000D02*
X8995000Y-12670000D01*
X8995000Y-12620000D02*
X8945000Y-12670000D01*
D11*
X9290714Y-12535476D02*
X9309762Y-12535476D01*
X9328810Y-12545000D01*
X9338333Y-12554524D01*
X9347857Y-12573571D01*
X9357381Y-12611667D01*
X9357381Y-12659286D01*
X9347857Y-12697381D01*
X9338333Y-12716428D01*
X9328810Y-12725952D01*
X9309762Y-12735476D01*
X9290714Y-12735476D01*
X9271667Y-12725952D01*
X9262143Y-12716428D01*
X9252619Y-12697381D01*
X9243095Y-12659286D01*
X9243095Y-12611667D01*
X9252619Y-12573571D01*
X9262143Y-12554524D01*
X9271667Y-12545000D01*
X9290714Y-12535476D01*
X9443095Y-12716428D02*
X9452619Y-12725952D01*
X9443095Y-12735476D01*
X9433571Y-12725952D01*
X9443095Y-12716428D01*
X9443095Y-12735476D01*
X9633571Y-12535476D02*
X9538333Y-12535476D01*
X9528810Y-12630714D01*
X9538333Y-12621190D01*
X9557381Y-12611667D01*
X9605000Y-12611667D01*
X9624048Y-12621190D01*
X9633571Y-12630714D01*
X9643095Y-12649762D01*
X9643095Y-12697381D01*
X9633571Y-12716428D01*
X9624048Y-12725952D01*
X9605000Y-12735476D01*
X9557381Y-12735476D01*
X9538333Y-12725952D01*
X9528810Y-12716428D01*
X9766905Y-12535476D02*
X9785952Y-12535476D01*
X9805000Y-12545000D01*
X9814524Y-12554524D01*
X9824048Y-12573571D01*
X9833571Y-12611667D01*
X9833571Y-12659286D01*
X9824048Y-12697381D01*
X9814524Y-12716428D01*
X9805000Y-12725952D01*
X9785952Y-12735476D01*
X9766905Y-12735476D01*
X9747857Y-12725952D01*
X9738333Y-12716428D01*
X9728810Y-12697381D01*
X9719286Y-12659286D01*
X9719286Y-12611667D01*
X9728810Y-12573571D01*
X9738333Y-12554524D01*
X9747857Y-12545000D01*
X9766905Y-12535476D01*
X9957381Y-12535476D02*
X9976429Y-12535476D01*
X9995476Y-12545000D01*
X10005000Y-12554524D01*
X10014524Y-12573571D01*
X10024048Y-12611667D01*
X10024048Y-12659286D01*
X10014524Y-12697381D01*
X10005000Y-12716428D01*
X9995476Y-12725952D01*
X9976429Y-12735476D01*
X9957381Y-12735476D01*
X9938333Y-12725952D01*
X9928810Y-12716428D01*
X9919286Y-12697381D01*
X9909762Y-12659286D01*
X9909762Y-12611667D01*
X9919286Y-12573571D01*
X9928810Y-12554524D01*
X9938333Y-12545000D01*
X9957381Y-12535476D01*
X10109762Y-12735476D02*
X10109762Y-12602143D01*
X10109762Y-12621190D02*
X10119286Y-12611667D01*
X10138333Y-12602143D01*
X10166905Y-12602143D01*
X10185952Y-12611667D01*
X10195476Y-12630714D01*
X10195476Y-12735476D01*
X10195476Y-12630714D02*
X10205000Y-12611667D01*
X10224048Y-12602143D01*
X10252619Y-12602143D01*
X10271667Y-12611667D01*
X10281190Y-12630714D01*
X10281190Y-12735476D01*
X10376429Y-12735476D02*
X10376429Y-12602143D01*
X10376429Y-12621190D02*
X10385952Y-12611667D01*
X10405000Y-12602143D01*
X10433571Y-12602143D01*
X10452619Y-12611667D01*
X10462143Y-12630714D01*
X10462143Y-12735476D01*
X10462143Y-12630714D02*
X10471667Y-12611667D01*
X10490714Y-12602143D01*
X10519286Y-12602143D01*
X10538333Y-12611667D01*
X10547857Y-12630714D01*
X10547857Y-12735476D01*
X10938333Y-12525952D02*
X10766905Y-12783095D01*
X11195476Y-12535476D02*
X11214524Y-12535476D01*
X11233571Y-12545000D01*
X11243095Y-12554524D01*
X11252619Y-12573571D01*
X11262143Y-12611667D01*
X11262143Y-12659286D01*
X11252619Y-12697381D01*
X11243095Y-12716428D01*
X11233571Y-12725952D01*
X11214524Y-12735476D01*
X11195476Y-12735476D01*
X11176429Y-12725952D01*
X11166905Y-12716428D01*
X11157381Y-12697381D01*
X11147857Y-12659286D01*
X11147857Y-12611667D01*
X11157381Y-12573571D01*
X11166905Y-12554524D01*
X11176429Y-12545000D01*
X11195476Y-12535476D01*
X11347857Y-12716428D02*
X11357381Y-12725952D01*
X11347857Y-12735476D01*
X11338333Y-12725952D01*
X11347857Y-12716428D01*
X11347857Y-12735476D01*
X11481190Y-12535476D02*
X11500238Y-12535476D01*
X11519286Y-12545000D01*
X11528809Y-12554524D01*
X11538333Y-12573571D01*
X11547857Y-12611667D01*
X11547857Y-12659286D01*
X11538333Y-12697381D01*
X11528809Y-12716428D01*
X11519286Y-12725952D01*
X11500238Y-12735476D01*
X11481190Y-12735476D01*
X11462143Y-12725952D01*
X11452619Y-12716428D01*
X11443095Y-12697381D01*
X11433571Y-12659286D01*
X11433571Y-12611667D01*
X11443095Y-12573571D01*
X11452619Y-12554524D01*
X11462143Y-12545000D01*
X11481190Y-12535476D01*
X11738333Y-12735476D02*
X11624048Y-12735476D01*
X11681190Y-12735476D02*
X11681190Y-12535476D01*
X11662143Y-12564048D01*
X11643095Y-12583095D01*
X11624048Y-12592619D01*
X11833571Y-12735476D02*
X11871667Y-12735476D01*
X11890714Y-12725952D01*
X11900238Y-12716428D01*
X11919286Y-12687857D01*
X11928809Y-12649762D01*
X11928809Y-12573571D01*
X11919286Y-12554524D01*
X11909762Y-12545000D01*
X11890714Y-12535476D01*
X11852619Y-12535476D01*
X11833571Y-12545000D01*
X11824048Y-12554524D01*
X11814524Y-12573571D01*
X11814524Y-12621190D01*
X11824048Y-12640238D01*
X11833571Y-12649762D01*
X11852619Y-12659286D01*
X11890714Y-12659286D01*
X11909762Y-12649762D01*
X11919286Y-12640238D01*
X11928809Y-12621190D01*
X11995476Y-12535476D02*
X12128809Y-12535476D01*
X12043095Y-12735476D01*
X12195476Y-12535476D02*
X12195476Y-12573571D01*
X12271667Y-12535476D02*
X12271667Y-12573571D01*
X12566905Y-12811667D02*
X12557381Y-12802143D01*
X12538333Y-12773571D01*
X12528809Y-12754524D01*
X12519286Y-12725952D01*
X12509762Y-12678333D01*
X12509762Y-12640238D01*
X12519286Y-12592619D01*
X12528809Y-12564048D01*
X12538333Y-12545000D01*
X12557381Y-12516428D01*
X12566905Y-12506905D01*
X12747857Y-12735476D02*
X12633571Y-12735476D01*
X12690714Y-12735476D02*
X12690714Y-12535476D01*
X12671667Y-12564048D01*
X12652619Y-12583095D01*
X12633571Y-12592619D01*
X12814524Y-12535476D02*
X12938333Y-12535476D01*
X12871667Y-12611667D01*
X12900238Y-12611667D01*
X12919286Y-12621190D01*
X12928809Y-12630714D01*
X12938333Y-12649762D01*
X12938333Y-12697381D01*
X12928809Y-12716428D01*
X12919286Y-12725952D01*
X12900238Y-12735476D01*
X12843095Y-12735476D01*
X12824048Y-12725952D01*
X12814524Y-12716428D01*
X13176428Y-12735476D02*
X13176428Y-12535476D01*
X13262143Y-12735476D02*
X13262143Y-12630714D01*
X13252619Y-12611667D01*
X13233571Y-12602143D01*
X13205000Y-12602143D01*
X13185952Y-12611667D01*
X13176428Y-12621190D01*
X13385952Y-12735476D02*
X13366905Y-12725952D01*
X13357381Y-12716428D01*
X13347857Y-12697381D01*
X13347857Y-12640238D01*
X13357381Y-12621190D01*
X13366905Y-12611667D01*
X13385952Y-12602143D01*
X13414524Y-12602143D01*
X13433571Y-12611667D01*
X13443095Y-12621190D01*
X13452619Y-12640238D01*
X13452619Y-12697381D01*
X13443095Y-12716428D01*
X13433571Y-12725952D01*
X13414524Y-12735476D01*
X13385952Y-12735476D01*
X13566905Y-12735476D02*
X13547857Y-12725952D01*
X13538333Y-12706905D01*
X13538333Y-12535476D01*
X13719286Y-12725952D02*
X13700238Y-12735476D01*
X13662143Y-12735476D01*
X13643095Y-12725952D01*
X13633571Y-12706905D01*
X13633571Y-12630714D01*
X13643095Y-12611667D01*
X13662143Y-12602143D01*
X13700238Y-12602143D01*
X13719286Y-12611667D01*
X13728809Y-12630714D01*
X13728809Y-12649762D01*
X13633571Y-12668809D01*
X13805000Y-12725952D02*
X13824048Y-12735476D01*
X13862143Y-12735476D01*
X13881190Y-12725952D01*
X13890714Y-12706905D01*
X13890714Y-12697381D01*
X13881190Y-12678333D01*
X13862143Y-12668809D01*
X13833571Y-12668809D01*
X13814524Y-12659286D01*
X13805000Y-12640238D01*
X13805000Y-12630714D01*
X13814524Y-12611667D01*
X13833571Y-12602143D01*
X13862143Y-12602143D01*
X13881190Y-12611667D01*
X13957381Y-12811667D02*
X13966905Y-12802143D01*
X13985952Y-12773571D01*
X13995476Y-12754524D01*
X14005000Y-12725952D01*
X14014524Y-12678333D01*
X14014524Y-12640238D01*
X14005000Y-12592619D01*
X13995476Y-12564048D01*
X13985952Y-12545000D01*
X13966905Y-12516428D01*
X13957381Y-12506905D01*
D13*
X8995000Y-12909000D02*
G75*
G03*
X8995000Y-12909000I-50000J0D01*
G01*
D11*
X9357381Y-12999476D02*
X9243095Y-12999476D01*
X9300238Y-12999476D02*
X9300238Y-12799476D01*
X9281190Y-12828048D01*
X9262143Y-12847095D01*
X9243095Y-12856619D01*
X9443095Y-12980428D02*
X9452619Y-12989952D01*
X9443095Y-12999476D01*
X9433571Y-12989952D01*
X9443095Y-12980428D01*
X9443095Y-12999476D01*
X9576429Y-12799476D02*
X9595476Y-12799476D01*
X9614524Y-12809000D01*
X9624048Y-12818524D01*
X9633571Y-12837571D01*
X9643095Y-12875667D01*
X9643095Y-12923286D01*
X9633571Y-12961381D01*
X9624048Y-12980428D01*
X9614524Y-12989952D01*
X9595476Y-12999476D01*
X9576429Y-12999476D01*
X9557381Y-12989952D01*
X9547857Y-12980428D01*
X9538333Y-12961381D01*
X9528810Y-12923286D01*
X9528810Y-12875667D01*
X9538333Y-12837571D01*
X9547857Y-12818524D01*
X9557381Y-12809000D01*
X9576429Y-12799476D01*
X9766905Y-12799476D02*
X9785952Y-12799476D01*
X9805000Y-12809000D01*
X9814524Y-12818524D01*
X9824048Y-12837571D01*
X9833571Y-12875667D01*
X9833571Y-12923286D01*
X9824048Y-12961381D01*
X9814524Y-12980428D01*
X9805000Y-12989952D01*
X9785952Y-12999476D01*
X9766905Y-12999476D01*
X9747857Y-12989952D01*
X9738333Y-12980428D01*
X9728810Y-12961381D01*
X9719286Y-12923286D01*
X9719286Y-12875667D01*
X9728810Y-12837571D01*
X9738333Y-12818524D01*
X9747857Y-12809000D01*
X9766905Y-12799476D01*
X9957381Y-12799476D02*
X9976429Y-12799476D01*
X9995476Y-12809000D01*
X10005000Y-12818524D01*
X10014524Y-12837571D01*
X10024048Y-12875667D01*
X10024048Y-12923286D01*
X10014524Y-12961381D01*
X10005000Y-12980428D01*
X9995476Y-12989952D01*
X9976429Y-12999476D01*
X9957381Y-12999476D01*
X9938333Y-12989952D01*
X9928810Y-12980428D01*
X9919286Y-12961381D01*
X9909762Y-12923286D01*
X9909762Y-12875667D01*
X9919286Y-12837571D01*
X9928810Y-12818524D01*
X9938333Y-12809000D01*
X9957381Y-12799476D01*
X10109762Y-12999476D02*
X10109762Y-12866143D01*
X10109762Y-12885190D02*
X10119286Y-12875667D01*
X10138333Y-12866143D01*
X10166905Y-12866143D01*
X10185952Y-12875667D01*
X10195476Y-12894714D01*
X10195476Y-12999476D01*
X10195476Y-12894714D02*
X10205000Y-12875667D01*
X10224048Y-12866143D01*
X10252619Y-12866143D01*
X10271667Y-12875667D01*
X10281190Y-12894714D01*
X10281190Y-12999476D01*
X10376429Y-12999476D02*
X10376429Y-12866143D01*
X10376429Y-12885190D02*
X10385952Y-12875667D01*
X10405000Y-12866143D01*
X10433571Y-12866143D01*
X10452619Y-12875667D01*
X10462143Y-12894714D01*
X10462143Y-12999476D01*
X10462143Y-12894714D02*
X10471667Y-12875667D01*
X10490714Y-12866143D01*
X10519286Y-12866143D01*
X10538333Y-12875667D01*
X10547857Y-12894714D01*
X10547857Y-12999476D01*
X10938333Y-12789952D02*
X10766905Y-13047095D01*
X11195476Y-12799476D02*
X11214524Y-12799476D01*
X11233571Y-12809000D01*
X11243095Y-12818524D01*
X11252619Y-12837571D01*
X11262143Y-12875667D01*
X11262143Y-12923286D01*
X11252619Y-12961381D01*
X11243095Y-12980428D01*
X11233571Y-12989952D01*
X11214524Y-12999476D01*
X11195476Y-12999476D01*
X11176429Y-12989952D01*
X11166905Y-12980428D01*
X11157381Y-12961381D01*
X11147857Y-12923286D01*
X11147857Y-12875667D01*
X11157381Y-12837571D01*
X11166905Y-12818524D01*
X11176429Y-12809000D01*
X11195476Y-12799476D01*
X11347857Y-12980428D02*
X11357381Y-12989952D01*
X11347857Y-12999476D01*
X11338333Y-12989952D01*
X11347857Y-12980428D01*
X11347857Y-12999476D01*
X11481190Y-12799476D02*
X11500238Y-12799476D01*
X11519286Y-12809000D01*
X11528809Y-12818524D01*
X11538333Y-12837571D01*
X11547857Y-12875667D01*
X11547857Y-12923286D01*
X11538333Y-12961381D01*
X11528809Y-12980428D01*
X11519286Y-12989952D01*
X11500238Y-12999476D01*
X11481190Y-12999476D01*
X11462143Y-12989952D01*
X11452619Y-12980428D01*
X11443095Y-12961381D01*
X11433571Y-12923286D01*
X11433571Y-12875667D01*
X11443095Y-12837571D01*
X11452619Y-12818524D01*
X11462143Y-12809000D01*
X11481190Y-12799476D01*
X11614524Y-12799476D02*
X11738333Y-12799476D01*
X11671667Y-12875667D01*
X11700238Y-12875667D01*
X11719286Y-12885190D01*
X11728809Y-12894714D01*
X11738333Y-12913762D01*
X11738333Y-12961381D01*
X11728809Y-12980428D01*
X11719286Y-12989952D01*
X11700238Y-12999476D01*
X11643095Y-12999476D01*
X11624048Y-12989952D01*
X11614524Y-12980428D01*
X11833571Y-12999476D02*
X11871667Y-12999476D01*
X11890714Y-12989952D01*
X11900238Y-12980428D01*
X11919286Y-12951857D01*
X11928809Y-12913762D01*
X11928809Y-12837571D01*
X11919286Y-12818524D01*
X11909762Y-12809000D01*
X11890714Y-12799476D01*
X11852619Y-12799476D01*
X11833571Y-12809000D01*
X11824048Y-12818524D01*
X11814524Y-12837571D01*
X11814524Y-12885190D01*
X11824048Y-12904238D01*
X11833571Y-12913762D01*
X11852619Y-12923286D01*
X11890714Y-12923286D01*
X11909762Y-12913762D01*
X11919286Y-12904238D01*
X11928809Y-12885190D01*
X12100238Y-12866143D02*
X12100238Y-12999476D01*
X12052619Y-12789952D02*
X12005000Y-12932809D01*
X12128809Y-12932809D01*
X12195476Y-12799476D02*
X12195476Y-12837571D01*
X12271667Y-12799476D02*
X12271667Y-12837571D01*
X12566905Y-13075667D02*
X12557381Y-13066143D01*
X12538333Y-13037571D01*
X12528809Y-13018524D01*
X12519286Y-12989952D01*
X12509762Y-12942333D01*
X12509762Y-12904238D01*
X12519286Y-12856619D01*
X12528809Y-12828048D01*
X12538333Y-12809000D01*
X12557381Y-12780428D01*
X12566905Y-12770905D01*
X12633571Y-12818524D02*
X12643095Y-12809000D01*
X12662143Y-12799476D01*
X12709762Y-12799476D01*
X12728809Y-12809000D01*
X12738333Y-12818524D01*
X12747857Y-12837571D01*
X12747857Y-12856619D01*
X12738333Y-12885190D01*
X12624048Y-12999476D01*
X12747857Y-12999476D01*
X12985952Y-12999476D02*
X12985952Y-12799476D01*
X13071667Y-12999476D02*
X13071667Y-12894714D01*
X13062143Y-12875667D01*
X13043095Y-12866143D01*
X13014524Y-12866143D01*
X12995476Y-12875667D01*
X12985952Y-12885190D01*
X13195476Y-12999476D02*
X13176428Y-12989952D01*
X13166905Y-12980428D01*
X13157381Y-12961381D01*
X13157381Y-12904238D01*
X13166905Y-12885190D01*
X13176428Y-12875667D01*
X13195476Y-12866143D01*
X13224048Y-12866143D01*
X13243095Y-12875667D01*
X13252619Y-12885190D01*
X13262143Y-12904238D01*
X13262143Y-12961381D01*
X13252619Y-12980428D01*
X13243095Y-12989952D01*
X13224048Y-12999476D01*
X13195476Y-12999476D01*
X13376428Y-12999476D02*
X13357381Y-12989952D01*
X13347857Y-12970905D01*
X13347857Y-12799476D01*
X13528809Y-12989952D02*
X13509762Y-12999476D01*
X13471667Y-12999476D01*
X13452619Y-12989952D01*
X13443095Y-12970905D01*
X13443095Y-12894714D01*
X13452619Y-12875667D01*
X13471667Y-12866143D01*
X13509762Y-12866143D01*
X13528809Y-12875667D01*
X13538333Y-12894714D01*
X13538333Y-12913762D01*
X13443095Y-12932809D01*
X13614524Y-12989952D02*
X13633571Y-12999476D01*
X13671667Y-12999476D01*
X13690714Y-12989952D01*
X13700238Y-12970905D01*
X13700238Y-12961381D01*
X13690714Y-12942333D01*
X13671667Y-12932809D01*
X13643095Y-12932809D01*
X13624048Y-12923286D01*
X13614524Y-12904238D01*
X13614524Y-12894714D01*
X13624048Y-12875667D01*
X13643095Y-12866143D01*
X13671667Y-12866143D01*
X13690714Y-12875667D01*
X13766905Y-13075667D02*
X13776428Y-13066143D01*
X13795476Y-13037571D01*
X13805000Y-13018524D01*
X13814524Y-12989952D01*
X13824048Y-12942333D01*
X13824048Y-12904238D01*
X13814524Y-12856619D01*
X13805000Y-12828048D01*
X13795476Y-12809000D01*
X13776428Y-12780428D01*
X13766905Y-12770905D01*
D13*
X8945000Y-13123000D02*
X8945000Y-13223000D01*
X8895000Y-13173000D02*
X8995000Y-13173000D01*
D11*
X9357381Y-13263476D02*
X9243095Y-13263476D01*
X9300238Y-13263476D02*
X9300238Y-13063476D01*
X9281190Y-13092048D01*
X9262143Y-13111095D01*
X9243095Y-13120619D01*
X9443095Y-13244428D02*
X9452619Y-13253952D01*
X9443095Y-13263476D01*
X9433571Y-13253952D01*
X9443095Y-13244428D01*
X9443095Y-13263476D01*
X9576429Y-13063476D02*
X9595476Y-13063476D01*
X9614524Y-13073000D01*
X9624048Y-13082524D01*
X9633571Y-13101571D01*
X9643095Y-13139667D01*
X9643095Y-13187286D01*
X9633571Y-13225381D01*
X9624048Y-13244428D01*
X9614524Y-13253952D01*
X9595476Y-13263476D01*
X9576429Y-13263476D01*
X9557381Y-13253952D01*
X9547857Y-13244428D01*
X9538333Y-13225381D01*
X9528810Y-13187286D01*
X9528810Y-13139667D01*
X9538333Y-13101571D01*
X9547857Y-13082524D01*
X9557381Y-13073000D01*
X9576429Y-13063476D01*
X9766905Y-13063476D02*
X9785952Y-13063476D01*
X9805000Y-13073000D01*
X9814524Y-13082524D01*
X9824048Y-13101571D01*
X9833571Y-13139667D01*
X9833571Y-13187286D01*
X9824048Y-13225381D01*
X9814524Y-13244428D01*
X9805000Y-13253952D01*
X9785952Y-13263476D01*
X9766905Y-13263476D01*
X9747857Y-13253952D01*
X9738333Y-13244428D01*
X9728810Y-13225381D01*
X9719286Y-13187286D01*
X9719286Y-13139667D01*
X9728810Y-13101571D01*
X9738333Y-13082524D01*
X9747857Y-13073000D01*
X9766905Y-13063476D01*
X9957381Y-13063476D02*
X9976429Y-13063476D01*
X9995476Y-13073000D01*
X10005000Y-13082524D01*
X10014524Y-13101571D01*
X10024048Y-13139667D01*
X10024048Y-13187286D01*
X10014524Y-13225381D01*
X10005000Y-13244428D01*
X9995476Y-13253952D01*
X9976429Y-13263476D01*
X9957381Y-13263476D01*
X9938333Y-13253952D01*
X9928810Y-13244428D01*
X9919286Y-13225381D01*
X9909762Y-13187286D01*
X9909762Y-13139667D01*
X9919286Y-13101571D01*
X9928810Y-13082524D01*
X9938333Y-13073000D01*
X9957381Y-13063476D01*
X10109762Y-13263476D02*
X10109762Y-13130143D01*
X10109762Y-13149190D02*
X10119286Y-13139667D01*
X10138333Y-13130143D01*
X10166905Y-13130143D01*
X10185952Y-13139667D01*
X10195476Y-13158714D01*
X10195476Y-13263476D01*
X10195476Y-13158714D02*
X10205000Y-13139667D01*
X10224048Y-13130143D01*
X10252619Y-13130143D01*
X10271667Y-13139667D01*
X10281190Y-13158714D01*
X10281190Y-13263476D01*
X10376429Y-13263476D02*
X10376429Y-13130143D01*
X10376429Y-13149190D02*
X10385952Y-13139667D01*
X10405000Y-13130143D01*
X10433571Y-13130143D01*
X10452619Y-13139667D01*
X10462143Y-13158714D01*
X10462143Y-13263476D01*
X10462143Y-13158714D02*
X10471667Y-13139667D01*
X10490714Y-13130143D01*
X10519286Y-13130143D01*
X10538333Y-13139667D01*
X10547857Y-13158714D01*
X10547857Y-13263476D01*
X10938333Y-13053952D02*
X10766905Y-13311095D01*
X11195476Y-13063476D02*
X11214524Y-13063476D01*
X11233571Y-13073000D01*
X11243095Y-13082524D01*
X11252619Y-13101571D01*
X11262143Y-13139667D01*
X11262143Y-13187286D01*
X11252619Y-13225381D01*
X11243095Y-13244428D01*
X11233571Y-13253952D01*
X11214524Y-13263476D01*
X11195476Y-13263476D01*
X11176429Y-13253952D01*
X11166905Y-13244428D01*
X11157381Y-13225381D01*
X11147857Y-13187286D01*
X11147857Y-13139667D01*
X11157381Y-13101571D01*
X11166905Y-13082524D01*
X11176429Y-13073000D01*
X11195476Y-13063476D01*
X11347857Y-13244428D02*
X11357381Y-13253952D01*
X11347857Y-13263476D01*
X11338333Y-13253952D01*
X11347857Y-13244428D01*
X11347857Y-13263476D01*
X11481190Y-13063476D02*
X11500238Y-13063476D01*
X11519286Y-13073000D01*
X11528809Y-13082524D01*
X11538333Y-13101571D01*
X11547857Y-13139667D01*
X11547857Y-13187286D01*
X11538333Y-13225381D01*
X11528809Y-13244428D01*
X11519286Y-13253952D01*
X11500238Y-13263476D01*
X11481190Y-13263476D01*
X11462143Y-13253952D01*
X11452619Y-13244428D01*
X11443095Y-13225381D01*
X11433571Y-13187286D01*
X11433571Y-13139667D01*
X11443095Y-13101571D01*
X11452619Y-13082524D01*
X11462143Y-13073000D01*
X11481190Y-13063476D01*
X11614524Y-13063476D02*
X11738333Y-13063476D01*
X11671667Y-13139667D01*
X11700238Y-13139667D01*
X11719286Y-13149190D01*
X11728809Y-13158714D01*
X11738333Y-13177762D01*
X11738333Y-13225381D01*
X11728809Y-13244428D01*
X11719286Y-13253952D01*
X11700238Y-13263476D01*
X11643095Y-13263476D01*
X11624048Y-13253952D01*
X11614524Y-13244428D01*
X11833571Y-13263476D02*
X11871667Y-13263476D01*
X11890714Y-13253952D01*
X11900238Y-13244428D01*
X11919286Y-13215857D01*
X11928809Y-13177762D01*
X11928809Y-13101571D01*
X11919286Y-13082524D01*
X11909762Y-13073000D01*
X11890714Y-13063476D01*
X11852619Y-13063476D01*
X11833571Y-13073000D01*
X11824048Y-13082524D01*
X11814524Y-13101571D01*
X11814524Y-13149190D01*
X11824048Y-13168238D01*
X11833571Y-13177762D01*
X11852619Y-13187286D01*
X11890714Y-13187286D01*
X11909762Y-13177762D01*
X11919286Y-13168238D01*
X11928809Y-13149190D01*
X12100238Y-13130143D02*
X12100238Y-13263476D01*
X12052619Y-13053952D02*
X12005000Y-13196809D01*
X12128809Y-13196809D01*
X12195476Y-13063476D02*
X12195476Y-13101571D01*
X12271667Y-13063476D02*
X12271667Y-13101571D01*
X12566905Y-13339667D02*
X12557381Y-13330143D01*
X12538333Y-13301571D01*
X12528809Y-13282524D01*
X12519286Y-13253952D01*
X12509762Y-13206333D01*
X12509762Y-13168238D01*
X12519286Y-13120619D01*
X12528809Y-13092048D01*
X12538333Y-13073000D01*
X12557381Y-13044428D01*
X12566905Y-13034905D01*
X12738333Y-13063476D02*
X12643095Y-13063476D01*
X12633571Y-13158714D01*
X12643095Y-13149190D01*
X12662143Y-13139667D01*
X12709762Y-13139667D01*
X12728809Y-13149190D01*
X12738333Y-13158714D01*
X12747857Y-13177762D01*
X12747857Y-13225381D01*
X12738333Y-13244428D01*
X12728809Y-13253952D01*
X12709762Y-13263476D01*
X12662143Y-13263476D01*
X12643095Y-13253952D01*
X12633571Y-13244428D01*
X12814524Y-13063476D02*
X12938333Y-13063476D01*
X12871667Y-13139667D01*
X12900238Y-13139667D01*
X12919286Y-13149190D01*
X12928809Y-13158714D01*
X12938333Y-13177762D01*
X12938333Y-13225381D01*
X12928809Y-13244428D01*
X12919286Y-13253952D01*
X12900238Y-13263476D01*
X12843095Y-13263476D01*
X12824048Y-13253952D01*
X12814524Y-13244428D01*
X13176428Y-13263476D02*
X13176428Y-13063476D01*
X13262143Y-13263476D02*
X13262143Y-13158714D01*
X13252619Y-13139667D01*
X13233571Y-13130143D01*
X13205000Y-13130143D01*
X13185952Y-13139667D01*
X13176428Y-13149190D01*
X13385952Y-13263476D02*
X13366905Y-13253952D01*
X13357381Y-13244428D01*
X13347857Y-13225381D01*
X13347857Y-13168238D01*
X13357381Y-13149190D01*
X13366905Y-13139667D01*
X13385952Y-13130143D01*
X13414524Y-13130143D01*
X13433571Y-13139667D01*
X13443095Y-13149190D01*
X13452619Y-13168238D01*
X13452619Y-13225381D01*
X13443095Y-13244428D01*
X13433571Y-13253952D01*
X13414524Y-13263476D01*
X13385952Y-13263476D01*
X13566905Y-13263476D02*
X13547857Y-13253952D01*
X13538333Y-13234905D01*
X13538333Y-13063476D01*
X13719286Y-13253952D02*
X13700238Y-13263476D01*
X13662143Y-13263476D01*
X13643095Y-13253952D01*
X13633571Y-13234905D01*
X13633571Y-13158714D01*
X13643095Y-13139667D01*
X13662143Y-13130143D01*
X13700238Y-13130143D01*
X13719286Y-13139667D01*
X13728809Y-13158714D01*
X13728809Y-13177762D01*
X13633571Y-13196809D01*
X13805000Y-13253952D02*
X13824048Y-13263476D01*
X13862143Y-13263476D01*
X13881190Y-13253952D01*
X13890714Y-13234905D01*
X13890714Y-13225381D01*
X13881190Y-13206333D01*
X13862143Y-13196809D01*
X13833571Y-13196809D01*
X13814524Y-13187286D01*
X13805000Y-13168238D01*
X13805000Y-13158714D01*
X13814524Y-13139667D01*
X13833571Y-13130143D01*
X13862143Y-13130143D01*
X13881190Y-13139667D01*
X13957381Y-13339667D02*
X13966905Y-13330143D01*
X13985952Y-13301571D01*
X13995476Y-13282524D01*
X14005000Y-13253952D01*
X14014524Y-13206333D01*
X14014524Y-13168238D01*
X14005000Y-13120619D01*
X13995476Y-13092048D01*
X13985952Y-13073000D01*
X13966905Y-13044428D01*
X13957381Y-13034905D01*
D14*
X8975962Y-13482962D02*
X8975962Y-13391038D01*
X8884038Y-13391038D01*
X8884038Y-13482962D01*
X8975962Y-13482962D01*
D11*
X9357381Y-13527476D02*
X9243095Y-13527476D01*
X9300238Y-13527476D02*
X9300238Y-13327476D01*
X9281190Y-13356048D01*
X9262143Y-13375095D01*
X9243095Y-13384619D01*
X9443095Y-13508428D02*
X9452619Y-13517952D01*
X9443095Y-13527476D01*
X9433571Y-13517952D01*
X9443095Y-13508428D01*
X9443095Y-13527476D01*
X9519286Y-13327476D02*
X9643095Y-13327476D01*
X9576429Y-13403667D01*
X9605000Y-13403667D01*
X9624048Y-13413190D01*
X9633571Y-13422714D01*
X9643095Y-13441762D01*
X9643095Y-13489381D01*
X9633571Y-13508428D01*
X9624048Y-13517952D01*
X9605000Y-13527476D01*
X9547857Y-13527476D01*
X9528810Y-13517952D01*
X9519286Y-13508428D01*
X9766905Y-13327476D02*
X9785952Y-13327476D01*
X9805000Y-13337000D01*
X9814524Y-13346524D01*
X9824048Y-13365571D01*
X9833571Y-13403667D01*
X9833571Y-13451286D01*
X9824048Y-13489381D01*
X9814524Y-13508428D01*
X9805000Y-13517952D01*
X9785952Y-13527476D01*
X9766905Y-13527476D01*
X9747857Y-13517952D01*
X9738333Y-13508428D01*
X9728810Y-13489381D01*
X9719286Y-13451286D01*
X9719286Y-13403667D01*
X9728810Y-13365571D01*
X9738333Y-13346524D01*
X9747857Y-13337000D01*
X9766905Y-13327476D01*
X9957381Y-13327476D02*
X9976429Y-13327476D01*
X9995476Y-13337000D01*
X10005000Y-13346524D01*
X10014524Y-13365571D01*
X10024048Y-13403667D01*
X10024048Y-13451286D01*
X10014524Y-13489381D01*
X10005000Y-13508428D01*
X9995476Y-13517952D01*
X9976429Y-13527476D01*
X9957381Y-13527476D01*
X9938333Y-13517952D01*
X9928810Y-13508428D01*
X9919286Y-13489381D01*
X9909762Y-13451286D01*
X9909762Y-13403667D01*
X9919286Y-13365571D01*
X9928810Y-13346524D01*
X9938333Y-13337000D01*
X9957381Y-13327476D01*
X10109762Y-13527476D02*
X10109762Y-13394143D01*
X10109762Y-13413190D02*
X10119286Y-13403667D01*
X10138333Y-13394143D01*
X10166905Y-13394143D01*
X10185952Y-13403667D01*
X10195476Y-13422714D01*
X10195476Y-13527476D01*
X10195476Y-13422714D02*
X10205000Y-13403667D01*
X10224048Y-13394143D01*
X10252619Y-13394143D01*
X10271667Y-13403667D01*
X10281190Y-13422714D01*
X10281190Y-13527476D01*
X10376429Y-13527476D02*
X10376429Y-13394143D01*
X10376429Y-13413190D02*
X10385952Y-13403667D01*
X10405000Y-13394143D01*
X10433571Y-13394143D01*
X10452619Y-13403667D01*
X10462143Y-13422714D01*
X10462143Y-13527476D01*
X10462143Y-13422714D02*
X10471667Y-13403667D01*
X10490714Y-13394143D01*
X10519286Y-13394143D01*
X10538333Y-13403667D01*
X10547857Y-13422714D01*
X10547857Y-13527476D01*
X10938333Y-13317952D02*
X10766905Y-13575095D01*
X11195476Y-13327476D02*
X11214524Y-13327476D01*
X11233571Y-13337000D01*
X11243095Y-13346524D01*
X11252619Y-13365571D01*
X11262143Y-13403667D01*
X11262143Y-13451286D01*
X11252619Y-13489381D01*
X11243095Y-13508428D01*
X11233571Y-13517952D01*
X11214524Y-13527476D01*
X11195476Y-13527476D01*
X11176429Y-13517952D01*
X11166905Y-13508428D01*
X11157381Y-13489381D01*
X11147857Y-13451286D01*
X11147857Y-13403667D01*
X11157381Y-13365571D01*
X11166905Y-13346524D01*
X11176429Y-13337000D01*
X11195476Y-13327476D01*
X11347857Y-13508428D02*
X11357381Y-13517952D01*
X11347857Y-13527476D01*
X11338333Y-13517952D01*
X11347857Y-13508428D01*
X11347857Y-13527476D01*
X11481190Y-13327476D02*
X11500238Y-13327476D01*
X11519286Y-13337000D01*
X11528809Y-13346524D01*
X11538333Y-13365571D01*
X11547857Y-13403667D01*
X11547857Y-13451286D01*
X11538333Y-13489381D01*
X11528809Y-13508428D01*
X11519286Y-13517952D01*
X11500238Y-13527476D01*
X11481190Y-13527476D01*
X11462143Y-13517952D01*
X11452619Y-13508428D01*
X11443095Y-13489381D01*
X11433571Y-13451286D01*
X11433571Y-13403667D01*
X11443095Y-13365571D01*
X11452619Y-13346524D01*
X11462143Y-13337000D01*
X11481190Y-13327476D01*
X11728809Y-13327476D02*
X11633571Y-13327476D01*
X11624048Y-13422714D01*
X11633571Y-13413190D01*
X11652619Y-13403667D01*
X11700238Y-13403667D01*
X11719286Y-13413190D01*
X11728809Y-13422714D01*
X11738333Y-13441762D01*
X11738333Y-13489381D01*
X11728809Y-13508428D01*
X11719286Y-13517952D01*
X11700238Y-13527476D01*
X11652619Y-13527476D01*
X11633571Y-13517952D01*
X11624048Y-13508428D01*
X11928809Y-13527476D02*
X11814524Y-13527476D01*
X11871667Y-13527476D02*
X11871667Y-13327476D01*
X11852619Y-13356048D01*
X11833571Y-13375095D01*
X11814524Y-13384619D01*
X12005000Y-13346524D02*
X12014524Y-13337000D01*
X12033571Y-13327476D01*
X12081190Y-13327476D01*
X12100238Y-13337000D01*
X12109762Y-13346524D01*
X12119286Y-13365571D01*
X12119286Y-13384619D01*
X12109762Y-13413190D01*
X11995476Y-13527476D01*
X12119286Y-13527476D01*
X12195476Y-13327476D02*
X12195476Y-13365571D01*
X12271667Y-13327476D02*
X12271667Y-13365571D01*
X12566905Y-13603667D02*
X12557381Y-13594143D01*
X12538333Y-13565571D01*
X12528809Y-13546524D01*
X12519286Y-13517952D01*
X12509762Y-13470333D01*
X12509762Y-13432238D01*
X12519286Y-13384619D01*
X12528809Y-13356048D01*
X12538333Y-13337000D01*
X12557381Y-13308428D01*
X12566905Y-13298905D01*
X12624048Y-13327476D02*
X12747857Y-13327476D01*
X12681190Y-13403667D01*
X12709762Y-13403667D01*
X12728809Y-13413190D01*
X12738333Y-13422714D01*
X12747857Y-13441762D01*
X12747857Y-13489381D01*
X12738333Y-13508428D01*
X12728809Y-13517952D01*
X12709762Y-13527476D01*
X12652619Y-13527476D01*
X12633571Y-13517952D01*
X12624048Y-13508428D01*
X12824048Y-13346524D02*
X12833571Y-13337000D01*
X12852619Y-13327476D01*
X12900238Y-13327476D01*
X12919286Y-13337000D01*
X12928809Y-13346524D01*
X12938333Y-13365571D01*
X12938333Y-13384619D01*
X12928809Y-13413190D01*
X12814524Y-13527476D01*
X12938333Y-13527476D01*
X13176428Y-13527476D02*
X13176428Y-13327476D01*
X13262143Y-13527476D02*
X13262143Y-13422714D01*
X13252619Y-13403667D01*
X13233571Y-13394143D01*
X13205000Y-13394143D01*
X13185952Y-13403667D01*
X13176428Y-13413190D01*
X13385952Y-13527476D02*
X13366905Y-13517952D01*
X13357381Y-13508428D01*
X13347857Y-13489381D01*
X13347857Y-13432238D01*
X13357381Y-13413190D01*
X13366905Y-13403667D01*
X13385952Y-13394143D01*
X13414524Y-13394143D01*
X13433571Y-13403667D01*
X13443095Y-13413190D01*
X13452619Y-13432238D01*
X13452619Y-13489381D01*
X13443095Y-13508428D01*
X13433571Y-13517952D01*
X13414524Y-13527476D01*
X13385952Y-13527476D01*
X13566905Y-13527476D02*
X13547857Y-13517952D01*
X13538333Y-13498905D01*
X13538333Y-13327476D01*
X13719286Y-13517952D02*
X13700238Y-13527476D01*
X13662143Y-13527476D01*
X13643095Y-13517952D01*
X13633571Y-13498905D01*
X13633571Y-13422714D01*
X13643095Y-13403667D01*
X13662143Y-13394143D01*
X13700238Y-13394143D01*
X13719286Y-13403667D01*
X13728809Y-13422714D01*
X13728809Y-13441762D01*
X13633571Y-13460809D01*
X13805000Y-13517952D02*
X13824048Y-13527476D01*
X13862143Y-13527476D01*
X13881190Y-13517952D01*
X13890714Y-13498905D01*
X13890714Y-13489381D01*
X13881190Y-13470333D01*
X13862143Y-13460809D01*
X13833571Y-13460809D01*
X13814524Y-13451286D01*
X13805000Y-13432238D01*
X13805000Y-13422714D01*
X13814524Y-13403667D01*
X13833571Y-13394143D01*
X13862143Y-13394143D01*
X13881190Y-13403667D01*
X13957381Y-13603667D02*
X13966905Y-13594143D01*
X13985952Y-13565571D01*
X13995476Y-13546524D01*
X14005000Y-13517952D01*
X14014524Y-13470333D01*
X14014524Y-13432238D01*
X14005000Y-13384619D01*
X13995476Y-13356048D01*
X13985952Y-13337000D01*
X13966905Y-13308428D01*
X13957381Y-13298905D01*
M02*
