G04 #@! TF.GenerationSoftware,KiCad,Pcbnew,(6.0.4)*
G04 #@! TF.CreationDate,2023-03-24T12:02:35-03:00*
G04 #@! TF.ProjectId,DomPiWeb,446f6d50-6957-4656-922e-6b696361645f,rev?*
G04 #@! TF.SameCoordinates,Original*
G04 #@! TF.FileFunction,Legend,Top*
G04 #@! TF.FilePolarity,Positive*
%FSLAX46Y46*%
G04 Gerber Fmt 4.6, Leading zero omitted, Abs format (unit mm)*
G04 Created by KiCad (PCBNEW (6.0.4)) date 2023-03-24 12:02:35*
%MOMM*%
%LPD*%
G01*
G04 APERTURE LIST*
%ADD10C,0.100000*%
%ADD11C,0.150000*%
%ADD12C,0.300000*%
%ADD13C,0.400000*%
%ADD14C,0.120000*%
G04 APERTURE END LIST*
D10*
D11*
X177002200Y-166007200D02*
X177002200Y-198007200D01*
X285002200Y-198007200D01*
X285002200Y-166007200D01*
X177002200Y-166007200D01*
D10*
D11*
X10000000Y-10000000D02*
X10000000Y-200007200D01*
X287002200Y-200007200D01*
X287002200Y-10000000D01*
X10000000Y-10000000D01*
D10*
D11*
X12000000Y-12000000D02*
X12000000Y-198007200D01*
X285002200Y-198007200D01*
X285002200Y-12000000D01*
X12000000Y-12000000D01*
D10*
D11*
X60000000Y-12000000D02*
X60000000Y-10000000D01*
D10*
D11*
X110000000Y-12000000D02*
X110000000Y-10000000D01*
D10*
D11*
X160000000Y-12000000D02*
X160000000Y-10000000D01*
D10*
D11*
X210000000Y-12000000D02*
X210000000Y-10000000D01*
D10*
D11*
X260000000Y-12000000D02*
X260000000Y-10000000D01*
D10*
D11*
X36065476Y-11588095D02*
X35322619Y-11588095D01*
X35694047Y-11588095D02*
X35694047Y-10288095D01*
X35570238Y-10473809D01*
X35446428Y-10597619D01*
X35322619Y-10659523D01*
D10*
D11*
X85322619Y-10411904D02*
X85384523Y-10350000D01*
X85508333Y-10288095D01*
X85817857Y-10288095D01*
X85941666Y-10350000D01*
X86003571Y-10411904D01*
X86065476Y-10535714D01*
X86065476Y-10659523D01*
X86003571Y-10845238D01*
X85260714Y-11588095D01*
X86065476Y-11588095D01*
D10*
D11*
X135260714Y-10288095D02*
X136065476Y-10288095D01*
X135632142Y-10783333D01*
X135817857Y-10783333D01*
X135941666Y-10845238D01*
X136003571Y-10907142D01*
X136065476Y-11030952D01*
X136065476Y-11340476D01*
X136003571Y-11464285D01*
X135941666Y-11526190D01*
X135817857Y-11588095D01*
X135446428Y-11588095D01*
X135322619Y-11526190D01*
X135260714Y-11464285D01*
D10*
D11*
X185941666Y-10721428D02*
X185941666Y-11588095D01*
X185632142Y-10226190D02*
X185322619Y-11154761D01*
X186127380Y-11154761D01*
D10*
D11*
X236003571Y-10288095D02*
X235384523Y-10288095D01*
X235322619Y-10907142D01*
X235384523Y-10845238D01*
X235508333Y-10783333D01*
X235817857Y-10783333D01*
X235941666Y-10845238D01*
X236003571Y-10907142D01*
X236065476Y-11030952D01*
X236065476Y-11340476D01*
X236003571Y-11464285D01*
X235941666Y-11526190D01*
X235817857Y-11588095D01*
X235508333Y-11588095D01*
X235384523Y-11526190D01*
X235322619Y-11464285D01*
D10*
D11*
X285941666Y-10288095D02*
X285694047Y-10288095D01*
X285570238Y-10350000D01*
X285508333Y-10411904D01*
X285384523Y-10597619D01*
X285322619Y-10845238D01*
X285322619Y-11340476D01*
X285384523Y-11464285D01*
X285446428Y-11526190D01*
X285570238Y-11588095D01*
X285817857Y-11588095D01*
X285941666Y-11526190D01*
X286003571Y-11464285D01*
X286065476Y-11340476D01*
X286065476Y-11030952D01*
X286003571Y-10907142D01*
X285941666Y-10845238D01*
X285817857Y-10783333D01*
X285570238Y-10783333D01*
X285446428Y-10845238D01*
X285384523Y-10907142D01*
X285322619Y-11030952D01*
D10*
D11*
X60000000Y-198007200D02*
X60000000Y-200007200D01*
D10*
D11*
X110000000Y-198007200D02*
X110000000Y-200007200D01*
D10*
D11*
X160000000Y-198007200D02*
X160000000Y-200007200D01*
D10*
D11*
X210000000Y-198007200D02*
X210000000Y-200007200D01*
D10*
D11*
X260000000Y-198007200D02*
X260000000Y-200007200D01*
D10*
D11*
X36065476Y-199595295D02*
X35322619Y-199595295D01*
X35694047Y-199595295D02*
X35694047Y-198295295D01*
X35570238Y-198481009D01*
X35446428Y-198604819D01*
X35322619Y-198666723D01*
D10*
D11*
X85322619Y-198419104D02*
X85384523Y-198357200D01*
X85508333Y-198295295D01*
X85817857Y-198295295D01*
X85941666Y-198357200D01*
X86003571Y-198419104D01*
X86065476Y-198542914D01*
X86065476Y-198666723D01*
X86003571Y-198852438D01*
X85260714Y-199595295D01*
X86065476Y-199595295D01*
D10*
D11*
X135260714Y-198295295D02*
X136065476Y-198295295D01*
X135632142Y-198790533D01*
X135817857Y-198790533D01*
X135941666Y-198852438D01*
X136003571Y-198914342D01*
X136065476Y-199038152D01*
X136065476Y-199347676D01*
X136003571Y-199471485D01*
X135941666Y-199533390D01*
X135817857Y-199595295D01*
X135446428Y-199595295D01*
X135322619Y-199533390D01*
X135260714Y-199471485D01*
D10*
D11*
X185941666Y-198728628D02*
X185941666Y-199595295D01*
X185632142Y-198233390D02*
X185322619Y-199161961D01*
X186127380Y-199161961D01*
D10*
D11*
X236003571Y-198295295D02*
X235384523Y-198295295D01*
X235322619Y-198914342D01*
X235384523Y-198852438D01*
X235508333Y-198790533D01*
X235817857Y-198790533D01*
X235941666Y-198852438D01*
X236003571Y-198914342D01*
X236065476Y-199038152D01*
X236065476Y-199347676D01*
X236003571Y-199471485D01*
X235941666Y-199533390D01*
X235817857Y-199595295D01*
X235508333Y-199595295D01*
X235384523Y-199533390D01*
X235322619Y-199471485D01*
D10*
D11*
X285941666Y-198295295D02*
X285694047Y-198295295D01*
X285570238Y-198357200D01*
X285508333Y-198419104D01*
X285384523Y-198604819D01*
X285322619Y-198852438D01*
X285322619Y-199347676D01*
X285384523Y-199471485D01*
X285446428Y-199533390D01*
X285570238Y-199595295D01*
X285817857Y-199595295D01*
X285941666Y-199533390D01*
X286003571Y-199471485D01*
X286065476Y-199347676D01*
X286065476Y-199038152D01*
X286003571Y-198914342D01*
X285941666Y-198852438D01*
X285817857Y-198790533D01*
X285570238Y-198790533D01*
X285446428Y-198852438D01*
X285384523Y-198914342D01*
X285322619Y-199038152D01*
D10*
D11*
X10000000Y-60000000D02*
X12000000Y-60000000D01*
D10*
D11*
X10000000Y-110000000D02*
X12000000Y-110000000D01*
D10*
D11*
X10000000Y-160000000D02*
X12000000Y-160000000D01*
D10*
D11*
X10690476Y-35216666D02*
X11309523Y-35216666D01*
X10566666Y-35588095D02*
X11000000Y-34288095D01*
X11433333Y-35588095D01*
D10*
D11*
X11092857Y-84907142D02*
X11278571Y-84969047D01*
X11340476Y-85030952D01*
X11402380Y-85154761D01*
X11402380Y-85340476D01*
X11340476Y-85464285D01*
X11278571Y-85526190D01*
X11154761Y-85588095D01*
X10659523Y-85588095D01*
X10659523Y-84288095D01*
X11092857Y-84288095D01*
X11216666Y-84350000D01*
X11278571Y-84411904D01*
X11340476Y-84535714D01*
X11340476Y-84659523D01*
X11278571Y-84783333D01*
X11216666Y-84845238D01*
X11092857Y-84907142D01*
X10659523Y-84907142D01*
D10*
D11*
X11402380Y-135464285D02*
X11340476Y-135526190D01*
X11154761Y-135588095D01*
X11030952Y-135588095D01*
X10845238Y-135526190D01*
X10721428Y-135402380D01*
X10659523Y-135278571D01*
X10597619Y-135030952D01*
X10597619Y-134845238D01*
X10659523Y-134597619D01*
X10721428Y-134473809D01*
X10845238Y-134350000D01*
X11030952Y-134288095D01*
X11154761Y-134288095D01*
X11340476Y-134350000D01*
X11402380Y-134411904D01*
D10*
D11*
X10659523Y-185588095D02*
X10659523Y-184288095D01*
X10969047Y-184288095D01*
X11154761Y-184350000D01*
X11278571Y-184473809D01*
X11340476Y-184597619D01*
X11402380Y-184845238D01*
X11402380Y-185030952D01*
X11340476Y-185278571D01*
X11278571Y-185402380D01*
X11154761Y-185526190D01*
X10969047Y-185588095D01*
X10659523Y-185588095D01*
D10*
D11*
X287002200Y-60000000D02*
X285002200Y-60000000D01*
D10*
D11*
X287002200Y-110000000D02*
X285002200Y-110000000D01*
D10*
D11*
X287002200Y-160000000D02*
X285002200Y-160000000D01*
D10*
D11*
X285692676Y-35216666D02*
X286311723Y-35216666D01*
X285568866Y-35588095D02*
X286002200Y-34288095D01*
X286435533Y-35588095D01*
D10*
D11*
X286095057Y-84907142D02*
X286280771Y-84969047D01*
X286342676Y-85030952D01*
X286404580Y-85154761D01*
X286404580Y-85340476D01*
X286342676Y-85464285D01*
X286280771Y-85526190D01*
X286156961Y-85588095D01*
X285661723Y-85588095D01*
X285661723Y-84288095D01*
X286095057Y-84288095D01*
X286218866Y-84350000D01*
X286280771Y-84411904D01*
X286342676Y-84535714D01*
X286342676Y-84659523D01*
X286280771Y-84783333D01*
X286218866Y-84845238D01*
X286095057Y-84907142D01*
X285661723Y-84907142D01*
D10*
D11*
X286404580Y-135464285D02*
X286342676Y-135526190D01*
X286156961Y-135588095D01*
X286033152Y-135588095D01*
X285847438Y-135526190D01*
X285723628Y-135402380D01*
X285661723Y-135278571D01*
X285599819Y-135030952D01*
X285599819Y-134845238D01*
X285661723Y-134597619D01*
X285723628Y-134473809D01*
X285847438Y-134350000D01*
X286033152Y-134288095D01*
X286156961Y-134288095D01*
X286342676Y-134350000D01*
X286404580Y-134411904D01*
D10*
D11*
X285661723Y-185588095D02*
X285661723Y-184288095D01*
X285971247Y-184288095D01*
X286156961Y-184350000D01*
X286280771Y-184473809D01*
X286342676Y-184597619D01*
X286404580Y-184845238D01*
X286404580Y-185030952D01*
X286342676Y-185278571D01*
X286280771Y-185402380D01*
X286156961Y-185526190D01*
X285971247Y-185588095D01*
X285661723Y-185588095D01*
D10*
D11*
X200434342Y-193785771D02*
X200434342Y-192285771D01*
X200791485Y-192285771D01*
X201005771Y-192357200D01*
X201148628Y-192500057D01*
X201220057Y-192642914D01*
X201291485Y-192928628D01*
X201291485Y-193142914D01*
X201220057Y-193428628D01*
X201148628Y-193571485D01*
X201005771Y-193714342D01*
X200791485Y-193785771D01*
X200434342Y-193785771D01*
X202577200Y-193785771D02*
X202577200Y-193000057D01*
X202505771Y-192857200D01*
X202362914Y-192785771D01*
X202077200Y-192785771D01*
X201934342Y-192857200D01*
X202577200Y-193714342D02*
X202434342Y-193785771D01*
X202077200Y-193785771D01*
X201934342Y-193714342D01*
X201862914Y-193571485D01*
X201862914Y-193428628D01*
X201934342Y-193285771D01*
X202077200Y-193214342D01*
X202434342Y-193214342D01*
X202577200Y-193142914D01*
X203077200Y-192785771D02*
X203648628Y-192785771D01*
X203291485Y-192285771D02*
X203291485Y-193571485D01*
X203362914Y-193714342D01*
X203505771Y-193785771D01*
X203648628Y-193785771D01*
X204720057Y-193714342D02*
X204577200Y-193785771D01*
X204291485Y-193785771D01*
X204148628Y-193714342D01*
X204077200Y-193571485D01*
X204077200Y-193000057D01*
X204148628Y-192857200D01*
X204291485Y-192785771D01*
X204577200Y-192785771D01*
X204720057Y-192857200D01*
X204791485Y-193000057D01*
X204791485Y-193142914D01*
X204077200Y-193285771D01*
X205434342Y-193642914D02*
X205505771Y-193714342D01*
X205434342Y-193785771D01*
X205362914Y-193714342D01*
X205434342Y-193642914D01*
X205434342Y-193785771D01*
X205434342Y-192857200D02*
X205505771Y-192928628D01*
X205434342Y-193000057D01*
X205362914Y-192928628D01*
X205434342Y-192857200D01*
X205434342Y-193000057D01*
D10*
D11*
X177002200Y-194507200D02*
X285002200Y-194507200D01*
D10*
D11*
X178434342Y-196585771D02*
X178434342Y-195085771D01*
X179291485Y-196585771D02*
X178648628Y-195728628D01*
X179291485Y-195085771D02*
X178434342Y-195942914D01*
X179934342Y-196585771D02*
X179934342Y-195585771D01*
X179934342Y-195085771D02*
X179862914Y-195157200D01*
X179934342Y-195228628D01*
X180005771Y-195157200D01*
X179934342Y-195085771D01*
X179934342Y-195228628D01*
X181505771Y-196442914D02*
X181434342Y-196514342D01*
X181220057Y-196585771D01*
X181077200Y-196585771D01*
X180862914Y-196514342D01*
X180720057Y-196371485D01*
X180648628Y-196228628D01*
X180577200Y-195942914D01*
X180577200Y-195728628D01*
X180648628Y-195442914D01*
X180720057Y-195300057D01*
X180862914Y-195157200D01*
X181077200Y-195085771D01*
X181220057Y-195085771D01*
X181434342Y-195157200D01*
X181505771Y-195228628D01*
X182791485Y-196585771D02*
X182791485Y-195800057D01*
X182720057Y-195657200D01*
X182577200Y-195585771D01*
X182291485Y-195585771D01*
X182148628Y-195657200D01*
X182791485Y-196514342D02*
X182648628Y-196585771D01*
X182291485Y-196585771D01*
X182148628Y-196514342D01*
X182077200Y-196371485D01*
X182077200Y-196228628D01*
X182148628Y-196085771D01*
X182291485Y-196014342D01*
X182648628Y-196014342D01*
X182791485Y-195942914D01*
X184148628Y-196585771D02*
X184148628Y-195085771D01*
X184148628Y-196514342D02*
X184005771Y-196585771D01*
X183720057Y-196585771D01*
X183577200Y-196514342D01*
X183505771Y-196442914D01*
X183434342Y-196300057D01*
X183434342Y-195871485D01*
X183505771Y-195728628D01*
X183577200Y-195657200D01*
X183720057Y-195585771D01*
X184005771Y-195585771D01*
X184148628Y-195657200D01*
X186005771Y-195800057D02*
X186505771Y-195800057D01*
X186720057Y-196585771D02*
X186005771Y-196585771D01*
X186005771Y-195085771D01*
X186720057Y-195085771D01*
X187362914Y-196442914D02*
X187434342Y-196514342D01*
X187362914Y-196585771D01*
X187291485Y-196514342D01*
X187362914Y-196442914D01*
X187362914Y-196585771D01*
X188077200Y-196585771D02*
X188077200Y-195085771D01*
X188434342Y-195085771D01*
X188648628Y-195157200D01*
X188791485Y-195300057D01*
X188862914Y-195442914D01*
X188934342Y-195728628D01*
X188934342Y-195942914D01*
X188862914Y-196228628D01*
X188791485Y-196371485D01*
X188648628Y-196514342D01*
X188434342Y-196585771D01*
X188077200Y-196585771D01*
X189577200Y-196442914D02*
X189648628Y-196514342D01*
X189577200Y-196585771D01*
X189505771Y-196514342D01*
X189577200Y-196442914D01*
X189577200Y-196585771D01*
X190220057Y-196157200D02*
X190934342Y-196157200D01*
X190077200Y-196585771D02*
X190577200Y-195085771D01*
X191077200Y-196585771D01*
X191577200Y-196442914D02*
X191648628Y-196514342D01*
X191577200Y-196585771D01*
X191505771Y-196514342D01*
X191577200Y-196442914D01*
X191577200Y-196585771D01*
X194577200Y-196585771D02*
X194577200Y-195085771D01*
X194720057Y-196014342D02*
X195148628Y-196585771D01*
X195148628Y-195585771D02*
X194577200Y-196157200D01*
X195791485Y-196585771D02*
X195791485Y-195585771D01*
X195791485Y-195085771D02*
X195720057Y-195157200D01*
X195791485Y-195228628D01*
X195862914Y-195157200D01*
X195791485Y-195085771D01*
X195791485Y-195228628D01*
X197148628Y-196514342D02*
X197005771Y-196585771D01*
X196720057Y-196585771D01*
X196577200Y-196514342D01*
X196505771Y-196442914D01*
X196434342Y-196300057D01*
X196434342Y-195871485D01*
X196505771Y-195728628D01*
X196577200Y-195657200D01*
X196720057Y-195585771D01*
X197005771Y-195585771D01*
X197148628Y-195657200D01*
X198434342Y-196585771D02*
X198434342Y-195800057D01*
X198362914Y-195657200D01*
X198220057Y-195585771D01*
X197934342Y-195585771D01*
X197791485Y-195657200D01*
X198434342Y-196514342D02*
X198291485Y-196585771D01*
X197934342Y-196585771D01*
X197791485Y-196514342D01*
X197720057Y-196371485D01*
X197720057Y-196228628D01*
X197791485Y-196085771D01*
X197934342Y-196014342D01*
X198291485Y-196014342D01*
X198434342Y-195942914D01*
X199791485Y-196585771D02*
X199791485Y-195085771D01*
X199791485Y-196514342D02*
X199648628Y-196585771D01*
X199362914Y-196585771D01*
X199220057Y-196514342D01*
X199148628Y-196442914D01*
X199077200Y-196300057D01*
X199077200Y-195871485D01*
X199148628Y-195728628D01*
X199220057Y-195657200D01*
X199362914Y-195585771D01*
X199648628Y-195585771D01*
X199791485Y-195657200D01*
X202077200Y-197157200D02*
X202005771Y-197085771D01*
X201862914Y-196871485D01*
X201791485Y-196728628D01*
X201720057Y-196514342D01*
X201648628Y-196157200D01*
X201648628Y-195871485D01*
X201720057Y-195514342D01*
X201791485Y-195300057D01*
X201862914Y-195157200D01*
X202005771Y-194942914D01*
X202077200Y-194871485D01*
X203291485Y-195085771D02*
X203005771Y-195085771D01*
X202862914Y-195157200D01*
X202791485Y-195228628D01*
X202648628Y-195442914D01*
X202577200Y-195728628D01*
X202577200Y-196300057D01*
X202648628Y-196442914D01*
X202720057Y-196514342D01*
X202862914Y-196585771D01*
X203148628Y-196585771D01*
X203291485Y-196514342D01*
X203362914Y-196442914D01*
X203434342Y-196300057D01*
X203434342Y-195942914D01*
X203362914Y-195800057D01*
X203291485Y-195728628D01*
X203148628Y-195657200D01*
X202862914Y-195657200D01*
X202720057Y-195728628D01*
X202648628Y-195800057D01*
X202577200Y-195942914D01*
X204077200Y-196442914D02*
X204148628Y-196514342D01*
X204077200Y-196585771D01*
X204005771Y-196514342D01*
X204077200Y-196442914D01*
X204077200Y-196585771D01*
X205077200Y-195085771D02*
X205220057Y-195085771D01*
X205362914Y-195157200D01*
X205434342Y-195228628D01*
X205505771Y-195371485D01*
X205577200Y-195657200D01*
X205577200Y-196014342D01*
X205505771Y-196300057D01*
X205434342Y-196442914D01*
X205362914Y-196514342D01*
X205220057Y-196585771D01*
X205077200Y-196585771D01*
X204934342Y-196514342D01*
X204862914Y-196442914D01*
X204791485Y-196300057D01*
X204720057Y-196014342D01*
X204720057Y-195657200D01*
X204791485Y-195371485D01*
X204862914Y-195228628D01*
X204934342Y-195157200D01*
X205077200Y-195085771D01*
X206220057Y-196442914D02*
X206291485Y-196514342D01*
X206220057Y-196585771D01*
X206148628Y-196514342D01*
X206220057Y-196442914D01*
X206220057Y-196585771D01*
X207577200Y-195585771D02*
X207577200Y-196585771D01*
X207220057Y-195014342D02*
X206862914Y-196085771D01*
X207791485Y-196085771D01*
X208220057Y-197157200D02*
X208291485Y-197085771D01*
X208434342Y-196871485D01*
X208505771Y-196728628D01*
X208577200Y-196514342D01*
X208648628Y-196157200D01*
X208648628Y-195871485D01*
X208577200Y-195514342D01*
X208505771Y-195300057D01*
X208434342Y-195157200D01*
X208291485Y-194942914D01*
X208220057Y-194871485D01*
D10*
D11*
X177002200Y-191507200D02*
X285002200Y-191507200D01*
D10*
D12*
X264411485Y-193785771D02*
X263911485Y-193071485D01*
X263554342Y-193785771D02*
X263554342Y-192285771D01*
X264125771Y-192285771D01*
X264268628Y-192357200D01*
X264340057Y-192428628D01*
X264411485Y-192571485D01*
X264411485Y-192785771D01*
X264340057Y-192928628D01*
X264268628Y-193000057D01*
X264125771Y-193071485D01*
X263554342Y-193071485D01*
X265625771Y-193714342D02*
X265482914Y-193785771D01*
X265197200Y-193785771D01*
X265054342Y-193714342D01*
X264982914Y-193571485D01*
X264982914Y-193000057D01*
X265054342Y-192857200D01*
X265197200Y-192785771D01*
X265482914Y-192785771D01*
X265625771Y-192857200D01*
X265697200Y-193000057D01*
X265697200Y-193142914D01*
X264982914Y-193285771D01*
X266197200Y-192785771D02*
X266554342Y-193785771D01*
X266911485Y-192785771D01*
X267482914Y-193642914D02*
X267554342Y-193714342D01*
X267482914Y-193785771D01*
X267411485Y-193714342D01*
X267482914Y-193642914D01*
X267482914Y-193785771D01*
X267482914Y-192857200D02*
X267554342Y-192928628D01*
X267482914Y-193000057D01*
X267411485Y-192928628D01*
X267482914Y-192857200D01*
X267482914Y-193000057D01*
D10*
D11*
X178362914Y-193714342D02*
X178577200Y-193785771D01*
X178934342Y-193785771D01*
X179077200Y-193714342D01*
X179148628Y-193642914D01*
X179220057Y-193500057D01*
X179220057Y-193357200D01*
X179148628Y-193214342D01*
X179077200Y-193142914D01*
X178934342Y-193071485D01*
X178648628Y-193000057D01*
X178505771Y-192928628D01*
X178434342Y-192857200D01*
X178362914Y-192714342D01*
X178362914Y-192571485D01*
X178434342Y-192428628D01*
X178505771Y-192357200D01*
X178648628Y-192285771D01*
X179005771Y-192285771D01*
X179220057Y-192357200D01*
X179862914Y-193785771D02*
X179862914Y-192785771D01*
X179862914Y-192285771D02*
X179791485Y-192357200D01*
X179862914Y-192428628D01*
X179934342Y-192357200D01*
X179862914Y-192285771D01*
X179862914Y-192428628D01*
X180434342Y-192785771D02*
X181220057Y-192785771D01*
X180434342Y-193785771D01*
X181220057Y-193785771D01*
X182362914Y-193714342D02*
X182220057Y-193785771D01*
X181934342Y-193785771D01*
X181791485Y-193714342D01*
X181720057Y-193571485D01*
X181720057Y-193000057D01*
X181791485Y-192857200D01*
X181934342Y-192785771D01*
X182220057Y-192785771D01*
X182362914Y-192857200D01*
X182434342Y-193000057D01*
X182434342Y-193142914D01*
X181720057Y-193285771D01*
X183077200Y-193642914D02*
X183148628Y-193714342D01*
X183077200Y-193785771D01*
X183005771Y-193714342D01*
X183077200Y-193642914D01*
X183077200Y-193785771D01*
X183077200Y-192857200D02*
X183148628Y-192928628D01*
X183077200Y-193000057D01*
X183005771Y-192928628D01*
X183077200Y-192857200D01*
X183077200Y-193000057D01*
X184862914Y-193357200D02*
X185577200Y-193357200D01*
X184720057Y-193785771D02*
X185220057Y-192285771D01*
X185720057Y-193785771D01*
X186862914Y-192785771D02*
X186862914Y-193785771D01*
X186505771Y-192214342D02*
X186148628Y-193285771D01*
X187077200Y-193285771D01*
D10*
D11*
X263434342Y-196585771D02*
X263434342Y-195085771D01*
X264791485Y-196585771D02*
X264791485Y-195085771D01*
X264791485Y-196514342D02*
X264648628Y-196585771D01*
X264362914Y-196585771D01*
X264220057Y-196514342D01*
X264148628Y-196442914D01*
X264077200Y-196300057D01*
X264077200Y-195871485D01*
X264148628Y-195728628D01*
X264220057Y-195657200D01*
X264362914Y-195585771D01*
X264648628Y-195585771D01*
X264791485Y-195657200D01*
X265505771Y-196442914D02*
X265577200Y-196514342D01*
X265505771Y-196585771D01*
X265434342Y-196514342D01*
X265505771Y-196442914D01*
X265505771Y-196585771D01*
X265505771Y-195657200D02*
X265577200Y-195728628D01*
X265505771Y-195800057D01*
X265434342Y-195728628D01*
X265505771Y-195657200D01*
X265505771Y-195800057D01*
X268148628Y-196585771D02*
X267291485Y-196585771D01*
X267720057Y-196585771D02*
X267720057Y-195085771D01*
X267577200Y-195300057D01*
X267434342Y-195442914D01*
X267291485Y-195514342D01*
X269862914Y-195014342D02*
X268577200Y-196942914D01*
X271148628Y-196585771D02*
X270291485Y-196585771D01*
X270720057Y-196585771D02*
X270720057Y-195085771D01*
X270577200Y-195300057D01*
X270434342Y-195442914D01*
X270291485Y-195514342D01*
D10*
D11*
X177002200Y-187507200D02*
X285002200Y-187507200D01*
D10*
D13*
X178714580Y-188211961D02*
X179857438Y-188211961D01*
X179036009Y-190211961D02*
X179286009Y-188211961D01*
X180274104Y-190211961D02*
X180440771Y-188878628D01*
X180524104Y-188211961D02*
X180416961Y-188307200D01*
X180500295Y-188402438D01*
X180607438Y-188307200D01*
X180524104Y-188211961D01*
X180500295Y-188402438D01*
X181107438Y-188878628D02*
X181869342Y-188878628D01*
X181476485Y-188211961D02*
X181262200Y-189926247D01*
X181333628Y-190116723D01*
X181512200Y-190211961D01*
X181702676Y-190211961D01*
X182655057Y-190211961D02*
X182476485Y-190116723D01*
X182405057Y-189926247D01*
X182619342Y-188211961D01*
X184190771Y-190116723D02*
X183988390Y-190211961D01*
X183607438Y-190211961D01*
X183428866Y-190116723D01*
X183357438Y-189926247D01*
X183452676Y-189164342D01*
X183571723Y-188973866D01*
X183774104Y-188878628D01*
X184155057Y-188878628D01*
X184333628Y-188973866D01*
X184405057Y-189164342D01*
X184381247Y-189354819D01*
X183405057Y-189545295D01*
X185155057Y-190021485D02*
X185238390Y-190116723D01*
X185131247Y-190211961D01*
X185047914Y-190116723D01*
X185155057Y-190021485D01*
X185131247Y-190211961D01*
X185286009Y-188973866D02*
X185369342Y-189069104D01*
X185262200Y-189164342D01*
X185178866Y-189069104D01*
X185286009Y-188973866D01*
X185262200Y-189164342D01*
D10*
D11*
X178934342Y-185600057D02*
X178434342Y-185600057D01*
X178434342Y-186385771D02*
X178434342Y-184885771D01*
X179148628Y-184885771D01*
X179720057Y-186385771D02*
X179720057Y-185385771D01*
X179720057Y-184885771D02*
X179648628Y-184957200D01*
X179720057Y-185028628D01*
X179791485Y-184957200D01*
X179720057Y-184885771D01*
X179720057Y-185028628D01*
X180648628Y-186385771D02*
X180505771Y-186314342D01*
X180434342Y-186171485D01*
X180434342Y-184885771D01*
X181791485Y-186314342D02*
X181648628Y-186385771D01*
X181362914Y-186385771D01*
X181220057Y-186314342D01*
X181148628Y-186171485D01*
X181148628Y-185600057D01*
X181220057Y-185457200D01*
X181362914Y-185385771D01*
X181648628Y-185385771D01*
X181791485Y-185457200D01*
X181862914Y-185600057D01*
X181862914Y-185742914D01*
X181148628Y-185885771D01*
X182505771Y-186242914D02*
X182577200Y-186314342D01*
X182505771Y-186385771D01*
X182434342Y-186314342D01*
X182505771Y-186242914D01*
X182505771Y-186385771D01*
X182505771Y-185457200D02*
X182577200Y-185528628D01*
X182505771Y-185600057D01*
X182434342Y-185528628D01*
X182505771Y-185457200D01*
X182505771Y-185600057D01*
X184362914Y-186385771D02*
X184362914Y-184885771D01*
X184720057Y-184885771D01*
X184934342Y-184957200D01*
X185077200Y-185100057D01*
X185148628Y-185242914D01*
X185220057Y-185528628D01*
X185220057Y-185742914D01*
X185148628Y-186028628D01*
X185077200Y-186171485D01*
X184934342Y-186314342D01*
X184720057Y-186385771D01*
X184362914Y-186385771D01*
X186077200Y-186385771D02*
X185934342Y-186314342D01*
X185862914Y-186242914D01*
X185791485Y-186100057D01*
X185791485Y-185671485D01*
X185862914Y-185528628D01*
X185934342Y-185457200D01*
X186077200Y-185385771D01*
X186291485Y-185385771D01*
X186434342Y-185457200D01*
X186505771Y-185528628D01*
X186577200Y-185671485D01*
X186577200Y-186100057D01*
X186505771Y-186242914D01*
X186434342Y-186314342D01*
X186291485Y-186385771D01*
X186077200Y-186385771D01*
X187220057Y-186385771D02*
X187220057Y-185385771D01*
X187220057Y-185528628D02*
X187291485Y-185457200D01*
X187434342Y-185385771D01*
X187648628Y-185385771D01*
X187791485Y-185457200D01*
X187862914Y-185600057D01*
X187862914Y-186385771D01*
X187862914Y-185600057D02*
X187934342Y-185457200D01*
X188077200Y-185385771D01*
X188291485Y-185385771D01*
X188434342Y-185457200D01*
X188505771Y-185600057D01*
X188505771Y-186385771D01*
X189220057Y-186385771D02*
X189220057Y-184885771D01*
X189791485Y-184885771D01*
X189934342Y-184957200D01*
X190005771Y-185028628D01*
X190077200Y-185171485D01*
X190077200Y-185385771D01*
X190005771Y-185528628D01*
X189934342Y-185600057D01*
X189791485Y-185671485D01*
X189220057Y-185671485D01*
X190720057Y-186385771D02*
X190720057Y-185385771D01*
X190720057Y-184885771D02*
X190648628Y-184957200D01*
X190720057Y-185028628D01*
X190791485Y-184957200D01*
X190720057Y-184885771D01*
X190720057Y-185028628D01*
X191291485Y-184885771D02*
X191648628Y-186385771D01*
X191934342Y-185314342D01*
X192220057Y-186385771D01*
X192577200Y-184885771D01*
X193720057Y-186314342D02*
X193577200Y-186385771D01*
X193291485Y-186385771D01*
X193148628Y-186314342D01*
X193077200Y-186171485D01*
X193077200Y-185600057D01*
X193148628Y-185457200D01*
X193291485Y-185385771D01*
X193577200Y-185385771D01*
X193720057Y-185457200D01*
X193791485Y-185600057D01*
X193791485Y-185742914D01*
X193077200Y-185885771D01*
X194434342Y-186385771D02*
X194434342Y-184885771D01*
X194434342Y-185457200D02*
X194577200Y-185385771D01*
X194862914Y-185385771D01*
X195005771Y-185457200D01*
X195077200Y-185528628D01*
X195148628Y-185671485D01*
X195148628Y-186100057D01*
X195077200Y-186242914D01*
X195005771Y-186314342D01*
X194862914Y-186385771D01*
X194577200Y-186385771D01*
X194434342Y-186314342D01*
X195791485Y-186242914D02*
X195862914Y-186314342D01*
X195791485Y-186385771D01*
X195720057Y-186314342D01*
X195791485Y-186242914D01*
X195791485Y-186385771D01*
X196505771Y-186385771D02*
X196505771Y-184885771D01*
X196648628Y-185814342D02*
X197077200Y-186385771D01*
X197077200Y-185385771D02*
X196505771Y-185957200D01*
X197720057Y-186385771D02*
X197720057Y-185385771D01*
X197720057Y-184885771D02*
X197648628Y-184957200D01*
X197720057Y-185028628D01*
X197791485Y-184957200D01*
X197720057Y-184885771D01*
X197720057Y-185028628D01*
X199077200Y-186314342D02*
X198934342Y-186385771D01*
X198648628Y-186385771D01*
X198505771Y-186314342D01*
X198434342Y-186242914D01*
X198362914Y-186100057D01*
X198362914Y-185671485D01*
X198434342Y-185528628D01*
X198505771Y-185457200D01*
X198648628Y-185385771D01*
X198934342Y-185385771D01*
X199077200Y-185457200D01*
X200362914Y-186385771D02*
X200362914Y-185600057D01*
X200291485Y-185457200D01*
X200148628Y-185385771D01*
X199862914Y-185385771D01*
X199720057Y-185457200D01*
X200362914Y-186314342D02*
X200220057Y-186385771D01*
X199862914Y-186385771D01*
X199720057Y-186314342D01*
X199648628Y-186171485D01*
X199648628Y-186028628D01*
X199720057Y-185885771D01*
X199862914Y-185814342D01*
X200220057Y-185814342D01*
X200362914Y-185742914D01*
X201720057Y-186385771D02*
X201720057Y-184885771D01*
X201720057Y-186314342D02*
X201577200Y-186385771D01*
X201291485Y-186385771D01*
X201148628Y-186314342D01*
X201077200Y-186242914D01*
X201005771Y-186100057D01*
X201005771Y-185671485D01*
X201077200Y-185528628D01*
X201148628Y-185457200D01*
X201291485Y-185385771D01*
X201577200Y-185385771D01*
X201720057Y-185457200D01*
X202077200Y-186528628D02*
X203220057Y-186528628D01*
X203577200Y-185385771D02*
X203577200Y-186885771D01*
X203577200Y-185457200D02*
X203720057Y-185385771D01*
X204005771Y-185385771D01*
X204148628Y-185457200D01*
X204220057Y-185528628D01*
X204291485Y-185671485D01*
X204291485Y-186100057D01*
X204220057Y-186242914D01*
X204148628Y-186314342D01*
X204005771Y-186385771D01*
X203720057Y-186385771D01*
X203577200Y-186314342D01*
X205577200Y-186314342D02*
X205434342Y-186385771D01*
X205148628Y-186385771D01*
X205005771Y-186314342D01*
X204934342Y-186242914D01*
X204862914Y-186100057D01*
X204862914Y-185671485D01*
X204934342Y-185528628D01*
X205005771Y-185457200D01*
X205148628Y-185385771D01*
X205434342Y-185385771D01*
X205577200Y-185457200D01*
X206220057Y-186385771D02*
X206220057Y-184885771D01*
X206220057Y-185457200D02*
X206362914Y-185385771D01*
X206648628Y-185385771D01*
X206791485Y-185457200D01*
X206862914Y-185528628D01*
X206934342Y-185671485D01*
X206934342Y-186100057D01*
X206862914Y-186242914D01*
X206791485Y-186314342D01*
X206648628Y-186385771D01*
X206362914Y-186385771D01*
X206220057Y-186314342D01*
D10*
D11*
X177002200Y-181507200D02*
X285002200Y-181507200D01*
D10*
D11*
X178362914Y-183614342D02*
X178577200Y-183685771D01*
X178934342Y-183685771D01*
X179077200Y-183614342D01*
X179148628Y-183542914D01*
X179220057Y-183400057D01*
X179220057Y-183257200D01*
X179148628Y-183114342D01*
X179077200Y-183042914D01*
X178934342Y-182971485D01*
X178648628Y-182900057D01*
X178505771Y-182828628D01*
X178434342Y-182757200D01*
X178362914Y-182614342D01*
X178362914Y-182471485D01*
X178434342Y-182328628D01*
X178505771Y-182257200D01*
X178648628Y-182185771D01*
X179005771Y-182185771D01*
X179220057Y-182257200D01*
X179862914Y-183685771D02*
X179862914Y-182185771D01*
X180505771Y-183685771D02*
X180505771Y-182900057D01*
X180434342Y-182757200D01*
X180291485Y-182685771D01*
X180077200Y-182685771D01*
X179934342Y-182757200D01*
X179862914Y-182828628D01*
X181791485Y-183614342D02*
X181648628Y-183685771D01*
X181362914Y-183685771D01*
X181220057Y-183614342D01*
X181148628Y-183471485D01*
X181148628Y-182900057D01*
X181220057Y-182757200D01*
X181362914Y-182685771D01*
X181648628Y-182685771D01*
X181791485Y-182757200D01*
X181862914Y-182900057D01*
X181862914Y-183042914D01*
X181148628Y-183185771D01*
X183077200Y-183614342D02*
X182934342Y-183685771D01*
X182648628Y-183685771D01*
X182505771Y-183614342D01*
X182434342Y-183471485D01*
X182434342Y-182900057D01*
X182505771Y-182757200D01*
X182648628Y-182685771D01*
X182934342Y-182685771D01*
X183077200Y-182757200D01*
X183148628Y-182900057D01*
X183148628Y-183042914D01*
X182434342Y-183185771D01*
X183577200Y-182685771D02*
X184148628Y-182685771D01*
X183791485Y-182185771D02*
X183791485Y-183471485D01*
X183862914Y-183614342D01*
X184005771Y-183685771D01*
X184148628Y-183685771D01*
X184648628Y-183542914D02*
X184720057Y-183614342D01*
X184648628Y-183685771D01*
X184577200Y-183614342D01*
X184648628Y-183542914D01*
X184648628Y-183685771D01*
X184648628Y-182757200D02*
X184720057Y-182828628D01*
X184648628Y-182900057D01*
X184577200Y-182828628D01*
X184648628Y-182757200D01*
X184648628Y-182900057D01*
D10*
D12*
D10*
D11*
D10*
D11*
D10*
D11*
D10*
D11*
D10*
D11*
X197002200Y-191507200D02*
X197002200Y-194507200D01*
D10*
D11*
X261002200Y-191507200D02*
X261002200Y-198007200D01*
X105357142Y-119452380D02*
X104785714Y-119452380D01*
X105071428Y-119452380D02*
X105071428Y-118452380D01*
X104976190Y-118595238D01*
X104880952Y-118690476D01*
X104785714Y-118738095D01*
X109547619Y-118547619D02*
X109595238Y-118500000D01*
X109690476Y-118452380D01*
X109928571Y-118452380D01*
X110023809Y-118500000D01*
X110071428Y-118547619D01*
X110119047Y-118642857D01*
X110119047Y-118738095D01*
X110071428Y-118880952D01*
X109500000Y-119452380D01*
X110119047Y-119452380D01*
X115023809Y-118452380D02*
X115642857Y-118452380D01*
X115309523Y-118833333D01*
X115452380Y-118833333D01*
X115547619Y-118880952D01*
X115595238Y-118928571D01*
X115642857Y-119023809D01*
X115642857Y-119261904D01*
X115595238Y-119357142D01*
X115547619Y-119404761D01*
X115452380Y-119452380D01*
X115166666Y-119452380D01*
X115071428Y-119404761D01*
X115023809Y-119357142D01*
X120309523Y-118785714D02*
X120309523Y-119452380D01*
X120071428Y-118404761D02*
X119833333Y-119119047D01*
X120452380Y-119119047D01*
X125119047Y-118452380D02*
X124642857Y-118452380D01*
X124595238Y-118928571D01*
X124642857Y-118880952D01*
X124738095Y-118833333D01*
X124976190Y-118833333D01*
X125071428Y-118880952D01*
X125119047Y-118928571D01*
X125166666Y-119023809D01*
X125166666Y-119261904D01*
X125119047Y-119357142D01*
X125071428Y-119404761D01*
X124976190Y-119452380D01*
X124738095Y-119452380D01*
X124642857Y-119404761D01*
X124595238Y-119357142D01*
X129833333Y-118452380D02*
X129642857Y-118452380D01*
X129547619Y-118500000D01*
X129499999Y-118547619D01*
X129404761Y-118690476D01*
X129357142Y-118880952D01*
X129357142Y-119261904D01*
X129404761Y-119357142D01*
X129452380Y-119404761D01*
X129547619Y-119452380D01*
X129738095Y-119452380D01*
X129833333Y-119404761D01*
X129880952Y-119357142D01*
X129928571Y-119261904D01*
X129928571Y-119023809D01*
X129880952Y-118928571D01*
X129833333Y-118880952D01*
X129738095Y-118833333D01*
X129547619Y-118833333D01*
X129452380Y-118880952D01*
X129404761Y-118928571D01*
X129357142Y-119023809D01*
X134833333Y-118452380D02*
X135499999Y-118452380D01*
X135071428Y-119452380D01*
X139833333Y-118880952D02*
X139738095Y-118833333D01*
X139690476Y-118785714D01*
X139642857Y-118690476D01*
X139642857Y-118642857D01*
X139690476Y-118547619D01*
X139738095Y-118500000D01*
X139833333Y-118452380D01*
X140023809Y-118452380D01*
X140119047Y-118500000D01*
X140166666Y-118547619D01*
X140214285Y-118642857D01*
X140214285Y-118690476D01*
X140166666Y-118785714D01*
X140119047Y-118833333D01*
X140023809Y-118880952D01*
X139833333Y-118880952D01*
X139738095Y-118928571D01*
X139690476Y-118976190D01*
X139642857Y-119071428D01*
X139642857Y-119261904D01*
X139690476Y-119357142D01*
X139738095Y-119404761D01*
X139833333Y-119452380D01*
X140023809Y-119452380D01*
X140119047Y-119404761D01*
X140166666Y-119357142D01*
X140214285Y-119261904D01*
X140214285Y-119071428D01*
X140166666Y-118976190D01*
X140119047Y-118928571D01*
X140023809Y-118880952D01*
X142833333Y-67428571D02*
X143166666Y-67428571D01*
X143309523Y-67952380D02*
X142833333Y-67952380D01*
X142833333Y-66952380D01*
X143309523Y-66952380D01*
X143642857Y-66952380D02*
X144309523Y-67952380D01*
X144309523Y-66952380D02*
X143642857Y-67952380D01*
X144690476Y-67952380D02*
X144690476Y-66952380D01*
X145071428Y-66952380D01*
X145166666Y-67000000D01*
X145214285Y-67047619D01*
X145261904Y-67142857D01*
X145261904Y-67285714D01*
X145214285Y-67380952D01*
X145166666Y-67428571D01*
X145071428Y-67476190D01*
X144690476Y-67476190D01*
X146214285Y-67952380D02*
X145642857Y-67952380D01*
X145928571Y-67952380D02*
X145928571Y-66952380D01*
X145833333Y-67095238D01*
X145738095Y-67190476D01*
X145642857Y-67238095D01*
X148523809Y-101904761D02*
X148666666Y-101952380D01*
X148904761Y-101952380D01*
X149000000Y-101904761D01*
X149047619Y-101857142D01*
X149095238Y-101761904D01*
X149095238Y-101666666D01*
X149047619Y-101571428D01*
X149000000Y-101523809D01*
X148904761Y-101476190D01*
X148714285Y-101428571D01*
X148619047Y-101380952D01*
X148571428Y-101333333D01*
X148523809Y-101238095D01*
X148523809Y-101142857D01*
X148571428Y-101047619D01*
X148619047Y-101000000D01*
X148714285Y-100952380D01*
X148952380Y-100952380D01*
X149095238Y-101000000D01*
X149904761Y-101904761D02*
X149809523Y-101952380D01*
X149619047Y-101952380D01*
X149523809Y-101904761D01*
X149476190Y-101809523D01*
X149476190Y-101428571D01*
X149523809Y-101333333D01*
X149619047Y-101285714D01*
X149809523Y-101285714D01*
X149904761Y-101333333D01*
X149952380Y-101428571D01*
X149952380Y-101523809D01*
X149476190Y-101619047D01*
X150380952Y-101952380D02*
X150380952Y-101285714D01*
X150380952Y-101476190D02*
X150428571Y-101380952D01*
X150476190Y-101333333D01*
X150571428Y-101285714D01*
X150666666Y-101285714D01*
X151000000Y-101952380D02*
X151000000Y-101285714D01*
X151000000Y-100952380D02*
X150952380Y-101000000D01*
X151000000Y-101047619D01*
X151047619Y-101000000D01*
X151000000Y-100952380D01*
X151000000Y-101047619D01*
X151904761Y-101952380D02*
X151904761Y-101428571D01*
X151857142Y-101333333D01*
X151761904Y-101285714D01*
X151571428Y-101285714D01*
X151476190Y-101333333D01*
X151904761Y-101904761D02*
X151809523Y-101952380D01*
X151571428Y-101952380D01*
X151476190Y-101904761D01*
X151428571Y-101809523D01*
X151428571Y-101714285D01*
X151476190Y-101619047D01*
X151571428Y-101571428D01*
X151809523Y-101571428D01*
X151904761Y-101523809D01*
X152523809Y-101952380D02*
X152428571Y-101904761D01*
X152380952Y-101809523D01*
X152380952Y-100952380D01*
X92119047Y-61923333D02*
X92071428Y-61875714D01*
X91976190Y-61732857D01*
X91928571Y-61637619D01*
X91880952Y-61494761D01*
X91833333Y-61256666D01*
X91833333Y-61066190D01*
X91880952Y-60828095D01*
X91928571Y-60685238D01*
X91976190Y-60590000D01*
X92071428Y-60447142D01*
X92119047Y-60399523D01*
X92500000Y-61161428D02*
X93261904Y-61161428D01*
X93642857Y-61923333D02*
X93690476Y-61875714D01*
X93785714Y-61732857D01*
X93833333Y-61637619D01*
X93880952Y-61494761D01*
X93928571Y-61256666D01*
X93928571Y-61066190D01*
X93880952Y-60828095D01*
X93833333Y-60685238D01*
X93785714Y-60590000D01*
X93690476Y-60447142D01*
X93642857Y-60399523D01*
X94928571Y-61542380D02*
X94357142Y-61542380D01*
X94642857Y-61542380D02*
X94642857Y-60542380D01*
X94547619Y-60685238D01*
X94452380Y-60780476D01*
X94357142Y-60828095D01*
X95309523Y-60637619D02*
X95357142Y-60590000D01*
X95452380Y-60542380D01*
X95690476Y-60542380D01*
X95785714Y-60590000D01*
X95833333Y-60637619D01*
X95880952Y-60732857D01*
X95880952Y-60828095D01*
X95833333Y-60970952D01*
X95261904Y-61542380D01*
X95880952Y-61542380D01*
X96214285Y-60875714D02*
X96452380Y-61542380D01*
X96690476Y-60875714D01*
X97357142Y-61923333D02*
X97309523Y-61875714D01*
X97214285Y-61732857D01*
X97166666Y-61637619D01*
X97119047Y-61494761D01*
X97071428Y-61256666D01*
X97071428Y-61066190D01*
X97119047Y-60828095D01*
X97166666Y-60685238D01*
X97214285Y-60590000D01*
X97309523Y-60447142D01*
X97357142Y-60399523D01*
X97738095Y-61161428D02*
X98500000Y-61161428D01*
X98119047Y-61542380D02*
X98119047Y-60780476D01*
X98880952Y-61923333D02*
X98928571Y-61875714D01*
X99023809Y-61732857D01*
X99071428Y-61637619D01*
X99119047Y-61494761D01*
X99166666Y-61256666D01*
X99166666Y-61066190D01*
X99119047Y-60828095D01*
X99071428Y-60685238D01*
X99023809Y-60590000D01*
X98928571Y-60447142D01*
X98880952Y-60399523D01*
X102595238Y-61923333D02*
X102547619Y-61875714D01*
X102452380Y-61732857D01*
X102404761Y-61637619D01*
X102357142Y-61494761D01*
X102309523Y-61256666D01*
X102309523Y-61066190D01*
X102357142Y-60828095D01*
X102404761Y-60685238D01*
X102452380Y-60590000D01*
X102547619Y-60447142D01*
X102595238Y-60399523D01*
X102976190Y-61161428D02*
X103738095Y-61161428D01*
X104119047Y-61923333D02*
X104166666Y-61875714D01*
X104261904Y-61732857D01*
X104309523Y-61637619D01*
X104357142Y-61494761D01*
X104404761Y-61256666D01*
X104404761Y-61066190D01*
X104357142Y-60828095D01*
X104309523Y-60685238D01*
X104261904Y-60590000D01*
X104166666Y-60447142D01*
X104119047Y-60399523D01*
X105357142Y-60542380D02*
X104880952Y-60542380D01*
X104833333Y-61018571D01*
X104880952Y-60970952D01*
X104976190Y-60923333D01*
X105214285Y-60923333D01*
X105309523Y-60970952D01*
X105357142Y-61018571D01*
X105404761Y-61113809D01*
X105404761Y-61351904D01*
X105357142Y-61447142D01*
X105309523Y-61494761D01*
X105214285Y-61542380D01*
X104976190Y-61542380D01*
X104880952Y-61494761D01*
X104833333Y-61447142D01*
X105738095Y-60875714D02*
X105976190Y-61542380D01*
X106214285Y-60875714D01*
X106880952Y-61923333D02*
X106833333Y-61875714D01*
X106738095Y-61732857D01*
X106690476Y-61637619D01*
X106642857Y-61494761D01*
X106595238Y-61256666D01*
X106595238Y-61066190D01*
X106642857Y-60828095D01*
X106690476Y-60685238D01*
X106738095Y-60590000D01*
X106833333Y-60447142D01*
X106880952Y-60399523D01*
X107261904Y-61161428D02*
X108023809Y-61161428D01*
X107642857Y-61542380D02*
X107642857Y-60780476D01*
X108404761Y-61923333D02*
X108452380Y-61875714D01*
X108547619Y-61732857D01*
X108595238Y-61637619D01*
X108642857Y-61494761D01*
X108690476Y-61256666D01*
X108690476Y-61066190D01*
X108642857Y-60828095D01*
X108595238Y-60685238D01*
X108547619Y-60590000D01*
X108452380Y-60447142D01*
X108404761Y-60399523D01*
X94369047Y-119583333D02*
X94321428Y-119535714D01*
X94226190Y-119392857D01*
X94178571Y-119297619D01*
X94130952Y-119154761D01*
X94083333Y-118916666D01*
X94083333Y-118726190D01*
X94130952Y-118488095D01*
X94178571Y-118345238D01*
X94226190Y-118250000D01*
X94321428Y-118107142D01*
X94369047Y-118059523D01*
X94750000Y-118821428D02*
X95511904Y-118821428D01*
X95130952Y-119202380D02*
X95130952Y-118440476D01*
X95892857Y-119583333D02*
X95940476Y-119535714D01*
X96035714Y-119392857D01*
X96083333Y-119297619D01*
X96130952Y-119154761D01*
X96178571Y-118916666D01*
X96178571Y-118726190D01*
X96130952Y-118488095D01*
X96083333Y-118345238D01*
X96035714Y-118250000D01*
X95940476Y-118107142D01*
X95892857Y-118059523D01*
X97178571Y-119202380D02*
X96607142Y-119202380D01*
X96892857Y-119202380D02*
X96892857Y-118202380D01*
X96797619Y-118345238D01*
X96702380Y-118440476D01*
X96607142Y-118488095D01*
X97559523Y-118297619D02*
X97607142Y-118250000D01*
X97702380Y-118202380D01*
X97940476Y-118202380D01*
X98035714Y-118250000D01*
X98083333Y-118297619D01*
X98130952Y-118392857D01*
X98130952Y-118488095D01*
X98083333Y-118630952D01*
X97511904Y-119202380D01*
X98130952Y-119202380D01*
X98464285Y-118535714D02*
X98702380Y-119202380D01*
X98940476Y-118535714D01*
X99607142Y-119583333D02*
X99559523Y-119535714D01*
X99464285Y-119392857D01*
X99416666Y-119297619D01*
X99369047Y-119154761D01*
X99321428Y-118916666D01*
X99321428Y-118726190D01*
X99369047Y-118488095D01*
X99416666Y-118345238D01*
X99464285Y-118250000D01*
X99559523Y-118107142D01*
X99607142Y-118059523D01*
X99988095Y-118821428D02*
X100750000Y-118821428D01*
X101130952Y-119583333D02*
X101178571Y-119535714D01*
X101273809Y-119392857D01*
X101321428Y-119297619D01*
X101369047Y-119154761D01*
X101416666Y-118916666D01*
X101416666Y-118726190D01*
X101369047Y-118488095D01*
X101321428Y-118345238D01*
X101273809Y-118250000D01*
X101178571Y-118107142D01*
X101130952Y-118059523D01*
X123761904Y-77952380D02*
X123761904Y-76952380D01*
X124000000Y-76952380D01*
X124142857Y-77000000D01*
X124238095Y-77095238D01*
X124285714Y-77190476D01*
X124333333Y-77380952D01*
X124333333Y-77523809D01*
X124285714Y-77714285D01*
X124238095Y-77809523D01*
X124142857Y-77904761D01*
X124000000Y-77952380D01*
X123761904Y-77952380D01*
X125190476Y-77285714D02*
X125190476Y-77952380D01*
X124952380Y-76904761D02*
X124714285Y-77619047D01*
X125333333Y-77619047D01*
X157537142Y-74916666D02*
X157584761Y-74964285D01*
X157632380Y-75107142D01*
X157632380Y-75202380D01*
X157584761Y-75345238D01*
X157489523Y-75440476D01*
X157394285Y-75488095D01*
X157203809Y-75535714D01*
X157060952Y-75535714D01*
X156870476Y-75488095D01*
X156775238Y-75440476D01*
X156680000Y-75345238D01*
X156632380Y-75202380D01*
X156632380Y-75107142D01*
X156680000Y-74964285D01*
X156727619Y-74916666D01*
X157632380Y-73964285D02*
X157632380Y-74535714D01*
X157632380Y-74250000D02*
X156632380Y-74250000D01*
X156775238Y-74345238D01*
X156870476Y-74440476D01*
X156918095Y-74535714D01*
X146632380Y-115738095D02*
X145632380Y-115738095D01*
X145632380Y-115500000D01*
X145680000Y-115357142D01*
X145775238Y-115261904D01*
X145870476Y-115214285D01*
X146060952Y-115166666D01*
X146203809Y-115166666D01*
X146394285Y-115214285D01*
X146489523Y-115261904D01*
X146584761Y-115357142D01*
X146632380Y-115500000D01*
X146632380Y-115738095D01*
X145632380Y-114833333D02*
X145632380Y-114214285D01*
X146013333Y-114547619D01*
X146013333Y-114404761D01*
X146060952Y-114309523D01*
X146108571Y-114261904D01*
X146203809Y-114214285D01*
X146441904Y-114214285D01*
X146537142Y-114261904D01*
X146584761Y-114309523D01*
X146632380Y-114404761D01*
X146632380Y-114690476D01*
X146584761Y-114785714D01*
X146537142Y-114833333D01*
X120952380Y-80666666D02*
X120476190Y-81000000D01*
X120952380Y-81238095D02*
X119952380Y-81238095D01*
X119952380Y-80857142D01*
X120000000Y-80761904D01*
X120047619Y-80714285D01*
X120142857Y-80666666D01*
X120285714Y-80666666D01*
X120380952Y-80714285D01*
X120428571Y-80761904D01*
X120476190Y-80857142D01*
X120476190Y-81238095D01*
X119952380Y-80333333D02*
X119952380Y-79666666D01*
X120952380Y-80095238D01*
X115952380Y-98142857D02*
X115476190Y-98476190D01*
X115952380Y-98714285D02*
X114952380Y-98714285D01*
X114952380Y-98333333D01*
X115000000Y-98238095D01*
X115047619Y-98190476D01*
X115142857Y-98142857D01*
X115285714Y-98142857D01*
X115380952Y-98190476D01*
X115428571Y-98238095D01*
X115476190Y-98333333D01*
X115476190Y-98714285D01*
X115952380Y-97190476D02*
X115952380Y-97761904D01*
X115952380Y-97476190D02*
X114952380Y-97476190D01*
X115095238Y-97571428D01*
X115190476Y-97666666D01*
X115238095Y-97761904D01*
X114952380Y-96285714D02*
X114952380Y-96761904D01*
X115428571Y-96809523D01*
X115380952Y-96761904D01*
X115333333Y-96666666D01*
X115333333Y-96428571D01*
X115380952Y-96333333D01*
X115428571Y-96285714D01*
X115523809Y-96238095D01*
X115761904Y-96238095D01*
X115857142Y-96285714D01*
X115904761Y-96333333D01*
X115952380Y-96428571D01*
X115952380Y-96666666D01*
X115904761Y-96761904D01*
X115857142Y-96809523D01*
X137357142Y-74602380D02*
X137023809Y-74126190D01*
X136785714Y-74602380D02*
X136785714Y-73602380D01*
X137166666Y-73602380D01*
X137261904Y-73650000D01*
X137309523Y-73697619D01*
X137357142Y-73792857D01*
X137357142Y-73935714D01*
X137309523Y-74030952D01*
X137261904Y-74078571D01*
X137166666Y-74126190D01*
X136785714Y-74126190D01*
X138309523Y-74602380D02*
X137738095Y-74602380D01*
X138023809Y-74602380D02*
X138023809Y-73602380D01*
X137928571Y-73745238D01*
X137833333Y-73840476D01*
X137738095Y-73888095D01*
X138928571Y-73602380D02*
X139023809Y-73602380D01*
X139119047Y-73650000D01*
X139166666Y-73697619D01*
X139214285Y-73792857D01*
X139261904Y-73983333D01*
X139261904Y-74221428D01*
X139214285Y-74411904D01*
X139166666Y-74507142D01*
X139119047Y-74554761D01*
X139023809Y-74602380D01*
X138928571Y-74602380D01*
X138833333Y-74554761D01*
X138785714Y-74507142D01*
X138738095Y-74411904D01*
X138690476Y-74221428D01*
X138690476Y-73983333D01*
X138738095Y-73792857D01*
X138785714Y-73697619D01*
X138833333Y-73650000D01*
X138928571Y-73602380D01*
X140952380Y-98142857D02*
X140476190Y-98476190D01*
X140952380Y-98714285D02*
X139952380Y-98714285D01*
X139952380Y-98333333D01*
X140000000Y-98238095D01*
X140047619Y-98190476D01*
X140142857Y-98142857D01*
X140285714Y-98142857D01*
X140380952Y-98190476D01*
X140428571Y-98238095D01*
X140476190Y-98333333D01*
X140476190Y-98714285D01*
X140047619Y-97761904D02*
X140000000Y-97714285D01*
X139952380Y-97619047D01*
X139952380Y-97380952D01*
X140000000Y-97285714D01*
X140047619Y-97238095D01*
X140142857Y-97190476D01*
X140238095Y-97190476D01*
X140380952Y-97238095D01*
X140952380Y-97809523D01*
X140952380Y-97190476D01*
X140047619Y-96809523D02*
X140000000Y-96761904D01*
X139952380Y-96666666D01*
X139952380Y-96428571D01*
X140000000Y-96333333D01*
X140047619Y-96285714D01*
X140142857Y-96238095D01*
X140238095Y-96238095D01*
X140380952Y-96285714D01*
X140952380Y-96857142D01*
X140952380Y-96238095D01*
X115833333Y-66357142D02*
X115785714Y-66404761D01*
X115642857Y-66452380D01*
X115547619Y-66452380D01*
X115404761Y-66404761D01*
X115309523Y-66309523D01*
X115261904Y-66214285D01*
X115214285Y-66023809D01*
X115214285Y-65880952D01*
X115261904Y-65690476D01*
X115309523Y-65595238D01*
X115404761Y-65500000D01*
X115547619Y-65452380D01*
X115642857Y-65452380D01*
X115785714Y-65500000D01*
X115833333Y-65547619D01*
X116309523Y-66452380D02*
X116500000Y-66452380D01*
X116595238Y-66404761D01*
X116642857Y-66357142D01*
X116738095Y-66214285D01*
X116785714Y-66023809D01*
X116785714Y-65642857D01*
X116738095Y-65547619D01*
X116690476Y-65500000D01*
X116595238Y-65452380D01*
X116404761Y-65452380D01*
X116309523Y-65500000D01*
X116261904Y-65547619D01*
X116214285Y-65642857D01*
X116214285Y-65880952D01*
X116261904Y-65976190D01*
X116309523Y-66023809D01*
X116404761Y-66071428D01*
X116595238Y-66071428D01*
X116690476Y-66023809D01*
X116738095Y-65976190D01*
X116785714Y-65880952D01*
X130952380Y-97166666D02*
X130476190Y-97500000D01*
X130952380Y-97738095D02*
X129952380Y-97738095D01*
X129952380Y-97357142D01*
X130000000Y-97261904D01*
X130047619Y-97214285D01*
X130142857Y-97166666D01*
X130285714Y-97166666D01*
X130380952Y-97214285D01*
X130428571Y-97261904D01*
X130476190Y-97357142D01*
X130476190Y-97738095D01*
X130952380Y-96214285D02*
X130952380Y-96785714D01*
X130952380Y-96500000D02*
X129952380Y-96500000D01*
X130095238Y-96595238D01*
X130190476Y-96690476D01*
X130238095Y-96785714D01*
X143452380Y-80142857D02*
X142976190Y-80476190D01*
X143452380Y-80714285D02*
X142452380Y-80714285D01*
X142452380Y-80333333D01*
X142500000Y-80238095D01*
X142547619Y-80190476D01*
X142642857Y-80142857D01*
X142785714Y-80142857D01*
X142880952Y-80190476D01*
X142928571Y-80238095D01*
X142976190Y-80333333D01*
X142976190Y-80714285D01*
X142547619Y-79761904D02*
X142500000Y-79714285D01*
X142452380Y-79619047D01*
X142452380Y-79380952D01*
X142500000Y-79285714D01*
X142547619Y-79238095D01*
X142642857Y-79190476D01*
X142738095Y-79190476D01*
X142880952Y-79238095D01*
X143452380Y-79809523D01*
X143452380Y-79190476D01*
X142452380Y-78857142D02*
X142452380Y-78238095D01*
X142833333Y-78571428D01*
X142833333Y-78428571D01*
X142880952Y-78333333D01*
X142928571Y-78285714D01*
X143023809Y-78238095D01*
X143261904Y-78238095D01*
X143357142Y-78285714D01*
X143404761Y-78333333D01*
X143452380Y-78428571D01*
X143452380Y-78714285D01*
X143404761Y-78809523D01*
X143357142Y-78857142D01*
X141977380Y-80617857D02*
X141501190Y-80951190D01*
X141977380Y-81189285D02*
X140977380Y-81189285D01*
X140977380Y-80808333D01*
X141025000Y-80713095D01*
X141072619Y-80665476D01*
X141167857Y-80617857D01*
X141310714Y-80617857D01*
X141405952Y-80665476D01*
X141453571Y-80713095D01*
X141501190Y-80808333D01*
X141501190Y-81189285D01*
X141072619Y-80236904D02*
X141025000Y-80189285D01*
X140977380Y-80094047D01*
X140977380Y-79855952D01*
X141025000Y-79760714D01*
X141072619Y-79713095D01*
X141167857Y-79665476D01*
X141263095Y-79665476D01*
X141405952Y-79713095D01*
X141977380Y-80284523D01*
X141977380Y-79665476D01*
X141310714Y-78808333D02*
X141977380Y-78808333D01*
X140929761Y-79046428D02*
X141644047Y-79284523D01*
X141644047Y-78665476D01*
X130952380Y-80666666D02*
X130476190Y-81000000D01*
X130952380Y-81238095D02*
X129952380Y-81238095D01*
X129952380Y-80857142D01*
X130000000Y-80761904D01*
X130047619Y-80714285D01*
X130142857Y-80666666D01*
X130285714Y-80666666D01*
X130380952Y-80714285D01*
X130428571Y-80761904D01*
X130476190Y-80857142D01*
X130476190Y-81238095D01*
X129952380Y-79809523D02*
X129952380Y-80000000D01*
X130000000Y-80095238D01*
X130047619Y-80142857D01*
X130190476Y-80238095D01*
X130380952Y-80285714D01*
X130761904Y-80285714D01*
X130857142Y-80238095D01*
X130904761Y-80190476D01*
X130952380Y-80095238D01*
X130952380Y-79904761D01*
X130904761Y-79809523D01*
X130857142Y-79761904D01*
X130761904Y-79714285D01*
X130523809Y-79714285D01*
X130428571Y-79761904D01*
X130380952Y-79809523D01*
X130333333Y-79904761D01*
X130333333Y-80095238D01*
X130380952Y-80190476D01*
X130428571Y-80238095D01*
X130523809Y-80285714D01*
X150797619Y-81095238D02*
X150750000Y-81190476D01*
X150654761Y-81285714D01*
X150511904Y-81428571D01*
X150464285Y-81523809D01*
X150464285Y-81619047D01*
X150702380Y-81571428D02*
X150654761Y-81666666D01*
X150559523Y-81761904D01*
X150369047Y-81809523D01*
X150035714Y-81809523D01*
X149845238Y-81761904D01*
X149750000Y-81666666D01*
X149702380Y-81571428D01*
X149702380Y-81380952D01*
X149750000Y-81285714D01*
X149845238Y-81190476D01*
X150035714Y-81142857D01*
X150369047Y-81142857D01*
X150559523Y-81190476D01*
X150654761Y-81285714D01*
X150702380Y-81380952D01*
X150702380Y-81571428D01*
X149797619Y-80761904D02*
X149750000Y-80714285D01*
X149702380Y-80619047D01*
X149702380Y-80380952D01*
X149750000Y-80285714D01*
X149797619Y-80238095D01*
X149892857Y-80190476D01*
X149988095Y-80190476D01*
X150130952Y-80238095D01*
X150702380Y-80809523D01*
X150702380Y-80190476D01*
X133452380Y-80666666D02*
X132976190Y-81000000D01*
X133452380Y-81238095D02*
X132452380Y-81238095D01*
X132452380Y-80857142D01*
X132500000Y-80761904D01*
X132547619Y-80714285D01*
X132642857Y-80666666D01*
X132785714Y-80666666D01*
X132880952Y-80714285D01*
X132928571Y-80761904D01*
X132976190Y-80857142D01*
X132976190Y-81238095D01*
X132452380Y-80333333D02*
X132452380Y-79714285D01*
X132833333Y-80047619D01*
X132833333Y-79904761D01*
X132880952Y-79809523D01*
X132928571Y-79761904D01*
X133023809Y-79714285D01*
X133261904Y-79714285D01*
X133357142Y-79761904D01*
X133404761Y-79809523D01*
X133452380Y-79904761D01*
X133452380Y-80190476D01*
X133404761Y-80285714D01*
X133357142Y-80333333D01*
X125952380Y-80666666D02*
X125476190Y-81000000D01*
X125952380Y-81238095D02*
X124952380Y-81238095D01*
X124952380Y-80857142D01*
X125000000Y-80761904D01*
X125047619Y-80714285D01*
X125142857Y-80666666D01*
X125285714Y-80666666D01*
X125380952Y-80714285D01*
X125428571Y-80761904D01*
X125476190Y-80857142D01*
X125476190Y-81238095D01*
X124952380Y-79761904D02*
X124952380Y-80238095D01*
X125428571Y-80285714D01*
X125380952Y-80238095D01*
X125333333Y-80142857D01*
X125333333Y-79904761D01*
X125380952Y-79809523D01*
X125428571Y-79761904D01*
X125523809Y-79714285D01*
X125761904Y-79714285D01*
X125857142Y-79761904D01*
X125904761Y-79809523D01*
X125952380Y-79904761D01*
X125952380Y-80142857D01*
X125904761Y-80238095D01*
X125857142Y-80285714D01*
X102952380Y-98142857D02*
X102476190Y-98476190D01*
X102952380Y-98714285D02*
X101952380Y-98714285D01*
X101952380Y-98333333D01*
X102000000Y-98238095D01*
X102047619Y-98190476D01*
X102142857Y-98142857D01*
X102285714Y-98142857D01*
X102380952Y-98190476D01*
X102428571Y-98238095D01*
X102476190Y-98333333D01*
X102476190Y-98714285D01*
X102952380Y-97190476D02*
X102952380Y-97761904D01*
X102952380Y-97476190D02*
X101952380Y-97476190D01*
X102095238Y-97571428D01*
X102190476Y-97666666D01*
X102238095Y-97761904D01*
X102047619Y-96809523D02*
X102000000Y-96761904D01*
X101952380Y-96666666D01*
X101952380Y-96428571D01*
X102000000Y-96333333D01*
X102047619Y-96285714D01*
X102142857Y-96238095D01*
X102238095Y-96238095D01*
X102380952Y-96285714D01*
X102952380Y-96857142D01*
X102952380Y-96238095D01*
X91952380Y-75738095D02*
X90952380Y-75738095D01*
X90952380Y-75500000D01*
X91000000Y-75357142D01*
X91095238Y-75261904D01*
X91190476Y-75214285D01*
X91380952Y-75166666D01*
X91523809Y-75166666D01*
X91714285Y-75214285D01*
X91809523Y-75261904D01*
X91904761Y-75357142D01*
X91952380Y-75500000D01*
X91952380Y-75738095D01*
X91952380Y-74214285D02*
X91952380Y-74785714D01*
X91952380Y-74500000D02*
X90952380Y-74500000D01*
X91095238Y-74595238D01*
X91190476Y-74690476D01*
X91238095Y-74785714D01*
X151632380Y-115738095D02*
X150632380Y-115738095D01*
X150632380Y-115500000D01*
X150680000Y-115357142D01*
X150775238Y-115261904D01*
X150870476Y-115214285D01*
X151060952Y-115166666D01*
X151203809Y-115166666D01*
X151394285Y-115214285D01*
X151489523Y-115261904D01*
X151584761Y-115357142D01*
X151632380Y-115500000D01*
X151632380Y-115738095D01*
X150727619Y-114785714D02*
X150680000Y-114738095D01*
X150632380Y-114642857D01*
X150632380Y-114404761D01*
X150680000Y-114309523D01*
X150727619Y-114261904D01*
X150822857Y-114214285D01*
X150918095Y-114214285D01*
X151060952Y-114261904D01*
X151632380Y-114833333D01*
X151632380Y-114214285D01*
X105452380Y-98142857D02*
X104976190Y-98476190D01*
X105452380Y-98714285D02*
X104452380Y-98714285D01*
X104452380Y-98333333D01*
X104500000Y-98238095D01*
X104547619Y-98190476D01*
X104642857Y-98142857D01*
X104785714Y-98142857D01*
X104880952Y-98190476D01*
X104928571Y-98238095D01*
X104976190Y-98333333D01*
X104976190Y-98714285D01*
X105452380Y-97190476D02*
X105452380Y-97761904D01*
X105452380Y-97476190D02*
X104452380Y-97476190D01*
X104595238Y-97571428D01*
X104690476Y-97666666D01*
X104738095Y-97761904D01*
X104452380Y-96857142D02*
X104452380Y-96238095D01*
X104833333Y-96571428D01*
X104833333Y-96428571D01*
X104880952Y-96333333D01*
X104928571Y-96285714D01*
X105023809Y-96238095D01*
X105261904Y-96238095D01*
X105357142Y-96285714D01*
X105404761Y-96333333D01*
X105452380Y-96428571D01*
X105452380Y-96714285D01*
X105404761Y-96809523D01*
X105357142Y-96857142D01*
X93537142Y-82166666D02*
X93584761Y-82214285D01*
X93632380Y-82357142D01*
X93632380Y-82452380D01*
X93584761Y-82595238D01*
X93489523Y-82690476D01*
X93394285Y-82738095D01*
X93203809Y-82785714D01*
X93060952Y-82785714D01*
X92870476Y-82738095D01*
X92775238Y-82690476D01*
X92680000Y-82595238D01*
X92632380Y-82452380D01*
X92632380Y-82357142D01*
X92680000Y-82214285D01*
X92727619Y-82166666D01*
X92727619Y-81785714D02*
X92680000Y-81738095D01*
X92632380Y-81642857D01*
X92632380Y-81404761D01*
X92680000Y-81309523D01*
X92727619Y-81261904D01*
X92822857Y-81214285D01*
X92918095Y-81214285D01*
X93060952Y-81261904D01*
X93632380Y-81833333D01*
X93632380Y-81214285D01*
X138452380Y-98142857D02*
X137976190Y-98476190D01*
X138452380Y-98714285D02*
X137452380Y-98714285D01*
X137452380Y-98333333D01*
X137500000Y-98238095D01*
X137547619Y-98190476D01*
X137642857Y-98142857D01*
X137785714Y-98142857D01*
X137880952Y-98190476D01*
X137928571Y-98238095D01*
X137976190Y-98333333D01*
X137976190Y-98714285D01*
X137547619Y-97761904D02*
X137500000Y-97714285D01*
X137452380Y-97619047D01*
X137452380Y-97380952D01*
X137500000Y-97285714D01*
X137547619Y-97238095D01*
X137642857Y-97190476D01*
X137738095Y-97190476D01*
X137880952Y-97238095D01*
X138452380Y-97809523D01*
X138452380Y-97190476D01*
X138452380Y-96238095D02*
X138452380Y-96809523D01*
X138452380Y-96523809D02*
X137452380Y-96523809D01*
X137595238Y-96619047D01*
X137690476Y-96714285D01*
X137738095Y-96809523D01*
X150797619Y-98095238D02*
X150750000Y-98190476D01*
X150654761Y-98285714D01*
X150511904Y-98428571D01*
X150464285Y-98523809D01*
X150464285Y-98619047D01*
X150702380Y-98571428D02*
X150654761Y-98666666D01*
X150559523Y-98761904D01*
X150369047Y-98809523D01*
X150035714Y-98809523D01*
X149845238Y-98761904D01*
X149750000Y-98666666D01*
X149702380Y-98571428D01*
X149702380Y-98380952D01*
X149750000Y-98285714D01*
X149845238Y-98190476D01*
X150035714Y-98142857D01*
X150369047Y-98142857D01*
X150559523Y-98190476D01*
X150654761Y-98285714D01*
X150702380Y-98380952D01*
X150702380Y-98571428D01*
X150702380Y-97190476D02*
X150702380Y-97761904D01*
X150702380Y-97476190D02*
X149702380Y-97476190D01*
X149845238Y-97571428D01*
X149940476Y-97666666D01*
X149988095Y-97761904D01*
X130333333Y-68452380D02*
X129857142Y-68452380D01*
X129857142Y-67452380D01*
X131190476Y-68452380D02*
X130619047Y-68452380D01*
X130904761Y-68452380D02*
X130904761Y-67452380D01*
X130809523Y-67595238D01*
X130714285Y-67690476D01*
X130619047Y-67738095D01*
X160000000Y-119833333D02*
X159952380Y-119785714D01*
X159857142Y-119642857D01*
X159809523Y-119547619D01*
X159761904Y-119404761D01*
X159714285Y-119166666D01*
X159714285Y-118976190D01*
X159761904Y-118738095D01*
X159809523Y-118595238D01*
X159857142Y-118500000D01*
X159952380Y-118357142D01*
X160000000Y-118309523D01*
X160380952Y-119071428D02*
X161142857Y-119071428D01*
X160761904Y-119452380D02*
X160761904Y-118690476D01*
X161523809Y-119833333D02*
X161571428Y-119785714D01*
X161666666Y-119642857D01*
X161714285Y-119547619D01*
X161761904Y-119404761D01*
X161809523Y-119166666D01*
X161809523Y-118976190D01*
X161761904Y-118738095D01*
X161714285Y-118595238D01*
X161666666Y-118500000D01*
X161571428Y-118357142D01*
X161523809Y-118309523D01*
X162238095Y-119404761D02*
X162380952Y-119452380D01*
X162619047Y-119452380D01*
X162714285Y-119404761D01*
X162761904Y-119357142D01*
X162809523Y-119261904D01*
X162809523Y-119166666D01*
X162761904Y-119071428D01*
X162714285Y-119023809D01*
X162619047Y-118976190D01*
X162428571Y-118928571D01*
X162333333Y-118880952D01*
X162285714Y-118833333D01*
X162238095Y-118738095D01*
X162238095Y-118642857D01*
X162285714Y-118547619D01*
X162333333Y-118500000D01*
X162428571Y-118452380D01*
X162666666Y-118452380D01*
X162809523Y-118500000D01*
X163761904Y-119452380D02*
X163190476Y-119452380D01*
X163476190Y-119452380D02*
X163476190Y-118452380D01*
X163380952Y-118595238D01*
X163285714Y-118690476D01*
X163190476Y-118738095D01*
X164476190Y-119833333D02*
X164428571Y-119785714D01*
X164333333Y-119642857D01*
X164285714Y-119547619D01*
X164238095Y-119404761D01*
X164190476Y-119166666D01*
X164190476Y-118976190D01*
X164238095Y-118738095D01*
X164285714Y-118595238D01*
X164333333Y-118500000D01*
X164428571Y-118357142D01*
X164476190Y-118309523D01*
X164857142Y-119071428D02*
X165619047Y-119071428D01*
X166000000Y-119833333D02*
X166047619Y-119785714D01*
X166142857Y-119642857D01*
X166190476Y-119547619D01*
X166238095Y-119404761D01*
X166285714Y-119166666D01*
X166285714Y-118976190D01*
X166238095Y-118738095D01*
X166190476Y-118595238D01*
X166142857Y-118500000D01*
X166047619Y-118357142D01*
X166000000Y-118309523D01*
X123452380Y-98142857D02*
X122976190Y-98476190D01*
X123452380Y-98714285D02*
X122452380Y-98714285D01*
X122452380Y-98333333D01*
X122500000Y-98238095D01*
X122547619Y-98190476D01*
X122642857Y-98142857D01*
X122785714Y-98142857D01*
X122880952Y-98190476D01*
X122928571Y-98238095D01*
X122976190Y-98333333D01*
X122976190Y-98714285D01*
X123452380Y-97190476D02*
X123452380Y-97761904D01*
X123452380Y-97476190D02*
X122452380Y-97476190D01*
X122595238Y-97571428D01*
X122690476Y-97666666D01*
X122738095Y-97761904D01*
X123452380Y-96714285D02*
X123452380Y-96523809D01*
X123404761Y-96428571D01*
X123357142Y-96380952D01*
X123214285Y-96285714D01*
X123023809Y-96238095D01*
X122642857Y-96238095D01*
X122547619Y-96285714D01*
X122500000Y-96333333D01*
X122452380Y-96428571D01*
X122452380Y-96619047D01*
X122500000Y-96714285D01*
X122547619Y-96761904D01*
X122642857Y-96809523D01*
X122880952Y-96809523D01*
X122976190Y-96761904D01*
X123023809Y-96714285D01*
X123071428Y-96619047D01*
X123071428Y-96428571D01*
X123023809Y-96333333D01*
X122976190Y-96285714D01*
X122880952Y-96238095D01*
X123452380Y-80666666D02*
X122976190Y-81000000D01*
X123452380Y-81238095D02*
X122452380Y-81238095D01*
X122452380Y-80857142D01*
X122500000Y-80761904D01*
X122547619Y-80714285D01*
X122642857Y-80666666D01*
X122785714Y-80666666D01*
X122880952Y-80714285D01*
X122928571Y-80761904D01*
X122976190Y-80857142D01*
X122976190Y-81238095D01*
X122880952Y-80095238D02*
X122833333Y-80190476D01*
X122785714Y-80238095D01*
X122690476Y-80285714D01*
X122642857Y-80285714D01*
X122547619Y-80238095D01*
X122500000Y-80190476D01*
X122452380Y-80095238D01*
X122452380Y-79904761D01*
X122500000Y-79809523D01*
X122547619Y-79761904D01*
X122642857Y-79714285D01*
X122690476Y-79714285D01*
X122785714Y-79761904D01*
X122833333Y-79809523D01*
X122880952Y-79904761D01*
X122880952Y-80095238D01*
X122928571Y-80190476D01*
X122976190Y-80238095D01*
X123071428Y-80285714D01*
X123261904Y-80285714D01*
X123357142Y-80238095D01*
X123404761Y-80190476D01*
X123452380Y-80095238D01*
X123452380Y-79904761D01*
X123404761Y-79809523D01*
X123357142Y-79761904D01*
X123261904Y-79714285D01*
X123071428Y-79714285D01*
X122976190Y-79761904D01*
X122928571Y-79809523D01*
X122880952Y-79904761D01*
X120952380Y-98142857D02*
X120476190Y-98476190D01*
X120952380Y-98714285D02*
X119952380Y-98714285D01*
X119952380Y-98333333D01*
X120000000Y-98238095D01*
X120047619Y-98190476D01*
X120142857Y-98142857D01*
X120285714Y-98142857D01*
X120380952Y-98190476D01*
X120428571Y-98238095D01*
X120476190Y-98333333D01*
X120476190Y-98714285D01*
X120952380Y-97190476D02*
X120952380Y-97761904D01*
X120952380Y-97476190D02*
X119952380Y-97476190D01*
X120095238Y-97571428D01*
X120190476Y-97666666D01*
X120238095Y-97761904D01*
X119952380Y-96857142D02*
X119952380Y-96190476D01*
X120952380Y-96619047D01*
X110452380Y-98142857D02*
X109976190Y-98476190D01*
X110452380Y-98714285D02*
X109452380Y-98714285D01*
X109452380Y-98333333D01*
X109500000Y-98238095D01*
X109547619Y-98190476D01*
X109642857Y-98142857D01*
X109785714Y-98142857D01*
X109880952Y-98190476D01*
X109928571Y-98238095D01*
X109976190Y-98333333D01*
X109976190Y-98714285D01*
X110452380Y-97190476D02*
X110452380Y-97761904D01*
X110452380Y-97476190D02*
X109452380Y-97476190D01*
X109595238Y-97571428D01*
X109690476Y-97666666D01*
X109738095Y-97761904D01*
X109785714Y-96333333D02*
X110452380Y-96333333D01*
X109404761Y-96571428D02*
X110119047Y-96809523D01*
X110119047Y-96190476D01*
X170000000Y-119833333D02*
X169952380Y-119785714D01*
X169857142Y-119642857D01*
X169809523Y-119547619D01*
X169761904Y-119404761D01*
X169714285Y-119166666D01*
X169714285Y-118976190D01*
X169761904Y-118738095D01*
X169809523Y-118595238D01*
X169857142Y-118500000D01*
X169952380Y-118357142D01*
X170000000Y-118309523D01*
X170380952Y-119071428D02*
X171142857Y-119071428D01*
X170761904Y-119452380D02*
X170761904Y-118690476D01*
X171523809Y-119833333D02*
X171571428Y-119785714D01*
X171666666Y-119642857D01*
X171714285Y-119547619D01*
X171761904Y-119404761D01*
X171809523Y-119166666D01*
X171809523Y-118976190D01*
X171761904Y-118738095D01*
X171714285Y-118595238D01*
X171666666Y-118500000D01*
X171571428Y-118357142D01*
X171523809Y-118309523D01*
X172238095Y-119404761D02*
X172380952Y-119452380D01*
X172619047Y-119452380D01*
X172714285Y-119404761D01*
X172761904Y-119357142D01*
X172809523Y-119261904D01*
X172809523Y-119166666D01*
X172761904Y-119071428D01*
X172714285Y-119023809D01*
X172619047Y-118976190D01*
X172428571Y-118928571D01*
X172333333Y-118880952D01*
X172285714Y-118833333D01*
X172238095Y-118738095D01*
X172238095Y-118642857D01*
X172285714Y-118547619D01*
X172333333Y-118500000D01*
X172428571Y-118452380D01*
X172666666Y-118452380D01*
X172809523Y-118500000D01*
X173190476Y-118547619D02*
X173238095Y-118500000D01*
X173333333Y-118452380D01*
X173571428Y-118452380D01*
X173666666Y-118500000D01*
X173714285Y-118547619D01*
X173761904Y-118642857D01*
X173761904Y-118738095D01*
X173714285Y-118880952D01*
X173142857Y-119452380D01*
X173761904Y-119452380D01*
X174476190Y-119833333D02*
X174428571Y-119785714D01*
X174333333Y-119642857D01*
X174285714Y-119547619D01*
X174238095Y-119404761D01*
X174190476Y-119166666D01*
X174190476Y-118976190D01*
X174238095Y-118738095D01*
X174285714Y-118595238D01*
X174333333Y-118500000D01*
X174428571Y-118357142D01*
X174476190Y-118309523D01*
X174857142Y-119071428D02*
X175619047Y-119071428D01*
X176000000Y-119833333D02*
X176047619Y-119785714D01*
X176142857Y-119642857D01*
X176190476Y-119547619D01*
X176238095Y-119404761D01*
X176285714Y-119166666D01*
X176285714Y-118976190D01*
X176238095Y-118738095D01*
X176190476Y-118595238D01*
X176142857Y-118500000D01*
X176047619Y-118357142D01*
X176000000Y-118309523D01*
X118452380Y-98142857D02*
X117976190Y-98476190D01*
X118452380Y-98714285D02*
X117452380Y-98714285D01*
X117452380Y-98333333D01*
X117500000Y-98238095D01*
X117547619Y-98190476D01*
X117642857Y-98142857D01*
X117785714Y-98142857D01*
X117880952Y-98190476D01*
X117928571Y-98238095D01*
X117976190Y-98333333D01*
X117976190Y-98714285D01*
X118452380Y-97190476D02*
X118452380Y-97761904D01*
X118452380Y-97476190D02*
X117452380Y-97476190D01*
X117595238Y-97571428D01*
X117690476Y-97666666D01*
X117738095Y-97761904D01*
X117452380Y-96333333D02*
X117452380Y-96523809D01*
X117500000Y-96619047D01*
X117547619Y-96666666D01*
X117690476Y-96761904D01*
X117880952Y-96809523D01*
X118261904Y-96809523D01*
X118357142Y-96761904D01*
X118404761Y-96714285D01*
X118452380Y-96619047D01*
X118452380Y-96428571D01*
X118404761Y-96333333D01*
X118357142Y-96285714D01*
X118261904Y-96238095D01*
X118023809Y-96238095D01*
X117928571Y-96285714D01*
X117880952Y-96333333D01*
X117833333Y-96428571D01*
X117833333Y-96619047D01*
X117880952Y-96714285D01*
X117928571Y-96761904D01*
X118023809Y-96809523D01*
X100452380Y-98142857D02*
X99976190Y-98476190D01*
X100452380Y-98714285D02*
X99452380Y-98714285D01*
X99452380Y-98333333D01*
X99500000Y-98238095D01*
X99547619Y-98190476D01*
X99642857Y-98142857D01*
X99785714Y-98142857D01*
X99880952Y-98190476D01*
X99928571Y-98238095D01*
X99976190Y-98333333D01*
X99976190Y-98714285D01*
X100452380Y-97190476D02*
X100452380Y-97761904D01*
X100452380Y-97476190D02*
X99452380Y-97476190D01*
X99595238Y-97571428D01*
X99690476Y-97666666D01*
X99738095Y-97761904D01*
X100452380Y-96238095D02*
X100452380Y-96809523D01*
X100452380Y-96523809D02*
X99452380Y-96523809D01*
X99595238Y-96619047D01*
X99690476Y-96714285D01*
X99738095Y-96809523D01*
X137833333Y-68952380D02*
X137500000Y-68476190D01*
X137261904Y-68952380D02*
X137261904Y-67952380D01*
X137642857Y-67952380D01*
X137738095Y-68000000D01*
X137785714Y-68047619D01*
X137833333Y-68142857D01*
X137833333Y-68285714D01*
X137785714Y-68380952D01*
X137738095Y-68428571D01*
X137642857Y-68476190D01*
X137261904Y-68476190D01*
X138309523Y-68952380D02*
X138500000Y-68952380D01*
X138595238Y-68904761D01*
X138642857Y-68857142D01*
X138738095Y-68714285D01*
X138785714Y-68523809D01*
X138785714Y-68142857D01*
X138738095Y-68047619D01*
X138690476Y-68000000D01*
X138595238Y-67952380D01*
X138404761Y-67952380D01*
X138309523Y-68000000D01*
X138261904Y-68047619D01*
X138214285Y-68142857D01*
X138214285Y-68380952D01*
X138261904Y-68476190D01*
X138309523Y-68523809D01*
X138404761Y-68571428D01*
X138595238Y-68571428D01*
X138690476Y-68523809D01*
X138738095Y-68476190D01*
X138785714Y-68380952D01*
X115833333Y-70857142D02*
X115785714Y-70904761D01*
X115642857Y-70952380D01*
X115547619Y-70952380D01*
X115404761Y-70904761D01*
X115309523Y-70809523D01*
X115261904Y-70714285D01*
X115214285Y-70523809D01*
X115214285Y-70380952D01*
X115261904Y-70190476D01*
X115309523Y-70095238D01*
X115404761Y-70000000D01*
X115547619Y-69952380D01*
X115642857Y-69952380D01*
X115785714Y-70000000D01*
X115833333Y-70047619D01*
X116690476Y-70285714D02*
X116690476Y-70952380D01*
X116452380Y-69904761D02*
X116214285Y-70619047D01*
X116833333Y-70619047D01*
X158452380Y-81738095D02*
X157452380Y-81738095D01*
X157452380Y-81500000D01*
X157500000Y-81357142D01*
X157595238Y-81261904D01*
X157690476Y-81214285D01*
X157880952Y-81166666D01*
X158023809Y-81166666D01*
X158214285Y-81214285D01*
X158309523Y-81261904D01*
X158404761Y-81357142D01*
X158452380Y-81500000D01*
X158452380Y-81738095D01*
X157452380Y-80309523D02*
X157452380Y-80500000D01*
X157500000Y-80595238D01*
X157547619Y-80642857D01*
X157690476Y-80738095D01*
X157880952Y-80785714D01*
X158261904Y-80785714D01*
X158357142Y-80738095D01*
X158404761Y-80690476D01*
X158452380Y-80595238D01*
X158452380Y-80404761D01*
X158404761Y-80309523D01*
X158357142Y-80261904D01*
X158261904Y-80214285D01*
X158023809Y-80214285D01*
X157928571Y-80261904D01*
X157880952Y-80309523D01*
X157833333Y-80404761D01*
X157833333Y-80595238D01*
X157880952Y-80690476D01*
X157928571Y-80738095D01*
X158023809Y-80785714D01*
X158452380Y-98738095D02*
X157452380Y-98738095D01*
X157452380Y-98500000D01*
X157500000Y-98357142D01*
X157595238Y-98261904D01*
X157690476Y-98214285D01*
X157880952Y-98166666D01*
X158023809Y-98166666D01*
X158214285Y-98214285D01*
X158309523Y-98261904D01*
X158404761Y-98357142D01*
X158452380Y-98500000D01*
X158452380Y-98738095D01*
X157452380Y-97261904D02*
X157452380Y-97738095D01*
X157928571Y-97785714D01*
X157880952Y-97738095D01*
X157833333Y-97642857D01*
X157833333Y-97404761D01*
X157880952Y-97309523D01*
X157928571Y-97261904D01*
X158023809Y-97214285D01*
X158261904Y-97214285D01*
X158357142Y-97261904D01*
X158404761Y-97309523D01*
X158452380Y-97404761D01*
X158452380Y-97642857D01*
X158404761Y-97738095D01*
X158357142Y-97785714D01*
X135952380Y-80666666D02*
X135476190Y-81000000D01*
X135952380Y-81238095D02*
X134952380Y-81238095D01*
X134952380Y-80857142D01*
X135000000Y-80761904D01*
X135047619Y-80714285D01*
X135142857Y-80666666D01*
X135285714Y-80666666D01*
X135380952Y-80714285D01*
X135428571Y-80761904D01*
X135476190Y-80857142D01*
X135476190Y-81238095D01*
X135285714Y-79809523D02*
X135952380Y-79809523D01*
X134904761Y-80047619D02*
X135619047Y-80285714D01*
X135619047Y-79666666D01*
X128452380Y-97166666D02*
X127976190Y-97500000D01*
X128452380Y-97738095D02*
X127452380Y-97738095D01*
X127452380Y-97357142D01*
X127500000Y-97261904D01*
X127547619Y-97214285D01*
X127642857Y-97166666D01*
X127785714Y-97166666D01*
X127880952Y-97214285D01*
X127928571Y-97261904D01*
X127976190Y-97357142D01*
X127976190Y-97738095D01*
X127547619Y-96785714D02*
X127500000Y-96738095D01*
X127452380Y-96642857D01*
X127452380Y-96404761D01*
X127500000Y-96309523D01*
X127547619Y-96261904D01*
X127642857Y-96214285D01*
X127738095Y-96214285D01*
X127880952Y-96261904D01*
X128452380Y-96833333D01*
X128452380Y-96214285D01*
D14*
X117560000Y-108940000D02*
X117560000Y-118060000D01*
X111654000Y-111612000D02*
X111259000Y-112008000D01*
X106654000Y-111612000D02*
X106547000Y-111719000D01*
X103718000Y-114547000D02*
X103612000Y-114654000D01*
X108742000Y-113992000D02*
X108347000Y-114388000D01*
X102440000Y-108940000D02*
X117560000Y-108940000D01*
X106388000Y-111346000D02*
X106281000Y-111453000D01*
X116388000Y-111346000D02*
X116008000Y-111726000D01*
X113742000Y-113992000D02*
X113347000Y-114388000D01*
X102440000Y-117600000D02*
X117560000Y-117600000D01*
X102440000Y-108940000D02*
X102440000Y-118060000D01*
X102200000Y-118300000D02*
X102600000Y-118300000D01*
X102440000Y-118060000D02*
X117560000Y-118060000D01*
X108993000Y-114274000D02*
X108613000Y-114654000D01*
X116654000Y-111612000D02*
X116259000Y-112008000D01*
X102440000Y-116500000D02*
X117560000Y-116500000D01*
X103452000Y-114281000D02*
X103346000Y-114388000D01*
X102200000Y-117660000D02*
X102200000Y-118300000D01*
X111388000Y-111346000D02*
X111008000Y-111726000D01*
X113993000Y-114274000D02*
X113613000Y-114654000D01*
X112180000Y-113000000D02*
G75*
G03*
X112180000Y-113000000I-2180000J0D01*
G01*
X117180000Y-113000000D02*
G75*
G03*
X117180000Y-113000000I-2180000J0D01*
G01*
X107180000Y-113000000D02*
G75*
G03*
X107180000Y-113000000I-2180000J0D01*
G01*
X131654000Y-111612000D02*
X131547000Y-111719000D01*
X127440000Y-117600000D02*
X142560000Y-117600000D01*
X127200000Y-117660000D02*
X127200000Y-118300000D01*
X141654000Y-111612000D02*
X141259000Y-112008000D01*
X133993000Y-114274000D02*
X133613000Y-114654000D01*
X127200000Y-118300000D02*
X127600000Y-118300000D01*
X133742000Y-113992000D02*
X133347000Y-114388000D01*
X127440000Y-118060000D02*
X142560000Y-118060000D01*
X128452000Y-114281000D02*
X128346000Y-114388000D01*
X136388000Y-111346000D02*
X136008000Y-111726000D01*
X141388000Y-111346000D02*
X141008000Y-111726000D01*
X138993000Y-114274000D02*
X138613000Y-114654000D01*
X127440000Y-108940000D02*
X127440000Y-118060000D01*
X127440000Y-108940000D02*
X142560000Y-108940000D01*
X131388000Y-111346000D02*
X131281000Y-111453000D01*
X136654000Y-111612000D02*
X136259000Y-112008000D01*
X142560000Y-108940000D02*
X142560000Y-118060000D01*
X138742000Y-113992000D02*
X138347000Y-114388000D01*
X128718000Y-114547000D02*
X128612000Y-114654000D01*
X127440000Y-116500000D02*
X142560000Y-116500000D01*
X137180000Y-113000000D02*
G75*
G03*
X137180000Y-113000000I-2180000J0D01*
G01*
X142180000Y-113000000D02*
G75*
G03*
X142180000Y-113000000I-2180000J0D01*
G01*
X132180000Y-113000000D02*
G75*
G03*
X132180000Y-113000000I-2180000J0D01*
G01*
X152075000Y-69395000D02*
X153405000Y-69395000D01*
X153405000Y-69395000D02*
X153405000Y-70725000D01*
X153405000Y-71995000D02*
X153405000Y-74595000D01*
X153405000Y-74595000D02*
X140585000Y-74595000D01*
X150805000Y-69395000D02*
X150805000Y-71995000D01*
X150805000Y-71995000D02*
X153405000Y-71995000D01*
X150805000Y-69395000D02*
X140585000Y-69395000D01*
X140585000Y-69395000D02*
X140585000Y-74595000D01*
X117440000Y-116500000D02*
X127560000Y-116500000D01*
X117440000Y-108940000D02*
X117440000Y-118060000D01*
X127560000Y-108940000D02*
X127560000Y-118060000D01*
X117440000Y-108940000D02*
X127560000Y-108940000D01*
X117200000Y-117660000D02*
X117200000Y-118300000D01*
X123993000Y-114274000D02*
X123613000Y-114654000D01*
X123742000Y-113992000D02*
X123347000Y-114388000D01*
X117200000Y-118300000D02*
X117600000Y-118300000D01*
X121388000Y-111346000D02*
X121281000Y-111453000D01*
X117440000Y-118060000D02*
X127560000Y-118060000D01*
X118718000Y-114547000D02*
X118612000Y-114654000D01*
X126654000Y-111612000D02*
X126259000Y-112008000D01*
X118452000Y-114281000D02*
X118346000Y-114388000D01*
X121654000Y-111612000D02*
X121547000Y-111719000D01*
X126388000Y-111346000D02*
X126008000Y-111726000D01*
X117440000Y-117600000D02*
X127560000Y-117600000D01*
X127180000Y-113000000D02*
G75*
G03*
X127180000Y-113000000I-2180000J0D01*
G01*
X122180000Y-113000000D02*
G75*
G03*
X122180000Y-113000000I-2180000J0D01*
G01*
X147960000Y-105580000D02*
X146630000Y-105580000D01*
X149230000Y-102920000D02*
X154370000Y-102920000D01*
X146630000Y-105580000D02*
X146630000Y-104250000D01*
X149230000Y-105580000D02*
X154370000Y-105580000D01*
X149230000Y-105580000D02*
X149230000Y-102920000D01*
X154370000Y-105580000D02*
X154370000Y-102920000D01*
X100180000Y-67000000D02*
G75*
G03*
X100180000Y-67000000I-2180000J0D01*
G01*
X95180000Y-67000000D02*
G75*
G03*
X95180000Y-67000000I-2180000J0D01*
G01*
X94007000Y-65726000D02*
X94387000Y-65346000D01*
X96612000Y-68654000D02*
X96719000Y-68547000D01*
X100560000Y-71060000D02*
X90440000Y-71060000D01*
X100560000Y-63500000D02*
X90440000Y-63500000D01*
X100560000Y-71060000D02*
X100560000Y-61940000D01*
X100800000Y-61700000D02*
X100400000Y-61700000D01*
X96346000Y-68388000D02*
X96453000Y-68281000D01*
X91346000Y-68388000D02*
X91741000Y-67992000D01*
X94258000Y-66008000D02*
X94653000Y-65612000D01*
X100560000Y-61940000D02*
X90440000Y-61940000D01*
X100560000Y-62400000D02*
X90440000Y-62400000D01*
X99282000Y-65453000D02*
X99388000Y-65346000D01*
X100800000Y-62340000D02*
X100800000Y-61700000D01*
X91612000Y-68654000D02*
X91992000Y-68274000D01*
X99548000Y-65719000D02*
X99654000Y-65612000D01*
X90440000Y-71060000D02*
X90440000Y-61940000D01*
X110800000Y-61700000D02*
X110400000Y-61700000D01*
X106346000Y-68388000D02*
X106453000Y-68281000D01*
X101612000Y-68654000D02*
X101992000Y-68274000D01*
X110560000Y-61940000D02*
X100440000Y-61940000D01*
X110560000Y-71060000D02*
X100440000Y-71060000D01*
X101346000Y-68388000D02*
X101741000Y-67992000D01*
X100440000Y-71060000D02*
X100440000Y-61940000D01*
X110560000Y-62400000D02*
X100440000Y-62400000D01*
X104258000Y-66008000D02*
X104653000Y-65612000D01*
X104007000Y-65726000D02*
X104387000Y-65346000D01*
X109282000Y-65453000D02*
X109388000Y-65346000D01*
X109548000Y-65719000D02*
X109654000Y-65612000D01*
X110560000Y-71060000D02*
X110560000Y-61940000D01*
X110800000Y-62340000D02*
X110800000Y-61700000D01*
X110560000Y-63500000D02*
X100440000Y-63500000D01*
X106612000Y-68654000D02*
X106719000Y-68547000D01*
X105180000Y-67000000D02*
G75*
G03*
X105180000Y-67000000I-2180000J0D01*
G01*
X110180000Y-67000000D02*
G75*
G03*
X110180000Y-67000000I-2180000J0D01*
G01*
X92440000Y-118060000D02*
X102560000Y-118060000D01*
X96388000Y-111346000D02*
X96281000Y-111453000D01*
X92440000Y-108940000D02*
X92440000Y-118060000D01*
X92440000Y-108940000D02*
X102560000Y-108940000D01*
X101654000Y-111612000D02*
X101259000Y-112008000D01*
X92200000Y-117660000D02*
X92200000Y-118300000D01*
X98742000Y-113992000D02*
X98347000Y-114388000D01*
X92440000Y-116500000D02*
X102560000Y-116500000D01*
X101388000Y-111346000D02*
X101008000Y-111726000D01*
X92440000Y-117600000D02*
X102560000Y-117600000D01*
X98993000Y-114274000D02*
X98613000Y-114654000D01*
X102560000Y-108940000D02*
X102560000Y-118060000D01*
X96654000Y-111612000D02*
X96547000Y-111719000D01*
X93718000Y-114547000D02*
X93612000Y-114654000D01*
X92200000Y-118300000D02*
X92600000Y-118300000D01*
X93452000Y-114281000D02*
X93346000Y-114388000D01*
X102180000Y-113000000D02*
G75*
G03*
X102180000Y-113000000I-2180000J0D01*
G01*
X97180000Y-113000000D02*
G75*
G03*
X97180000Y-113000000I-2180000J0D01*
G01*
X121670000Y-78860000D02*
X126650000Y-78860000D01*
X121670000Y-76140000D02*
X126650000Y-76140000D01*
X121670000Y-76140000D02*
X121670000Y-78860000D01*
X156235000Y-74488748D02*
X156235000Y-75011252D01*
X154765000Y-74488748D02*
X154765000Y-75011252D01*
X146865000Y-117460000D02*
X149135000Y-117460000D01*
X146865000Y-113400000D02*
X146865000Y-117460000D01*
X149135000Y-117460000D02*
X149135000Y-113400000D01*
X118360000Y-76750000D02*
X118360000Y-73590000D01*
X95640000Y-83410000D02*
X118360000Y-83410000D01*
X95640000Y-73590000D02*
X118360000Y-73590000D01*
X118360000Y-83410000D02*
X118360000Y-80250000D01*
X95640000Y-76750000D02*
X95640000Y-73590000D01*
X95640000Y-83410000D02*
X95640000Y-80250000D01*
X121235000Y-83272936D02*
X121235000Y-83727064D01*
X119765000Y-83272936D02*
X119765000Y-83727064D01*
X116235000Y-94227064D02*
X116235000Y-93772936D01*
X114765000Y-94227064D02*
X114765000Y-93772936D01*
X138227064Y-71765000D02*
X137772936Y-71765000D01*
X138227064Y-73235000D02*
X137772936Y-73235000D01*
X139765000Y-93772936D02*
X139765000Y-94227064D01*
X141235000Y-93772936D02*
X141235000Y-94227064D01*
X165450000Y-79500000D02*
X170450000Y-79500000D01*
X170450000Y-82500000D02*
X165450000Y-82500000D01*
X167950000Y-75000000D02*
X167950000Y-79500000D01*
X164550000Y-81000000D02*
X163650000Y-81000000D01*
X160450000Y-73300000D02*
X179650000Y-73300000D01*
X176150000Y-85300000D02*
X176150000Y-83000000D01*
X171450000Y-81000000D02*
X171450000Y-84700000D01*
X179650000Y-73300000D02*
X179650000Y-88700000D01*
X171450000Y-84700000D02*
X164550000Y-84700000D01*
X171450000Y-81000000D02*
X172950000Y-81000000D01*
X170450000Y-82500000D02*
X165450000Y-79500000D01*
X176150000Y-76700000D02*
X176150000Y-79000000D01*
X179650000Y-88700000D02*
X160450000Y-88700000D01*
X170450000Y-79500000D02*
X170450000Y-82500000D01*
X165650000Y-87000000D02*
X167950000Y-87000000D01*
X172950000Y-81000000D02*
X177450000Y-78300000D01*
X160450000Y-82200000D02*
X160450000Y-88700000D01*
X165450000Y-82500000D02*
X165450000Y-79500000D01*
X160450000Y-73300000D02*
X160450000Y-79800000D01*
X164550000Y-81000000D02*
X164550000Y-84700000D01*
X167950000Y-82500000D02*
X167950000Y-87000000D01*
X167950000Y-75000000D02*
X165650000Y-75000000D01*
X120585000Y-67760000D02*
X120585000Y-63240000D01*
X120585000Y-63240000D02*
X112350000Y-63240000D01*
X112350000Y-67760000D02*
X120585000Y-67760000D01*
X129765000Y-93772936D02*
X129765000Y-94227064D01*
X131235000Y-93772936D02*
X131235000Y-94227064D01*
X142265000Y-83727064D02*
X142265000Y-83272936D01*
X143735000Y-83727064D02*
X143735000Y-83272936D01*
X139765000Y-83727064D02*
X139765000Y-83272936D01*
X141235000Y-83727064D02*
X141235000Y-83272936D01*
X129765000Y-83272936D02*
X129765000Y-83727064D01*
X131235000Y-83272936D02*
X131235000Y-83727064D01*
X153000000Y-82560000D02*
X153650000Y-82560000D01*
X153000000Y-79440000D02*
X151325000Y-79440000D01*
X153000000Y-82560000D02*
X152350000Y-82560000D01*
X153000000Y-79440000D02*
X153650000Y-79440000D01*
X133735000Y-83272936D02*
X133735000Y-83727064D01*
X132265000Y-83272936D02*
X132265000Y-83727064D01*
X126235000Y-83272936D02*
X126235000Y-83727064D01*
X124765000Y-83272936D02*
X124765000Y-83727064D01*
X103235000Y-94227064D02*
X103235000Y-93772936D01*
X101765000Y-94227064D02*
X101765000Y-93772936D01*
X90140000Y-78080000D02*
X92860000Y-78080000D01*
X90140000Y-78080000D02*
X90140000Y-73100000D01*
X92860000Y-78080000D02*
X92860000Y-73100000D01*
X151865000Y-113400000D02*
X151865000Y-117460000D01*
X151865000Y-117460000D02*
X154135000Y-117460000D01*
X154135000Y-117460000D02*
X154135000Y-113400000D01*
X105735000Y-94227064D02*
X105735000Y-93772936D01*
X104265000Y-94227064D02*
X104265000Y-93772936D01*
X179650000Y-105700000D02*
X160450000Y-105700000D01*
X170450000Y-99500000D02*
X165450000Y-96500000D01*
X176150000Y-93700000D02*
X176150000Y-96000000D01*
X167950000Y-92000000D02*
X165650000Y-92000000D01*
X179650000Y-90300000D02*
X179650000Y-105700000D01*
X167950000Y-92000000D02*
X167950000Y-96500000D01*
X165450000Y-99500000D02*
X165450000Y-96500000D01*
X160450000Y-99200000D02*
X160450000Y-105700000D01*
X167950000Y-99500000D02*
X167950000Y-104000000D01*
X165450000Y-96500000D02*
X170450000Y-96500000D01*
X171450000Y-101700000D02*
X164550000Y-101700000D01*
X172950000Y-98000000D02*
X177450000Y-95300000D01*
X171450000Y-98000000D02*
X172950000Y-98000000D01*
X160450000Y-90300000D02*
X179650000Y-90300000D01*
X170450000Y-99500000D02*
X165450000Y-99500000D01*
X160450000Y-90300000D02*
X160450000Y-96800000D01*
X171450000Y-98000000D02*
X171450000Y-101700000D01*
X176150000Y-102300000D02*
X176150000Y-100000000D01*
X164550000Y-98000000D02*
X164550000Y-101700000D01*
X164550000Y-98000000D02*
X163650000Y-98000000D01*
X170450000Y-96500000D02*
X170450000Y-99500000D01*
X165650000Y-104000000D02*
X167950000Y-104000000D01*
X92235000Y-81738748D02*
X92235000Y-82261252D01*
X90765000Y-81738748D02*
X90765000Y-82261252D01*
X137265000Y-93772936D02*
X137265000Y-94227064D01*
X138735000Y-93772936D02*
X138735000Y-94227064D01*
X153000000Y-96440000D02*
X151325000Y-96440000D01*
X153000000Y-99560000D02*
X152350000Y-99560000D01*
X153000000Y-96440000D02*
X153650000Y-96440000D01*
X153000000Y-99560000D02*
X153650000Y-99560000D01*
X135100000Y-71000000D02*
X135100000Y-73750000D01*
X122800000Y-71000000D02*
X122800000Y-73750000D01*
X134700000Y-74150000D02*
X123200000Y-74150000D01*
X122800000Y-62250000D02*
X122800000Y-65000000D01*
X135100000Y-62250000D02*
X135100000Y-65000000D01*
X123200000Y-61850000D02*
X134700000Y-61850000D01*
X134700000Y-74150000D02*
G75*
G03*
X135100000Y-73750000I0J400000D01*
G01*
X123200000Y-61850000D02*
G75*
G03*
X122800000Y-62250000I-1J-399999D01*
G01*
X122800000Y-73750000D02*
G75*
G03*
X123200000Y-74150000I399999J-1D01*
G01*
X135100000Y-62250000D02*
G75*
G03*
X134700000Y-61850000I-400000J0D01*
G01*
X157940000Y-117600000D02*
X168060000Y-117600000D01*
X157700000Y-118300000D02*
X158100000Y-118300000D01*
X157940000Y-118060000D02*
X168060000Y-118060000D01*
X157940000Y-108940000D02*
X157940000Y-118060000D01*
X157940000Y-108940000D02*
X168060000Y-108940000D01*
X164242000Y-113992000D02*
X163847000Y-114388000D01*
X157700000Y-117660000D02*
X157700000Y-118300000D01*
X168060000Y-108940000D02*
X168060000Y-118060000D01*
X161888000Y-111346000D02*
X161781000Y-111453000D01*
X167154000Y-111612000D02*
X166759000Y-112008000D01*
X159218000Y-114547000D02*
X159112000Y-114654000D01*
X164493000Y-114274000D02*
X164113000Y-114654000D01*
X162154000Y-111612000D02*
X162047000Y-111719000D01*
X157940000Y-116500000D02*
X168060000Y-116500000D01*
X166888000Y-111346000D02*
X166508000Y-111726000D01*
X158952000Y-114281000D02*
X158846000Y-114388000D01*
X162680000Y-113000000D02*
G75*
G03*
X162680000Y-113000000I-2180000J0D01*
G01*
X167680000Y-113000000D02*
G75*
G03*
X167680000Y-113000000I-2180000J0D01*
G01*
X123735000Y-94227064D02*
X123735000Y-93772936D01*
X122265000Y-94227064D02*
X122265000Y-93772936D01*
X122265000Y-83272936D02*
X122265000Y-83727064D01*
X123735000Y-83272936D02*
X123735000Y-83727064D01*
X121235000Y-94227064D02*
X121235000Y-93772936D01*
X119765000Y-94227064D02*
X119765000Y-93772936D01*
X109265000Y-94227064D02*
X109265000Y-93772936D01*
X110735000Y-94227064D02*
X110735000Y-93772936D01*
X169218000Y-114547000D02*
X169112000Y-114654000D01*
X176888000Y-111346000D02*
X176508000Y-111726000D01*
X178060000Y-108940000D02*
X178060000Y-118060000D01*
X167940000Y-108940000D02*
X178060000Y-108940000D01*
X174493000Y-114274000D02*
X174113000Y-114654000D01*
X171888000Y-111346000D02*
X171781000Y-111453000D01*
X167940000Y-117600000D02*
X178060000Y-117600000D01*
X174242000Y-113992000D02*
X173847000Y-114388000D01*
X167940000Y-118060000D02*
X178060000Y-118060000D01*
X172154000Y-111612000D02*
X172047000Y-111719000D01*
X167700000Y-118300000D02*
X168100000Y-118300000D01*
X167940000Y-116500000D02*
X178060000Y-116500000D01*
X177154000Y-111612000D02*
X176759000Y-112008000D01*
X167700000Y-117660000D02*
X167700000Y-118300000D01*
X168952000Y-114281000D02*
X168846000Y-114388000D01*
X167940000Y-108940000D02*
X167940000Y-118060000D01*
X172680000Y-113000000D02*
G75*
G03*
X172680000Y-113000000I-2180000J0D01*
G01*
X177680000Y-113000000D02*
G75*
G03*
X177680000Y-113000000I-2180000J0D01*
G01*
X118735000Y-94227064D02*
X118735000Y-93772936D01*
X117265000Y-94227064D02*
X117265000Y-93772936D01*
X99265000Y-94227064D02*
X99265000Y-93772936D01*
X100735000Y-94227064D02*
X100735000Y-93772936D01*
X177360000Y-70910000D02*
X177360000Y-67750000D01*
X177360000Y-64250000D02*
X177360000Y-61090000D01*
X154640000Y-64250000D02*
X154640000Y-61090000D01*
X154640000Y-70910000D02*
X177360000Y-70910000D01*
X154640000Y-61090000D02*
X177360000Y-61090000D01*
X154640000Y-70910000D02*
X154640000Y-67750000D01*
X138227064Y-70735000D02*
X137772936Y-70735000D01*
X138227064Y-69265000D02*
X137772936Y-69265000D01*
X120585000Y-72760000D02*
X120585000Y-68240000D01*
X112350000Y-72760000D02*
X120585000Y-72760000D01*
X120585000Y-68240000D02*
X112350000Y-68240000D01*
X157000000Y-79250000D02*
X157000000Y-83550000D01*
X159000000Y-83550000D02*
X159000000Y-79250000D01*
X157000000Y-83550000D02*
X159000000Y-83550000D01*
X157000000Y-96250000D02*
X157000000Y-100550000D01*
X157000000Y-100550000D02*
X159000000Y-100550000D01*
X159000000Y-100550000D02*
X159000000Y-96250000D01*
X134765000Y-83272936D02*
X134765000Y-83727064D01*
X136235000Y-83272936D02*
X136235000Y-83727064D01*
X128735000Y-93772936D02*
X128735000Y-94227064D01*
X127265000Y-93772936D02*
X127265000Y-94227064D01*
M02*
