M48
; DRILL file {KiCad (6.0.4)} date Fri Mar 24 12:02:52 2023
; FORMAT={-:-/ absolute / inch / decimal}
; #@! TF.CreationDate,2023-03-24T12:02:52-03:00
; #@! TF.GenerationSoftware,Kicad,Pcbnew,(6.0.4)
; #@! TF.FileFunction,Plated,1,2,PTH
FMAT,2
INCH
; #@! TA.AperFunction,Plated,PTH,ViaDrill
T1C0.0197
; #@! TA.AperFunction,Plated,PTH,ViaDrill
T2C0.0394
; #@! TA.AperFunction,Plated,PTH,ComponentDrill
T3C0.0394
; #@! TA.AperFunction,Plated,PTH,ComponentDrill
T4C0.0512
%
G90
G05
T1
X3.6024Y-3.3071
X3.7697Y-4.252
X4.498Y-2.5787
X4.498Y-2.7756
X4.9311Y-2.6673
X5.001Y-2.6693
X5.0394Y-3.0512
X5.2461Y-3.0413
X5.3051Y-3.0413
X5.9257Y-4.5861
X5.9843Y-3.937
X6.0138Y-3.2579
X6.122Y-3.0217
T2
X4.3799Y-2.9331
X5.2347Y-2.5871
T3
X3.937Y-3.4433
X3.937Y-3.5433
X4.037Y-3.4433
X4.037Y-3.5433
X4.137Y-3.4433
X4.137Y-3.5433
X4.237Y-3.4433
X4.237Y-3.5433
X4.337Y-3.4433
X4.337Y-3.5433
X4.437Y-3.4433
X4.437Y-3.5433
X4.537Y-3.4433
X4.537Y-3.5433
X4.637Y-3.4433
X4.637Y-3.5433
X4.737Y-3.4433
X4.737Y-3.5433
X4.837Y-3.4433
X4.837Y-3.5433
X4.937Y-3.4433
X4.937Y-3.5433
X5.037Y-3.4433
X5.037Y-3.5433
X5.137Y-3.4433
X5.137Y-3.5433
X5.237Y-3.4433
X5.237Y-3.5433
X5.337Y-3.4433
X5.337Y-3.5433
X5.437Y-3.4433
X5.437Y-3.5433
X5.537Y-3.4433
X5.537Y-3.5433
X5.5872Y-2.7844
X5.5872Y-2.8844
X5.637Y-3.4433
X5.637Y-3.5433
X5.6872Y-2.7844
X5.6872Y-2.8844
X5.737Y-3.4433
X5.737Y-3.5433
X5.7872Y-2.7844
X5.7872Y-2.8844
X5.8252Y-4.1043
X5.837Y-3.4433
X5.837Y-3.5433
X5.8872Y-2.7844
X5.8872Y-2.8844
X5.9252Y-4.1043
X5.9872Y-2.7844
X5.9872Y-2.8844
X6.0252Y-4.1043
T4
X3.6614Y-2.6378
X3.7402Y-4.4488
X3.7697Y-3.0906
X3.8583Y-2.6378
X3.937Y-4.4488
X4.0551Y-2.6378
X4.1339Y-4.4488
X4.252Y-2.6378
X4.3307Y-4.4488
X4.5276Y-4.4488
X4.6555Y-3.0906
X4.7244Y-4.4488
X4.9213Y-4.4488
X5.1181Y-4.4488
X5.315Y-4.4488
X5.5118Y-4.4488
X6.0925Y-2.5984
X6.3189Y-4.4488
X6.376Y-3.189
X6.376Y-3.8583
X6.4547Y-2.9528
X6.4547Y-3.4252
X6.4547Y-3.622
X6.4547Y-4.0945
X6.5157Y-4.4488
X6.7126Y-4.4488
X6.9094Y-4.4488
X6.935Y-2.9528
X6.935Y-3.4252
X6.935Y-3.622
X6.935Y-4.0945
X6.9783Y-2.5984
T0
M30
