G04 #@! TF.GenerationSoftware,KiCad,Pcbnew,5.1.5+dfsg1-2build2*
G04 #@! TF.CreationDate,2021-12-14T17:07:21-03:00*
G04 #@! TF.ProjectId,DomPiWeb,446f6d50-6957-4656-922e-6b696361645f,rev?*
G04 #@! TF.SameCoordinates,Original*
G04 #@! TF.FileFunction,Legend,Bot*
G04 #@! TF.FilePolarity,Positive*
%FSLAX46Y46*%
G04 Gerber Fmt 4.6, Leading zero omitted, Abs format (unit mm)*
G04 Created by KiCad (PCBNEW 5.1.5+dfsg1-2build2) date 2021-12-14 17:07:21*
%MOMM*%
%LPD*%
G04 APERTURE LIST*
%ADD10C,0.100000*%
%ADD11C,0.150000*%
%ADD12C,0.300000*%
%ADD13C,0.400000*%
%ADD14C,0.120000*%
G04 APERTURE END LIST*
D10*
D11*
X177002200Y-166007200D02*
X177002200Y-198007200D01*
X285002200Y-198007200D01*
X285002200Y-166007200D01*
X177002200Y-166007200D01*
D10*
D11*
X10000000Y-10000000D02*
X10000000Y-200007200D01*
X287002200Y-200007200D01*
X287002200Y-10000000D01*
X10000000Y-10000000D01*
D10*
D11*
X12000000Y-12000000D02*
X12000000Y-198007200D01*
X285002200Y-198007200D01*
X285002200Y-12000000D01*
X12000000Y-12000000D01*
D10*
D11*
X60000000Y-12000000D02*
X60000000Y-10000000D01*
D10*
D11*
X110000000Y-12000000D02*
X110000000Y-10000000D01*
D10*
D11*
X160000000Y-12000000D02*
X160000000Y-10000000D01*
D10*
D11*
X210000000Y-12000000D02*
X210000000Y-10000000D01*
D10*
D11*
X260000000Y-12000000D02*
X260000000Y-10000000D01*
D10*
D11*
X36065476Y-11588095D02*
X35322619Y-11588095D01*
X35694047Y-11588095D02*
X35694047Y-10288095D01*
X35570238Y-10473809D01*
X35446428Y-10597619D01*
X35322619Y-10659523D01*
D10*
D11*
X85322619Y-10411904D02*
X85384523Y-10350000D01*
X85508333Y-10288095D01*
X85817857Y-10288095D01*
X85941666Y-10350000D01*
X86003571Y-10411904D01*
X86065476Y-10535714D01*
X86065476Y-10659523D01*
X86003571Y-10845238D01*
X85260714Y-11588095D01*
X86065476Y-11588095D01*
D10*
D11*
X135260714Y-10288095D02*
X136065476Y-10288095D01*
X135632142Y-10783333D01*
X135817857Y-10783333D01*
X135941666Y-10845238D01*
X136003571Y-10907142D01*
X136065476Y-11030952D01*
X136065476Y-11340476D01*
X136003571Y-11464285D01*
X135941666Y-11526190D01*
X135817857Y-11588095D01*
X135446428Y-11588095D01*
X135322619Y-11526190D01*
X135260714Y-11464285D01*
D10*
D11*
X185941666Y-10721428D02*
X185941666Y-11588095D01*
X185632142Y-10226190D02*
X185322619Y-11154761D01*
X186127380Y-11154761D01*
D10*
D11*
X236003571Y-10288095D02*
X235384523Y-10288095D01*
X235322619Y-10907142D01*
X235384523Y-10845238D01*
X235508333Y-10783333D01*
X235817857Y-10783333D01*
X235941666Y-10845238D01*
X236003571Y-10907142D01*
X236065476Y-11030952D01*
X236065476Y-11340476D01*
X236003571Y-11464285D01*
X235941666Y-11526190D01*
X235817857Y-11588095D01*
X235508333Y-11588095D01*
X235384523Y-11526190D01*
X235322619Y-11464285D01*
D10*
D11*
X285941666Y-10288095D02*
X285694047Y-10288095D01*
X285570238Y-10350000D01*
X285508333Y-10411904D01*
X285384523Y-10597619D01*
X285322619Y-10845238D01*
X285322619Y-11340476D01*
X285384523Y-11464285D01*
X285446428Y-11526190D01*
X285570238Y-11588095D01*
X285817857Y-11588095D01*
X285941666Y-11526190D01*
X286003571Y-11464285D01*
X286065476Y-11340476D01*
X286065476Y-11030952D01*
X286003571Y-10907142D01*
X285941666Y-10845238D01*
X285817857Y-10783333D01*
X285570238Y-10783333D01*
X285446428Y-10845238D01*
X285384523Y-10907142D01*
X285322619Y-11030952D01*
D10*
D11*
X60000000Y-198007200D02*
X60000000Y-200007200D01*
D10*
D11*
X110000000Y-198007200D02*
X110000000Y-200007200D01*
D10*
D11*
X160000000Y-198007200D02*
X160000000Y-200007200D01*
D10*
D11*
X210000000Y-198007200D02*
X210000000Y-200007200D01*
D10*
D11*
X260000000Y-198007200D02*
X260000000Y-200007200D01*
D10*
D11*
X36065476Y-199595295D02*
X35322619Y-199595295D01*
X35694047Y-199595295D02*
X35694047Y-198295295D01*
X35570238Y-198481009D01*
X35446428Y-198604819D01*
X35322619Y-198666723D01*
D10*
D11*
X85322619Y-198419104D02*
X85384523Y-198357200D01*
X85508333Y-198295295D01*
X85817857Y-198295295D01*
X85941666Y-198357200D01*
X86003571Y-198419104D01*
X86065476Y-198542914D01*
X86065476Y-198666723D01*
X86003571Y-198852438D01*
X85260714Y-199595295D01*
X86065476Y-199595295D01*
D10*
D11*
X135260714Y-198295295D02*
X136065476Y-198295295D01*
X135632142Y-198790533D01*
X135817857Y-198790533D01*
X135941666Y-198852438D01*
X136003571Y-198914342D01*
X136065476Y-199038152D01*
X136065476Y-199347676D01*
X136003571Y-199471485D01*
X135941666Y-199533390D01*
X135817857Y-199595295D01*
X135446428Y-199595295D01*
X135322619Y-199533390D01*
X135260714Y-199471485D01*
D10*
D11*
X185941666Y-198728628D02*
X185941666Y-199595295D01*
X185632142Y-198233390D02*
X185322619Y-199161961D01*
X186127380Y-199161961D01*
D10*
D11*
X236003571Y-198295295D02*
X235384523Y-198295295D01*
X235322619Y-198914342D01*
X235384523Y-198852438D01*
X235508333Y-198790533D01*
X235817857Y-198790533D01*
X235941666Y-198852438D01*
X236003571Y-198914342D01*
X236065476Y-199038152D01*
X236065476Y-199347676D01*
X236003571Y-199471485D01*
X235941666Y-199533390D01*
X235817857Y-199595295D01*
X235508333Y-199595295D01*
X235384523Y-199533390D01*
X235322619Y-199471485D01*
D10*
D11*
X285941666Y-198295295D02*
X285694047Y-198295295D01*
X285570238Y-198357200D01*
X285508333Y-198419104D01*
X285384523Y-198604819D01*
X285322619Y-198852438D01*
X285322619Y-199347676D01*
X285384523Y-199471485D01*
X285446428Y-199533390D01*
X285570238Y-199595295D01*
X285817857Y-199595295D01*
X285941666Y-199533390D01*
X286003571Y-199471485D01*
X286065476Y-199347676D01*
X286065476Y-199038152D01*
X286003571Y-198914342D01*
X285941666Y-198852438D01*
X285817857Y-198790533D01*
X285570238Y-198790533D01*
X285446428Y-198852438D01*
X285384523Y-198914342D01*
X285322619Y-199038152D01*
D10*
D11*
X10000000Y-60000000D02*
X12000000Y-60000000D01*
D10*
D11*
X10000000Y-110000000D02*
X12000000Y-110000000D01*
D10*
D11*
X10000000Y-160000000D02*
X12000000Y-160000000D01*
D10*
D11*
X10690476Y-35216666D02*
X11309523Y-35216666D01*
X10566666Y-35588095D02*
X11000000Y-34288095D01*
X11433333Y-35588095D01*
D10*
D11*
X11092857Y-84907142D02*
X11278571Y-84969047D01*
X11340476Y-85030952D01*
X11402380Y-85154761D01*
X11402380Y-85340476D01*
X11340476Y-85464285D01*
X11278571Y-85526190D01*
X11154761Y-85588095D01*
X10659523Y-85588095D01*
X10659523Y-84288095D01*
X11092857Y-84288095D01*
X11216666Y-84350000D01*
X11278571Y-84411904D01*
X11340476Y-84535714D01*
X11340476Y-84659523D01*
X11278571Y-84783333D01*
X11216666Y-84845238D01*
X11092857Y-84907142D01*
X10659523Y-84907142D01*
D10*
D11*
X11402380Y-135464285D02*
X11340476Y-135526190D01*
X11154761Y-135588095D01*
X11030952Y-135588095D01*
X10845238Y-135526190D01*
X10721428Y-135402380D01*
X10659523Y-135278571D01*
X10597619Y-135030952D01*
X10597619Y-134845238D01*
X10659523Y-134597619D01*
X10721428Y-134473809D01*
X10845238Y-134350000D01*
X11030952Y-134288095D01*
X11154761Y-134288095D01*
X11340476Y-134350000D01*
X11402380Y-134411904D01*
D10*
D11*
X10659523Y-185588095D02*
X10659523Y-184288095D01*
X10969047Y-184288095D01*
X11154761Y-184350000D01*
X11278571Y-184473809D01*
X11340476Y-184597619D01*
X11402380Y-184845238D01*
X11402380Y-185030952D01*
X11340476Y-185278571D01*
X11278571Y-185402380D01*
X11154761Y-185526190D01*
X10969047Y-185588095D01*
X10659523Y-185588095D01*
D10*
D11*
X287002200Y-60000000D02*
X285002200Y-60000000D01*
D10*
D11*
X287002200Y-110000000D02*
X285002200Y-110000000D01*
D10*
D11*
X287002200Y-160000000D02*
X285002200Y-160000000D01*
D10*
D11*
X285692676Y-35216666D02*
X286311723Y-35216666D01*
X285568866Y-35588095D02*
X286002200Y-34288095D01*
X286435533Y-35588095D01*
D10*
D11*
X286095057Y-84907142D02*
X286280771Y-84969047D01*
X286342676Y-85030952D01*
X286404580Y-85154761D01*
X286404580Y-85340476D01*
X286342676Y-85464285D01*
X286280771Y-85526190D01*
X286156961Y-85588095D01*
X285661723Y-85588095D01*
X285661723Y-84288095D01*
X286095057Y-84288095D01*
X286218866Y-84350000D01*
X286280771Y-84411904D01*
X286342676Y-84535714D01*
X286342676Y-84659523D01*
X286280771Y-84783333D01*
X286218866Y-84845238D01*
X286095057Y-84907142D01*
X285661723Y-84907142D01*
D10*
D11*
X286404580Y-135464285D02*
X286342676Y-135526190D01*
X286156961Y-135588095D01*
X286033152Y-135588095D01*
X285847438Y-135526190D01*
X285723628Y-135402380D01*
X285661723Y-135278571D01*
X285599819Y-135030952D01*
X285599819Y-134845238D01*
X285661723Y-134597619D01*
X285723628Y-134473809D01*
X285847438Y-134350000D01*
X286033152Y-134288095D01*
X286156961Y-134288095D01*
X286342676Y-134350000D01*
X286404580Y-134411904D01*
D10*
D11*
X285661723Y-185588095D02*
X285661723Y-184288095D01*
X285971247Y-184288095D01*
X286156961Y-184350000D01*
X286280771Y-184473809D01*
X286342676Y-184597619D01*
X286404580Y-184845238D01*
X286404580Y-185030952D01*
X286342676Y-185278571D01*
X286280771Y-185402380D01*
X286156961Y-185526190D01*
X285971247Y-185588095D01*
X285661723Y-185588095D01*
D10*
D11*
X200434342Y-193785771D02*
X200434342Y-192285771D01*
X200791485Y-192285771D01*
X201005771Y-192357200D01*
X201148628Y-192500057D01*
X201220057Y-192642914D01*
X201291485Y-192928628D01*
X201291485Y-193142914D01*
X201220057Y-193428628D01*
X201148628Y-193571485D01*
X201005771Y-193714342D01*
X200791485Y-193785771D01*
X200434342Y-193785771D01*
X202577200Y-193785771D02*
X202577200Y-193000057D01*
X202505771Y-192857200D01*
X202362914Y-192785771D01*
X202077200Y-192785771D01*
X201934342Y-192857200D01*
X202577200Y-193714342D02*
X202434342Y-193785771D01*
X202077200Y-193785771D01*
X201934342Y-193714342D01*
X201862914Y-193571485D01*
X201862914Y-193428628D01*
X201934342Y-193285771D01*
X202077200Y-193214342D01*
X202434342Y-193214342D01*
X202577200Y-193142914D01*
X203077200Y-192785771D02*
X203648628Y-192785771D01*
X203291485Y-192285771D02*
X203291485Y-193571485D01*
X203362914Y-193714342D01*
X203505771Y-193785771D01*
X203648628Y-193785771D01*
X204720057Y-193714342D02*
X204577200Y-193785771D01*
X204291485Y-193785771D01*
X204148628Y-193714342D01*
X204077200Y-193571485D01*
X204077200Y-193000057D01*
X204148628Y-192857200D01*
X204291485Y-192785771D01*
X204577200Y-192785771D01*
X204720057Y-192857200D01*
X204791485Y-193000057D01*
X204791485Y-193142914D01*
X204077200Y-193285771D01*
X205434342Y-193642914D02*
X205505771Y-193714342D01*
X205434342Y-193785771D01*
X205362914Y-193714342D01*
X205434342Y-193642914D01*
X205434342Y-193785771D01*
X205434342Y-192857200D02*
X205505771Y-192928628D01*
X205434342Y-193000057D01*
X205362914Y-192928628D01*
X205434342Y-192857200D01*
X205434342Y-193000057D01*
D10*
D11*
X177002200Y-194507200D02*
X285002200Y-194507200D01*
D10*
D11*
X178434342Y-196585771D02*
X178434342Y-195085771D01*
X179291485Y-196585771D02*
X178648628Y-195728628D01*
X179291485Y-195085771D02*
X178434342Y-195942914D01*
X179934342Y-196585771D02*
X179934342Y-195585771D01*
X179934342Y-195085771D02*
X179862914Y-195157200D01*
X179934342Y-195228628D01*
X180005771Y-195157200D01*
X179934342Y-195085771D01*
X179934342Y-195228628D01*
X181505771Y-196442914D02*
X181434342Y-196514342D01*
X181220057Y-196585771D01*
X181077200Y-196585771D01*
X180862914Y-196514342D01*
X180720057Y-196371485D01*
X180648628Y-196228628D01*
X180577200Y-195942914D01*
X180577200Y-195728628D01*
X180648628Y-195442914D01*
X180720057Y-195300057D01*
X180862914Y-195157200D01*
X181077200Y-195085771D01*
X181220057Y-195085771D01*
X181434342Y-195157200D01*
X181505771Y-195228628D01*
X182791485Y-196585771D02*
X182791485Y-195800057D01*
X182720057Y-195657200D01*
X182577200Y-195585771D01*
X182291485Y-195585771D01*
X182148628Y-195657200D01*
X182791485Y-196514342D02*
X182648628Y-196585771D01*
X182291485Y-196585771D01*
X182148628Y-196514342D01*
X182077200Y-196371485D01*
X182077200Y-196228628D01*
X182148628Y-196085771D01*
X182291485Y-196014342D01*
X182648628Y-196014342D01*
X182791485Y-195942914D01*
X184148628Y-196585771D02*
X184148628Y-195085771D01*
X184148628Y-196514342D02*
X184005771Y-196585771D01*
X183720057Y-196585771D01*
X183577200Y-196514342D01*
X183505771Y-196442914D01*
X183434342Y-196300057D01*
X183434342Y-195871485D01*
X183505771Y-195728628D01*
X183577200Y-195657200D01*
X183720057Y-195585771D01*
X184005771Y-195585771D01*
X184148628Y-195657200D01*
X186005771Y-195800057D02*
X186505771Y-195800057D01*
X186720057Y-196585771D02*
X186005771Y-196585771D01*
X186005771Y-195085771D01*
X186720057Y-195085771D01*
X187362914Y-196442914D02*
X187434342Y-196514342D01*
X187362914Y-196585771D01*
X187291485Y-196514342D01*
X187362914Y-196442914D01*
X187362914Y-196585771D01*
X188077200Y-196585771D02*
X188077200Y-195085771D01*
X188434342Y-195085771D01*
X188648628Y-195157200D01*
X188791485Y-195300057D01*
X188862914Y-195442914D01*
X188934342Y-195728628D01*
X188934342Y-195942914D01*
X188862914Y-196228628D01*
X188791485Y-196371485D01*
X188648628Y-196514342D01*
X188434342Y-196585771D01*
X188077200Y-196585771D01*
X189577200Y-196442914D02*
X189648628Y-196514342D01*
X189577200Y-196585771D01*
X189505771Y-196514342D01*
X189577200Y-196442914D01*
X189577200Y-196585771D01*
X190220057Y-196157200D02*
X190934342Y-196157200D01*
X190077200Y-196585771D02*
X190577200Y-195085771D01*
X191077200Y-196585771D01*
X191577200Y-196442914D02*
X191648628Y-196514342D01*
X191577200Y-196585771D01*
X191505771Y-196514342D01*
X191577200Y-196442914D01*
X191577200Y-196585771D01*
X194577200Y-196585771D02*
X194577200Y-195085771D01*
X194720057Y-196014342D02*
X195148628Y-196585771D01*
X195148628Y-195585771D02*
X194577200Y-196157200D01*
X195791485Y-196585771D02*
X195791485Y-195585771D01*
X195791485Y-195085771D02*
X195720057Y-195157200D01*
X195791485Y-195228628D01*
X195862914Y-195157200D01*
X195791485Y-195085771D01*
X195791485Y-195228628D01*
X197148628Y-196514342D02*
X197005771Y-196585771D01*
X196720057Y-196585771D01*
X196577200Y-196514342D01*
X196505771Y-196442914D01*
X196434342Y-196300057D01*
X196434342Y-195871485D01*
X196505771Y-195728628D01*
X196577200Y-195657200D01*
X196720057Y-195585771D01*
X197005771Y-195585771D01*
X197148628Y-195657200D01*
X198434342Y-196585771D02*
X198434342Y-195800057D01*
X198362914Y-195657200D01*
X198220057Y-195585771D01*
X197934342Y-195585771D01*
X197791485Y-195657200D01*
X198434342Y-196514342D02*
X198291485Y-196585771D01*
X197934342Y-196585771D01*
X197791485Y-196514342D01*
X197720057Y-196371485D01*
X197720057Y-196228628D01*
X197791485Y-196085771D01*
X197934342Y-196014342D01*
X198291485Y-196014342D01*
X198434342Y-195942914D01*
X199791485Y-196585771D02*
X199791485Y-195085771D01*
X199791485Y-196514342D02*
X199648628Y-196585771D01*
X199362914Y-196585771D01*
X199220057Y-196514342D01*
X199148628Y-196442914D01*
X199077200Y-196300057D01*
X199077200Y-195871485D01*
X199148628Y-195728628D01*
X199220057Y-195657200D01*
X199362914Y-195585771D01*
X199648628Y-195585771D01*
X199791485Y-195657200D01*
X202362914Y-195085771D02*
X201648628Y-195085771D01*
X201577200Y-195800057D01*
X201648628Y-195728628D01*
X201791485Y-195657200D01*
X202148628Y-195657200D01*
X202291485Y-195728628D01*
X202362914Y-195800057D01*
X202434342Y-195942914D01*
X202434342Y-196300057D01*
X202362914Y-196442914D01*
X202291485Y-196514342D01*
X202148628Y-196585771D01*
X201791485Y-196585771D01*
X201648628Y-196514342D01*
X201577200Y-196442914D01*
X203077200Y-196442914D02*
X203148628Y-196514342D01*
X203077200Y-196585771D01*
X203005771Y-196514342D01*
X203077200Y-196442914D01*
X203077200Y-196585771D01*
X204577200Y-196585771D02*
X203720057Y-196585771D01*
X204148628Y-196585771D02*
X204148628Y-195085771D01*
X204005771Y-195300057D01*
X203862914Y-195442914D01*
X203720057Y-195514342D01*
X205220057Y-196442914D02*
X205291485Y-196514342D01*
X205220057Y-196585771D01*
X205148628Y-196514342D01*
X205220057Y-196442914D01*
X205220057Y-196585771D01*
X206648628Y-195085771D02*
X205934342Y-195085771D01*
X205862914Y-195800057D01*
X205934342Y-195728628D01*
X206077200Y-195657200D01*
X206434342Y-195657200D01*
X206577200Y-195728628D01*
X206648628Y-195800057D01*
X206720057Y-195942914D01*
X206720057Y-196300057D01*
X206648628Y-196442914D01*
X206577200Y-196514342D01*
X206434342Y-196585771D01*
X206077200Y-196585771D01*
X205934342Y-196514342D01*
X205862914Y-196442914D01*
X207362914Y-196014342D02*
X208505771Y-196014342D01*
X207934342Y-196585771D02*
X207934342Y-195442914D01*
X209862914Y-196585771D02*
X209862914Y-195085771D01*
X209862914Y-196514342D02*
X209720057Y-196585771D01*
X209434342Y-196585771D01*
X209291485Y-196514342D01*
X209220057Y-196442914D01*
X209148628Y-196300057D01*
X209148628Y-195871485D01*
X209220057Y-195728628D01*
X209291485Y-195657200D01*
X209434342Y-195585771D01*
X209720057Y-195585771D01*
X209862914Y-195657200D01*
X210362914Y-195585771D02*
X210934342Y-195585771D01*
X210577200Y-196585771D02*
X210577200Y-195300057D01*
X210648628Y-195157200D01*
X210791485Y-195085771D01*
X210934342Y-195085771D01*
X211362914Y-196514342D02*
X211505771Y-196585771D01*
X211791485Y-196585771D01*
X211934342Y-196514342D01*
X212005771Y-196371485D01*
X212005771Y-196300057D01*
X211934342Y-196157200D01*
X211791485Y-196085771D01*
X211577200Y-196085771D01*
X211434342Y-196014342D01*
X211362914Y-195871485D01*
X211362914Y-195800057D01*
X211434342Y-195657200D01*
X211577200Y-195585771D01*
X211791485Y-195585771D01*
X211934342Y-195657200D01*
X213291485Y-195585771D02*
X213291485Y-196800057D01*
X213220057Y-196942914D01*
X213148628Y-197014342D01*
X213005771Y-197085771D01*
X212791485Y-197085771D01*
X212648628Y-197014342D01*
X213291485Y-196514342D02*
X213148628Y-196585771D01*
X212862914Y-196585771D01*
X212720057Y-196514342D01*
X212648628Y-196442914D01*
X212577200Y-196300057D01*
X212577200Y-195871485D01*
X212648628Y-195728628D01*
X212720057Y-195657200D01*
X212862914Y-195585771D01*
X213148628Y-195585771D01*
X213291485Y-195657200D01*
X214791485Y-196585771D02*
X213934342Y-196585771D01*
X214362914Y-196585771D02*
X214362914Y-195085771D01*
X214220057Y-195300057D01*
X214077200Y-195442914D01*
X213934342Y-195514342D01*
X215434342Y-196014342D02*
X216577200Y-196014342D01*
X217220057Y-195228628D02*
X217291485Y-195157200D01*
X217434342Y-195085771D01*
X217791485Y-195085771D01*
X217934342Y-195157200D01*
X218005771Y-195228628D01*
X218077200Y-195371485D01*
X218077200Y-195514342D01*
X218005771Y-195728628D01*
X217148628Y-196585771D01*
X218077200Y-196585771D01*
X218720057Y-196585771D02*
X218720057Y-195085771D01*
X218720057Y-195657200D02*
X218862914Y-195585771D01*
X219148628Y-195585771D01*
X219291485Y-195657200D01*
X219362914Y-195728628D01*
X219434342Y-195871485D01*
X219434342Y-196300057D01*
X219362914Y-196442914D01*
X219291485Y-196514342D01*
X219148628Y-196585771D01*
X218862914Y-196585771D01*
X218720057Y-196514342D01*
X220720057Y-195585771D02*
X220720057Y-196585771D01*
X220077200Y-195585771D02*
X220077200Y-196371485D01*
X220148628Y-196514342D01*
X220291485Y-196585771D01*
X220505771Y-196585771D01*
X220648628Y-196514342D01*
X220720057Y-196442914D01*
X221434342Y-196585771D02*
X221434342Y-195585771D01*
X221434342Y-195085771D02*
X221362914Y-195157200D01*
X221434342Y-195228628D01*
X221505771Y-195157200D01*
X221434342Y-195085771D01*
X221434342Y-195228628D01*
X222362914Y-196585771D02*
X222220057Y-196514342D01*
X222148628Y-196371485D01*
X222148628Y-195085771D01*
X223577200Y-196585771D02*
X223577200Y-195085771D01*
X223577200Y-196514342D02*
X223434342Y-196585771D01*
X223148628Y-196585771D01*
X223005771Y-196514342D01*
X222934342Y-196442914D01*
X222862914Y-196300057D01*
X222862914Y-195871485D01*
X222934342Y-195728628D01*
X223005771Y-195657200D01*
X223148628Y-195585771D01*
X223434342Y-195585771D01*
X223577200Y-195657200D01*
X224220057Y-195228628D02*
X224291485Y-195157200D01*
X224434342Y-195085771D01*
X224791485Y-195085771D01*
X224934342Y-195157200D01*
X225005771Y-195228628D01*
X225077200Y-195371485D01*
X225077200Y-195514342D01*
X225005771Y-195728628D01*
X224148628Y-196585771D01*
X225077200Y-196585771D01*
D10*
D11*
X177002200Y-191507200D02*
X285002200Y-191507200D01*
D10*
D12*
X264411485Y-193785771D02*
X263911485Y-193071485D01*
X263554342Y-193785771D02*
X263554342Y-192285771D01*
X264125771Y-192285771D01*
X264268628Y-192357200D01*
X264340057Y-192428628D01*
X264411485Y-192571485D01*
X264411485Y-192785771D01*
X264340057Y-192928628D01*
X264268628Y-193000057D01*
X264125771Y-193071485D01*
X263554342Y-193071485D01*
X265625771Y-193714342D02*
X265482914Y-193785771D01*
X265197200Y-193785771D01*
X265054342Y-193714342D01*
X264982914Y-193571485D01*
X264982914Y-193000057D01*
X265054342Y-192857200D01*
X265197200Y-192785771D01*
X265482914Y-192785771D01*
X265625771Y-192857200D01*
X265697200Y-193000057D01*
X265697200Y-193142914D01*
X264982914Y-193285771D01*
X266197200Y-192785771D02*
X266554342Y-193785771D01*
X266911485Y-192785771D01*
X267482914Y-193642914D02*
X267554342Y-193714342D01*
X267482914Y-193785771D01*
X267411485Y-193714342D01*
X267482914Y-193642914D01*
X267482914Y-193785771D01*
X267482914Y-192857200D02*
X267554342Y-192928628D01*
X267482914Y-193000057D01*
X267411485Y-192928628D01*
X267482914Y-192857200D01*
X267482914Y-193000057D01*
D10*
D11*
X178362914Y-193714342D02*
X178577200Y-193785771D01*
X178934342Y-193785771D01*
X179077200Y-193714342D01*
X179148628Y-193642914D01*
X179220057Y-193500057D01*
X179220057Y-193357200D01*
X179148628Y-193214342D01*
X179077200Y-193142914D01*
X178934342Y-193071485D01*
X178648628Y-193000057D01*
X178505771Y-192928628D01*
X178434342Y-192857200D01*
X178362914Y-192714342D01*
X178362914Y-192571485D01*
X178434342Y-192428628D01*
X178505771Y-192357200D01*
X178648628Y-192285771D01*
X179005771Y-192285771D01*
X179220057Y-192357200D01*
X179862914Y-193785771D02*
X179862914Y-192785771D01*
X179862914Y-192285771D02*
X179791485Y-192357200D01*
X179862914Y-192428628D01*
X179934342Y-192357200D01*
X179862914Y-192285771D01*
X179862914Y-192428628D01*
X180434342Y-192785771D02*
X181220057Y-192785771D01*
X180434342Y-193785771D01*
X181220057Y-193785771D01*
X182362914Y-193714342D02*
X182220057Y-193785771D01*
X181934342Y-193785771D01*
X181791485Y-193714342D01*
X181720057Y-193571485D01*
X181720057Y-193000057D01*
X181791485Y-192857200D01*
X181934342Y-192785771D01*
X182220057Y-192785771D01*
X182362914Y-192857200D01*
X182434342Y-193000057D01*
X182434342Y-193142914D01*
X181720057Y-193285771D01*
X183077200Y-193642914D02*
X183148628Y-193714342D01*
X183077200Y-193785771D01*
X183005771Y-193714342D01*
X183077200Y-193642914D01*
X183077200Y-193785771D01*
X183077200Y-192857200D02*
X183148628Y-192928628D01*
X183077200Y-193000057D01*
X183005771Y-192928628D01*
X183077200Y-192857200D01*
X183077200Y-193000057D01*
X184862914Y-193357200D02*
X185577200Y-193357200D01*
X184720057Y-193785771D02*
X185220057Y-192285771D01*
X185720057Y-193785771D01*
X186862914Y-192785771D02*
X186862914Y-193785771D01*
X186505771Y-192214342D02*
X186148628Y-193285771D01*
X187077200Y-193285771D01*
D10*
D11*
X263434342Y-196585771D02*
X263434342Y-195085771D01*
X264791485Y-196585771D02*
X264791485Y-195085771D01*
X264791485Y-196514342D02*
X264648628Y-196585771D01*
X264362914Y-196585771D01*
X264220057Y-196514342D01*
X264148628Y-196442914D01*
X264077200Y-196300057D01*
X264077200Y-195871485D01*
X264148628Y-195728628D01*
X264220057Y-195657200D01*
X264362914Y-195585771D01*
X264648628Y-195585771D01*
X264791485Y-195657200D01*
X265505771Y-196442914D02*
X265577200Y-196514342D01*
X265505771Y-196585771D01*
X265434342Y-196514342D01*
X265505771Y-196442914D01*
X265505771Y-196585771D01*
X265505771Y-195657200D02*
X265577200Y-195728628D01*
X265505771Y-195800057D01*
X265434342Y-195728628D01*
X265505771Y-195657200D01*
X265505771Y-195800057D01*
X268148628Y-196585771D02*
X267291485Y-196585771D01*
X267720057Y-196585771D02*
X267720057Y-195085771D01*
X267577200Y-195300057D01*
X267434342Y-195442914D01*
X267291485Y-195514342D01*
X269862914Y-195014342D02*
X268577200Y-196942914D01*
X271148628Y-196585771D02*
X270291485Y-196585771D01*
X270720057Y-196585771D02*
X270720057Y-195085771D01*
X270577200Y-195300057D01*
X270434342Y-195442914D01*
X270291485Y-195514342D01*
D10*
D11*
X177002200Y-187507200D02*
X285002200Y-187507200D01*
D10*
D13*
X178714580Y-188211961D02*
X179857438Y-188211961D01*
X179036009Y-190211961D02*
X179286009Y-188211961D01*
X180274104Y-190211961D02*
X180440771Y-188878628D01*
X180524104Y-188211961D02*
X180416961Y-188307200D01*
X180500295Y-188402438D01*
X180607438Y-188307200D01*
X180524104Y-188211961D01*
X180500295Y-188402438D01*
X181107438Y-188878628D02*
X181869342Y-188878628D01*
X181476485Y-188211961D02*
X181262200Y-189926247D01*
X181333628Y-190116723D01*
X181512200Y-190211961D01*
X181702676Y-190211961D01*
X182655057Y-190211961D02*
X182476485Y-190116723D01*
X182405057Y-189926247D01*
X182619342Y-188211961D01*
X184190771Y-190116723D02*
X183988390Y-190211961D01*
X183607438Y-190211961D01*
X183428866Y-190116723D01*
X183357438Y-189926247D01*
X183452676Y-189164342D01*
X183571723Y-188973866D01*
X183774104Y-188878628D01*
X184155057Y-188878628D01*
X184333628Y-188973866D01*
X184405057Y-189164342D01*
X184381247Y-189354819D01*
X183405057Y-189545295D01*
X185155057Y-190021485D02*
X185238390Y-190116723D01*
X185131247Y-190211961D01*
X185047914Y-190116723D01*
X185155057Y-190021485D01*
X185131247Y-190211961D01*
X185286009Y-188973866D02*
X185369342Y-189069104D01*
X185262200Y-189164342D01*
X185178866Y-189069104D01*
X185286009Y-188973866D01*
X185262200Y-189164342D01*
D10*
D11*
X178934342Y-185600057D02*
X178434342Y-185600057D01*
X178434342Y-186385771D02*
X178434342Y-184885771D01*
X179148628Y-184885771D01*
X179720057Y-186385771D02*
X179720057Y-185385771D01*
X179720057Y-184885771D02*
X179648628Y-184957200D01*
X179720057Y-185028628D01*
X179791485Y-184957200D01*
X179720057Y-184885771D01*
X179720057Y-185028628D01*
X180648628Y-186385771D02*
X180505771Y-186314342D01*
X180434342Y-186171485D01*
X180434342Y-184885771D01*
X181791485Y-186314342D02*
X181648628Y-186385771D01*
X181362914Y-186385771D01*
X181220057Y-186314342D01*
X181148628Y-186171485D01*
X181148628Y-185600057D01*
X181220057Y-185457200D01*
X181362914Y-185385771D01*
X181648628Y-185385771D01*
X181791485Y-185457200D01*
X181862914Y-185600057D01*
X181862914Y-185742914D01*
X181148628Y-185885771D01*
X182505771Y-186242914D02*
X182577200Y-186314342D01*
X182505771Y-186385771D01*
X182434342Y-186314342D01*
X182505771Y-186242914D01*
X182505771Y-186385771D01*
X182505771Y-185457200D02*
X182577200Y-185528628D01*
X182505771Y-185600057D01*
X182434342Y-185528628D01*
X182505771Y-185457200D01*
X182505771Y-185600057D01*
X184362914Y-186385771D02*
X184362914Y-184885771D01*
X184720057Y-184885771D01*
X184934342Y-184957200D01*
X185077200Y-185100057D01*
X185148628Y-185242914D01*
X185220057Y-185528628D01*
X185220057Y-185742914D01*
X185148628Y-186028628D01*
X185077200Y-186171485D01*
X184934342Y-186314342D01*
X184720057Y-186385771D01*
X184362914Y-186385771D01*
X186077200Y-186385771D02*
X185934342Y-186314342D01*
X185862914Y-186242914D01*
X185791485Y-186100057D01*
X185791485Y-185671485D01*
X185862914Y-185528628D01*
X185934342Y-185457200D01*
X186077200Y-185385771D01*
X186291485Y-185385771D01*
X186434342Y-185457200D01*
X186505771Y-185528628D01*
X186577200Y-185671485D01*
X186577200Y-186100057D01*
X186505771Y-186242914D01*
X186434342Y-186314342D01*
X186291485Y-186385771D01*
X186077200Y-186385771D01*
X187220057Y-186385771D02*
X187220057Y-185385771D01*
X187220057Y-185528628D02*
X187291485Y-185457200D01*
X187434342Y-185385771D01*
X187648628Y-185385771D01*
X187791485Y-185457200D01*
X187862914Y-185600057D01*
X187862914Y-186385771D01*
X187862914Y-185600057D02*
X187934342Y-185457200D01*
X188077200Y-185385771D01*
X188291485Y-185385771D01*
X188434342Y-185457200D01*
X188505771Y-185600057D01*
X188505771Y-186385771D01*
X189220057Y-186385771D02*
X189220057Y-184885771D01*
X189791485Y-184885771D01*
X189934342Y-184957200D01*
X190005771Y-185028628D01*
X190077200Y-185171485D01*
X190077200Y-185385771D01*
X190005771Y-185528628D01*
X189934342Y-185600057D01*
X189791485Y-185671485D01*
X189220057Y-185671485D01*
X190720057Y-186385771D02*
X190720057Y-185385771D01*
X190720057Y-184885771D02*
X190648628Y-184957200D01*
X190720057Y-185028628D01*
X190791485Y-184957200D01*
X190720057Y-184885771D01*
X190720057Y-185028628D01*
X191291485Y-184885771D02*
X191648628Y-186385771D01*
X191934342Y-185314342D01*
X192220057Y-186385771D01*
X192577200Y-184885771D01*
X193720057Y-186314342D02*
X193577200Y-186385771D01*
X193291485Y-186385771D01*
X193148628Y-186314342D01*
X193077200Y-186171485D01*
X193077200Y-185600057D01*
X193148628Y-185457200D01*
X193291485Y-185385771D01*
X193577200Y-185385771D01*
X193720057Y-185457200D01*
X193791485Y-185600057D01*
X193791485Y-185742914D01*
X193077200Y-185885771D01*
X194434342Y-186385771D02*
X194434342Y-184885771D01*
X194434342Y-185457200D02*
X194577200Y-185385771D01*
X194862914Y-185385771D01*
X195005771Y-185457200D01*
X195077200Y-185528628D01*
X195148628Y-185671485D01*
X195148628Y-186100057D01*
X195077200Y-186242914D01*
X195005771Y-186314342D01*
X194862914Y-186385771D01*
X194577200Y-186385771D01*
X194434342Y-186314342D01*
X195791485Y-186242914D02*
X195862914Y-186314342D01*
X195791485Y-186385771D01*
X195720057Y-186314342D01*
X195791485Y-186242914D01*
X195791485Y-186385771D01*
X196505771Y-186385771D02*
X196505771Y-184885771D01*
X196648628Y-185814342D02*
X197077200Y-186385771D01*
X197077200Y-185385771D02*
X196505771Y-185957200D01*
X197720057Y-186385771D02*
X197720057Y-185385771D01*
X197720057Y-184885771D02*
X197648628Y-184957200D01*
X197720057Y-185028628D01*
X197791485Y-184957200D01*
X197720057Y-184885771D01*
X197720057Y-185028628D01*
X199077200Y-186314342D02*
X198934342Y-186385771D01*
X198648628Y-186385771D01*
X198505771Y-186314342D01*
X198434342Y-186242914D01*
X198362914Y-186100057D01*
X198362914Y-185671485D01*
X198434342Y-185528628D01*
X198505771Y-185457200D01*
X198648628Y-185385771D01*
X198934342Y-185385771D01*
X199077200Y-185457200D01*
X200362914Y-186385771D02*
X200362914Y-185600057D01*
X200291485Y-185457200D01*
X200148628Y-185385771D01*
X199862914Y-185385771D01*
X199720057Y-185457200D01*
X200362914Y-186314342D02*
X200220057Y-186385771D01*
X199862914Y-186385771D01*
X199720057Y-186314342D01*
X199648628Y-186171485D01*
X199648628Y-186028628D01*
X199720057Y-185885771D01*
X199862914Y-185814342D01*
X200220057Y-185814342D01*
X200362914Y-185742914D01*
X201720057Y-186385771D02*
X201720057Y-184885771D01*
X201720057Y-186314342D02*
X201577200Y-186385771D01*
X201291485Y-186385771D01*
X201148628Y-186314342D01*
X201077200Y-186242914D01*
X201005771Y-186100057D01*
X201005771Y-185671485D01*
X201077200Y-185528628D01*
X201148628Y-185457200D01*
X201291485Y-185385771D01*
X201577200Y-185385771D01*
X201720057Y-185457200D01*
X202077200Y-186528628D02*
X203220057Y-186528628D01*
X203577200Y-185385771D02*
X203577200Y-186885771D01*
X203577200Y-185457200D02*
X203720057Y-185385771D01*
X204005771Y-185385771D01*
X204148628Y-185457200D01*
X204220057Y-185528628D01*
X204291485Y-185671485D01*
X204291485Y-186100057D01*
X204220057Y-186242914D01*
X204148628Y-186314342D01*
X204005771Y-186385771D01*
X203720057Y-186385771D01*
X203577200Y-186314342D01*
X205577200Y-186314342D02*
X205434342Y-186385771D01*
X205148628Y-186385771D01*
X205005771Y-186314342D01*
X204934342Y-186242914D01*
X204862914Y-186100057D01*
X204862914Y-185671485D01*
X204934342Y-185528628D01*
X205005771Y-185457200D01*
X205148628Y-185385771D01*
X205434342Y-185385771D01*
X205577200Y-185457200D01*
X206220057Y-186385771D02*
X206220057Y-184885771D01*
X206220057Y-185457200D02*
X206362914Y-185385771D01*
X206648628Y-185385771D01*
X206791485Y-185457200D01*
X206862914Y-185528628D01*
X206934342Y-185671485D01*
X206934342Y-186100057D01*
X206862914Y-186242914D01*
X206791485Y-186314342D01*
X206648628Y-186385771D01*
X206362914Y-186385771D01*
X206220057Y-186314342D01*
D10*
D11*
X177002200Y-181507200D02*
X285002200Y-181507200D01*
D10*
D11*
X178362914Y-183614342D02*
X178577200Y-183685771D01*
X178934342Y-183685771D01*
X179077200Y-183614342D01*
X179148628Y-183542914D01*
X179220057Y-183400057D01*
X179220057Y-183257200D01*
X179148628Y-183114342D01*
X179077200Y-183042914D01*
X178934342Y-182971485D01*
X178648628Y-182900057D01*
X178505771Y-182828628D01*
X178434342Y-182757200D01*
X178362914Y-182614342D01*
X178362914Y-182471485D01*
X178434342Y-182328628D01*
X178505771Y-182257200D01*
X178648628Y-182185771D01*
X179005771Y-182185771D01*
X179220057Y-182257200D01*
X179862914Y-183685771D02*
X179862914Y-182185771D01*
X180505771Y-183685771D02*
X180505771Y-182900057D01*
X180434342Y-182757200D01*
X180291485Y-182685771D01*
X180077200Y-182685771D01*
X179934342Y-182757200D01*
X179862914Y-182828628D01*
X181791485Y-183614342D02*
X181648628Y-183685771D01*
X181362914Y-183685771D01*
X181220057Y-183614342D01*
X181148628Y-183471485D01*
X181148628Y-182900057D01*
X181220057Y-182757200D01*
X181362914Y-182685771D01*
X181648628Y-182685771D01*
X181791485Y-182757200D01*
X181862914Y-182900057D01*
X181862914Y-183042914D01*
X181148628Y-183185771D01*
X183077200Y-183614342D02*
X182934342Y-183685771D01*
X182648628Y-183685771D01*
X182505771Y-183614342D01*
X182434342Y-183471485D01*
X182434342Y-182900057D01*
X182505771Y-182757200D01*
X182648628Y-182685771D01*
X182934342Y-182685771D01*
X183077200Y-182757200D01*
X183148628Y-182900057D01*
X183148628Y-183042914D01*
X182434342Y-183185771D01*
X183577200Y-182685771D02*
X184148628Y-182685771D01*
X183791485Y-182185771D02*
X183791485Y-183471485D01*
X183862914Y-183614342D01*
X184005771Y-183685771D01*
X184148628Y-183685771D01*
X184648628Y-183542914D02*
X184720057Y-183614342D01*
X184648628Y-183685771D01*
X184577200Y-183614342D01*
X184648628Y-183542914D01*
X184648628Y-183685771D01*
X184648628Y-182757200D02*
X184720057Y-182828628D01*
X184648628Y-182900057D01*
X184577200Y-182828628D01*
X184648628Y-182757200D01*
X184648628Y-182900057D01*
D10*
D11*
X197002200Y-191507200D02*
X197002200Y-194507200D01*
D10*
D11*
X261002200Y-191507200D02*
X261002200Y-198007200D01*
D14*
X100950000Y-95800000D02*
X102450000Y-95800000D01*
X102450000Y-95800000D02*
X102450000Y-96750000D01*
X102450000Y-96750000D02*
X107575000Y-96750000D01*
X100950000Y-106200000D02*
X102450000Y-106200000D01*
X102450000Y-106200000D02*
X102450000Y-105250000D01*
X102450000Y-105250000D02*
X103550000Y-105250000D01*
X105580000Y-92140000D02*
X105580000Y-94860000D01*
X105580000Y-94860000D02*
X100600000Y-94860000D01*
X105580000Y-92140000D02*
X100600000Y-92140000D01*
X149590000Y-91330000D02*
X149590000Y-88730000D01*
X149590000Y-91330000D02*
X98670000Y-91330000D01*
X98670000Y-91330000D02*
X98670000Y-86130000D01*
X146990000Y-86130000D02*
X98670000Y-86130000D01*
X146990000Y-88730000D02*
X146990000Y-86130000D01*
X149590000Y-88730000D02*
X146990000Y-88730000D01*
X149590000Y-86130000D02*
X148260000Y-86130000D01*
X149590000Y-87460000D02*
X149590000Y-86130000D01*
X99765000Y-116776248D02*
X99765000Y-117298752D01*
X101235000Y-116776248D02*
X101235000Y-117298752D01*
X104765000Y-116738748D02*
X104765000Y-117261252D01*
X106235000Y-116738748D02*
X106235000Y-117261252D01*
X109765000Y-116776248D02*
X109765000Y-117298752D01*
X111235000Y-116776248D02*
X111235000Y-117298752D01*
X114765000Y-116776248D02*
X114765000Y-117298752D01*
X116235000Y-116776248D02*
X116235000Y-117298752D01*
X119765000Y-116776248D02*
X119765000Y-117298752D01*
X121235000Y-116776248D02*
X121235000Y-117298752D01*
X124765000Y-116776248D02*
X124765000Y-117298752D01*
X126235000Y-116776248D02*
X126235000Y-117298752D01*
X129765000Y-116738748D02*
X129765000Y-117261252D01*
X131235000Y-116738748D02*
X131235000Y-117261252D01*
X134765000Y-116738748D02*
X134765000Y-117261252D01*
X136235000Y-116738748D02*
X136235000Y-117261252D01*
X95201248Y-117235000D02*
X95723752Y-117235000D01*
X95201248Y-115765000D02*
X95723752Y-115765000D01*
X138515000Y-70038748D02*
X138515000Y-70561252D01*
X139985000Y-70038748D02*
X139985000Y-70561252D01*
X157776248Y-114735000D02*
X158298752Y-114735000D01*
X157776248Y-113265000D02*
X158298752Y-113265000D01*
X115723752Y-67765000D02*
X115201248Y-67765000D01*
X115723752Y-69235000D02*
X115201248Y-69235000D01*
X138735000Y-109227064D02*
X138735000Y-108772936D01*
X137265000Y-109227064D02*
X137265000Y-108772936D01*
X133735000Y-109227064D02*
X133735000Y-108772936D01*
X132265000Y-109227064D02*
X132265000Y-108772936D01*
X128735000Y-109227064D02*
X128735000Y-108772936D01*
X127265000Y-109227064D02*
X127265000Y-108772936D01*
X123735000Y-109227064D02*
X123735000Y-108772936D01*
X122265000Y-109227064D02*
X122265000Y-108772936D01*
X118735000Y-109227064D02*
X118735000Y-108772936D01*
X117265000Y-109227064D02*
X117265000Y-108772936D01*
X113735000Y-109227064D02*
X113735000Y-108772936D01*
X112265000Y-109227064D02*
X112265000Y-108772936D01*
X108735000Y-109227064D02*
X108735000Y-108772936D01*
X107265000Y-109227064D02*
X107265000Y-108772936D01*
X103735000Y-109227064D02*
X103735000Y-108772936D01*
X102265000Y-109227064D02*
X102265000Y-108772936D01*
X143235000Y-113727064D02*
X143235000Y-113272936D01*
X141765000Y-113727064D02*
X141765000Y-113272936D01*
X148765000Y-107272936D02*
X148765000Y-107727064D01*
X150235000Y-107272936D02*
X150235000Y-107727064D01*
X148765000Y-113272936D02*
X148765000Y-113727064D01*
X150235000Y-113272936D02*
X150235000Y-113727064D01*
X156227064Y-110765000D02*
X155772936Y-110765000D01*
X156227064Y-112235000D02*
X155772936Y-112235000D01*
X156227064Y-108265000D02*
X155772936Y-108265000D01*
X156227064Y-109735000D02*
X155772936Y-109735000D01*
X163727064Y-108265000D02*
X163272936Y-108265000D01*
X163727064Y-109735000D02*
X163272936Y-109735000D01*
X159772936Y-112235000D02*
X160227064Y-112235000D01*
X159772936Y-110765000D02*
X160227064Y-110765000D01*
X145265000Y-107272936D02*
X145265000Y-107727064D01*
X146735000Y-107272936D02*
X146735000Y-107727064D01*
X146735000Y-113727064D02*
X146735000Y-113272936D01*
X145265000Y-113727064D02*
X145265000Y-113272936D01*
X156400000Y-74890000D02*
X152890000Y-74890000D01*
X152890000Y-95600000D02*
X152890000Y-99110000D01*
X156400000Y-99110000D02*
X152890000Y-99110000D01*
X177110000Y-95600000D02*
X177110000Y-99110000D01*
X177000000Y-74890000D02*
X173600000Y-74890000D01*
X152890000Y-74890000D02*
X152890000Y-78400000D01*
X177110000Y-99110000D02*
X173600000Y-99110000D01*
D11*
X100261904Y-93802380D02*
X100261904Y-94611904D01*
X100214285Y-94707142D01*
X100166666Y-94754761D01*
X100071428Y-94802380D01*
X99880952Y-94802380D01*
X99785714Y-94754761D01*
X99738095Y-94707142D01*
X99690476Y-94611904D01*
X99690476Y-93802380D01*
X98690476Y-94802380D02*
X99261904Y-94802380D01*
X98976190Y-94802380D02*
X98976190Y-93802380D01*
X99071428Y-93945238D01*
X99166666Y-94040476D01*
X99261904Y-94088095D01*
X103238095Y-91952380D02*
X103238095Y-90952380D01*
X103000000Y-90952380D01*
X102857142Y-91000000D01*
X102761904Y-91095238D01*
X102714285Y-91190476D01*
X102666666Y-91380952D01*
X102666666Y-91523809D01*
X102714285Y-91714285D01*
X102761904Y-91809523D01*
X102857142Y-91904761D01*
X103000000Y-91952380D01*
X103238095Y-91952380D01*
X102333333Y-90952380D02*
X101714285Y-90952380D01*
X102047619Y-91333333D01*
X101904761Y-91333333D01*
X101809523Y-91380952D01*
X101761904Y-91428571D01*
X101714285Y-91523809D01*
X101714285Y-91761904D01*
X101761904Y-91857142D01*
X101809523Y-91904761D01*
X101904761Y-91952380D01*
X102190476Y-91952380D01*
X102285714Y-91904761D01*
X102333333Y-91857142D01*
X150482380Y-88396666D02*
X151196666Y-88396666D01*
X151339523Y-88349047D01*
X151434761Y-88253809D01*
X151482380Y-88110952D01*
X151482380Y-88015714D01*
X150482380Y-89301428D02*
X150482380Y-89110952D01*
X150530000Y-89015714D01*
X150577619Y-88968095D01*
X150720476Y-88872857D01*
X150910952Y-88825238D01*
X151291904Y-88825238D01*
X151387142Y-88872857D01*
X151434761Y-88920476D01*
X151482380Y-89015714D01*
X151482380Y-89206190D01*
X151434761Y-89301428D01*
X151387142Y-89349047D01*
X151291904Y-89396666D01*
X151053809Y-89396666D01*
X150958571Y-89349047D01*
X150910952Y-89301428D01*
X150863333Y-89206190D01*
X150863333Y-89015714D01*
X150910952Y-88920476D01*
X150958571Y-88872857D01*
X151053809Y-88825238D01*
X99177142Y-116394642D02*
X99224761Y-116347023D01*
X99272380Y-116204166D01*
X99272380Y-116108928D01*
X99224761Y-115966071D01*
X99129523Y-115870833D01*
X99034285Y-115823214D01*
X98843809Y-115775595D01*
X98700952Y-115775595D01*
X98510476Y-115823214D01*
X98415238Y-115870833D01*
X98320000Y-115966071D01*
X98272380Y-116108928D01*
X98272380Y-116204166D01*
X98320000Y-116347023D01*
X98367619Y-116394642D01*
X99272380Y-117347023D02*
X99272380Y-116775595D01*
X99272380Y-117061309D02*
X98272380Y-117061309D01*
X98415238Y-116966071D01*
X98510476Y-116870833D01*
X98558095Y-116775595D01*
X98272380Y-117680357D02*
X98272380Y-118347023D01*
X99272380Y-117918452D01*
X104177142Y-116357142D02*
X104224761Y-116309523D01*
X104272380Y-116166666D01*
X104272380Y-116071428D01*
X104224761Y-115928571D01*
X104129523Y-115833333D01*
X104034285Y-115785714D01*
X103843809Y-115738095D01*
X103700952Y-115738095D01*
X103510476Y-115785714D01*
X103415238Y-115833333D01*
X103320000Y-115928571D01*
X103272380Y-116071428D01*
X103272380Y-116166666D01*
X103320000Y-116309523D01*
X103367619Y-116357142D01*
X104272380Y-117309523D02*
X104272380Y-116738095D01*
X104272380Y-117023809D02*
X103272380Y-117023809D01*
X103415238Y-116928571D01*
X103510476Y-116833333D01*
X103558095Y-116738095D01*
X103272380Y-118166666D02*
X103272380Y-117976190D01*
X103320000Y-117880952D01*
X103367619Y-117833333D01*
X103510476Y-117738095D01*
X103700952Y-117690476D01*
X104081904Y-117690476D01*
X104177142Y-117738095D01*
X104224761Y-117785714D01*
X104272380Y-117880952D01*
X104272380Y-118071428D01*
X104224761Y-118166666D01*
X104177142Y-118214285D01*
X104081904Y-118261904D01*
X103843809Y-118261904D01*
X103748571Y-118214285D01*
X103700952Y-118166666D01*
X103653333Y-118071428D01*
X103653333Y-117880952D01*
X103700952Y-117785714D01*
X103748571Y-117738095D01*
X103843809Y-117690476D01*
X109177142Y-116394642D02*
X109224761Y-116347023D01*
X109272380Y-116204166D01*
X109272380Y-116108928D01*
X109224761Y-115966071D01*
X109129523Y-115870833D01*
X109034285Y-115823214D01*
X108843809Y-115775595D01*
X108700952Y-115775595D01*
X108510476Y-115823214D01*
X108415238Y-115870833D01*
X108320000Y-115966071D01*
X108272380Y-116108928D01*
X108272380Y-116204166D01*
X108320000Y-116347023D01*
X108367619Y-116394642D01*
X109272380Y-117347023D02*
X109272380Y-116775595D01*
X109272380Y-117061309D02*
X108272380Y-117061309D01*
X108415238Y-116966071D01*
X108510476Y-116870833D01*
X108558095Y-116775595D01*
X108272380Y-118251785D02*
X108272380Y-117775595D01*
X108748571Y-117727976D01*
X108700952Y-117775595D01*
X108653333Y-117870833D01*
X108653333Y-118108928D01*
X108700952Y-118204166D01*
X108748571Y-118251785D01*
X108843809Y-118299404D01*
X109081904Y-118299404D01*
X109177142Y-118251785D01*
X109224761Y-118204166D01*
X109272380Y-118108928D01*
X109272380Y-117870833D01*
X109224761Y-117775595D01*
X109177142Y-117727976D01*
X114177142Y-116394642D02*
X114224761Y-116347023D01*
X114272380Y-116204166D01*
X114272380Y-116108928D01*
X114224761Y-115966071D01*
X114129523Y-115870833D01*
X114034285Y-115823214D01*
X113843809Y-115775595D01*
X113700952Y-115775595D01*
X113510476Y-115823214D01*
X113415238Y-115870833D01*
X113320000Y-115966071D01*
X113272380Y-116108928D01*
X113272380Y-116204166D01*
X113320000Y-116347023D01*
X113367619Y-116394642D01*
X114272380Y-117347023D02*
X114272380Y-116775595D01*
X114272380Y-117061309D02*
X113272380Y-117061309D01*
X113415238Y-116966071D01*
X113510476Y-116870833D01*
X113558095Y-116775595D01*
X113605714Y-118204166D02*
X114272380Y-118204166D01*
X113224761Y-117966071D02*
X113939047Y-117727976D01*
X113939047Y-118347023D01*
X119177142Y-116394642D02*
X119224761Y-116347023D01*
X119272380Y-116204166D01*
X119272380Y-116108928D01*
X119224761Y-115966071D01*
X119129523Y-115870833D01*
X119034285Y-115823214D01*
X118843809Y-115775595D01*
X118700952Y-115775595D01*
X118510476Y-115823214D01*
X118415238Y-115870833D01*
X118320000Y-115966071D01*
X118272380Y-116108928D01*
X118272380Y-116204166D01*
X118320000Y-116347023D01*
X118367619Y-116394642D01*
X119272380Y-117347023D02*
X119272380Y-116775595D01*
X119272380Y-117061309D02*
X118272380Y-117061309D01*
X118415238Y-116966071D01*
X118510476Y-116870833D01*
X118558095Y-116775595D01*
X118272380Y-117680357D02*
X118272380Y-118299404D01*
X118653333Y-117966071D01*
X118653333Y-118108928D01*
X118700952Y-118204166D01*
X118748571Y-118251785D01*
X118843809Y-118299404D01*
X119081904Y-118299404D01*
X119177142Y-118251785D01*
X119224761Y-118204166D01*
X119272380Y-118108928D01*
X119272380Y-117823214D01*
X119224761Y-117727976D01*
X119177142Y-117680357D01*
X124177142Y-116394642D02*
X124224761Y-116347023D01*
X124272380Y-116204166D01*
X124272380Y-116108928D01*
X124224761Y-115966071D01*
X124129523Y-115870833D01*
X124034285Y-115823214D01*
X123843809Y-115775595D01*
X123700952Y-115775595D01*
X123510476Y-115823214D01*
X123415238Y-115870833D01*
X123320000Y-115966071D01*
X123272380Y-116108928D01*
X123272380Y-116204166D01*
X123320000Y-116347023D01*
X123367619Y-116394642D01*
X124272380Y-117347023D02*
X124272380Y-116775595D01*
X124272380Y-117061309D02*
X123272380Y-117061309D01*
X123415238Y-116966071D01*
X123510476Y-116870833D01*
X123558095Y-116775595D01*
X123367619Y-117727976D02*
X123320000Y-117775595D01*
X123272380Y-117870833D01*
X123272380Y-118108928D01*
X123320000Y-118204166D01*
X123367619Y-118251785D01*
X123462857Y-118299404D01*
X123558095Y-118299404D01*
X123700952Y-118251785D01*
X124272380Y-117680357D01*
X124272380Y-118299404D01*
X129177142Y-116357142D02*
X129224761Y-116309523D01*
X129272380Y-116166666D01*
X129272380Y-116071428D01*
X129224761Y-115928571D01*
X129129523Y-115833333D01*
X129034285Y-115785714D01*
X128843809Y-115738095D01*
X128700952Y-115738095D01*
X128510476Y-115785714D01*
X128415238Y-115833333D01*
X128320000Y-115928571D01*
X128272380Y-116071428D01*
X128272380Y-116166666D01*
X128320000Y-116309523D01*
X128367619Y-116357142D01*
X129272380Y-117309523D02*
X129272380Y-116738095D01*
X129272380Y-117023809D02*
X128272380Y-117023809D01*
X128415238Y-116928571D01*
X128510476Y-116833333D01*
X128558095Y-116738095D01*
X129272380Y-118261904D02*
X129272380Y-117690476D01*
X129272380Y-117976190D02*
X128272380Y-117976190D01*
X128415238Y-117880952D01*
X128510476Y-117785714D01*
X128558095Y-117690476D01*
X134177142Y-116357142D02*
X134224761Y-116309523D01*
X134272380Y-116166666D01*
X134272380Y-116071428D01*
X134224761Y-115928571D01*
X134129523Y-115833333D01*
X134034285Y-115785714D01*
X133843809Y-115738095D01*
X133700952Y-115738095D01*
X133510476Y-115785714D01*
X133415238Y-115833333D01*
X133320000Y-115928571D01*
X133272380Y-116071428D01*
X133272380Y-116166666D01*
X133320000Y-116309523D01*
X133367619Y-116357142D01*
X134272380Y-117309523D02*
X134272380Y-116738095D01*
X134272380Y-117023809D02*
X133272380Y-117023809D01*
X133415238Y-116928571D01*
X133510476Y-116833333D01*
X133558095Y-116738095D01*
X133272380Y-117928571D02*
X133272380Y-118023809D01*
X133320000Y-118119047D01*
X133367619Y-118166666D01*
X133462857Y-118214285D01*
X133653333Y-118261904D01*
X133891428Y-118261904D01*
X134081904Y-118214285D01*
X134177142Y-118166666D01*
X134224761Y-118119047D01*
X134272380Y-118023809D01*
X134272380Y-117928571D01*
X134224761Y-117833333D01*
X134177142Y-117785714D01*
X134081904Y-117738095D01*
X133891428Y-117690476D01*
X133653333Y-117690476D01*
X133462857Y-117738095D01*
X133367619Y-117785714D01*
X133320000Y-117833333D01*
X133272380Y-117928571D01*
X95629166Y-118537142D02*
X95676785Y-118584761D01*
X95819642Y-118632380D01*
X95914880Y-118632380D01*
X96057738Y-118584761D01*
X96152976Y-118489523D01*
X96200595Y-118394285D01*
X96248214Y-118203809D01*
X96248214Y-118060952D01*
X96200595Y-117870476D01*
X96152976Y-117775238D01*
X96057738Y-117680000D01*
X95914880Y-117632380D01*
X95819642Y-117632380D01*
X95676785Y-117680000D01*
X95629166Y-117727619D01*
X95152976Y-118632380D02*
X94962500Y-118632380D01*
X94867261Y-118584761D01*
X94819642Y-118537142D01*
X94724404Y-118394285D01*
X94676785Y-118203809D01*
X94676785Y-117822857D01*
X94724404Y-117727619D01*
X94772023Y-117680000D01*
X94867261Y-117632380D01*
X95057738Y-117632380D01*
X95152976Y-117680000D01*
X95200595Y-117727619D01*
X95248214Y-117822857D01*
X95248214Y-118060952D01*
X95200595Y-118156190D01*
X95152976Y-118203809D01*
X95057738Y-118251428D01*
X94867261Y-118251428D01*
X94772023Y-118203809D01*
X94724404Y-118156190D01*
X94676785Y-118060952D01*
X139607142Y-67133333D02*
X139654761Y-67085714D01*
X139702380Y-66942857D01*
X139702380Y-66847619D01*
X139654761Y-66704761D01*
X139559523Y-66609523D01*
X139464285Y-66561904D01*
X139273809Y-66514285D01*
X139130952Y-66514285D01*
X138940476Y-66561904D01*
X138845238Y-66609523D01*
X138750000Y-66704761D01*
X138702380Y-66847619D01*
X138702380Y-66942857D01*
X138750000Y-67085714D01*
X138797619Y-67133333D01*
X139130952Y-67704761D02*
X139083333Y-67609523D01*
X139035714Y-67561904D01*
X138940476Y-67514285D01*
X138892857Y-67514285D01*
X138797619Y-67561904D01*
X138750000Y-67609523D01*
X138702380Y-67704761D01*
X138702380Y-67895238D01*
X138750000Y-67990476D01*
X138797619Y-68038095D01*
X138892857Y-68085714D01*
X138940476Y-68085714D01*
X139035714Y-68038095D01*
X139083333Y-67990476D01*
X139130952Y-67895238D01*
X139130952Y-67704761D01*
X139178571Y-67609523D01*
X139226190Y-67561904D01*
X139321428Y-67514285D01*
X139511904Y-67514285D01*
X139607142Y-67561904D01*
X139654761Y-67609523D01*
X139702380Y-67704761D01*
X139702380Y-67895238D01*
X139654761Y-67990476D01*
X139607142Y-68038095D01*
X139511904Y-68085714D01*
X139321428Y-68085714D01*
X139226190Y-68038095D01*
X139178571Y-67990476D01*
X139130952Y-67895238D01*
X161666666Y-114357142D02*
X161714285Y-114404761D01*
X161857142Y-114452380D01*
X161952380Y-114452380D01*
X162095238Y-114404761D01*
X162190476Y-114309523D01*
X162238095Y-114214285D01*
X162285714Y-114023809D01*
X162285714Y-113880952D01*
X162238095Y-113690476D01*
X162190476Y-113595238D01*
X162095238Y-113500000D01*
X161952380Y-113452380D01*
X161857142Y-113452380D01*
X161714285Y-113500000D01*
X161666666Y-113547619D01*
X161333333Y-113452380D02*
X160666666Y-113452380D01*
X161095238Y-114452380D01*
X115629166Y-67177142D02*
X115676785Y-67224761D01*
X115819642Y-67272380D01*
X115914880Y-67272380D01*
X116057738Y-67224761D01*
X116152976Y-67129523D01*
X116200595Y-67034285D01*
X116248214Y-66843809D01*
X116248214Y-66700952D01*
X116200595Y-66510476D01*
X116152976Y-66415238D01*
X116057738Y-66320000D01*
X115914880Y-66272380D01*
X115819642Y-66272380D01*
X115676785Y-66320000D01*
X115629166Y-66367619D01*
X114772023Y-66272380D02*
X114962500Y-66272380D01*
X115057738Y-66320000D01*
X115105357Y-66367619D01*
X115200595Y-66510476D01*
X115248214Y-66700952D01*
X115248214Y-67081904D01*
X115200595Y-67177142D01*
X115152976Y-67224761D01*
X115057738Y-67272380D01*
X114867261Y-67272380D01*
X114772023Y-67224761D01*
X114724404Y-67177142D01*
X114676785Y-67081904D01*
X114676785Y-66843809D01*
X114724404Y-66748571D01*
X114772023Y-66700952D01*
X114867261Y-66653333D01*
X115057738Y-66653333D01*
X115152976Y-66700952D01*
X115200595Y-66748571D01*
X115248214Y-66843809D01*
X140102380Y-108357142D02*
X139626190Y-108023809D01*
X140102380Y-107785714D02*
X139102380Y-107785714D01*
X139102380Y-108166666D01*
X139150000Y-108261904D01*
X139197619Y-108309523D01*
X139292857Y-108357142D01*
X139435714Y-108357142D01*
X139530952Y-108309523D01*
X139578571Y-108261904D01*
X139626190Y-108166666D01*
X139626190Y-107785714D01*
X139435714Y-109214285D02*
X140102380Y-109214285D01*
X139054761Y-108976190D02*
X139769047Y-108738095D01*
X139769047Y-109357142D01*
X139102380Y-109928571D02*
X139102380Y-110023809D01*
X139150000Y-110119047D01*
X139197619Y-110166666D01*
X139292857Y-110214285D01*
X139483333Y-110261904D01*
X139721428Y-110261904D01*
X139911904Y-110214285D01*
X140007142Y-110166666D01*
X140054761Y-110119047D01*
X140102380Y-110023809D01*
X140102380Y-109928571D01*
X140054761Y-109833333D01*
X140007142Y-109785714D01*
X139911904Y-109738095D01*
X139721428Y-109690476D01*
X139483333Y-109690476D01*
X139292857Y-109738095D01*
X139197619Y-109785714D01*
X139150000Y-109833333D01*
X139102380Y-109928571D01*
X135102380Y-108357142D02*
X134626190Y-108023809D01*
X135102380Y-107785714D02*
X134102380Y-107785714D01*
X134102380Y-108166666D01*
X134150000Y-108261904D01*
X134197619Y-108309523D01*
X134292857Y-108357142D01*
X134435714Y-108357142D01*
X134530952Y-108309523D01*
X134578571Y-108261904D01*
X134626190Y-108166666D01*
X134626190Y-107785714D01*
X134102380Y-108690476D02*
X134102380Y-109309523D01*
X134483333Y-108976190D01*
X134483333Y-109119047D01*
X134530952Y-109214285D01*
X134578571Y-109261904D01*
X134673809Y-109309523D01*
X134911904Y-109309523D01*
X135007142Y-109261904D01*
X135054761Y-109214285D01*
X135102380Y-109119047D01*
X135102380Y-108833333D01*
X135054761Y-108738095D01*
X135007142Y-108690476D01*
X135102380Y-109785714D02*
X135102380Y-109976190D01*
X135054761Y-110071428D01*
X135007142Y-110119047D01*
X134864285Y-110214285D01*
X134673809Y-110261904D01*
X134292857Y-110261904D01*
X134197619Y-110214285D01*
X134150000Y-110166666D01*
X134102380Y-110071428D01*
X134102380Y-109880952D01*
X134150000Y-109785714D01*
X134197619Y-109738095D01*
X134292857Y-109690476D01*
X134530952Y-109690476D01*
X134626190Y-109738095D01*
X134673809Y-109785714D01*
X134721428Y-109880952D01*
X134721428Y-110071428D01*
X134673809Y-110166666D01*
X134626190Y-110214285D01*
X134530952Y-110261904D01*
X130102380Y-108357142D02*
X129626190Y-108023809D01*
X130102380Y-107785714D02*
X129102380Y-107785714D01*
X129102380Y-108166666D01*
X129150000Y-108261904D01*
X129197619Y-108309523D01*
X129292857Y-108357142D01*
X129435714Y-108357142D01*
X129530952Y-108309523D01*
X129578571Y-108261904D01*
X129626190Y-108166666D01*
X129626190Y-107785714D01*
X129102380Y-108690476D02*
X129102380Y-109309523D01*
X129483333Y-108976190D01*
X129483333Y-109119047D01*
X129530952Y-109214285D01*
X129578571Y-109261904D01*
X129673809Y-109309523D01*
X129911904Y-109309523D01*
X130007142Y-109261904D01*
X130054761Y-109214285D01*
X130102380Y-109119047D01*
X130102380Y-108833333D01*
X130054761Y-108738095D01*
X130007142Y-108690476D01*
X129530952Y-109880952D02*
X129483333Y-109785714D01*
X129435714Y-109738095D01*
X129340476Y-109690476D01*
X129292857Y-109690476D01*
X129197619Y-109738095D01*
X129150000Y-109785714D01*
X129102380Y-109880952D01*
X129102380Y-110071428D01*
X129150000Y-110166666D01*
X129197619Y-110214285D01*
X129292857Y-110261904D01*
X129340476Y-110261904D01*
X129435714Y-110214285D01*
X129483333Y-110166666D01*
X129530952Y-110071428D01*
X129530952Y-109880952D01*
X129578571Y-109785714D01*
X129626190Y-109738095D01*
X129721428Y-109690476D01*
X129911904Y-109690476D01*
X130007142Y-109738095D01*
X130054761Y-109785714D01*
X130102380Y-109880952D01*
X130102380Y-110071428D01*
X130054761Y-110166666D01*
X130007142Y-110214285D01*
X129911904Y-110261904D01*
X129721428Y-110261904D01*
X129626190Y-110214285D01*
X129578571Y-110166666D01*
X129530952Y-110071428D01*
X125102380Y-108357142D02*
X124626190Y-108023809D01*
X125102380Y-107785714D02*
X124102380Y-107785714D01*
X124102380Y-108166666D01*
X124150000Y-108261904D01*
X124197619Y-108309523D01*
X124292857Y-108357142D01*
X124435714Y-108357142D01*
X124530952Y-108309523D01*
X124578571Y-108261904D01*
X124626190Y-108166666D01*
X124626190Y-107785714D01*
X124102380Y-108690476D02*
X124102380Y-109309523D01*
X124483333Y-108976190D01*
X124483333Y-109119047D01*
X124530952Y-109214285D01*
X124578571Y-109261904D01*
X124673809Y-109309523D01*
X124911904Y-109309523D01*
X125007142Y-109261904D01*
X125054761Y-109214285D01*
X125102380Y-109119047D01*
X125102380Y-108833333D01*
X125054761Y-108738095D01*
X125007142Y-108690476D01*
X124102380Y-109642857D02*
X124102380Y-110309523D01*
X125102380Y-109880952D01*
X120102380Y-108357142D02*
X119626190Y-108023809D01*
X120102380Y-107785714D02*
X119102380Y-107785714D01*
X119102380Y-108166666D01*
X119150000Y-108261904D01*
X119197619Y-108309523D01*
X119292857Y-108357142D01*
X119435714Y-108357142D01*
X119530952Y-108309523D01*
X119578571Y-108261904D01*
X119626190Y-108166666D01*
X119626190Y-107785714D01*
X119102380Y-108690476D02*
X119102380Y-109309523D01*
X119483333Y-108976190D01*
X119483333Y-109119047D01*
X119530952Y-109214285D01*
X119578571Y-109261904D01*
X119673809Y-109309523D01*
X119911904Y-109309523D01*
X120007142Y-109261904D01*
X120054761Y-109214285D01*
X120102380Y-109119047D01*
X120102380Y-108833333D01*
X120054761Y-108738095D01*
X120007142Y-108690476D01*
X119102380Y-110166666D02*
X119102380Y-109976190D01*
X119150000Y-109880952D01*
X119197619Y-109833333D01*
X119340476Y-109738095D01*
X119530952Y-109690476D01*
X119911904Y-109690476D01*
X120007142Y-109738095D01*
X120054761Y-109785714D01*
X120102380Y-109880952D01*
X120102380Y-110071428D01*
X120054761Y-110166666D01*
X120007142Y-110214285D01*
X119911904Y-110261904D01*
X119673809Y-110261904D01*
X119578571Y-110214285D01*
X119530952Y-110166666D01*
X119483333Y-110071428D01*
X119483333Y-109880952D01*
X119530952Y-109785714D01*
X119578571Y-109738095D01*
X119673809Y-109690476D01*
X115102380Y-108357142D02*
X114626190Y-108023809D01*
X115102380Y-107785714D02*
X114102380Y-107785714D01*
X114102380Y-108166666D01*
X114150000Y-108261904D01*
X114197619Y-108309523D01*
X114292857Y-108357142D01*
X114435714Y-108357142D01*
X114530952Y-108309523D01*
X114578571Y-108261904D01*
X114626190Y-108166666D01*
X114626190Y-107785714D01*
X114102380Y-108690476D02*
X114102380Y-109309523D01*
X114483333Y-108976190D01*
X114483333Y-109119047D01*
X114530952Y-109214285D01*
X114578571Y-109261904D01*
X114673809Y-109309523D01*
X114911904Y-109309523D01*
X115007142Y-109261904D01*
X115054761Y-109214285D01*
X115102380Y-109119047D01*
X115102380Y-108833333D01*
X115054761Y-108738095D01*
X115007142Y-108690476D01*
X114102380Y-110214285D02*
X114102380Y-109738095D01*
X114578571Y-109690476D01*
X114530952Y-109738095D01*
X114483333Y-109833333D01*
X114483333Y-110071428D01*
X114530952Y-110166666D01*
X114578571Y-110214285D01*
X114673809Y-110261904D01*
X114911904Y-110261904D01*
X115007142Y-110214285D01*
X115054761Y-110166666D01*
X115102380Y-110071428D01*
X115102380Y-109833333D01*
X115054761Y-109738095D01*
X115007142Y-109690476D01*
X110102380Y-108357142D02*
X109626190Y-108023809D01*
X110102380Y-107785714D02*
X109102380Y-107785714D01*
X109102380Y-108166666D01*
X109150000Y-108261904D01*
X109197619Y-108309523D01*
X109292857Y-108357142D01*
X109435714Y-108357142D01*
X109530952Y-108309523D01*
X109578571Y-108261904D01*
X109626190Y-108166666D01*
X109626190Y-107785714D01*
X109102380Y-108690476D02*
X109102380Y-109309523D01*
X109483333Y-108976190D01*
X109483333Y-109119047D01*
X109530952Y-109214285D01*
X109578571Y-109261904D01*
X109673809Y-109309523D01*
X109911904Y-109309523D01*
X110007142Y-109261904D01*
X110054761Y-109214285D01*
X110102380Y-109119047D01*
X110102380Y-108833333D01*
X110054761Y-108738095D01*
X110007142Y-108690476D01*
X109435714Y-110166666D02*
X110102380Y-110166666D01*
X109054761Y-109928571D02*
X109769047Y-109690476D01*
X109769047Y-110309523D01*
X105102380Y-108357142D02*
X104626190Y-108023809D01*
X105102380Y-107785714D02*
X104102380Y-107785714D01*
X104102380Y-108166666D01*
X104150000Y-108261904D01*
X104197619Y-108309523D01*
X104292857Y-108357142D01*
X104435714Y-108357142D01*
X104530952Y-108309523D01*
X104578571Y-108261904D01*
X104626190Y-108166666D01*
X104626190Y-107785714D01*
X104102380Y-108690476D02*
X104102380Y-109309523D01*
X104483333Y-108976190D01*
X104483333Y-109119047D01*
X104530952Y-109214285D01*
X104578571Y-109261904D01*
X104673809Y-109309523D01*
X104911904Y-109309523D01*
X105007142Y-109261904D01*
X105054761Y-109214285D01*
X105102380Y-109119047D01*
X105102380Y-108833333D01*
X105054761Y-108738095D01*
X105007142Y-108690476D01*
X104102380Y-109642857D02*
X104102380Y-110261904D01*
X104483333Y-109928571D01*
X104483333Y-110071428D01*
X104530952Y-110166666D01*
X104578571Y-110214285D01*
X104673809Y-110261904D01*
X104911904Y-110261904D01*
X105007142Y-110214285D01*
X105054761Y-110166666D01*
X105102380Y-110071428D01*
X105102380Y-109785714D01*
X105054761Y-109690476D01*
X105007142Y-109642857D01*
X142952380Y-109357142D02*
X142476190Y-109023809D01*
X142952380Y-108785714D02*
X141952380Y-108785714D01*
X141952380Y-109166666D01*
X142000000Y-109261904D01*
X142047619Y-109309523D01*
X142142857Y-109357142D01*
X142285714Y-109357142D01*
X142380952Y-109309523D01*
X142428571Y-109261904D01*
X142476190Y-109166666D01*
X142476190Y-108785714D01*
X141952380Y-109690476D02*
X141952380Y-110309523D01*
X142333333Y-109976190D01*
X142333333Y-110119047D01*
X142380952Y-110214285D01*
X142428571Y-110261904D01*
X142523809Y-110309523D01*
X142761904Y-110309523D01*
X142857142Y-110261904D01*
X142904761Y-110214285D01*
X142952380Y-110119047D01*
X142952380Y-109833333D01*
X142904761Y-109738095D01*
X142857142Y-109690476D01*
X142047619Y-110690476D02*
X142000000Y-110738095D01*
X141952380Y-110833333D01*
X141952380Y-111071428D01*
X142000000Y-111166666D01*
X142047619Y-111214285D01*
X142142857Y-111261904D01*
X142238095Y-111261904D01*
X142380952Y-111214285D01*
X142952380Y-110642857D01*
X142952380Y-111261904D01*
X149952380Y-103357142D02*
X149476190Y-103023809D01*
X149952380Y-102785714D02*
X148952380Y-102785714D01*
X148952380Y-103166666D01*
X149000000Y-103261904D01*
X149047619Y-103309523D01*
X149142857Y-103357142D01*
X149285714Y-103357142D01*
X149380952Y-103309523D01*
X149428571Y-103261904D01*
X149476190Y-103166666D01*
X149476190Y-102785714D01*
X149047619Y-103738095D02*
X149000000Y-103785714D01*
X148952380Y-103880952D01*
X148952380Y-104119047D01*
X149000000Y-104214285D01*
X149047619Y-104261904D01*
X149142857Y-104309523D01*
X149238095Y-104309523D01*
X149380952Y-104261904D01*
X149952380Y-103690476D01*
X149952380Y-104309523D01*
X149952380Y-105261904D02*
X149952380Y-104690476D01*
X149952380Y-104976190D02*
X148952380Y-104976190D01*
X149095238Y-104880952D01*
X149190476Y-104785714D01*
X149238095Y-104690476D01*
X149952380Y-109332142D02*
X149476190Y-108998809D01*
X149952380Y-108760714D02*
X148952380Y-108760714D01*
X148952380Y-109141666D01*
X149000000Y-109236904D01*
X149047619Y-109284523D01*
X149142857Y-109332142D01*
X149285714Y-109332142D01*
X149380952Y-109284523D01*
X149428571Y-109236904D01*
X149476190Y-109141666D01*
X149476190Y-108760714D01*
X149047619Y-109713095D02*
X149000000Y-109760714D01*
X148952380Y-109855952D01*
X148952380Y-110094047D01*
X149000000Y-110189285D01*
X149047619Y-110236904D01*
X149142857Y-110284523D01*
X149238095Y-110284523D01*
X149380952Y-110236904D01*
X149952380Y-109665476D01*
X149952380Y-110284523D01*
X148952380Y-110903571D02*
X148952380Y-110998809D01*
X149000000Y-111094047D01*
X149047619Y-111141666D01*
X149142857Y-111189285D01*
X149333333Y-111236904D01*
X149571428Y-111236904D01*
X149761904Y-111189285D01*
X149857142Y-111141666D01*
X149904761Y-111094047D01*
X149952380Y-110998809D01*
X149952380Y-110903571D01*
X149904761Y-110808333D01*
X149857142Y-110760714D01*
X149761904Y-110713095D01*
X149571428Y-110665476D01*
X149333333Y-110665476D01*
X149142857Y-110713095D01*
X149047619Y-110760714D01*
X149000000Y-110808333D01*
X148952380Y-110903571D01*
X153142857Y-111952380D02*
X153476190Y-111476190D01*
X153714285Y-111952380D02*
X153714285Y-110952380D01*
X153333333Y-110952380D01*
X153238095Y-111000000D01*
X153190476Y-111047619D01*
X153142857Y-111142857D01*
X153142857Y-111285714D01*
X153190476Y-111380952D01*
X153238095Y-111428571D01*
X153333333Y-111476190D01*
X153714285Y-111476190D01*
X152190476Y-111952380D02*
X152761904Y-111952380D01*
X152476190Y-111952380D02*
X152476190Y-110952380D01*
X152571428Y-111095238D01*
X152666666Y-111190476D01*
X152761904Y-111238095D01*
X151809523Y-111047619D02*
X151761904Y-111000000D01*
X151666666Y-110952380D01*
X151428571Y-110952380D01*
X151333333Y-111000000D01*
X151285714Y-111047619D01*
X151238095Y-111142857D01*
X151238095Y-111238095D01*
X151285714Y-111380952D01*
X151857142Y-111952380D01*
X151238095Y-111952380D01*
X153142857Y-109452380D02*
X153476190Y-108976190D01*
X153714285Y-109452380D02*
X153714285Y-108452380D01*
X153333333Y-108452380D01*
X153238095Y-108500000D01*
X153190476Y-108547619D01*
X153142857Y-108642857D01*
X153142857Y-108785714D01*
X153190476Y-108880952D01*
X153238095Y-108928571D01*
X153333333Y-108976190D01*
X153714285Y-108976190D01*
X152190476Y-109452380D02*
X152761904Y-109452380D01*
X152476190Y-109452380D02*
X152476190Y-108452380D01*
X152571428Y-108595238D01*
X152666666Y-108690476D01*
X152761904Y-108738095D01*
X151238095Y-109452380D02*
X151809523Y-109452380D01*
X151523809Y-109452380D02*
X151523809Y-108452380D01*
X151619047Y-108595238D01*
X151714285Y-108690476D01*
X151809523Y-108738095D01*
X160642857Y-109452380D02*
X160976190Y-108976190D01*
X161214285Y-109452380D02*
X161214285Y-108452380D01*
X160833333Y-108452380D01*
X160738095Y-108500000D01*
X160690476Y-108547619D01*
X160642857Y-108642857D01*
X160642857Y-108785714D01*
X160690476Y-108880952D01*
X160738095Y-108928571D01*
X160833333Y-108976190D01*
X161214285Y-108976190D01*
X159690476Y-109452380D02*
X160261904Y-109452380D01*
X159976190Y-109452380D02*
X159976190Y-108452380D01*
X160071428Y-108595238D01*
X160166666Y-108690476D01*
X160261904Y-108738095D01*
X159071428Y-108452380D02*
X158976190Y-108452380D01*
X158880952Y-108500000D01*
X158833333Y-108547619D01*
X158785714Y-108642857D01*
X158738095Y-108833333D01*
X158738095Y-109071428D01*
X158785714Y-109261904D01*
X158833333Y-109357142D01*
X158880952Y-109404761D01*
X158976190Y-109452380D01*
X159071428Y-109452380D01*
X159166666Y-109404761D01*
X159214285Y-109357142D01*
X159261904Y-109261904D01*
X159309523Y-109071428D01*
X159309523Y-108833333D01*
X159261904Y-108642857D01*
X159214285Y-108547619D01*
X159166666Y-108500000D01*
X159071428Y-108452380D01*
X164142857Y-111952380D02*
X164476190Y-111476190D01*
X164714285Y-111952380D02*
X164714285Y-110952380D01*
X164333333Y-110952380D01*
X164238095Y-111000000D01*
X164190476Y-111047619D01*
X164142857Y-111142857D01*
X164142857Y-111285714D01*
X164190476Y-111380952D01*
X164238095Y-111428571D01*
X164333333Y-111476190D01*
X164714285Y-111476190D01*
X163190476Y-111952380D02*
X163761904Y-111952380D01*
X163476190Y-111952380D02*
X163476190Y-110952380D01*
X163571428Y-111095238D01*
X163666666Y-111190476D01*
X163761904Y-111238095D01*
X162285714Y-110952380D02*
X162761904Y-110952380D01*
X162809523Y-111428571D01*
X162761904Y-111380952D01*
X162666666Y-111333333D01*
X162428571Y-111333333D01*
X162333333Y-111380952D01*
X162285714Y-111428571D01*
X162238095Y-111523809D01*
X162238095Y-111761904D01*
X162285714Y-111857142D01*
X162333333Y-111904761D01*
X162428571Y-111952380D01*
X162666666Y-111952380D01*
X162761904Y-111904761D01*
X162809523Y-111857142D01*
X146452380Y-104308333D02*
X145976190Y-103975000D01*
X146452380Y-103736904D02*
X145452380Y-103736904D01*
X145452380Y-104117857D01*
X145500000Y-104213095D01*
X145547619Y-104260714D01*
X145642857Y-104308333D01*
X145785714Y-104308333D01*
X145880952Y-104260714D01*
X145928571Y-104213095D01*
X145976190Y-104117857D01*
X145976190Y-103736904D01*
X145452380Y-105165476D02*
X145452380Y-104975000D01*
X145500000Y-104879761D01*
X145547619Y-104832142D01*
X145690476Y-104736904D01*
X145880952Y-104689285D01*
X146261904Y-104689285D01*
X146357142Y-104736904D01*
X146404761Y-104784523D01*
X146452380Y-104879761D01*
X146452380Y-105070238D01*
X146404761Y-105165476D01*
X146357142Y-105213095D01*
X146261904Y-105260714D01*
X146023809Y-105260714D01*
X145928571Y-105213095D01*
X145880952Y-105165476D01*
X145833333Y-105070238D01*
X145833333Y-104879761D01*
X145880952Y-104784523D01*
X145928571Y-104736904D01*
X146023809Y-104689285D01*
X146452380Y-110358333D02*
X145976190Y-110025000D01*
X146452380Y-109786904D02*
X145452380Y-109786904D01*
X145452380Y-110167857D01*
X145500000Y-110263095D01*
X145547619Y-110310714D01*
X145642857Y-110358333D01*
X145785714Y-110358333D01*
X145880952Y-110310714D01*
X145928571Y-110263095D01*
X145976190Y-110167857D01*
X145976190Y-109786904D01*
X146452380Y-111310714D02*
X146452380Y-110739285D01*
X146452380Y-111025000D02*
X145452380Y-111025000D01*
X145595238Y-110929761D01*
X145690476Y-110834523D01*
X145738095Y-110739285D01*
X165761904Y-72452380D02*
X165761904Y-73261904D01*
X165714285Y-73357142D01*
X165666666Y-73404761D01*
X165571428Y-73452380D01*
X165380952Y-73452380D01*
X165285714Y-73404761D01*
X165238095Y-73357142D01*
X165190476Y-73261904D01*
X165190476Y-72452380D01*
X164761904Y-72547619D02*
X164714285Y-72500000D01*
X164619047Y-72452380D01*
X164380952Y-72452380D01*
X164285714Y-72500000D01*
X164238095Y-72547619D01*
X164190476Y-72642857D01*
X164190476Y-72738095D01*
X164238095Y-72880952D01*
X164809523Y-73452380D01*
X164190476Y-73452380D01*
M02*
