G04 #@! TF.GenerationSoftware,KiCad,Pcbnew,5.1.5+dfsg1-2build2*
G04 #@! TF.CreationDate,2021-12-14T17:07:20-03:00*
G04 #@! TF.ProjectId,DomPiWeb,446f6d50-6957-4656-922e-6b696361645f,rev?*
G04 #@! TF.SameCoordinates,Original*
G04 #@! TF.FileFunction,Legend,Top*
G04 #@! TF.FilePolarity,Positive*
%FSLAX46Y46*%
G04 Gerber Fmt 4.6, Leading zero omitted, Abs format (unit mm)*
G04 Created by KiCad (PCBNEW 5.1.5+dfsg1-2build2) date 2021-12-14 17:07:20*
%MOMM*%
%LPD*%
G04 APERTURE LIST*
%ADD10C,0.100000*%
%ADD11C,0.150000*%
%ADD12C,0.300000*%
%ADD13C,0.400000*%
%ADD14C,0.120000*%
%ADD15C,0.200000*%
%ADD16C,0.015000*%
G04 APERTURE END LIST*
D10*
D11*
X177002200Y-166007200D02*
X177002200Y-198007200D01*
X285002200Y-198007200D01*
X285002200Y-166007200D01*
X177002200Y-166007200D01*
D10*
D11*
X10000000Y-10000000D02*
X10000000Y-200007200D01*
X287002200Y-200007200D01*
X287002200Y-10000000D01*
X10000000Y-10000000D01*
D10*
D11*
X12000000Y-12000000D02*
X12000000Y-198007200D01*
X285002200Y-198007200D01*
X285002200Y-12000000D01*
X12000000Y-12000000D01*
D10*
D11*
X60000000Y-12000000D02*
X60000000Y-10000000D01*
D10*
D11*
X110000000Y-12000000D02*
X110000000Y-10000000D01*
D10*
D11*
X160000000Y-12000000D02*
X160000000Y-10000000D01*
D10*
D11*
X210000000Y-12000000D02*
X210000000Y-10000000D01*
D10*
D11*
X260000000Y-12000000D02*
X260000000Y-10000000D01*
D10*
D11*
X36065476Y-11588095D02*
X35322619Y-11588095D01*
X35694047Y-11588095D02*
X35694047Y-10288095D01*
X35570238Y-10473809D01*
X35446428Y-10597619D01*
X35322619Y-10659523D01*
D10*
D11*
X85322619Y-10411904D02*
X85384523Y-10350000D01*
X85508333Y-10288095D01*
X85817857Y-10288095D01*
X85941666Y-10350000D01*
X86003571Y-10411904D01*
X86065476Y-10535714D01*
X86065476Y-10659523D01*
X86003571Y-10845238D01*
X85260714Y-11588095D01*
X86065476Y-11588095D01*
D10*
D11*
X135260714Y-10288095D02*
X136065476Y-10288095D01*
X135632142Y-10783333D01*
X135817857Y-10783333D01*
X135941666Y-10845238D01*
X136003571Y-10907142D01*
X136065476Y-11030952D01*
X136065476Y-11340476D01*
X136003571Y-11464285D01*
X135941666Y-11526190D01*
X135817857Y-11588095D01*
X135446428Y-11588095D01*
X135322619Y-11526190D01*
X135260714Y-11464285D01*
D10*
D11*
X185941666Y-10721428D02*
X185941666Y-11588095D01*
X185632142Y-10226190D02*
X185322619Y-11154761D01*
X186127380Y-11154761D01*
D10*
D11*
X236003571Y-10288095D02*
X235384523Y-10288095D01*
X235322619Y-10907142D01*
X235384523Y-10845238D01*
X235508333Y-10783333D01*
X235817857Y-10783333D01*
X235941666Y-10845238D01*
X236003571Y-10907142D01*
X236065476Y-11030952D01*
X236065476Y-11340476D01*
X236003571Y-11464285D01*
X235941666Y-11526190D01*
X235817857Y-11588095D01*
X235508333Y-11588095D01*
X235384523Y-11526190D01*
X235322619Y-11464285D01*
D10*
D11*
X285941666Y-10288095D02*
X285694047Y-10288095D01*
X285570238Y-10350000D01*
X285508333Y-10411904D01*
X285384523Y-10597619D01*
X285322619Y-10845238D01*
X285322619Y-11340476D01*
X285384523Y-11464285D01*
X285446428Y-11526190D01*
X285570238Y-11588095D01*
X285817857Y-11588095D01*
X285941666Y-11526190D01*
X286003571Y-11464285D01*
X286065476Y-11340476D01*
X286065476Y-11030952D01*
X286003571Y-10907142D01*
X285941666Y-10845238D01*
X285817857Y-10783333D01*
X285570238Y-10783333D01*
X285446428Y-10845238D01*
X285384523Y-10907142D01*
X285322619Y-11030952D01*
D10*
D11*
X60000000Y-198007200D02*
X60000000Y-200007200D01*
D10*
D11*
X110000000Y-198007200D02*
X110000000Y-200007200D01*
D10*
D11*
X160000000Y-198007200D02*
X160000000Y-200007200D01*
D10*
D11*
X210000000Y-198007200D02*
X210000000Y-200007200D01*
D10*
D11*
X260000000Y-198007200D02*
X260000000Y-200007200D01*
D10*
D11*
X36065476Y-199595295D02*
X35322619Y-199595295D01*
X35694047Y-199595295D02*
X35694047Y-198295295D01*
X35570238Y-198481009D01*
X35446428Y-198604819D01*
X35322619Y-198666723D01*
D10*
D11*
X85322619Y-198419104D02*
X85384523Y-198357200D01*
X85508333Y-198295295D01*
X85817857Y-198295295D01*
X85941666Y-198357200D01*
X86003571Y-198419104D01*
X86065476Y-198542914D01*
X86065476Y-198666723D01*
X86003571Y-198852438D01*
X85260714Y-199595295D01*
X86065476Y-199595295D01*
D10*
D11*
X135260714Y-198295295D02*
X136065476Y-198295295D01*
X135632142Y-198790533D01*
X135817857Y-198790533D01*
X135941666Y-198852438D01*
X136003571Y-198914342D01*
X136065476Y-199038152D01*
X136065476Y-199347676D01*
X136003571Y-199471485D01*
X135941666Y-199533390D01*
X135817857Y-199595295D01*
X135446428Y-199595295D01*
X135322619Y-199533390D01*
X135260714Y-199471485D01*
D10*
D11*
X185941666Y-198728628D02*
X185941666Y-199595295D01*
X185632142Y-198233390D02*
X185322619Y-199161961D01*
X186127380Y-199161961D01*
D10*
D11*
X236003571Y-198295295D02*
X235384523Y-198295295D01*
X235322619Y-198914342D01*
X235384523Y-198852438D01*
X235508333Y-198790533D01*
X235817857Y-198790533D01*
X235941666Y-198852438D01*
X236003571Y-198914342D01*
X236065476Y-199038152D01*
X236065476Y-199347676D01*
X236003571Y-199471485D01*
X235941666Y-199533390D01*
X235817857Y-199595295D01*
X235508333Y-199595295D01*
X235384523Y-199533390D01*
X235322619Y-199471485D01*
D10*
D11*
X285941666Y-198295295D02*
X285694047Y-198295295D01*
X285570238Y-198357200D01*
X285508333Y-198419104D01*
X285384523Y-198604819D01*
X285322619Y-198852438D01*
X285322619Y-199347676D01*
X285384523Y-199471485D01*
X285446428Y-199533390D01*
X285570238Y-199595295D01*
X285817857Y-199595295D01*
X285941666Y-199533390D01*
X286003571Y-199471485D01*
X286065476Y-199347676D01*
X286065476Y-199038152D01*
X286003571Y-198914342D01*
X285941666Y-198852438D01*
X285817857Y-198790533D01*
X285570238Y-198790533D01*
X285446428Y-198852438D01*
X285384523Y-198914342D01*
X285322619Y-199038152D01*
D10*
D11*
X10000000Y-60000000D02*
X12000000Y-60000000D01*
D10*
D11*
X10000000Y-110000000D02*
X12000000Y-110000000D01*
D10*
D11*
X10000000Y-160000000D02*
X12000000Y-160000000D01*
D10*
D11*
X10690476Y-35216666D02*
X11309523Y-35216666D01*
X10566666Y-35588095D02*
X11000000Y-34288095D01*
X11433333Y-35588095D01*
D10*
D11*
X11092857Y-84907142D02*
X11278571Y-84969047D01*
X11340476Y-85030952D01*
X11402380Y-85154761D01*
X11402380Y-85340476D01*
X11340476Y-85464285D01*
X11278571Y-85526190D01*
X11154761Y-85588095D01*
X10659523Y-85588095D01*
X10659523Y-84288095D01*
X11092857Y-84288095D01*
X11216666Y-84350000D01*
X11278571Y-84411904D01*
X11340476Y-84535714D01*
X11340476Y-84659523D01*
X11278571Y-84783333D01*
X11216666Y-84845238D01*
X11092857Y-84907142D01*
X10659523Y-84907142D01*
D10*
D11*
X11402380Y-135464285D02*
X11340476Y-135526190D01*
X11154761Y-135588095D01*
X11030952Y-135588095D01*
X10845238Y-135526190D01*
X10721428Y-135402380D01*
X10659523Y-135278571D01*
X10597619Y-135030952D01*
X10597619Y-134845238D01*
X10659523Y-134597619D01*
X10721428Y-134473809D01*
X10845238Y-134350000D01*
X11030952Y-134288095D01*
X11154761Y-134288095D01*
X11340476Y-134350000D01*
X11402380Y-134411904D01*
D10*
D11*
X10659523Y-185588095D02*
X10659523Y-184288095D01*
X10969047Y-184288095D01*
X11154761Y-184350000D01*
X11278571Y-184473809D01*
X11340476Y-184597619D01*
X11402380Y-184845238D01*
X11402380Y-185030952D01*
X11340476Y-185278571D01*
X11278571Y-185402380D01*
X11154761Y-185526190D01*
X10969047Y-185588095D01*
X10659523Y-185588095D01*
D10*
D11*
X287002200Y-60000000D02*
X285002200Y-60000000D01*
D10*
D11*
X287002200Y-110000000D02*
X285002200Y-110000000D01*
D10*
D11*
X287002200Y-160000000D02*
X285002200Y-160000000D01*
D10*
D11*
X285692676Y-35216666D02*
X286311723Y-35216666D01*
X285568866Y-35588095D02*
X286002200Y-34288095D01*
X286435533Y-35588095D01*
D10*
D11*
X286095057Y-84907142D02*
X286280771Y-84969047D01*
X286342676Y-85030952D01*
X286404580Y-85154761D01*
X286404580Y-85340476D01*
X286342676Y-85464285D01*
X286280771Y-85526190D01*
X286156961Y-85588095D01*
X285661723Y-85588095D01*
X285661723Y-84288095D01*
X286095057Y-84288095D01*
X286218866Y-84350000D01*
X286280771Y-84411904D01*
X286342676Y-84535714D01*
X286342676Y-84659523D01*
X286280771Y-84783333D01*
X286218866Y-84845238D01*
X286095057Y-84907142D01*
X285661723Y-84907142D01*
D10*
D11*
X286404580Y-135464285D02*
X286342676Y-135526190D01*
X286156961Y-135588095D01*
X286033152Y-135588095D01*
X285847438Y-135526190D01*
X285723628Y-135402380D01*
X285661723Y-135278571D01*
X285599819Y-135030952D01*
X285599819Y-134845238D01*
X285661723Y-134597619D01*
X285723628Y-134473809D01*
X285847438Y-134350000D01*
X286033152Y-134288095D01*
X286156961Y-134288095D01*
X286342676Y-134350000D01*
X286404580Y-134411904D01*
D10*
D11*
X285661723Y-185588095D02*
X285661723Y-184288095D01*
X285971247Y-184288095D01*
X286156961Y-184350000D01*
X286280771Y-184473809D01*
X286342676Y-184597619D01*
X286404580Y-184845238D01*
X286404580Y-185030952D01*
X286342676Y-185278571D01*
X286280771Y-185402380D01*
X286156961Y-185526190D01*
X285971247Y-185588095D01*
X285661723Y-185588095D01*
D10*
D11*
X200434342Y-193785771D02*
X200434342Y-192285771D01*
X200791485Y-192285771D01*
X201005771Y-192357200D01*
X201148628Y-192500057D01*
X201220057Y-192642914D01*
X201291485Y-192928628D01*
X201291485Y-193142914D01*
X201220057Y-193428628D01*
X201148628Y-193571485D01*
X201005771Y-193714342D01*
X200791485Y-193785771D01*
X200434342Y-193785771D01*
X202577200Y-193785771D02*
X202577200Y-193000057D01*
X202505771Y-192857200D01*
X202362914Y-192785771D01*
X202077200Y-192785771D01*
X201934342Y-192857200D01*
X202577200Y-193714342D02*
X202434342Y-193785771D01*
X202077200Y-193785771D01*
X201934342Y-193714342D01*
X201862914Y-193571485D01*
X201862914Y-193428628D01*
X201934342Y-193285771D01*
X202077200Y-193214342D01*
X202434342Y-193214342D01*
X202577200Y-193142914D01*
X203077200Y-192785771D02*
X203648628Y-192785771D01*
X203291485Y-192285771D02*
X203291485Y-193571485D01*
X203362914Y-193714342D01*
X203505771Y-193785771D01*
X203648628Y-193785771D01*
X204720057Y-193714342D02*
X204577200Y-193785771D01*
X204291485Y-193785771D01*
X204148628Y-193714342D01*
X204077200Y-193571485D01*
X204077200Y-193000057D01*
X204148628Y-192857200D01*
X204291485Y-192785771D01*
X204577200Y-192785771D01*
X204720057Y-192857200D01*
X204791485Y-193000057D01*
X204791485Y-193142914D01*
X204077200Y-193285771D01*
X205434342Y-193642914D02*
X205505771Y-193714342D01*
X205434342Y-193785771D01*
X205362914Y-193714342D01*
X205434342Y-193642914D01*
X205434342Y-193785771D01*
X205434342Y-192857200D02*
X205505771Y-192928628D01*
X205434342Y-193000057D01*
X205362914Y-192928628D01*
X205434342Y-192857200D01*
X205434342Y-193000057D01*
D10*
D11*
X177002200Y-194507200D02*
X285002200Y-194507200D01*
D10*
D11*
X178434342Y-196585771D02*
X178434342Y-195085771D01*
X179291485Y-196585771D02*
X178648628Y-195728628D01*
X179291485Y-195085771D02*
X178434342Y-195942914D01*
X179934342Y-196585771D02*
X179934342Y-195585771D01*
X179934342Y-195085771D02*
X179862914Y-195157200D01*
X179934342Y-195228628D01*
X180005771Y-195157200D01*
X179934342Y-195085771D01*
X179934342Y-195228628D01*
X181505771Y-196442914D02*
X181434342Y-196514342D01*
X181220057Y-196585771D01*
X181077200Y-196585771D01*
X180862914Y-196514342D01*
X180720057Y-196371485D01*
X180648628Y-196228628D01*
X180577200Y-195942914D01*
X180577200Y-195728628D01*
X180648628Y-195442914D01*
X180720057Y-195300057D01*
X180862914Y-195157200D01*
X181077200Y-195085771D01*
X181220057Y-195085771D01*
X181434342Y-195157200D01*
X181505771Y-195228628D01*
X182791485Y-196585771D02*
X182791485Y-195800057D01*
X182720057Y-195657200D01*
X182577200Y-195585771D01*
X182291485Y-195585771D01*
X182148628Y-195657200D01*
X182791485Y-196514342D02*
X182648628Y-196585771D01*
X182291485Y-196585771D01*
X182148628Y-196514342D01*
X182077200Y-196371485D01*
X182077200Y-196228628D01*
X182148628Y-196085771D01*
X182291485Y-196014342D01*
X182648628Y-196014342D01*
X182791485Y-195942914D01*
X184148628Y-196585771D02*
X184148628Y-195085771D01*
X184148628Y-196514342D02*
X184005771Y-196585771D01*
X183720057Y-196585771D01*
X183577200Y-196514342D01*
X183505771Y-196442914D01*
X183434342Y-196300057D01*
X183434342Y-195871485D01*
X183505771Y-195728628D01*
X183577200Y-195657200D01*
X183720057Y-195585771D01*
X184005771Y-195585771D01*
X184148628Y-195657200D01*
X186005771Y-195800057D02*
X186505771Y-195800057D01*
X186720057Y-196585771D02*
X186005771Y-196585771D01*
X186005771Y-195085771D01*
X186720057Y-195085771D01*
X187362914Y-196442914D02*
X187434342Y-196514342D01*
X187362914Y-196585771D01*
X187291485Y-196514342D01*
X187362914Y-196442914D01*
X187362914Y-196585771D01*
X188077200Y-196585771D02*
X188077200Y-195085771D01*
X188434342Y-195085771D01*
X188648628Y-195157200D01*
X188791485Y-195300057D01*
X188862914Y-195442914D01*
X188934342Y-195728628D01*
X188934342Y-195942914D01*
X188862914Y-196228628D01*
X188791485Y-196371485D01*
X188648628Y-196514342D01*
X188434342Y-196585771D01*
X188077200Y-196585771D01*
X189577200Y-196442914D02*
X189648628Y-196514342D01*
X189577200Y-196585771D01*
X189505771Y-196514342D01*
X189577200Y-196442914D01*
X189577200Y-196585771D01*
X190220057Y-196157200D02*
X190934342Y-196157200D01*
X190077200Y-196585771D02*
X190577200Y-195085771D01*
X191077200Y-196585771D01*
X191577200Y-196442914D02*
X191648628Y-196514342D01*
X191577200Y-196585771D01*
X191505771Y-196514342D01*
X191577200Y-196442914D01*
X191577200Y-196585771D01*
X194577200Y-196585771D02*
X194577200Y-195085771D01*
X194720057Y-196014342D02*
X195148628Y-196585771D01*
X195148628Y-195585771D02*
X194577200Y-196157200D01*
X195791485Y-196585771D02*
X195791485Y-195585771D01*
X195791485Y-195085771D02*
X195720057Y-195157200D01*
X195791485Y-195228628D01*
X195862914Y-195157200D01*
X195791485Y-195085771D01*
X195791485Y-195228628D01*
X197148628Y-196514342D02*
X197005771Y-196585771D01*
X196720057Y-196585771D01*
X196577200Y-196514342D01*
X196505771Y-196442914D01*
X196434342Y-196300057D01*
X196434342Y-195871485D01*
X196505771Y-195728628D01*
X196577200Y-195657200D01*
X196720057Y-195585771D01*
X197005771Y-195585771D01*
X197148628Y-195657200D01*
X198434342Y-196585771D02*
X198434342Y-195800057D01*
X198362914Y-195657200D01*
X198220057Y-195585771D01*
X197934342Y-195585771D01*
X197791485Y-195657200D01*
X198434342Y-196514342D02*
X198291485Y-196585771D01*
X197934342Y-196585771D01*
X197791485Y-196514342D01*
X197720057Y-196371485D01*
X197720057Y-196228628D01*
X197791485Y-196085771D01*
X197934342Y-196014342D01*
X198291485Y-196014342D01*
X198434342Y-195942914D01*
X199791485Y-196585771D02*
X199791485Y-195085771D01*
X199791485Y-196514342D02*
X199648628Y-196585771D01*
X199362914Y-196585771D01*
X199220057Y-196514342D01*
X199148628Y-196442914D01*
X199077200Y-196300057D01*
X199077200Y-195871485D01*
X199148628Y-195728628D01*
X199220057Y-195657200D01*
X199362914Y-195585771D01*
X199648628Y-195585771D01*
X199791485Y-195657200D01*
X202362914Y-195085771D02*
X201648628Y-195085771D01*
X201577200Y-195800057D01*
X201648628Y-195728628D01*
X201791485Y-195657200D01*
X202148628Y-195657200D01*
X202291485Y-195728628D01*
X202362914Y-195800057D01*
X202434342Y-195942914D01*
X202434342Y-196300057D01*
X202362914Y-196442914D01*
X202291485Y-196514342D01*
X202148628Y-196585771D01*
X201791485Y-196585771D01*
X201648628Y-196514342D01*
X201577200Y-196442914D01*
X203077200Y-196442914D02*
X203148628Y-196514342D01*
X203077200Y-196585771D01*
X203005771Y-196514342D01*
X203077200Y-196442914D01*
X203077200Y-196585771D01*
X204577200Y-196585771D02*
X203720057Y-196585771D01*
X204148628Y-196585771D02*
X204148628Y-195085771D01*
X204005771Y-195300057D01*
X203862914Y-195442914D01*
X203720057Y-195514342D01*
X205220057Y-196442914D02*
X205291485Y-196514342D01*
X205220057Y-196585771D01*
X205148628Y-196514342D01*
X205220057Y-196442914D01*
X205220057Y-196585771D01*
X206648628Y-195085771D02*
X205934342Y-195085771D01*
X205862914Y-195800057D01*
X205934342Y-195728628D01*
X206077200Y-195657200D01*
X206434342Y-195657200D01*
X206577200Y-195728628D01*
X206648628Y-195800057D01*
X206720057Y-195942914D01*
X206720057Y-196300057D01*
X206648628Y-196442914D01*
X206577200Y-196514342D01*
X206434342Y-196585771D01*
X206077200Y-196585771D01*
X205934342Y-196514342D01*
X205862914Y-196442914D01*
X207362914Y-196014342D02*
X208505771Y-196014342D01*
X207934342Y-196585771D02*
X207934342Y-195442914D01*
X209862914Y-196585771D02*
X209862914Y-195085771D01*
X209862914Y-196514342D02*
X209720057Y-196585771D01*
X209434342Y-196585771D01*
X209291485Y-196514342D01*
X209220057Y-196442914D01*
X209148628Y-196300057D01*
X209148628Y-195871485D01*
X209220057Y-195728628D01*
X209291485Y-195657200D01*
X209434342Y-195585771D01*
X209720057Y-195585771D01*
X209862914Y-195657200D01*
X210362914Y-195585771D02*
X210934342Y-195585771D01*
X210577200Y-196585771D02*
X210577200Y-195300057D01*
X210648628Y-195157200D01*
X210791485Y-195085771D01*
X210934342Y-195085771D01*
X211362914Y-196514342D02*
X211505771Y-196585771D01*
X211791485Y-196585771D01*
X211934342Y-196514342D01*
X212005771Y-196371485D01*
X212005771Y-196300057D01*
X211934342Y-196157200D01*
X211791485Y-196085771D01*
X211577200Y-196085771D01*
X211434342Y-196014342D01*
X211362914Y-195871485D01*
X211362914Y-195800057D01*
X211434342Y-195657200D01*
X211577200Y-195585771D01*
X211791485Y-195585771D01*
X211934342Y-195657200D01*
X213291485Y-195585771D02*
X213291485Y-196800057D01*
X213220057Y-196942914D01*
X213148628Y-197014342D01*
X213005771Y-197085771D01*
X212791485Y-197085771D01*
X212648628Y-197014342D01*
X213291485Y-196514342D02*
X213148628Y-196585771D01*
X212862914Y-196585771D01*
X212720057Y-196514342D01*
X212648628Y-196442914D01*
X212577200Y-196300057D01*
X212577200Y-195871485D01*
X212648628Y-195728628D01*
X212720057Y-195657200D01*
X212862914Y-195585771D01*
X213148628Y-195585771D01*
X213291485Y-195657200D01*
X214791485Y-196585771D02*
X213934342Y-196585771D01*
X214362914Y-196585771D02*
X214362914Y-195085771D01*
X214220057Y-195300057D01*
X214077200Y-195442914D01*
X213934342Y-195514342D01*
X215434342Y-196014342D02*
X216577200Y-196014342D01*
X217220057Y-195228628D02*
X217291485Y-195157200D01*
X217434342Y-195085771D01*
X217791485Y-195085771D01*
X217934342Y-195157200D01*
X218005771Y-195228628D01*
X218077200Y-195371485D01*
X218077200Y-195514342D01*
X218005771Y-195728628D01*
X217148628Y-196585771D01*
X218077200Y-196585771D01*
X218720057Y-196585771D02*
X218720057Y-195085771D01*
X218720057Y-195657200D02*
X218862914Y-195585771D01*
X219148628Y-195585771D01*
X219291485Y-195657200D01*
X219362914Y-195728628D01*
X219434342Y-195871485D01*
X219434342Y-196300057D01*
X219362914Y-196442914D01*
X219291485Y-196514342D01*
X219148628Y-196585771D01*
X218862914Y-196585771D01*
X218720057Y-196514342D01*
X220720057Y-195585771D02*
X220720057Y-196585771D01*
X220077200Y-195585771D02*
X220077200Y-196371485D01*
X220148628Y-196514342D01*
X220291485Y-196585771D01*
X220505771Y-196585771D01*
X220648628Y-196514342D01*
X220720057Y-196442914D01*
X221434342Y-196585771D02*
X221434342Y-195585771D01*
X221434342Y-195085771D02*
X221362914Y-195157200D01*
X221434342Y-195228628D01*
X221505771Y-195157200D01*
X221434342Y-195085771D01*
X221434342Y-195228628D01*
X222362914Y-196585771D02*
X222220057Y-196514342D01*
X222148628Y-196371485D01*
X222148628Y-195085771D01*
X223577200Y-196585771D02*
X223577200Y-195085771D01*
X223577200Y-196514342D02*
X223434342Y-196585771D01*
X223148628Y-196585771D01*
X223005771Y-196514342D01*
X222934342Y-196442914D01*
X222862914Y-196300057D01*
X222862914Y-195871485D01*
X222934342Y-195728628D01*
X223005771Y-195657200D01*
X223148628Y-195585771D01*
X223434342Y-195585771D01*
X223577200Y-195657200D01*
X224220057Y-195228628D02*
X224291485Y-195157200D01*
X224434342Y-195085771D01*
X224791485Y-195085771D01*
X224934342Y-195157200D01*
X225005771Y-195228628D01*
X225077200Y-195371485D01*
X225077200Y-195514342D01*
X225005771Y-195728628D01*
X224148628Y-196585771D01*
X225077200Y-196585771D01*
D10*
D11*
X177002200Y-191507200D02*
X285002200Y-191507200D01*
D10*
D12*
X264411485Y-193785771D02*
X263911485Y-193071485D01*
X263554342Y-193785771D02*
X263554342Y-192285771D01*
X264125771Y-192285771D01*
X264268628Y-192357200D01*
X264340057Y-192428628D01*
X264411485Y-192571485D01*
X264411485Y-192785771D01*
X264340057Y-192928628D01*
X264268628Y-193000057D01*
X264125771Y-193071485D01*
X263554342Y-193071485D01*
X265625771Y-193714342D02*
X265482914Y-193785771D01*
X265197200Y-193785771D01*
X265054342Y-193714342D01*
X264982914Y-193571485D01*
X264982914Y-193000057D01*
X265054342Y-192857200D01*
X265197200Y-192785771D01*
X265482914Y-192785771D01*
X265625771Y-192857200D01*
X265697200Y-193000057D01*
X265697200Y-193142914D01*
X264982914Y-193285771D01*
X266197200Y-192785771D02*
X266554342Y-193785771D01*
X266911485Y-192785771D01*
X267482914Y-193642914D02*
X267554342Y-193714342D01*
X267482914Y-193785771D01*
X267411485Y-193714342D01*
X267482914Y-193642914D01*
X267482914Y-193785771D01*
X267482914Y-192857200D02*
X267554342Y-192928628D01*
X267482914Y-193000057D01*
X267411485Y-192928628D01*
X267482914Y-192857200D01*
X267482914Y-193000057D01*
D10*
D11*
X178362914Y-193714342D02*
X178577200Y-193785771D01*
X178934342Y-193785771D01*
X179077200Y-193714342D01*
X179148628Y-193642914D01*
X179220057Y-193500057D01*
X179220057Y-193357200D01*
X179148628Y-193214342D01*
X179077200Y-193142914D01*
X178934342Y-193071485D01*
X178648628Y-193000057D01*
X178505771Y-192928628D01*
X178434342Y-192857200D01*
X178362914Y-192714342D01*
X178362914Y-192571485D01*
X178434342Y-192428628D01*
X178505771Y-192357200D01*
X178648628Y-192285771D01*
X179005771Y-192285771D01*
X179220057Y-192357200D01*
X179862914Y-193785771D02*
X179862914Y-192785771D01*
X179862914Y-192285771D02*
X179791485Y-192357200D01*
X179862914Y-192428628D01*
X179934342Y-192357200D01*
X179862914Y-192285771D01*
X179862914Y-192428628D01*
X180434342Y-192785771D02*
X181220057Y-192785771D01*
X180434342Y-193785771D01*
X181220057Y-193785771D01*
X182362914Y-193714342D02*
X182220057Y-193785771D01*
X181934342Y-193785771D01*
X181791485Y-193714342D01*
X181720057Y-193571485D01*
X181720057Y-193000057D01*
X181791485Y-192857200D01*
X181934342Y-192785771D01*
X182220057Y-192785771D01*
X182362914Y-192857200D01*
X182434342Y-193000057D01*
X182434342Y-193142914D01*
X181720057Y-193285771D01*
X183077200Y-193642914D02*
X183148628Y-193714342D01*
X183077200Y-193785771D01*
X183005771Y-193714342D01*
X183077200Y-193642914D01*
X183077200Y-193785771D01*
X183077200Y-192857200D02*
X183148628Y-192928628D01*
X183077200Y-193000057D01*
X183005771Y-192928628D01*
X183077200Y-192857200D01*
X183077200Y-193000057D01*
X184862914Y-193357200D02*
X185577200Y-193357200D01*
X184720057Y-193785771D02*
X185220057Y-192285771D01*
X185720057Y-193785771D01*
X186862914Y-192785771D02*
X186862914Y-193785771D01*
X186505771Y-192214342D02*
X186148628Y-193285771D01*
X187077200Y-193285771D01*
D10*
D11*
X263434342Y-196585771D02*
X263434342Y-195085771D01*
X264791485Y-196585771D02*
X264791485Y-195085771D01*
X264791485Y-196514342D02*
X264648628Y-196585771D01*
X264362914Y-196585771D01*
X264220057Y-196514342D01*
X264148628Y-196442914D01*
X264077200Y-196300057D01*
X264077200Y-195871485D01*
X264148628Y-195728628D01*
X264220057Y-195657200D01*
X264362914Y-195585771D01*
X264648628Y-195585771D01*
X264791485Y-195657200D01*
X265505771Y-196442914D02*
X265577200Y-196514342D01*
X265505771Y-196585771D01*
X265434342Y-196514342D01*
X265505771Y-196442914D01*
X265505771Y-196585771D01*
X265505771Y-195657200D02*
X265577200Y-195728628D01*
X265505771Y-195800057D01*
X265434342Y-195728628D01*
X265505771Y-195657200D01*
X265505771Y-195800057D01*
X268148628Y-196585771D02*
X267291485Y-196585771D01*
X267720057Y-196585771D02*
X267720057Y-195085771D01*
X267577200Y-195300057D01*
X267434342Y-195442914D01*
X267291485Y-195514342D01*
X269862914Y-195014342D02*
X268577200Y-196942914D01*
X271148628Y-196585771D02*
X270291485Y-196585771D01*
X270720057Y-196585771D02*
X270720057Y-195085771D01*
X270577200Y-195300057D01*
X270434342Y-195442914D01*
X270291485Y-195514342D01*
D10*
D11*
X177002200Y-187507200D02*
X285002200Y-187507200D01*
D10*
D13*
X178714580Y-188211961D02*
X179857438Y-188211961D01*
X179036009Y-190211961D02*
X179286009Y-188211961D01*
X180274104Y-190211961D02*
X180440771Y-188878628D01*
X180524104Y-188211961D02*
X180416961Y-188307200D01*
X180500295Y-188402438D01*
X180607438Y-188307200D01*
X180524104Y-188211961D01*
X180500295Y-188402438D01*
X181107438Y-188878628D02*
X181869342Y-188878628D01*
X181476485Y-188211961D02*
X181262200Y-189926247D01*
X181333628Y-190116723D01*
X181512200Y-190211961D01*
X181702676Y-190211961D01*
X182655057Y-190211961D02*
X182476485Y-190116723D01*
X182405057Y-189926247D01*
X182619342Y-188211961D01*
X184190771Y-190116723D02*
X183988390Y-190211961D01*
X183607438Y-190211961D01*
X183428866Y-190116723D01*
X183357438Y-189926247D01*
X183452676Y-189164342D01*
X183571723Y-188973866D01*
X183774104Y-188878628D01*
X184155057Y-188878628D01*
X184333628Y-188973866D01*
X184405057Y-189164342D01*
X184381247Y-189354819D01*
X183405057Y-189545295D01*
X185155057Y-190021485D02*
X185238390Y-190116723D01*
X185131247Y-190211961D01*
X185047914Y-190116723D01*
X185155057Y-190021485D01*
X185131247Y-190211961D01*
X185286009Y-188973866D02*
X185369342Y-189069104D01*
X185262200Y-189164342D01*
X185178866Y-189069104D01*
X185286009Y-188973866D01*
X185262200Y-189164342D01*
D10*
D11*
X178934342Y-185600057D02*
X178434342Y-185600057D01*
X178434342Y-186385771D02*
X178434342Y-184885771D01*
X179148628Y-184885771D01*
X179720057Y-186385771D02*
X179720057Y-185385771D01*
X179720057Y-184885771D02*
X179648628Y-184957200D01*
X179720057Y-185028628D01*
X179791485Y-184957200D01*
X179720057Y-184885771D01*
X179720057Y-185028628D01*
X180648628Y-186385771D02*
X180505771Y-186314342D01*
X180434342Y-186171485D01*
X180434342Y-184885771D01*
X181791485Y-186314342D02*
X181648628Y-186385771D01*
X181362914Y-186385771D01*
X181220057Y-186314342D01*
X181148628Y-186171485D01*
X181148628Y-185600057D01*
X181220057Y-185457200D01*
X181362914Y-185385771D01*
X181648628Y-185385771D01*
X181791485Y-185457200D01*
X181862914Y-185600057D01*
X181862914Y-185742914D01*
X181148628Y-185885771D01*
X182505771Y-186242914D02*
X182577200Y-186314342D01*
X182505771Y-186385771D01*
X182434342Y-186314342D01*
X182505771Y-186242914D01*
X182505771Y-186385771D01*
X182505771Y-185457200D02*
X182577200Y-185528628D01*
X182505771Y-185600057D01*
X182434342Y-185528628D01*
X182505771Y-185457200D01*
X182505771Y-185600057D01*
X184362914Y-186385771D02*
X184362914Y-184885771D01*
X184720057Y-184885771D01*
X184934342Y-184957200D01*
X185077200Y-185100057D01*
X185148628Y-185242914D01*
X185220057Y-185528628D01*
X185220057Y-185742914D01*
X185148628Y-186028628D01*
X185077200Y-186171485D01*
X184934342Y-186314342D01*
X184720057Y-186385771D01*
X184362914Y-186385771D01*
X186077200Y-186385771D02*
X185934342Y-186314342D01*
X185862914Y-186242914D01*
X185791485Y-186100057D01*
X185791485Y-185671485D01*
X185862914Y-185528628D01*
X185934342Y-185457200D01*
X186077200Y-185385771D01*
X186291485Y-185385771D01*
X186434342Y-185457200D01*
X186505771Y-185528628D01*
X186577200Y-185671485D01*
X186577200Y-186100057D01*
X186505771Y-186242914D01*
X186434342Y-186314342D01*
X186291485Y-186385771D01*
X186077200Y-186385771D01*
X187220057Y-186385771D02*
X187220057Y-185385771D01*
X187220057Y-185528628D02*
X187291485Y-185457200D01*
X187434342Y-185385771D01*
X187648628Y-185385771D01*
X187791485Y-185457200D01*
X187862914Y-185600057D01*
X187862914Y-186385771D01*
X187862914Y-185600057D02*
X187934342Y-185457200D01*
X188077200Y-185385771D01*
X188291485Y-185385771D01*
X188434342Y-185457200D01*
X188505771Y-185600057D01*
X188505771Y-186385771D01*
X189220057Y-186385771D02*
X189220057Y-184885771D01*
X189791485Y-184885771D01*
X189934342Y-184957200D01*
X190005771Y-185028628D01*
X190077200Y-185171485D01*
X190077200Y-185385771D01*
X190005771Y-185528628D01*
X189934342Y-185600057D01*
X189791485Y-185671485D01*
X189220057Y-185671485D01*
X190720057Y-186385771D02*
X190720057Y-185385771D01*
X190720057Y-184885771D02*
X190648628Y-184957200D01*
X190720057Y-185028628D01*
X190791485Y-184957200D01*
X190720057Y-184885771D01*
X190720057Y-185028628D01*
X191291485Y-184885771D02*
X191648628Y-186385771D01*
X191934342Y-185314342D01*
X192220057Y-186385771D01*
X192577200Y-184885771D01*
X193720057Y-186314342D02*
X193577200Y-186385771D01*
X193291485Y-186385771D01*
X193148628Y-186314342D01*
X193077200Y-186171485D01*
X193077200Y-185600057D01*
X193148628Y-185457200D01*
X193291485Y-185385771D01*
X193577200Y-185385771D01*
X193720057Y-185457200D01*
X193791485Y-185600057D01*
X193791485Y-185742914D01*
X193077200Y-185885771D01*
X194434342Y-186385771D02*
X194434342Y-184885771D01*
X194434342Y-185457200D02*
X194577200Y-185385771D01*
X194862914Y-185385771D01*
X195005771Y-185457200D01*
X195077200Y-185528628D01*
X195148628Y-185671485D01*
X195148628Y-186100057D01*
X195077200Y-186242914D01*
X195005771Y-186314342D01*
X194862914Y-186385771D01*
X194577200Y-186385771D01*
X194434342Y-186314342D01*
X195791485Y-186242914D02*
X195862914Y-186314342D01*
X195791485Y-186385771D01*
X195720057Y-186314342D01*
X195791485Y-186242914D01*
X195791485Y-186385771D01*
X196505771Y-186385771D02*
X196505771Y-184885771D01*
X196648628Y-185814342D02*
X197077200Y-186385771D01*
X197077200Y-185385771D02*
X196505771Y-185957200D01*
X197720057Y-186385771D02*
X197720057Y-185385771D01*
X197720057Y-184885771D02*
X197648628Y-184957200D01*
X197720057Y-185028628D01*
X197791485Y-184957200D01*
X197720057Y-184885771D01*
X197720057Y-185028628D01*
X199077200Y-186314342D02*
X198934342Y-186385771D01*
X198648628Y-186385771D01*
X198505771Y-186314342D01*
X198434342Y-186242914D01*
X198362914Y-186100057D01*
X198362914Y-185671485D01*
X198434342Y-185528628D01*
X198505771Y-185457200D01*
X198648628Y-185385771D01*
X198934342Y-185385771D01*
X199077200Y-185457200D01*
X200362914Y-186385771D02*
X200362914Y-185600057D01*
X200291485Y-185457200D01*
X200148628Y-185385771D01*
X199862914Y-185385771D01*
X199720057Y-185457200D01*
X200362914Y-186314342D02*
X200220057Y-186385771D01*
X199862914Y-186385771D01*
X199720057Y-186314342D01*
X199648628Y-186171485D01*
X199648628Y-186028628D01*
X199720057Y-185885771D01*
X199862914Y-185814342D01*
X200220057Y-185814342D01*
X200362914Y-185742914D01*
X201720057Y-186385771D02*
X201720057Y-184885771D01*
X201720057Y-186314342D02*
X201577200Y-186385771D01*
X201291485Y-186385771D01*
X201148628Y-186314342D01*
X201077200Y-186242914D01*
X201005771Y-186100057D01*
X201005771Y-185671485D01*
X201077200Y-185528628D01*
X201148628Y-185457200D01*
X201291485Y-185385771D01*
X201577200Y-185385771D01*
X201720057Y-185457200D01*
X202077200Y-186528628D02*
X203220057Y-186528628D01*
X203577200Y-185385771D02*
X203577200Y-186885771D01*
X203577200Y-185457200D02*
X203720057Y-185385771D01*
X204005771Y-185385771D01*
X204148628Y-185457200D01*
X204220057Y-185528628D01*
X204291485Y-185671485D01*
X204291485Y-186100057D01*
X204220057Y-186242914D01*
X204148628Y-186314342D01*
X204005771Y-186385771D01*
X203720057Y-186385771D01*
X203577200Y-186314342D01*
X205577200Y-186314342D02*
X205434342Y-186385771D01*
X205148628Y-186385771D01*
X205005771Y-186314342D01*
X204934342Y-186242914D01*
X204862914Y-186100057D01*
X204862914Y-185671485D01*
X204934342Y-185528628D01*
X205005771Y-185457200D01*
X205148628Y-185385771D01*
X205434342Y-185385771D01*
X205577200Y-185457200D01*
X206220057Y-186385771D02*
X206220057Y-184885771D01*
X206220057Y-185457200D02*
X206362914Y-185385771D01*
X206648628Y-185385771D01*
X206791485Y-185457200D01*
X206862914Y-185528628D01*
X206934342Y-185671485D01*
X206934342Y-186100057D01*
X206862914Y-186242914D01*
X206791485Y-186314342D01*
X206648628Y-186385771D01*
X206362914Y-186385771D01*
X206220057Y-186314342D01*
D10*
D11*
X177002200Y-181507200D02*
X285002200Y-181507200D01*
D10*
D11*
X178362914Y-183614342D02*
X178577200Y-183685771D01*
X178934342Y-183685771D01*
X179077200Y-183614342D01*
X179148628Y-183542914D01*
X179220057Y-183400057D01*
X179220057Y-183257200D01*
X179148628Y-183114342D01*
X179077200Y-183042914D01*
X178934342Y-182971485D01*
X178648628Y-182900057D01*
X178505771Y-182828628D01*
X178434342Y-182757200D01*
X178362914Y-182614342D01*
X178362914Y-182471485D01*
X178434342Y-182328628D01*
X178505771Y-182257200D01*
X178648628Y-182185771D01*
X179005771Y-182185771D01*
X179220057Y-182257200D01*
X179862914Y-183685771D02*
X179862914Y-182185771D01*
X180505771Y-183685771D02*
X180505771Y-182900057D01*
X180434342Y-182757200D01*
X180291485Y-182685771D01*
X180077200Y-182685771D01*
X179934342Y-182757200D01*
X179862914Y-182828628D01*
X181791485Y-183614342D02*
X181648628Y-183685771D01*
X181362914Y-183685771D01*
X181220057Y-183614342D01*
X181148628Y-183471485D01*
X181148628Y-182900057D01*
X181220057Y-182757200D01*
X181362914Y-182685771D01*
X181648628Y-182685771D01*
X181791485Y-182757200D01*
X181862914Y-182900057D01*
X181862914Y-183042914D01*
X181148628Y-183185771D01*
X183077200Y-183614342D02*
X182934342Y-183685771D01*
X182648628Y-183685771D01*
X182505771Y-183614342D01*
X182434342Y-183471485D01*
X182434342Y-182900057D01*
X182505771Y-182757200D01*
X182648628Y-182685771D01*
X182934342Y-182685771D01*
X183077200Y-182757200D01*
X183148628Y-182900057D01*
X183148628Y-183042914D01*
X182434342Y-183185771D01*
X183577200Y-182685771D02*
X184148628Y-182685771D01*
X183791485Y-182185771D02*
X183791485Y-183471485D01*
X183862914Y-183614342D01*
X184005771Y-183685771D01*
X184148628Y-183685771D01*
X184648628Y-183542914D02*
X184720057Y-183614342D01*
X184648628Y-183685771D01*
X184577200Y-183614342D01*
X184648628Y-183542914D01*
X184648628Y-183685771D01*
X184648628Y-182757200D02*
X184720057Y-182828628D01*
X184648628Y-182900057D01*
X184577200Y-182828628D01*
X184648628Y-182757200D01*
X184648628Y-182900057D01*
D10*
D11*
X197002200Y-191507200D02*
X197002200Y-194507200D01*
D10*
D11*
X261002200Y-191507200D02*
X261002200Y-198007200D01*
X156202380Y-66416666D02*
X156678571Y-66416666D01*
X156107142Y-66702380D02*
X156440476Y-65702380D01*
X156773809Y-66702380D01*
X157107142Y-66702380D02*
X157107142Y-65702380D01*
X157678571Y-66702380D01*
X157678571Y-65702380D01*
X158011904Y-65702380D02*
X158583333Y-65702380D01*
X158297619Y-66702380D02*
X158297619Y-65702380D01*
X158916666Y-66178571D02*
X159250000Y-66178571D01*
X159392857Y-66702380D02*
X158916666Y-66702380D01*
X158916666Y-65702380D01*
X159392857Y-65702380D01*
X159821428Y-66702380D02*
X159821428Y-65702380D01*
X160392857Y-66702380D01*
X160392857Y-65702380D01*
X160821428Y-66416666D02*
X161297619Y-66416666D01*
X160726190Y-66702380D02*
X161059523Y-65702380D01*
X161392857Y-66702380D01*
X169754761Y-111845238D02*
X169802380Y-111702380D01*
X169802380Y-111464285D01*
X169754761Y-111369047D01*
X169707142Y-111321428D01*
X169611904Y-111273809D01*
X169516666Y-111273809D01*
X169421428Y-111321428D01*
X169373809Y-111369047D01*
X169326190Y-111464285D01*
X169278571Y-111654761D01*
X169230952Y-111750000D01*
X169183333Y-111797619D01*
X169088095Y-111845238D01*
X168992857Y-111845238D01*
X168897619Y-111797619D01*
X168850000Y-111750000D01*
X168802380Y-111654761D01*
X168802380Y-111416666D01*
X168850000Y-111273809D01*
X169802380Y-110845238D02*
X168802380Y-110845238D01*
X169802380Y-110369047D02*
X168802380Y-110369047D01*
X169516666Y-110035714D01*
X168802380Y-109702380D01*
X169802380Y-109702380D01*
X137500000Y-119452380D02*
X137500000Y-118452380D01*
X138166666Y-118452380D02*
X138357142Y-118452380D01*
X138452380Y-118500000D01*
X138547619Y-118595238D01*
X138595238Y-118785714D01*
X138595238Y-119119047D01*
X138547619Y-119309523D01*
X138452380Y-119404761D01*
X138357142Y-119452380D01*
X138166666Y-119452380D01*
X138071428Y-119404761D01*
X137976190Y-119309523D01*
X137928571Y-119119047D01*
X137928571Y-118785714D01*
X137976190Y-118595238D01*
X138071428Y-118500000D01*
X138166666Y-118452380D01*
X139166666Y-118880952D02*
X139071428Y-118833333D01*
X139023809Y-118785714D01*
X138976190Y-118690476D01*
X138976190Y-118642857D01*
X139023809Y-118547619D01*
X139071428Y-118500000D01*
X139166666Y-118452380D01*
X139357142Y-118452380D01*
X139452380Y-118500000D01*
X139500000Y-118547619D01*
X139547619Y-118642857D01*
X139547619Y-118690476D01*
X139500000Y-118785714D01*
X139452380Y-118833333D01*
X139357142Y-118880952D01*
X139166666Y-118880952D01*
X139071428Y-118928571D01*
X139023809Y-118976190D01*
X138976190Y-119071428D01*
X138976190Y-119261904D01*
X139023809Y-119357142D01*
X139071428Y-119404761D01*
X139166666Y-119452380D01*
X139357142Y-119452380D01*
X139452380Y-119404761D01*
X139500000Y-119357142D01*
X139547619Y-119261904D01*
X139547619Y-119071428D01*
X139500000Y-118976190D01*
X139452380Y-118928571D01*
X139357142Y-118880952D01*
X132500000Y-119452380D02*
X132500000Y-118452380D01*
X133166666Y-118452380D02*
X133357142Y-118452380D01*
X133452380Y-118500000D01*
X133547619Y-118595238D01*
X133595238Y-118785714D01*
X133595238Y-119119047D01*
X133547619Y-119309523D01*
X133452380Y-119404761D01*
X133357142Y-119452380D01*
X133166666Y-119452380D01*
X133071428Y-119404761D01*
X132976190Y-119309523D01*
X132928571Y-119119047D01*
X132928571Y-118785714D01*
X132976190Y-118595238D01*
X133071428Y-118500000D01*
X133166666Y-118452380D01*
X133928571Y-118452380D02*
X134595238Y-118452380D01*
X134166666Y-119452380D01*
X127500000Y-119452380D02*
X127500000Y-118452380D01*
X128166666Y-118452380D02*
X128357142Y-118452380D01*
X128452380Y-118500000D01*
X128547619Y-118595238D01*
X128595238Y-118785714D01*
X128595238Y-119119047D01*
X128547619Y-119309523D01*
X128452380Y-119404761D01*
X128357142Y-119452380D01*
X128166666Y-119452380D01*
X128071428Y-119404761D01*
X127976190Y-119309523D01*
X127928571Y-119119047D01*
X127928571Y-118785714D01*
X127976190Y-118595238D01*
X128071428Y-118500000D01*
X128166666Y-118452380D01*
X129452380Y-118452380D02*
X129261904Y-118452380D01*
X129166666Y-118500000D01*
X129119047Y-118547619D01*
X129023809Y-118690476D01*
X128976190Y-118880952D01*
X128976190Y-119261904D01*
X129023809Y-119357142D01*
X129071428Y-119404761D01*
X129166666Y-119452380D01*
X129357142Y-119452380D01*
X129452380Y-119404761D01*
X129500000Y-119357142D01*
X129547619Y-119261904D01*
X129547619Y-119023809D01*
X129500000Y-118928571D01*
X129452380Y-118880952D01*
X129357142Y-118833333D01*
X129166666Y-118833333D01*
X129071428Y-118880952D01*
X129023809Y-118928571D01*
X128976190Y-119023809D01*
X122500000Y-119452380D02*
X122500000Y-118452380D01*
X123166666Y-118452380D02*
X123357142Y-118452380D01*
X123452380Y-118500000D01*
X123547619Y-118595238D01*
X123595238Y-118785714D01*
X123595238Y-119119047D01*
X123547619Y-119309523D01*
X123452380Y-119404761D01*
X123357142Y-119452380D01*
X123166666Y-119452380D01*
X123071428Y-119404761D01*
X122976190Y-119309523D01*
X122928571Y-119119047D01*
X122928571Y-118785714D01*
X122976190Y-118595238D01*
X123071428Y-118500000D01*
X123166666Y-118452380D01*
X124500000Y-118452380D02*
X124023809Y-118452380D01*
X123976190Y-118928571D01*
X124023809Y-118880952D01*
X124119047Y-118833333D01*
X124357142Y-118833333D01*
X124452380Y-118880952D01*
X124500000Y-118928571D01*
X124547619Y-119023809D01*
X124547619Y-119261904D01*
X124500000Y-119357142D01*
X124452380Y-119404761D01*
X124357142Y-119452380D01*
X124119047Y-119452380D01*
X124023809Y-119404761D01*
X123976190Y-119357142D01*
X117500000Y-119452380D02*
X117500000Y-118452380D01*
X118166666Y-118452380D02*
X118357142Y-118452380D01*
X118452380Y-118500000D01*
X118547619Y-118595238D01*
X118595238Y-118785714D01*
X118595238Y-119119047D01*
X118547619Y-119309523D01*
X118452380Y-119404761D01*
X118357142Y-119452380D01*
X118166666Y-119452380D01*
X118071428Y-119404761D01*
X117976190Y-119309523D01*
X117928571Y-119119047D01*
X117928571Y-118785714D01*
X117976190Y-118595238D01*
X118071428Y-118500000D01*
X118166666Y-118452380D01*
X119452380Y-118785714D02*
X119452380Y-119452380D01*
X119214285Y-118404761D02*
X118976190Y-119119047D01*
X119595238Y-119119047D01*
X112500000Y-119452380D02*
X112500000Y-118452380D01*
X113166666Y-118452380D02*
X113357142Y-118452380D01*
X113452380Y-118500000D01*
X113547619Y-118595238D01*
X113595238Y-118785714D01*
X113595238Y-119119047D01*
X113547619Y-119309523D01*
X113452380Y-119404761D01*
X113357142Y-119452380D01*
X113166666Y-119452380D01*
X113071428Y-119404761D01*
X112976190Y-119309523D01*
X112928571Y-119119047D01*
X112928571Y-118785714D01*
X112976190Y-118595238D01*
X113071428Y-118500000D01*
X113166666Y-118452380D01*
X113928571Y-118452380D02*
X114547619Y-118452380D01*
X114214285Y-118833333D01*
X114357142Y-118833333D01*
X114452380Y-118880952D01*
X114500000Y-118928571D01*
X114547619Y-119023809D01*
X114547619Y-119261904D01*
X114500000Y-119357142D01*
X114452380Y-119404761D01*
X114357142Y-119452380D01*
X114071428Y-119452380D01*
X113976190Y-119404761D01*
X113928571Y-119357142D01*
X107500000Y-119452380D02*
X107500000Y-118452380D01*
X108166666Y-118452380D02*
X108357142Y-118452380D01*
X108452380Y-118500000D01*
X108547619Y-118595238D01*
X108595238Y-118785714D01*
X108595238Y-119119047D01*
X108547619Y-119309523D01*
X108452380Y-119404761D01*
X108357142Y-119452380D01*
X108166666Y-119452380D01*
X108071428Y-119404761D01*
X107976190Y-119309523D01*
X107928571Y-119119047D01*
X107928571Y-118785714D01*
X107976190Y-118595238D01*
X108071428Y-118500000D01*
X108166666Y-118452380D01*
X108976190Y-118547619D02*
X109023809Y-118500000D01*
X109119047Y-118452380D01*
X109357142Y-118452380D01*
X109452380Y-118500000D01*
X109500000Y-118547619D01*
X109547619Y-118642857D01*
X109547619Y-118738095D01*
X109500000Y-118880952D01*
X108928571Y-119452380D01*
X109547619Y-119452380D01*
X102500000Y-119452380D02*
X102500000Y-118452380D01*
X103166666Y-118452380D02*
X103357142Y-118452380D01*
X103452380Y-118500000D01*
X103547619Y-118595238D01*
X103595238Y-118785714D01*
X103595238Y-119119047D01*
X103547619Y-119309523D01*
X103452380Y-119404761D01*
X103357142Y-119452380D01*
X103166666Y-119452380D01*
X103071428Y-119404761D01*
X102976190Y-119309523D01*
X102928571Y-119119047D01*
X102928571Y-118785714D01*
X102976190Y-118595238D01*
X103071428Y-118500000D01*
X103166666Y-118452380D01*
X104547619Y-119452380D02*
X103976190Y-119452380D01*
X104261904Y-119452380D02*
X104261904Y-118452380D01*
X104166666Y-118595238D01*
X104071428Y-118690476D01*
X103976190Y-118738095D01*
X97857142Y-118500000D02*
X97761904Y-118452380D01*
X97619047Y-118452380D01*
X97476190Y-118500000D01*
X97380952Y-118595238D01*
X97333333Y-118690476D01*
X97285714Y-118880952D01*
X97285714Y-119023809D01*
X97333333Y-119214285D01*
X97380952Y-119309523D01*
X97476190Y-119404761D01*
X97619047Y-119452380D01*
X97714285Y-119452380D01*
X97857142Y-119404761D01*
X97904761Y-119357142D01*
X97904761Y-119023809D01*
X97714285Y-119023809D01*
X98333333Y-118785714D02*
X98333333Y-119452380D01*
X98333333Y-118880952D02*
X98380952Y-118833333D01*
X98476190Y-118785714D01*
X98619047Y-118785714D01*
X98714285Y-118833333D01*
X98761904Y-118928571D01*
X98761904Y-119452380D01*
X99666666Y-119452380D02*
X99666666Y-118452380D01*
X99666666Y-119404761D02*
X99571428Y-119452380D01*
X99380952Y-119452380D01*
X99285714Y-119404761D01*
X99238095Y-119357142D01*
X99190476Y-119261904D01*
X99190476Y-118976190D01*
X99238095Y-118880952D01*
X99285714Y-118833333D01*
X99380952Y-118785714D01*
X99571428Y-118785714D01*
X99666666Y-118833333D01*
X93357142Y-118452380D02*
X92880952Y-118452380D01*
X92833333Y-118928571D01*
X92880952Y-118880952D01*
X92976190Y-118833333D01*
X93214285Y-118833333D01*
X93309523Y-118880952D01*
X93357142Y-118928571D01*
X93404761Y-119023809D01*
X93404761Y-119261904D01*
X93357142Y-119357142D01*
X93309523Y-119404761D01*
X93214285Y-119452380D01*
X92976190Y-119452380D01*
X92880952Y-119404761D01*
X92833333Y-119357142D01*
X93738095Y-118785714D02*
X93976190Y-119452380D01*
X94214285Y-118785714D01*
D14*
X125510000Y-67670000D02*
X125510000Y-72870000D01*
X135730000Y-67670000D02*
X125510000Y-67670000D01*
X138330000Y-72870000D02*
X125510000Y-72870000D01*
X135730000Y-67670000D02*
X135730000Y-70270000D01*
X135730000Y-70270000D02*
X138330000Y-70270000D01*
X138330000Y-70270000D02*
X138330000Y-72870000D01*
X137000000Y-67670000D02*
X138330000Y-67670000D01*
X138330000Y-67670000D02*
X138330000Y-69000000D01*
D15*
X153600000Y-105250000D02*
X153600000Y-103800000D01*
X156950000Y-103800000D02*
X153600000Y-103800000D01*
X155500000Y-105250000D02*
X153600000Y-105250000D01*
X156950000Y-117200000D02*
X153600000Y-117200000D01*
X167000000Y-117200000D02*
X167000000Y-115250000D01*
X167000000Y-117200000D02*
X165000000Y-117200000D01*
X167000000Y-105750000D02*
X167000000Y-103800000D01*
X167000000Y-103800000D02*
X165000000Y-103800000D01*
X153600000Y-117200000D02*
X153600000Y-115750000D01*
X155500000Y-115750000D02*
X153600000Y-115750000D01*
D14*
X110727064Y-104765000D02*
X110272936Y-104765000D01*
X110727064Y-106235000D02*
X110272936Y-106235000D01*
X107735000Y-102227064D02*
X107735000Y-101772936D01*
X106265000Y-102227064D02*
X106265000Y-101772936D01*
X132238748Y-105235000D02*
X132761252Y-105235000D01*
X132238748Y-103765000D02*
X132761252Y-103765000D01*
X125250000Y-92850000D02*
G75*
G02X125650000Y-93250000I0J-400000D01*
G01*
X125650000Y-104750000D02*
G75*
G02X125250000Y-105150000I-400000J0D01*
G01*
X113750000Y-105150000D02*
G75*
G02X113350000Y-104750000I0J400000D01*
G01*
X113350000Y-93250000D02*
G75*
G02X113750000Y-92850000I400000J0D01*
G01*
X113750000Y-92850000D02*
X125250000Y-92850000D01*
X113350000Y-93250000D02*
X113350000Y-96000000D01*
X125250000Y-105150000D02*
X113750000Y-105150000D01*
X125650000Y-93250000D02*
X125650000Y-96000000D01*
X113350000Y-102000000D02*
X113350000Y-104750000D01*
X125650000Y-102000000D02*
X125650000Y-104750000D01*
X110180000Y-72000000D02*
G75*
G03X110180000Y-72000000I-2180000J0D01*
G01*
X105180000Y-72000000D02*
G75*
G03X105180000Y-72000000I-2180000J0D01*
G01*
X110560000Y-67400000D02*
X100440000Y-67400000D01*
X110560000Y-68500000D02*
X100440000Y-68500000D01*
X110560000Y-76060000D02*
X100440000Y-76060000D01*
X110560000Y-66940000D02*
X100440000Y-66940000D01*
X110560000Y-76060000D02*
X110560000Y-66940000D01*
X100440000Y-76060000D02*
X100440000Y-66940000D01*
X106346000Y-73388000D02*
X106453000Y-73281000D01*
X109282000Y-70453000D02*
X109388000Y-70346000D01*
X106612000Y-73654000D02*
X106719000Y-73547000D01*
X109548000Y-70719000D02*
X109654000Y-70612000D01*
X101346000Y-73388000D02*
X101741000Y-72992000D01*
X104007000Y-70726000D02*
X104387000Y-70346000D01*
X101612000Y-73654000D02*
X101992000Y-73274000D01*
X104258000Y-71008000D02*
X104653000Y-70612000D01*
X110800000Y-67340000D02*
X110800000Y-66700000D01*
X110800000Y-66700000D02*
X110400000Y-66700000D01*
X100180000Y-72000000D02*
G75*
G03X100180000Y-72000000I-2180000J0D01*
G01*
X95180000Y-72000000D02*
G75*
G03X95180000Y-72000000I-2180000J0D01*
G01*
X100560000Y-67400000D02*
X90440000Y-67400000D01*
X100560000Y-68500000D02*
X90440000Y-68500000D01*
X100560000Y-76060000D02*
X90440000Y-76060000D01*
X100560000Y-66940000D02*
X90440000Y-66940000D01*
X100560000Y-76060000D02*
X100560000Y-66940000D01*
X90440000Y-76060000D02*
X90440000Y-66940000D01*
X96346000Y-73388000D02*
X96453000Y-73281000D01*
X99282000Y-70453000D02*
X99388000Y-70346000D01*
X96612000Y-73654000D02*
X96719000Y-73547000D01*
X99548000Y-70719000D02*
X99654000Y-70612000D01*
X91346000Y-73388000D02*
X91741000Y-72992000D01*
X94007000Y-70726000D02*
X94387000Y-70346000D01*
X91612000Y-73654000D02*
X91992000Y-73274000D01*
X94258000Y-71008000D02*
X94653000Y-70612000D01*
X100800000Y-67340000D02*
X100800000Y-66700000D01*
X100800000Y-66700000D02*
X100400000Y-66700000D01*
X142340000Y-74630000D02*
X145060000Y-74630000D01*
X145060000Y-74630000D02*
X145060000Y-69650000D01*
X142340000Y-74630000D02*
X142340000Y-69650000D01*
X111360000Y-97220000D02*
X108640000Y-97220000D01*
X108640000Y-97220000D02*
X108640000Y-102200000D01*
X111360000Y-97220000D02*
X111360000Y-102200000D01*
X136150000Y-98240000D02*
X127915000Y-98240000D01*
X127915000Y-98240000D02*
X127915000Y-102760000D01*
X127915000Y-102760000D02*
X136150000Y-102760000D01*
X175640000Y-84780000D02*
X178360000Y-84780000D01*
X178360000Y-84780000D02*
X178360000Y-79800000D01*
X175640000Y-84780000D02*
X175640000Y-79800000D01*
X162420000Y-93640000D02*
X162420000Y-96360000D01*
X162420000Y-96360000D02*
X167400000Y-96360000D01*
X162420000Y-93640000D02*
X167400000Y-93640000D01*
X159701248Y-76765000D02*
X160223752Y-76765000D01*
X159701248Y-78235000D02*
X160223752Y-78235000D01*
X164700000Y-70000000D02*
X164700000Y-70500000D01*
X163300000Y-70000000D02*
X163300000Y-70500000D01*
X163300000Y-70000000D02*
X162700000Y-70000000D01*
X162700000Y-70000000D02*
X162500000Y-69800000D01*
X165500000Y-69800000D02*
X165500000Y-70000000D01*
X165500000Y-70000000D02*
X164700000Y-70000000D01*
X164700000Y-67000000D02*
X165500000Y-67000000D01*
X165500000Y-67000000D02*
X165500000Y-67200000D01*
X162500000Y-67200000D02*
X162500000Y-67000000D01*
X162500000Y-67000000D02*
X163300000Y-67000000D01*
X141365000Y-115412500D02*
X141365000Y-119472500D01*
X141365000Y-119472500D02*
X143635000Y-119472500D01*
X143635000Y-119472500D02*
X143635000Y-115412500D01*
X148365000Y-109412500D02*
X148365000Y-113472500D01*
X148365000Y-113472500D02*
X150635000Y-113472500D01*
X150635000Y-113472500D02*
X150635000Y-109412500D01*
X148365000Y-115387500D02*
X148365000Y-119447500D01*
X148365000Y-119447500D02*
X150635000Y-119447500D01*
X150635000Y-119447500D02*
X150635000Y-115387500D01*
X144865000Y-109387500D02*
X144865000Y-113447500D01*
X144865000Y-113447500D02*
X147135000Y-113447500D01*
X147135000Y-113447500D02*
X147135000Y-109387500D01*
X144865000Y-115387500D02*
X144865000Y-119447500D01*
X144865000Y-119447500D02*
X147135000Y-119447500D01*
X147135000Y-119447500D02*
X147135000Y-115387500D01*
X129765000Y-93227064D02*
X129765000Y-92772936D01*
X131235000Y-93227064D02*
X131235000Y-92772936D01*
X131235000Y-84272936D02*
X131235000Y-84727064D01*
X129765000Y-84272936D02*
X129765000Y-84727064D01*
X173235000Y-72272936D02*
X173235000Y-72727064D01*
X171765000Y-72272936D02*
X171765000Y-72727064D01*
X175735000Y-72272936D02*
X175735000Y-72727064D01*
X174265000Y-72272936D02*
X174265000Y-72727064D01*
X99265000Y-93227064D02*
X99265000Y-92772936D01*
X100735000Y-93227064D02*
X100735000Y-92772936D01*
X101765000Y-93227064D02*
X101765000Y-92772936D01*
X103235000Y-93227064D02*
X103235000Y-92772936D01*
X105735000Y-84272936D02*
X105735000Y-84727064D01*
X104265000Y-84272936D02*
X104265000Y-84727064D01*
X134765000Y-93227064D02*
X134765000Y-92772936D01*
X136235000Y-93227064D02*
X136235000Y-92772936D01*
X136235000Y-84272936D02*
X136235000Y-84727064D01*
X134765000Y-84272936D02*
X134765000Y-84727064D01*
X104265000Y-93227064D02*
X104265000Y-92772936D01*
X105735000Y-93227064D02*
X105735000Y-92772936D01*
X127265000Y-93227064D02*
X127265000Y-92772936D01*
X128735000Y-93227064D02*
X128735000Y-92772936D01*
X176765000Y-72727064D02*
X176765000Y-72272936D01*
X178235000Y-72727064D02*
X178235000Y-72272936D01*
X112535000Y-80472936D02*
X112535000Y-80927064D01*
X111065000Y-80472936D02*
X111065000Y-80927064D01*
X106765000Y-84727064D02*
X106765000Y-84272936D01*
X108235000Y-84727064D02*
X108235000Y-84272936D01*
X141235000Y-92772936D02*
X141235000Y-93227064D01*
X139765000Y-92772936D02*
X139765000Y-93227064D01*
X138735000Y-92772936D02*
X138735000Y-93227064D01*
X137265000Y-92772936D02*
X137265000Y-93227064D01*
X110735000Y-92772936D02*
X110735000Y-93227064D01*
X109265000Y-92772936D02*
X109265000Y-93227064D01*
X119765000Y-84727064D02*
X119765000Y-84272936D01*
X121235000Y-84727064D02*
X121235000Y-84272936D01*
X124765000Y-84727064D02*
X124765000Y-84272936D01*
X126235000Y-84727064D02*
X126235000Y-84272936D01*
X123735000Y-84272936D02*
X123735000Y-84727064D01*
X122265000Y-84272936D02*
X122265000Y-84727064D01*
X147285000Y-70272936D02*
X147285000Y-70727064D01*
X145815000Y-70272936D02*
X145815000Y-70727064D01*
X116810000Y-82230000D02*
X116810000Y-81300000D01*
X116810000Y-79070000D02*
X116810000Y-80000000D01*
X116810000Y-79070000D02*
X114650000Y-79070000D01*
X116810000Y-82230000D02*
X115350000Y-82230000D01*
X120180000Y-72000000D02*
G75*
G03X120180000Y-72000000I-2180000J0D01*
G01*
X115180000Y-72000000D02*
G75*
G03X115180000Y-72000000I-2180000J0D01*
G01*
X120560000Y-67400000D02*
X110440000Y-67400000D01*
X120560000Y-68500000D02*
X110440000Y-68500000D01*
X120560000Y-76060000D02*
X110440000Y-76060000D01*
X120560000Y-66940000D02*
X110440000Y-66940000D01*
X120560000Y-76060000D02*
X120560000Y-66940000D01*
X110440000Y-76060000D02*
X110440000Y-66940000D01*
X116346000Y-73388000D02*
X116453000Y-73281000D01*
X119282000Y-70453000D02*
X119388000Y-70346000D01*
X116612000Y-73654000D02*
X116719000Y-73547000D01*
X119548000Y-70719000D02*
X119654000Y-70612000D01*
X111346000Y-73388000D02*
X111741000Y-72992000D01*
X114007000Y-70726000D02*
X114387000Y-70346000D01*
X111612000Y-73654000D02*
X111992000Y-73274000D01*
X114258000Y-71008000D02*
X114653000Y-70612000D01*
X120800000Y-67340000D02*
X120800000Y-66700000D01*
X120800000Y-66700000D02*
X120400000Y-66700000D01*
X151960000Y-72030000D02*
X151960000Y-71100000D01*
X151960000Y-68870000D02*
X151960000Y-69800000D01*
X151960000Y-68870000D02*
X149800000Y-68870000D01*
X151960000Y-72030000D02*
X150500000Y-72030000D01*
X168550000Y-67170000D02*
X168550000Y-69830000D01*
X176230000Y-67170000D02*
X168550000Y-67170000D01*
X176230000Y-69830000D02*
X168550000Y-69830000D01*
X176230000Y-67170000D02*
X176230000Y-69830000D01*
X177500000Y-67170000D02*
X178830000Y-67170000D01*
X178830000Y-67170000D02*
X178830000Y-68500000D01*
X95180000Y-113000000D02*
G75*
G03X95180000Y-113000000I-2180000J0D01*
G01*
X100180000Y-113000000D02*
G75*
G03X100180000Y-113000000I-2180000J0D01*
G01*
X90440000Y-117600000D02*
X100560000Y-117600000D01*
X90440000Y-116500000D02*
X100560000Y-116500000D01*
X90440000Y-108940000D02*
X100560000Y-108940000D01*
X90440000Y-118060000D02*
X100560000Y-118060000D01*
X90440000Y-108940000D02*
X90440000Y-118060000D01*
X100560000Y-108940000D02*
X100560000Y-118060000D01*
X94654000Y-111612000D02*
X94547000Y-111719000D01*
X91718000Y-114547000D02*
X91612000Y-114654000D01*
X94388000Y-111346000D02*
X94281000Y-111453000D01*
X91452000Y-114281000D02*
X91346000Y-114388000D01*
X99654000Y-111612000D02*
X99259000Y-112008000D01*
X96993000Y-114274000D02*
X96613000Y-114654000D01*
X99388000Y-111346000D02*
X99008000Y-111726000D01*
X96742000Y-113992000D02*
X96347000Y-114388000D01*
X90200000Y-117660000D02*
X90200000Y-118300000D01*
X90200000Y-118300000D02*
X90600000Y-118300000D01*
X105180000Y-113000000D02*
G75*
G03X105180000Y-113000000I-2180000J0D01*
G01*
X110180000Y-113000000D02*
G75*
G03X110180000Y-113000000I-2180000J0D01*
G01*
X115180000Y-113000000D02*
G75*
G03X115180000Y-113000000I-2180000J0D01*
G01*
X100440000Y-117600000D02*
X115560000Y-117600000D01*
X100440000Y-116500000D02*
X115560000Y-116500000D01*
X100440000Y-108940000D02*
X115560000Y-108940000D01*
X100440000Y-118060000D02*
X115560000Y-118060000D01*
X100440000Y-108940000D02*
X100440000Y-118060000D01*
X115560000Y-108940000D02*
X115560000Y-118060000D01*
X104654000Y-111612000D02*
X104547000Y-111719000D01*
X101718000Y-114547000D02*
X101612000Y-114654000D01*
X104388000Y-111346000D02*
X104281000Y-111453000D01*
X101452000Y-114281000D02*
X101346000Y-114388000D01*
X109654000Y-111612000D02*
X109259000Y-112008000D01*
X106993000Y-114274000D02*
X106613000Y-114654000D01*
X109388000Y-111346000D02*
X109008000Y-111726000D01*
X106742000Y-113992000D02*
X106347000Y-114388000D01*
X114654000Y-111612000D02*
X114259000Y-112008000D01*
X111993000Y-114274000D02*
X111613000Y-114654000D01*
X114388000Y-111346000D02*
X114008000Y-111726000D01*
X111742000Y-113992000D02*
X111347000Y-114388000D01*
X100200000Y-117660000D02*
X100200000Y-118300000D01*
X100200000Y-118300000D02*
X100600000Y-118300000D01*
X120180000Y-113000000D02*
G75*
G03X120180000Y-113000000I-2180000J0D01*
G01*
X125180000Y-113000000D02*
G75*
G03X125180000Y-113000000I-2180000J0D01*
G01*
X115440000Y-117600000D02*
X125560000Y-117600000D01*
X115440000Y-116500000D02*
X125560000Y-116500000D01*
X115440000Y-108940000D02*
X125560000Y-108940000D01*
X115440000Y-118060000D02*
X125560000Y-118060000D01*
X115440000Y-108940000D02*
X115440000Y-118060000D01*
X125560000Y-108940000D02*
X125560000Y-118060000D01*
X119654000Y-111612000D02*
X119547000Y-111719000D01*
X116718000Y-114547000D02*
X116612000Y-114654000D01*
X119388000Y-111346000D02*
X119281000Y-111453000D01*
X116452000Y-114281000D02*
X116346000Y-114388000D01*
X124654000Y-111612000D02*
X124259000Y-112008000D01*
X121993000Y-114274000D02*
X121613000Y-114654000D01*
X124388000Y-111346000D02*
X124008000Y-111726000D01*
X121742000Y-113992000D02*
X121347000Y-114388000D01*
X115200000Y-117660000D02*
X115200000Y-118300000D01*
X115200000Y-118300000D02*
X115600000Y-118300000D01*
X130180000Y-113000000D02*
G75*
G03X130180000Y-113000000I-2180000J0D01*
G01*
X135180000Y-113000000D02*
G75*
G03X135180000Y-113000000I-2180000J0D01*
G01*
X140180000Y-113000000D02*
G75*
G03X140180000Y-113000000I-2180000J0D01*
G01*
X125440000Y-117600000D02*
X140560000Y-117600000D01*
X125440000Y-116500000D02*
X140560000Y-116500000D01*
X125440000Y-108940000D02*
X140560000Y-108940000D01*
X125440000Y-118060000D02*
X140560000Y-118060000D01*
X125440000Y-108940000D02*
X125440000Y-118060000D01*
X140560000Y-108940000D02*
X140560000Y-118060000D01*
X129654000Y-111612000D02*
X129547000Y-111719000D01*
X126718000Y-114547000D02*
X126612000Y-114654000D01*
X129388000Y-111346000D02*
X129281000Y-111453000D01*
X126452000Y-114281000D02*
X126346000Y-114388000D01*
X134654000Y-111612000D02*
X134259000Y-112008000D01*
X131993000Y-114274000D02*
X131613000Y-114654000D01*
X134388000Y-111346000D02*
X134008000Y-111726000D01*
X131742000Y-113992000D02*
X131347000Y-114388000D01*
X139654000Y-111612000D02*
X139259000Y-112008000D01*
X136993000Y-114274000D02*
X136613000Y-114654000D01*
X139388000Y-111346000D02*
X139008000Y-111726000D01*
X136742000Y-113992000D02*
X136347000Y-114388000D01*
X125200000Y-117660000D02*
X125200000Y-118300000D01*
X125200000Y-118300000D02*
X125600000Y-118300000D01*
X171150000Y-86590000D02*
X162915000Y-86590000D01*
X162915000Y-86590000D02*
X162915000Y-91110000D01*
X162915000Y-91110000D02*
X171150000Y-91110000D01*
X169650000Y-80240000D02*
X161415000Y-80240000D01*
X161415000Y-80240000D02*
X161415000Y-84760000D01*
X161415000Y-84760000D02*
X169650000Y-84760000D01*
D11*
X131666666Y-73952380D02*
X131666666Y-74666666D01*
X131619047Y-74809523D01*
X131523809Y-74904761D01*
X131380952Y-74952380D01*
X131285714Y-74952380D01*
X132285714Y-74380952D02*
X132190476Y-74333333D01*
X132142857Y-74285714D01*
X132095238Y-74190476D01*
X132095238Y-74142857D01*
X132142857Y-74047619D01*
X132190476Y-74000000D01*
X132285714Y-73952380D01*
X132476190Y-73952380D01*
X132571428Y-74000000D01*
X132619047Y-74047619D01*
X132666666Y-74142857D01*
X132666666Y-74190476D01*
X132619047Y-74285714D01*
X132571428Y-74333333D01*
X132476190Y-74380952D01*
X132285714Y-74380952D01*
X132190476Y-74428571D01*
X132142857Y-74476190D01*
X132095238Y-74571428D01*
X132095238Y-74761904D01*
X132142857Y-74857142D01*
X132190476Y-74904761D01*
X132285714Y-74952380D01*
X132476190Y-74952380D01*
X132571428Y-74904761D01*
X132619047Y-74857142D01*
X132666666Y-74761904D01*
X132666666Y-74571428D01*
X132619047Y-74476190D01*
X132571428Y-74428571D01*
X132476190Y-74380952D01*
X130283333Y-65928571D02*
X130616666Y-65928571D01*
X130759523Y-66452380D02*
X130283333Y-66452380D01*
X130283333Y-65452380D01*
X130759523Y-65452380D01*
X131092857Y-65452380D02*
X131759523Y-66452380D01*
X131759523Y-65452380D02*
X131092857Y-66452380D01*
X132140476Y-66452380D02*
X132140476Y-65452380D01*
X132521428Y-65452380D01*
X132616666Y-65500000D01*
X132664285Y-65547619D01*
X132711904Y-65642857D01*
X132711904Y-65785714D01*
X132664285Y-65880952D01*
X132616666Y-65928571D01*
X132521428Y-65976190D01*
X132140476Y-65976190D01*
X133664285Y-66452380D02*
X133092857Y-66452380D01*
X133378571Y-66452380D02*
X133378571Y-65452380D01*
X133283333Y-65595238D01*
X133188095Y-65690476D01*
X133092857Y-65738095D01*
D16*
X151067627Y-112981129D02*
X152211772Y-112981129D01*
X152440601Y-113057405D01*
X152593153Y-113209958D01*
X152669430Y-113438787D01*
X152669430Y-113591340D01*
X151067627Y-111455602D02*
X151067627Y-112218366D01*
X151830390Y-112294642D01*
X151754114Y-112218366D01*
X151677837Y-112065813D01*
X151677837Y-111684431D01*
X151754114Y-111531879D01*
X151830390Y-111455602D01*
X151982943Y-111379326D01*
X152364324Y-111379326D01*
X152516877Y-111455602D01*
X152593153Y-111531879D01*
X152669430Y-111684431D01*
X152669430Y-112065813D01*
X152593153Y-112218366D01*
X152516877Y-112294642D01*
D11*
X110333333Y-107602380D02*
X110000000Y-107126190D01*
X109761904Y-107602380D02*
X109761904Y-106602380D01*
X110142857Y-106602380D01*
X110238095Y-106650000D01*
X110285714Y-106697619D01*
X110333333Y-106792857D01*
X110333333Y-106935714D01*
X110285714Y-107030952D01*
X110238095Y-107078571D01*
X110142857Y-107126190D01*
X109761904Y-107126190D01*
X110666666Y-106602380D02*
X111285714Y-106602380D01*
X110952380Y-106983333D01*
X111095238Y-106983333D01*
X111190476Y-107030952D01*
X111238095Y-107078571D01*
X111285714Y-107173809D01*
X111285714Y-107411904D01*
X111238095Y-107507142D01*
X111190476Y-107554761D01*
X111095238Y-107602380D01*
X110809523Y-107602380D01*
X110714285Y-107554761D01*
X110666666Y-107507142D01*
X105802380Y-102166666D02*
X105326190Y-102500000D01*
X105802380Y-102738095D02*
X104802380Y-102738095D01*
X104802380Y-102357142D01*
X104850000Y-102261904D01*
X104897619Y-102214285D01*
X104992857Y-102166666D01*
X105135714Y-102166666D01*
X105230952Y-102214285D01*
X105278571Y-102261904D01*
X105326190Y-102357142D01*
X105326190Y-102738095D01*
X104897619Y-101785714D02*
X104850000Y-101738095D01*
X104802380Y-101642857D01*
X104802380Y-101404761D01*
X104850000Y-101309523D01*
X104897619Y-101261904D01*
X104992857Y-101214285D01*
X105088095Y-101214285D01*
X105230952Y-101261904D01*
X105802380Y-101833333D01*
X105802380Y-101214285D01*
X135370833Y-104857142D02*
X135323214Y-104904761D01*
X135180357Y-104952380D01*
X135085119Y-104952380D01*
X134942261Y-104904761D01*
X134847023Y-104809523D01*
X134799404Y-104714285D01*
X134751785Y-104523809D01*
X134751785Y-104380952D01*
X134799404Y-104190476D01*
X134847023Y-104095238D01*
X134942261Y-104000000D01*
X135085119Y-103952380D01*
X135180357Y-103952380D01*
X135323214Y-104000000D01*
X135370833Y-104047619D01*
X136227976Y-104285714D02*
X136227976Y-104952380D01*
X135989880Y-103904761D02*
X135751785Y-104619047D01*
X136370833Y-104619047D01*
X126833333Y-104452380D02*
X126357142Y-104452380D01*
X126357142Y-103452380D01*
X127690476Y-104452380D02*
X127119047Y-104452380D01*
X127404761Y-104452380D02*
X127404761Y-103452380D01*
X127309523Y-103595238D01*
X127214285Y-103690476D01*
X127119047Y-103738095D01*
X105166666Y-74452380D02*
X105166666Y-75166666D01*
X105119047Y-75309523D01*
X105023809Y-75404761D01*
X104880952Y-75452380D01*
X104785714Y-75452380D01*
X105595238Y-74547619D02*
X105642857Y-74500000D01*
X105738095Y-74452380D01*
X105976190Y-74452380D01*
X106071428Y-74500000D01*
X106119047Y-74547619D01*
X106166666Y-74642857D01*
X106166666Y-74738095D01*
X106119047Y-74880952D01*
X105547619Y-75452380D01*
X106166666Y-75452380D01*
X102119047Y-66494761D02*
X102261904Y-66542380D01*
X102500000Y-66542380D01*
X102595238Y-66494761D01*
X102642857Y-66447142D01*
X102690476Y-66351904D01*
X102690476Y-66256666D01*
X102642857Y-66161428D01*
X102595238Y-66113809D01*
X102500000Y-66066190D01*
X102309523Y-66018571D01*
X102214285Y-65970952D01*
X102166666Y-65923333D01*
X102119047Y-65828095D01*
X102119047Y-65732857D01*
X102166666Y-65637619D01*
X102214285Y-65590000D01*
X102309523Y-65542380D01*
X102547619Y-65542380D01*
X102690476Y-65590000D01*
X103547619Y-66542380D02*
X103547619Y-66018571D01*
X103500000Y-65923333D01*
X103404761Y-65875714D01*
X103214285Y-65875714D01*
X103119047Y-65923333D01*
X103547619Y-66494761D02*
X103452380Y-66542380D01*
X103214285Y-66542380D01*
X103119047Y-66494761D01*
X103071428Y-66399523D01*
X103071428Y-66304285D01*
X103119047Y-66209047D01*
X103214285Y-66161428D01*
X103452380Y-66161428D01*
X103547619Y-66113809D01*
X104166666Y-66542380D02*
X104071428Y-66494761D01*
X104023809Y-66399523D01*
X104023809Y-65542380D01*
X104547619Y-66542380D02*
X104547619Y-65875714D01*
X104547619Y-65542380D02*
X104500000Y-65590000D01*
X104547619Y-65637619D01*
X104595238Y-65590000D01*
X104547619Y-65542380D01*
X104547619Y-65637619D01*
X105452380Y-66542380D02*
X105452380Y-65542380D01*
X105452380Y-66494761D02*
X105357142Y-66542380D01*
X105166666Y-66542380D01*
X105071428Y-66494761D01*
X105023809Y-66447142D01*
X104976190Y-66351904D01*
X104976190Y-66066190D01*
X105023809Y-65970952D01*
X105071428Y-65923333D01*
X105166666Y-65875714D01*
X105357142Y-65875714D01*
X105452380Y-65923333D01*
X106357142Y-66542380D02*
X106357142Y-66018571D01*
X106309523Y-65923333D01*
X106214285Y-65875714D01*
X106023809Y-65875714D01*
X105928571Y-65923333D01*
X106357142Y-66494761D02*
X106261904Y-66542380D01*
X106023809Y-66542380D01*
X105928571Y-66494761D01*
X105880952Y-66399523D01*
X105880952Y-66304285D01*
X105928571Y-66209047D01*
X106023809Y-66161428D01*
X106261904Y-66161428D01*
X106357142Y-66113809D01*
X108071428Y-65542380D02*
X107595238Y-65542380D01*
X107547619Y-66018571D01*
X107595238Y-65970952D01*
X107690476Y-65923333D01*
X107928571Y-65923333D01*
X108023809Y-65970952D01*
X108071428Y-66018571D01*
X108119047Y-66113809D01*
X108119047Y-66351904D01*
X108071428Y-66447142D01*
X108023809Y-66494761D01*
X107928571Y-66542380D01*
X107690476Y-66542380D01*
X107595238Y-66494761D01*
X107547619Y-66447142D01*
X108452380Y-65875714D02*
X108690476Y-66542380D01*
X108928571Y-65875714D01*
X94666666Y-74452380D02*
X94666666Y-75166666D01*
X94619047Y-75309523D01*
X94523809Y-75404761D01*
X94380952Y-75452380D01*
X94285714Y-75452380D01*
X95666666Y-75452380D02*
X95095238Y-75452380D01*
X95380952Y-75452380D02*
X95380952Y-74452380D01*
X95285714Y-74595238D01*
X95190476Y-74690476D01*
X95095238Y-74738095D01*
X91166666Y-66018571D02*
X91500000Y-66018571D01*
X91642857Y-66542380D02*
X91166666Y-66542380D01*
X91166666Y-65542380D01*
X91642857Y-65542380D01*
X92071428Y-65875714D02*
X92071428Y-66542380D01*
X92071428Y-65970952D02*
X92119047Y-65923333D01*
X92214285Y-65875714D01*
X92357142Y-65875714D01*
X92452380Y-65923333D01*
X92500000Y-66018571D01*
X92500000Y-66542380D01*
X92833333Y-65875714D02*
X93214285Y-65875714D01*
X92976190Y-65542380D02*
X92976190Y-66399523D01*
X93023809Y-66494761D01*
X93119047Y-66542380D01*
X93214285Y-66542380D01*
X93547619Y-66542380D02*
X93547619Y-65875714D01*
X93547619Y-66066190D02*
X93595238Y-65970952D01*
X93642857Y-65923333D01*
X93738095Y-65875714D01*
X93833333Y-65875714D01*
X94595238Y-66542380D02*
X94595238Y-66018571D01*
X94547619Y-65923333D01*
X94452380Y-65875714D01*
X94261904Y-65875714D01*
X94166666Y-65923333D01*
X94595238Y-66494761D02*
X94500000Y-66542380D01*
X94261904Y-66542380D01*
X94166666Y-66494761D01*
X94119047Y-66399523D01*
X94119047Y-66304285D01*
X94166666Y-66209047D01*
X94261904Y-66161428D01*
X94500000Y-66161428D01*
X94595238Y-66113809D01*
X95500000Y-66542380D02*
X95500000Y-65542380D01*
X95500000Y-66494761D02*
X95404761Y-66542380D01*
X95214285Y-66542380D01*
X95119047Y-66494761D01*
X95071428Y-66447142D01*
X95023809Y-66351904D01*
X95023809Y-66066190D01*
X95071428Y-65970952D01*
X95119047Y-65923333D01*
X95214285Y-65875714D01*
X95404761Y-65875714D01*
X95500000Y-65923333D01*
X96404761Y-66542380D02*
X96404761Y-66018571D01*
X96357142Y-65923333D01*
X96261904Y-65875714D01*
X96071428Y-65875714D01*
X95976190Y-65923333D01*
X96404761Y-66494761D02*
X96309523Y-66542380D01*
X96071428Y-66542380D01*
X95976190Y-66494761D01*
X95928571Y-66399523D01*
X95928571Y-66304285D01*
X95976190Y-66209047D01*
X96071428Y-66161428D01*
X96309523Y-66161428D01*
X96404761Y-66113809D01*
X98166666Y-66542380D02*
X97595238Y-66542380D01*
X97880952Y-66542380D02*
X97880952Y-65542380D01*
X97785714Y-65685238D01*
X97690476Y-65780476D01*
X97595238Y-65828095D01*
X98547619Y-65637619D02*
X98595238Y-65590000D01*
X98690476Y-65542380D01*
X98928571Y-65542380D01*
X99023809Y-65590000D01*
X99071428Y-65637619D01*
X99119047Y-65732857D01*
X99119047Y-65828095D01*
X99071428Y-65970952D01*
X98500000Y-66542380D01*
X99119047Y-66542380D01*
X99452380Y-65875714D02*
X99690476Y-66542380D01*
X99928571Y-65875714D01*
X144202380Y-76438095D02*
X143202380Y-76438095D01*
X143202380Y-76200000D01*
X143250000Y-76057142D01*
X143345238Y-75961904D01*
X143440476Y-75914285D01*
X143630952Y-75866666D01*
X143773809Y-75866666D01*
X143964285Y-75914285D01*
X144059523Y-75961904D01*
X144154761Y-76057142D01*
X144202380Y-76200000D01*
X144202380Y-76438095D01*
X144202380Y-74914285D02*
X144202380Y-75485714D01*
X144202380Y-75200000D02*
X143202380Y-75200000D01*
X143345238Y-75295238D01*
X143440476Y-75390476D01*
X143488095Y-75485714D01*
X107952380Y-99238095D02*
X106952380Y-99238095D01*
X106952380Y-99000000D01*
X107000000Y-98857142D01*
X107095238Y-98761904D01*
X107190476Y-98714285D01*
X107380952Y-98666666D01*
X107523809Y-98666666D01*
X107714285Y-98714285D01*
X107809523Y-98761904D01*
X107904761Y-98857142D01*
X107952380Y-99000000D01*
X107952380Y-99238095D01*
X106952380Y-97761904D02*
X106952380Y-98238095D01*
X107428571Y-98285714D01*
X107380952Y-98238095D01*
X107333333Y-98142857D01*
X107333333Y-97904761D01*
X107380952Y-97809523D01*
X107428571Y-97761904D01*
X107523809Y-97714285D01*
X107761904Y-97714285D01*
X107857142Y-97761904D01*
X107904761Y-97809523D01*
X107952380Y-97904761D01*
X107952380Y-98142857D01*
X107904761Y-98238095D01*
X107857142Y-98285714D01*
X138333333Y-100857142D02*
X138285714Y-100904761D01*
X138142857Y-100952380D01*
X138047619Y-100952380D01*
X137904761Y-100904761D01*
X137809523Y-100809523D01*
X137761904Y-100714285D01*
X137714285Y-100523809D01*
X137714285Y-100380952D01*
X137761904Y-100190476D01*
X137809523Y-100095238D01*
X137904761Y-100000000D01*
X138047619Y-99952380D01*
X138142857Y-99952380D01*
X138285714Y-100000000D01*
X138333333Y-100047619D01*
X139238095Y-99952380D02*
X138761904Y-99952380D01*
X138714285Y-100428571D01*
X138761904Y-100380952D01*
X138857142Y-100333333D01*
X139095238Y-100333333D01*
X139190476Y-100380952D01*
X139238095Y-100428571D01*
X139285714Y-100523809D01*
X139285714Y-100761904D01*
X139238095Y-100857142D01*
X139190476Y-100904761D01*
X139095238Y-100952380D01*
X138857142Y-100952380D01*
X138761904Y-100904761D01*
X138714285Y-100857142D01*
X174952380Y-82738095D02*
X173952380Y-82738095D01*
X173952380Y-82500000D01*
X174000000Y-82357142D01*
X174095238Y-82261904D01*
X174190476Y-82214285D01*
X174380952Y-82166666D01*
X174523809Y-82166666D01*
X174714285Y-82214285D01*
X174809523Y-82261904D01*
X174904761Y-82357142D01*
X174952380Y-82500000D01*
X174952380Y-82738095D01*
X173952380Y-81833333D02*
X173952380Y-81166666D01*
X174952380Y-81595238D01*
X158261904Y-95452380D02*
X158261904Y-94452380D01*
X158500000Y-94452380D01*
X158642857Y-94500000D01*
X158738095Y-94595238D01*
X158785714Y-94690476D01*
X158833333Y-94880952D01*
X158833333Y-95023809D01*
X158785714Y-95214285D01*
X158738095Y-95309523D01*
X158642857Y-95404761D01*
X158500000Y-95452380D01*
X158261904Y-95452380D01*
X159690476Y-94452380D02*
X159500000Y-94452380D01*
X159404761Y-94500000D01*
X159357142Y-94547619D01*
X159261904Y-94690476D01*
X159214285Y-94880952D01*
X159214285Y-95261904D01*
X159261904Y-95357142D01*
X159309523Y-95404761D01*
X159404761Y-95452380D01*
X159595238Y-95452380D01*
X159690476Y-95404761D01*
X159738095Y-95357142D01*
X159785714Y-95261904D01*
X159785714Y-95023809D01*
X159738095Y-94928571D01*
X159690476Y-94880952D01*
X159595238Y-94833333D01*
X159404761Y-94833333D01*
X159309523Y-94880952D01*
X159261904Y-94928571D01*
X159214285Y-95023809D01*
X163295833Y-77857142D02*
X163248214Y-77904761D01*
X163105357Y-77952380D01*
X163010119Y-77952380D01*
X162867261Y-77904761D01*
X162772023Y-77809523D01*
X162724404Y-77714285D01*
X162676785Y-77523809D01*
X162676785Y-77380952D01*
X162724404Y-77190476D01*
X162772023Y-77095238D01*
X162867261Y-77000000D01*
X163010119Y-76952380D01*
X163105357Y-76952380D01*
X163248214Y-77000000D01*
X163295833Y-77047619D01*
X164248214Y-77952380D02*
X163676785Y-77952380D01*
X163962500Y-77952380D02*
X163962500Y-76952380D01*
X163867261Y-77095238D01*
X163772023Y-77190476D01*
X163676785Y-77238095D01*
X163666666Y-71452380D02*
X163666666Y-72166666D01*
X163619047Y-72309523D01*
X163523809Y-72404761D01*
X163380952Y-72452380D01*
X163285714Y-72452380D01*
X164047619Y-71452380D02*
X164666666Y-71452380D01*
X164333333Y-71833333D01*
X164476190Y-71833333D01*
X164571428Y-71880952D01*
X164619047Y-71928571D01*
X164666666Y-72023809D01*
X164666666Y-72261904D01*
X164619047Y-72357142D01*
X164571428Y-72404761D01*
X164476190Y-72452380D01*
X164190476Y-72452380D01*
X164095238Y-72404761D01*
X164047619Y-72357142D01*
X142952380Y-114726785D02*
X141952380Y-114726785D01*
X141952380Y-114488690D01*
X142000000Y-114345833D01*
X142095238Y-114250595D01*
X142190476Y-114202976D01*
X142380952Y-114155357D01*
X142523809Y-114155357D01*
X142714285Y-114202976D01*
X142809523Y-114250595D01*
X142904761Y-114345833D01*
X142952380Y-114488690D01*
X142952380Y-114726785D01*
X142952380Y-113202976D02*
X142952380Y-113774404D01*
X142952380Y-113488690D02*
X141952380Y-113488690D01*
X142095238Y-113583928D01*
X142190476Y-113679166D01*
X142238095Y-113774404D01*
X141952380Y-112583928D02*
X141952380Y-112488690D01*
X142000000Y-112393452D01*
X142047619Y-112345833D01*
X142142857Y-112298214D01*
X142333333Y-112250595D01*
X142571428Y-112250595D01*
X142761904Y-112298214D01*
X142857142Y-112345833D01*
X142904761Y-112393452D01*
X142952380Y-112488690D01*
X142952380Y-112583928D01*
X142904761Y-112679166D01*
X142857142Y-112726785D01*
X142761904Y-112774404D01*
X142571428Y-112822023D01*
X142333333Y-112822023D01*
X142142857Y-112774404D01*
X142047619Y-112726785D01*
X142000000Y-112679166D01*
X141952380Y-112583928D01*
X149952380Y-108225595D02*
X148952380Y-108225595D01*
X148952380Y-107987500D01*
X149000000Y-107844642D01*
X149095238Y-107749404D01*
X149190476Y-107701785D01*
X149380952Y-107654166D01*
X149523809Y-107654166D01*
X149714285Y-107701785D01*
X149809523Y-107749404D01*
X149904761Y-107844642D01*
X149952380Y-107987500D01*
X149952380Y-108225595D01*
X149952380Y-107177976D02*
X149952380Y-106987500D01*
X149904761Y-106892261D01*
X149857142Y-106844642D01*
X149714285Y-106749404D01*
X149523809Y-106701785D01*
X149142857Y-106701785D01*
X149047619Y-106749404D01*
X149000000Y-106797023D01*
X148952380Y-106892261D01*
X148952380Y-107082738D01*
X149000000Y-107177976D01*
X149047619Y-107225595D01*
X149142857Y-107273214D01*
X149380952Y-107273214D01*
X149476190Y-107225595D01*
X149523809Y-107177976D01*
X149571428Y-107082738D01*
X149571428Y-106892261D01*
X149523809Y-106797023D01*
X149476190Y-106749404D01*
X149380952Y-106701785D01*
X149952380Y-114200595D02*
X148952380Y-114200595D01*
X148952380Y-113962500D01*
X149000000Y-113819642D01*
X149095238Y-113724404D01*
X149190476Y-113676785D01*
X149380952Y-113629166D01*
X149523809Y-113629166D01*
X149714285Y-113676785D01*
X149809523Y-113724404D01*
X149904761Y-113819642D01*
X149952380Y-113962500D01*
X149952380Y-114200595D01*
X149380952Y-113057738D02*
X149333333Y-113152976D01*
X149285714Y-113200595D01*
X149190476Y-113248214D01*
X149142857Y-113248214D01*
X149047619Y-113200595D01*
X149000000Y-113152976D01*
X148952380Y-113057738D01*
X148952380Y-112867261D01*
X149000000Y-112772023D01*
X149047619Y-112724404D01*
X149142857Y-112676785D01*
X149190476Y-112676785D01*
X149285714Y-112724404D01*
X149333333Y-112772023D01*
X149380952Y-112867261D01*
X149380952Y-113057738D01*
X149428571Y-113152976D01*
X149476190Y-113200595D01*
X149571428Y-113248214D01*
X149761904Y-113248214D01*
X149857142Y-113200595D01*
X149904761Y-113152976D01*
X149952380Y-113057738D01*
X149952380Y-112867261D01*
X149904761Y-112772023D01*
X149857142Y-112724404D01*
X149761904Y-112676785D01*
X149571428Y-112676785D01*
X149476190Y-112724404D01*
X149428571Y-112772023D01*
X149380952Y-112867261D01*
X146452380Y-108200595D02*
X145452380Y-108200595D01*
X145452380Y-107962500D01*
X145500000Y-107819642D01*
X145595238Y-107724404D01*
X145690476Y-107676785D01*
X145880952Y-107629166D01*
X146023809Y-107629166D01*
X146214285Y-107676785D01*
X146309523Y-107724404D01*
X146404761Y-107819642D01*
X146452380Y-107962500D01*
X146452380Y-108200595D01*
X145785714Y-106772023D02*
X146452380Y-106772023D01*
X145404761Y-107010119D02*
X146119047Y-107248214D01*
X146119047Y-106629166D01*
X146452380Y-114200595D02*
X145452380Y-114200595D01*
X145452380Y-113962500D01*
X145500000Y-113819642D01*
X145595238Y-113724404D01*
X145690476Y-113676785D01*
X145880952Y-113629166D01*
X146023809Y-113629166D01*
X146214285Y-113676785D01*
X146309523Y-113724404D01*
X146404761Y-113819642D01*
X146452380Y-113962500D01*
X146452380Y-114200595D01*
X145547619Y-113248214D02*
X145500000Y-113200595D01*
X145452380Y-113105357D01*
X145452380Y-112867261D01*
X145500000Y-112772023D01*
X145547619Y-112724404D01*
X145642857Y-112676785D01*
X145738095Y-112676785D01*
X145880952Y-112724404D01*
X146452380Y-113295833D01*
X146452380Y-112676785D01*
X130952380Y-97142857D02*
X130476190Y-97476190D01*
X130952380Y-97714285D02*
X129952380Y-97714285D01*
X129952380Y-97333333D01*
X130000000Y-97238095D01*
X130047619Y-97190476D01*
X130142857Y-97142857D01*
X130285714Y-97142857D01*
X130380952Y-97190476D01*
X130428571Y-97238095D01*
X130476190Y-97333333D01*
X130476190Y-97714285D01*
X129952380Y-96809523D02*
X129952380Y-96190476D01*
X130333333Y-96523809D01*
X130333333Y-96380952D01*
X130380952Y-96285714D01*
X130428571Y-96238095D01*
X130523809Y-96190476D01*
X130761904Y-96190476D01*
X130857142Y-96238095D01*
X130904761Y-96285714D01*
X130952380Y-96380952D01*
X130952380Y-96666666D01*
X130904761Y-96761904D01*
X130857142Y-96809523D01*
X130952380Y-95238095D02*
X130952380Y-95809523D01*
X130952380Y-95523809D02*
X129952380Y-95523809D01*
X130095238Y-95619047D01*
X130190476Y-95714285D01*
X130238095Y-95809523D01*
X130952380Y-81642857D02*
X130476190Y-81976190D01*
X130952380Y-82214285D02*
X129952380Y-82214285D01*
X129952380Y-81833333D01*
X130000000Y-81738095D01*
X130047619Y-81690476D01*
X130142857Y-81642857D01*
X130285714Y-81642857D01*
X130380952Y-81690476D01*
X130428571Y-81738095D01*
X130476190Y-81833333D01*
X130476190Y-82214285D01*
X129952380Y-81309523D02*
X129952380Y-80690476D01*
X130333333Y-81023809D01*
X130333333Y-80880952D01*
X130380952Y-80785714D01*
X130428571Y-80738095D01*
X130523809Y-80690476D01*
X130761904Y-80690476D01*
X130857142Y-80738095D01*
X130904761Y-80785714D01*
X130952380Y-80880952D01*
X130952380Y-81166666D01*
X130904761Y-81261904D01*
X130857142Y-81309523D01*
X129952380Y-80071428D02*
X129952380Y-79976190D01*
X130000000Y-79880952D01*
X130047619Y-79833333D01*
X130142857Y-79785714D01*
X130333333Y-79738095D01*
X130571428Y-79738095D01*
X130761904Y-79785714D01*
X130857142Y-79833333D01*
X130904761Y-79880952D01*
X130952380Y-79976190D01*
X130952380Y-80071428D01*
X130904761Y-80166666D01*
X130857142Y-80214285D01*
X130761904Y-80261904D01*
X130571428Y-80309523D01*
X130333333Y-80309523D01*
X130142857Y-80261904D01*
X130047619Y-80214285D01*
X130000000Y-80166666D01*
X129952380Y-80071428D01*
X172952380Y-76642857D02*
X172476190Y-76976190D01*
X172952380Y-77214285D02*
X171952380Y-77214285D01*
X171952380Y-76833333D01*
X172000000Y-76738095D01*
X172047619Y-76690476D01*
X172142857Y-76642857D01*
X172285714Y-76642857D01*
X172380952Y-76690476D01*
X172428571Y-76738095D01*
X172476190Y-76833333D01*
X172476190Y-77214285D01*
X172047619Y-76261904D02*
X172000000Y-76214285D01*
X171952380Y-76119047D01*
X171952380Y-75880952D01*
X172000000Y-75785714D01*
X172047619Y-75738095D01*
X172142857Y-75690476D01*
X172238095Y-75690476D01*
X172380952Y-75738095D01*
X172952380Y-76309523D01*
X172952380Y-75690476D01*
X172952380Y-75214285D02*
X172952380Y-75023809D01*
X172904761Y-74928571D01*
X172857142Y-74880952D01*
X172714285Y-74785714D01*
X172523809Y-74738095D01*
X172142857Y-74738095D01*
X172047619Y-74785714D01*
X172000000Y-74833333D01*
X171952380Y-74928571D01*
X171952380Y-75119047D01*
X172000000Y-75214285D01*
X172047619Y-75261904D01*
X172142857Y-75309523D01*
X172380952Y-75309523D01*
X172476190Y-75261904D01*
X172523809Y-75214285D01*
X172571428Y-75119047D01*
X172571428Y-74928571D01*
X172523809Y-74833333D01*
X172476190Y-74785714D01*
X172380952Y-74738095D01*
X175452380Y-76642857D02*
X174976190Y-76976190D01*
X175452380Y-77214285D02*
X174452380Y-77214285D01*
X174452380Y-76833333D01*
X174500000Y-76738095D01*
X174547619Y-76690476D01*
X174642857Y-76642857D01*
X174785714Y-76642857D01*
X174880952Y-76690476D01*
X174928571Y-76738095D01*
X174976190Y-76833333D01*
X174976190Y-77214285D01*
X174547619Y-76261904D02*
X174500000Y-76214285D01*
X174452380Y-76119047D01*
X174452380Y-75880952D01*
X174500000Y-75785714D01*
X174547619Y-75738095D01*
X174642857Y-75690476D01*
X174738095Y-75690476D01*
X174880952Y-75738095D01*
X175452380Y-76309523D01*
X175452380Y-75690476D01*
X174880952Y-75119047D02*
X174833333Y-75214285D01*
X174785714Y-75261904D01*
X174690476Y-75309523D01*
X174642857Y-75309523D01*
X174547619Y-75261904D01*
X174500000Y-75214285D01*
X174452380Y-75119047D01*
X174452380Y-74928571D01*
X174500000Y-74833333D01*
X174547619Y-74785714D01*
X174642857Y-74738095D01*
X174690476Y-74738095D01*
X174785714Y-74785714D01*
X174833333Y-74833333D01*
X174880952Y-74928571D01*
X174880952Y-75119047D01*
X174928571Y-75214285D01*
X174976190Y-75261904D01*
X175071428Y-75309523D01*
X175261904Y-75309523D01*
X175357142Y-75261904D01*
X175404761Y-75214285D01*
X175452380Y-75119047D01*
X175452380Y-74928571D01*
X175404761Y-74833333D01*
X175357142Y-74785714D01*
X175261904Y-74738095D01*
X175071428Y-74738095D01*
X174976190Y-74785714D01*
X174928571Y-74833333D01*
X174880952Y-74928571D01*
X100452380Y-97142857D02*
X99976190Y-97476190D01*
X100452380Y-97714285D02*
X99452380Y-97714285D01*
X99452380Y-97333333D01*
X99500000Y-97238095D01*
X99547619Y-97190476D01*
X99642857Y-97142857D01*
X99785714Y-97142857D01*
X99880952Y-97190476D01*
X99928571Y-97238095D01*
X99976190Y-97333333D01*
X99976190Y-97714285D01*
X99547619Y-96761904D02*
X99500000Y-96714285D01*
X99452380Y-96619047D01*
X99452380Y-96380952D01*
X99500000Y-96285714D01*
X99547619Y-96238095D01*
X99642857Y-96190476D01*
X99738095Y-96190476D01*
X99880952Y-96238095D01*
X100452380Y-96809523D01*
X100452380Y-96190476D01*
X99452380Y-95857142D02*
X99452380Y-95190476D01*
X100452380Y-95619047D01*
X102952380Y-97117857D02*
X102476190Y-97451190D01*
X102952380Y-97689285D02*
X101952380Y-97689285D01*
X101952380Y-97308333D01*
X102000000Y-97213095D01*
X102047619Y-97165476D01*
X102142857Y-97117857D01*
X102285714Y-97117857D01*
X102380952Y-97165476D01*
X102428571Y-97213095D01*
X102476190Y-97308333D01*
X102476190Y-97689285D01*
X102047619Y-96736904D02*
X102000000Y-96689285D01*
X101952380Y-96594047D01*
X101952380Y-96355952D01*
X102000000Y-96260714D01*
X102047619Y-96213095D01*
X102142857Y-96165476D01*
X102238095Y-96165476D01*
X102380952Y-96213095D01*
X102952380Y-96784523D01*
X102952380Y-96165476D01*
X101952380Y-95308333D02*
X101952380Y-95498809D01*
X102000000Y-95594047D01*
X102047619Y-95641666D01*
X102190476Y-95736904D01*
X102380952Y-95784523D01*
X102761904Y-95784523D01*
X102857142Y-95736904D01*
X102904761Y-95689285D01*
X102952380Y-95594047D01*
X102952380Y-95403571D01*
X102904761Y-95308333D01*
X102857142Y-95260714D01*
X102761904Y-95213095D01*
X102523809Y-95213095D01*
X102428571Y-95260714D01*
X102380952Y-95308333D01*
X102333333Y-95403571D01*
X102333333Y-95594047D01*
X102380952Y-95689285D01*
X102428571Y-95736904D01*
X102523809Y-95784523D01*
X105452380Y-81642857D02*
X104976190Y-81976190D01*
X105452380Y-82214285D02*
X104452380Y-82214285D01*
X104452380Y-81833333D01*
X104500000Y-81738095D01*
X104547619Y-81690476D01*
X104642857Y-81642857D01*
X104785714Y-81642857D01*
X104880952Y-81690476D01*
X104928571Y-81738095D01*
X104976190Y-81833333D01*
X104976190Y-82214285D01*
X104547619Y-81261904D02*
X104500000Y-81214285D01*
X104452380Y-81119047D01*
X104452380Y-80880952D01*
X104500000Y-80785714D01*
X104547619Y-80738095D01*
X104642857Y-80690476D01*
X104738095Y-80690476D01*
X104880952Y-80738095D01*
X105452380Y-81309523D01*
X105452380Y-80690476D01*
X104452380Y-79785714D02*
X104452380Y-80261904D01*
X104928571Y-80309523D01*
X104880952Y-80261904D01*
X104833333Y-80166666D01*
X104833333Y-79928571D01*
X104880952Y-79833333D01*
X104928571Y-79785714D01*
X105023809Y-79738095D01*
X105261904Y-79738095D01*
X105357142Y-79785714D01*
X105404761Y-79833333D01*
X105452380Y-79928571D01*
X105452380Y-80166666D01*
X105404761Y-80261904D01*
X105357142Y-80309523D01*
X135952380Y-97142857D02*
X135476190Y-97476190D01*
X135952380Y-97714285D02*
X134952380Y-97714285D01*
X134952380Y-97333333D01*
X135000000Y-97238095D01*
X135047619Y-97190476D01*
X135142857Y-97142857D01*
X135285714Y-97142857D01*
X135380952Y-97190476D01*
X135428571Y-97238095D01*
X135476190Y-97333333D01*
X135476190Y-97714285D01*
X135047619Y-96761904D02*
X135000000Y-96714285D01*
X134952380Y-96619047D01*
X134952380Y-96380952D01*
X135000000Y-96285714D01*
X135047619Y-96238095D01*
X135142857Y-96190476D01*
X135238095Y-96190476D01*
X135380952Y-96238095D01*
X135952380Y-96809523D01*
X135952380Y-96190476D01*
X135285714Y-95333333D02*
X135952380Y-95333333D01*
X134904761Y-95571428D02*
X135619047Y-95809523D01*
X135619047Y-95190476D01*
X135952380Y-81642857D02*
X135476190Y-81976190D01*
X135952380Y-82214285D02*
X134952380Y-82214285D01*
X134952380Y-81833333D01*
X135000000Y-81738095D01*
X135047619Y-81690476D01*
X135142857Y-81642857D01*
X135285714Y-81642857D01*
X135380952Y-81690476D01*
X135428571Y-81738095D01*
X135476190Y-81833333D01*
X135476190Y-82214285D01*
X135047619Y-81261904D02*
X135000000Y-81214285D01*
X134952380Y-81119047D01*
X134952380Y-80880952D01*
X135000000Y-80785714D01*
X135047619Y-80738095D01*
X135142857Y-80690476D01*
X135238095Y-80690476D01*
X135380952Y-80738095D01*
X135952380Y-81309523D01*
X135952380Y-80690476D01*
X134952380Y-80357142D02*
X134952380Y-79738095D01*
X135333333Y-80071428D01*
X135333333Y-79928571D01*
X135380952Y-79833333D01*
X135428571Y-79785714D01*
X135523809Y-79738095D01*
X135761904Y-79738095D01*
X135857142Y-79785714D01*
X135904761Y-79833333D01*
X135952380Y-79928571D01*
X135952380Y-80214285D01*
X135904761Y-80309523D01*
X135857142Y-80357142D01*
X105452380Y-97142857D02*
X104976190Y-97476190D01*
X105452380Y-97714285D02*
X104452380Y-97714285D01*
X104452380Y-97333333D01*
X104500000Y-97238095D01*
X104547619Y-97190476D01*
X104642857Y-97142857D01*
X104785714Y-97142857D01*
X104880952Y-97190476D01*
X104928571Y-97238095D01*
X104976190Y-97333333D01*
X104976190Y-97714285D01*
X104547619Y-96761904D02*
X104500000Y-96714285D01*
X104452380Y-96619047D01*
X104452380Y-96380952D01*
X104500000Y-96285714D01*
X104547619Y-96238095D01*
X104642857Y-96190476D01*
X104738095Y-96190476D01*
X104880952Y-96238095D01*
X105452380Y-96809523D01*
X105452380Y-96190476D01*
X104547619Y-95809523D02*
X104500000Y-95761904D01*
X104452380Y-95666666D01*
X104452380Y-95428571D01*
X104500000Y-95333333D01*
X104547619Y-95285714D01*
X104642857Y-95238095D01*
X104738095Y-95238095D01*
X104880952Y-95285714D01*
X105452380Y-95857142D01*
X105452380Y-95238095D01*
X128452380Y-97142857D02*
X127976190Y-97476190D01*
X128452380Y-97714285D02*
X127452380Y-97714285D01*
X127452380Y-97333333D01*
X127500000Y-97238095D01*
X127547619Y-97190476D01*
X127642857Y-97142857D01*
X127785714Y-97142857D01*
X127880952Y-97190476D01*
X127928571Y-97238095D01*
X127976190Y-97333333D01*
X127976190Y-97714285D01*
X128452380Y-96190476D02*
X128452380Y-96761904D01*
X128452380Y-96476190D02*
X127452380Y-96476190D01*
X127595238Y-96571428D01*
X127690476Y-96666666D01*
X127738095Y-96761904D01*
X128452380Y-95714285D02*
X128452380Y-95523809D01*
X128404761Y-95428571D01*
X128357142Y-95380952D01*
X128214285Y-95285714D01*
X128023809Y-95238095D01*
X127642857Y-95238095D01*
X127547619Y-95285714D01*
X127500000Y-95333333D01*
X127452380Y-95428571D01*
X127452380Y-95619047D01*
X127500000Y-95714285D01*
X127547619Y-95761904D01*
X127642857Y-95809523D01*
X127880952Y-95809523D01*
X127976190Y-95761904D01*
X128023809Y-95714285D01*
X128071428Y-95619047D01*
X128071428Y-95428571D01*
X128023809Y-95333333D01*
X127976190Y-95285714D01*
X127880952Y-95238095D01*
X177952380Y-76642857D02*
X177476190Y-76976190D01*
X177952380Y-77214285D02*
X176952380Y-77214285D01*
X176952380Y-76833333D01*
X177000000Y-76738095D01*
X177047619Y-76690476D01*
X177142857Y-76642857D01*
X177285714Y-76642857D01*
X177380952Y-76690476D01*
X177428571Y-76738095D01*
X177476190Y-76833333D01*
X177476190Y-77214285D01*
X177952380Y-75690476D02*
X177952380Y-76261904D01*
X177952380Y-75976190D02*
X176952380Y-75976190D01*
X177095238Y-76071428D01*
X177190476Y-76166666D01*
X177238095Y-76261904D01*
X177380952Y-75119047D02*
X177333333Y-75214285D01*
X177285714Y-75261904D01*
X177190476Y-75309523D01*
X177142857Y-75309523D01*
X177047619Y-75261904D01*
X177000000Y-75214285D01*
X176952380Y-75119047D01*
X176952380Y-74928571D01*
X177000000Y-74833333D01*
X177047619Y-74785714D01*
X177142857Y-74738095D01*
X177190476Y-74738095D01*
X177285714Y-74785714D01*
X177333333Y-74833333D01*
X177380952Y-74928571D01*
X177380952Y-75119047D01*
X177428571Y-75214285D01*
X177476190Y-75261904D01*
X177571428Y-75309523D01*
X177761904Y-75309523D01*
X177857142Y-75261904D01*
X177904761Y-75214285D01*
X177952380Y-75119047D01*
X177952380Y-74928571D01*
X177904761Y-74833333D01*
X177857142Y-74785714D01*
X177761904Y-74738095D01*
X177571428Y-74738095D01*
X177476190Y-74785714D01*
X177428571Y-74833333D01*
X177380952Y-74928571D01*
X110252380Y-81342857D02*
X109776190Y-81676190D01*
X110252380Y-81914285D02*
X109252380Y-81914285D01*
X109252380Y-81533333D01*
X109300000Y-81438095D01*
X109347619Y-81390476D01*
X109442857Y-81342857D01*
X109585714Y-81342857D01*
X109680952Y-81390476D01*
X109728571Y-81438095D01*
X109776190Y-81533333D01*
X109776190Y-81914285D01*
X110252380Y-80390476D02*
X110252380Y-80961904D01*
X110252380Y-80676190D02*
X109252380Y-80676190D01*
X109395238Y-80771428D01*
X109490476Y-80866666D01*
X109538095Y-80961904D01*
X109252380Y-80057142D02*
X109252380Y-79390476D01*
X110252380Y-79819047D01*
X107952380Y-81642857D02*
X107476190Y-81976190D01*
X107952380Y-82214285D02*
X106952380Y-82214285D01*
X106952380Y-81833333D01*
X107000000Y-81738095D01*
X107047619Y-81690476D01*
X107142857Y-81642857D01*
X107285714Y-81642857D01*
X107380952Y-81690476D01*
X107428571Y-81738095D01*
X107476190Y-81833333D01*
X107476190Y-82214285D01*
X107952380Y-80690476D02*
X107952380Y-81261904D01*
X107952380Y-80976190D02*
X106952380Y-80976190D01*
X107095238Y-81071428D01*
X107190476Y-81166666D01*
X107238095Y-81261904D01*
X106952380Y-79833333D02*
X106952380Y-80023809D01*
X107000000Y-80119047D01*
X107047619Y-80166666D01*
X107190476Y-80261904D01*
X107380952Y-80309523D01*
X107761904Y-80309523D01*
X107857142Y-80261904D01*
X107904761Y-80214285D01*
X107952380Y-80119047D01*
X107952380Y-79928571D01*
X107904761Y-79833333D01*
X107857142Y-79785714D01*
X107761904Y-79738095D01*
X107523809Y-79738095D01*
X107428571Y-79785714D01*
X107380952Y-79833333D01*
X107333333Y-79928571D01*
X107333333Y-80119047D01*
X107380952Y-80214285D01*
X107428571Y-80261904D01*
X107523809Y-80309523D01*
X140952380Y-97142857D02*
X140476190Y-97476190D01*
X140952380Y-97714285D02*
X139952380Y-97714285D01*
X139952380Y-97333333D01*
X140000000Y-97238095D01*
X140047619Y-97190476D01*
X140142857Y-97142857D01*
X140285714Y-97142857D01*
X140380952Y-97190476D01*
X140428571Y-97238095D01*
X140476190Y-97333333D01*
X140476190Y-97714285D01*
X140952380Y-96190476D02*
X140952380Y-96761904D01*
X140952380Y-96476190D02*
X139952380Y-96476190D01*
X140095238Y-96571428D01*
X140190476Y-96666666D01*
X140238095Y-96761904D01*
X140285714Y-95333333D02*
X140952380Y-95333333D01*
X139904761Y-95571428D02*
X140619047Y-95809523D01*
X140619047Y-95190476D01*
X138452380Y-97142857D02*
X137976190Y-97476190D01*
X138452380Y-97714285D02*
X137452380Y-97714285D01*
X137452380Y-97333333D01*
X137500000Y-97238095D01*
X137547619Y-97190476D01*
X137642857Y-97142857D01*
X137785714Y-97142857D01*
X137880952Y-97190476D01*
X137928571Y-97238095D01*
X137976190Y-97333333D01*
X137976190Y-97714285D01*
X138452380Y-96190476D02*
X138452380Y-96761904D01*
X138452380Y-96476190D02*
X137452380Y-96476190D01*
X137595238Y-96571428D01*
X137690476Y-96666666D01*
X137738095Y-96761904D01*
X137452380Y-95857142D02*
X137452380Y-95238095D01*
X137833333Y-95571428D01*
X137833333Y-95428571D01*
X137880952Y-95333333D01*
X137928571Y-95285714D01*
X138023809Y-95238095D01*
X138261904Y-95238095D01*
X138357142Y-95285714D01*
X138404761Y-95333333D01*
X138452380Y-95428571D01*
X138452380Y-95714285D01*
X138404761Y-95809523D01*
X138357142Y-95857142D01*
X110452380Y-96166666D02*
X109976190Y-96500000D01*
X110452380Y-96738095D02*
X109452380Y-96738095D01*
X109452380Y-96357142D01*
X109500000Y-96261904D01*
X109547619Y-96214285D01*
X109642857Y-96166666D01*
X109785714Y-96166666D01*
X109880952Y-96214285D01*
X109928571Y-96261904D01*
X109976190Y-96357142D01*
X109976190Y-96738095D01*
X110452380Y-95690476D02*
X110452380Y-95500000D01*
X110404761Y-95404761D01*
X110357142Y-95357142D01*
X110214285Y-95261904D01*
X110023809Y-95214285D01*
X109642857Y-95214285D01*
X109547619Y-95261904D01*
X109500000Y-95309523D01*
X109452380Y-95404761D01*
X109452380Y-95595238D01*
X109500000Y-95690476D01*
X109547619Y-95738095D01*
X109642857Y-95785714D01*
X109880952Y-95785714D01*
X109976190Y-95738095D01*
X110023809Y-95690476D01*
X110071428Y-95595238D01*
X110071428Y-95404761D01*
X110023809Y-95309523D01*
X109976190Y-95261904D01*
X109880952Y-95214285D01*
X120952380Y-81666666D02*
X120476190Y-82000000D01*
X120952380Y-82238095D02*
X119952380Y-82238095D01*
X119952380Y-81857142D01*
X120000000Y-81761904D01*
X120047619Y-81714285D01*
X120142857Y-81666666D01*
X120285714Y-81666666D01*
X120380952Y-81714285D01*
X120428571Y-81761904D01*
X120476190Y-81857142D01*
X120476190Y-82238095D01*
X120380952Y-81095238D02*
X120333333Y-81190476D01*
X120285714Y-81238095D01*
X120190476Y-81285714D01*
X120142857Y-81285714D01*
X120047619Y-81238095D01*
X120000000Y-81190476D01*
X119952380Y-81095238D01*
X119952380Y-80904761D01*
X120000000Y-80809523D01*
X120047619Y-80761904D01*
X120142857Y-80714285D01*
X120190476Y-80714285D01*
X120285714Y-80761904D01*
X120333333Y-80809523D01*
X120380952Y-80904761D01*
X120380952Y-81095238D01*
X120428571Y-81190476D01*
X120476190Y-81238095D01*
X120571428Y-81285714D01*
X120761904Y-81285714D01*
X120857142Y-81238095D01*
X120904761Y-81190476D01*
X120952380Y-81095238D01*
X120952380Y-80904761D01*
X120904761Y-80809523D01*
X120857142Y-80761904D01*
X120761904Y-80714285D01*
X120571428Y-80714285D01*
X120476190Y-80761904D01*
X120428571Y-80809523D01*
X120380952Y-80904761D01*
X125952380Y-81666666D02*
X125476190Y-82000000D01*
X125952380Y-82238095D02*
X124952380Y-82238095D01*
X124952380Y-81857142D01*
X125000000Y-81761904D01*
X125047619Y-81714285D01*
X125142857Y-81666666D01*
X125285714Y-81666666D01*
X125380952Y-81714285D01*
X125428571Y-81761904D01*
X125476190Y-81857142D01*
X125476190Y-82238095D01*
X124952380Y-81333333D02*
X124952380Y-80666666D01*
X125952380Y-81095238D01*
X123452380Y-81666666D02*
X122976190Y-82000000D01*
X123452380Y-82238095D02*
X122452380Y-82238095D01*
X122452380Y-81857142D01*
X122500000Y-81761904D01*
X122547619Y-81714285D01*
X122642857Y-81666666D01*
X122785714Y-81666666D01*
X122880952Y-81714285D01*
X122928571Y-81761904D01*
X122976190Y-81857142D01*
X122976190Y-82238095D01*
X122452380Y-80761904D02*
X122452380Y-81238095D01*
X122928571Y-81285714D01*
X122880952Y-81238095D01*
X122833333Y-81142857D01*
X122833333Y-80904761D01*
X122880952Y-80809523D01*
X122928571Y-80761904D01*
X123023809Y-80714285D01*
X123261904Y-80714285D01*
X123357142Y-80761904D01*
X123404761Y-80809523D01*
X123452380Y-80904761D01*
X123452380Y-81142857D01*
X123404761Y-81238095D01*
X123357142Y-81285714D01*
X149002380Y-70666666D02*
X148526190Y-71000000D01*
X149002380Y-71238095D02*
X148002380Y-71238095D01*
X148002380Y-70857142D01*
X148050000Y-70761904D01*
X148097619Y-70714285D01*
X148192857Y-70666666D01*
X148335714Y-70666666D01*
X148430952Y-70714285D01*
X148478571Y-70761904D01*
X148526190Y-70857142D01*
X148526190Y-71238095D01*
X148335714Y-69809523D02*
X149002380Y-69809523D01*
X147954761Y-70047619D02*
X148669047Y-70285714D01*
X148669047Y-69666666D01*
X112454761Y-81197619D02*
X112359523Y-81150000D01*
X112264285Y-81054761D01*
X112121428Y-80911904D01*
X112026190Y-80864285D01*
X111930952Y-80864285D01*
X111978571Y-81102380D02*
X111883333Y-81054761D01*
X111788095Y-80959523D01*
X111740476Y-80769047D01*
X111740476Y-80435714D01*
X111788095Y-80245238D01*
X111883333Y-80150000D01*
X111978571Y-80102380D01*
X112169047Y-80102380D01*
X112264285Y-80150000D01*
X112359523Y-80245238D01*
X112407142Y-80435714D01*
X112407142Y-80769047D01*
X112359523Y-80959523D01*
X112264285Y-81054761D01*
X112169047Y-81102380D01*
X111978571Y-81102380D01*
X112788095Y-80197619D02*
X112835714Y-80150000D01*
X112930952Y-80102380D01*
X113169047Y-80102380D01*
X113264285Y-80150000D01*
X113311904Y-80197619D01*
X113359523Y-80292857D01*
X113359523Y-80388095D01*
X113311904Y-80530952D01*
X112740476Y-81102380D01*
X113359523Y-81102380D01*
X114666666Y-74452380D02*
X114666666Y-75166666D01*
X114619047Y-75309523D01*
X114523809Y-75404761D01*
X114380952Y-75452380D01*
X114285714Y-75452380D01*
X115571428Y-74785714D02*
X115571428Y-75452380D01*
X115333333Y-74404761D02*
X115095238Y-75119047D01*
X115714285Y-75119047D01*
X107666666Y-66494761D02*
X107809523Y-66542380D01*
X108047619Y-66542380D01*
X108142857Y-66494761D01*
X108190476Y-66447142D01*
X108238095Y-66351904D01*
X108238095Y-66256666D01*
X108190476Y-66161428D01*
X108142857Y-66113809D01*
X108047619Y-66066190D01*
X107857142Y-66018571D01*
X107761904Y-65970952D01*
X107714285Y-65923333D01*
X107666666Y-65828095D01*
X107666666Y-65732857D01*
X107714285Y-65637619D01*
X107761904Y-65590000D01*
X107857142Y-65542380D01*
X108095238Y-65542380D01*
X108238095Y-65590000D01*
X109095238Y-66542380D02*
X109095238Y-66018571D01*
X109047619Y-65923333D01*
X108952380Y-65875714D01*
X108761904Y-65875714D01*
X108666666Y-65923333D01*
X109095238Y-66494761D02*
X109000000Y-66542380D01*
X108761904Y-66542380D01*
X108666666Y-66494761D01*
X108619047Y-66399523D01*
X108619047Y-66304285D01*
X108666666Y-66209047D01*
X108761904Y-66161428D01*
X109000000Y-66161428D01*
X109095238Y-66113809D01*
X109714285Y-66542380D02*
X109619047Y-66494761D01*
X109571428Y-66399523D01*
X109571428Y-65542380D01*
X110095238Y-66542380D02*
X110095238Y-65875714D01*
X110095238Y-65542380D02*
X110047619Y-65590000D01*
X110095238Y-65637619D01*
X110142857Y-65590000D01*
X110095238Y-65542380D01*
X110095238Y-65637619D01*
X111000000Y-66542380D02*
X111000000Y-65542380D01*
X111000000Y-66494761D02*
X110904761Y-66542380D01*
X110714285Y-66542380D01*
X110619047Y-66494761D01*
X110571428Y-66447142D01*
X110523809Y-66351904D01*
X110523809Y-66066190D01*
X110571428Y-65970952D01*
X110619047Y-65923333D01*
X110714285Y-65875714D01*
X110904761Y-65875714D01*
X111000000Y-65923333D01*
X111904761Y-66542380D02*
X111904761Y-66018571D01*
X111857142Y-65923333D01*
X111761904Y-65875714D01*
X111571428Y-65875714D01*
X111476190Y-65923333D01*
X111904761Y-66494761D02*
X111809523Y-66542380D01*
X111571428Y-66542380D01*
X111476190Y-66494761D01*
X111428571Y-66399523D01*
X111428571Y-66304285D01*
X111476190Y-66209047D01*
X111571428Y-66161428D01*
X111809523Y-66161428D01*
X111904761Y-66113809D01*
X113619047Y-65542380D02*
X113142857Y-65542380D01*
X113095238Y-66018571D01*
X113142857Y-65970952D01*
X113238095Y-65923333D01*
X113476190Y-65923333D01*
X113571428Y-65970952D01*
X113619047Y-66018571D01*
X113666666Y-66113809D01*
X113666666Y-66351904D01*
X113619047Y-66447142D01*
X113571428Y-66494761D01*
X113476190Y-66542380D01*
X113238095Y-66542380D01*
X113142857Y-66494761D01*
X113095238Y-66447142D01*
X114000000Y-65875714D02*
X114238095Y-66542380D01*
X114476190Y-65875714D01*
X116190476Y-66447142D02*
X116142857Y-66494761D01*
X116000000Y-66542380D01*
X115904761Y-66542380D01*
X115761904Y-66494761D01*
X115666666Y-66399523D01*
X115619047Y-66304285D01*
X115571428Y-66113809D01*
X115571428Y-65970952D01*
X115619047Y-65780476D01*
X115666666Y-65685238D01*
X115761904Y-65590000D01*
X115904761Y-65542380D01*
X116000000Y-65542380D01*
X116142857Y-65590000D01*
X116190476Y-65637619D01*
X116761904Y-66542380D02*
X116666666Y-66494761D01*
X116619047Y-66447142D01*
X116571428Y-66351904D01*
X116571428Y-66066190D01*
X116619047Y-65970952D01*
X116666666Y-65923333D01*
X116761904Y-65875714D01*
X116904761Y-65875714D01*
X117000000Y-65923333D01*
X117047619Y-65970952D01*
X117095238Y-66066190D01*
X117095238Y-66351904D01*
X117047619Y-66447142D01*
X117000000Y-66494761D01*
X116904761Y-66542380D01*
X116761904Y-66542380D01*
X117523809Y-65875714D02*
X117523809Y-66542380D01*
X117523809Y-65970952D02*
X117571428Y-65923333D01*
X117666666Y-65875714D01*
X117809523Y-65875714D01*
X117904761Y-65923333D01*
X117952380Y-66018571D01*
X117952380Y-66542380D01*
X118285714Y-65875714D02*
X118666666Y-65875714D01*
X118428571Y-65542380D02*
X118428571Y-66399523D01*
X118476190Y-66494761D01*
X118571428Y-66542380D01*
X118666666Y-66542380D01*
X119000000Y-66542380D02*
X119000000Y-65875714D01*
X119000000Y-66066190D02*
X119047619Y-65970952D01*
X119095238Y-65923333D01*
X119190476Y-65875714D01*
X119285714Y-65875714D01*
X119761904Y-66542380D02*
X119666666Y-66494761D01*
X119619047Y-66447142D01*
X119571428Y-66351904D01*
X119571428Y-66066190D01*
X119619047Y-65970952D01*
X119666666Y-65923333D01*
X119761904Y-65875714D01*
X119904761Y-65875714D01*
X120000000Y-65923333D01*
X120047619Y-65970952D01*
X120095238Y-66066190D01*
X120095238Y-66351904D01*
X120047619Y-66447142D01*
X120000000Y-66494761D01*
X119904761Y-66542380D01*
X119761904Y-66542380D01*
X120666666Y-66542380D02*
X120571428Y-66494761D01*
X120523809Y-66399523D01*
X120523809Y-65542380D01*
X121476190Y-66542380D02*
X121476190Y-66018571D01*
X121428571Y-65923333D01*
X121333333Y-65875714D01*
X121142857Y-65875714D01*
X121047619Y-65923333D01*
X121476190Y-66494761D02*
X121380952Y-66542380D01*
X121142857Y-66542380D01*
X121047619Y-66494761D01*
X121000000Y-66399523D01*
X121000000Y-66304285D01*
X121047619Y-66209047D01*
X121142857Y-66161428D01*
X121380952Y-66161428D01*
X121476190Y-66113809D01*
X122380952Y-66542380D02*
X122380952Y-65542380D01*
X122380952Y-66494761D02*
X122285714Y-66542380D01*
X122095238Y-66542380D01*
X122000000Y-66494761D01*
X121952380Y-66447142D01*
X121904761Y-66351904D01*
X121904761Y-66066190D01*
X121952380Y-65970952D01*
X122000000Y-65923333D01*
X122095238Y-65875714D01*
X122285714Y-65875714D01*
X122380952Y-65923333D01*
X123285714Y-66542380D02*
X123285714Y-66018571D01*
X123238095Y-65923333D01*
X123142857Y-65875714D01*
X122952380Y-65875714D01*
X122857142Y-65923333D01*
X123285714Y-66494761D02*
X123190476Y-66542380D01*
X122952380Y-66542380D01*
X122857142Y-66494761D01*
X122809523Y-66399523D01*
X122809523Y-66304285D01*
X122857142Y-66209047D01*
X122952380Y-66161428D01*
X123190476Y-66161428D01*
X123285714Y-66113809D01*
X151104761Y-68497619D02*
X151009523Y-68450000D01*
X150914285Y-68354761D01*
X150771428Y-68211904D01*
X150676190Y-68164285D01*
X150580952Y-68164285D01*
X150628571Y-68402380D02*
X150533333Y-68354761D01*
X150438095Y-68259523D01*
X150390476Y-68069047D01*
X150390476Y-67735714D01*
X150438095Y-67545238D01*
X150533333Y-67450000D01*
X150628571Y-67402380D01*
X150819047Y-67402380D01*
X150914285Y-67450000D01*
X151009523Y-67545238D01*
X151057142Y-67735714D01*
X151057142Y-68069047D01*
X151009523Y-68259523D01*
X150914285Y-68354761D01*
X150819047Y-68402380D01*
X150628571Y-68402380D01*
X152009523Y-68402380D02*
X151438095Y-68402380D01*
X151723809Y-68402380D02*
X151723809Y-67402380D01*
X151628571Y-67545238D01*
X151533333Y-67640476D01*
X151438095Y-67688095D01*
X166666666Y-67952380D02*
X166666666Y-68666666D01*
X166619047Y-68809523D01*
X166523809Y-68904761D01*
X166380952Y-68952380D01*
X166285714Y-68952380D01*
X167047619Y-67952380D02*
X167714285Y-67952380D01*
X167285714Y-68952380D01*
X171104761Y-66654761D02*
X171247619Y-66702380D01*
X171485714Y-66702380D01*
X171580952Y-66654761D01*
X171628571Y-66607142D01*
X171676190Y-66511904D01*
X171676190Y-66416666D01*
X171628571Y-66321428D01*
X171580952Y-66273809D01*
X171485714Y-66226190D01*
X171295238Y-66178571D01*
X171200000Y-66130952D01*
X171152380Y-66083333D01*
X171104761Y-65988095D01*
X171104761Y-65892857D01*
X171152380Y-65797619D01*
X171200000Y-65750000D01*
X171295238Y-65702380D01*
X171533333Y-65702380D01*
X171676190Y-65750000D01*
X172104761Y-66702380D02*
X172104761Y-65702380D01*
X172580952Y-66702380D02*
X172580952Y-65702380D01*
X172914285Y-66416666D01*
X173247619Y-65702380D01*
X173247619Y-66702380D01*
X173723809Y-66702380D02*
X173723809Y-65702380D01*
X173961904Y-65702380D01*
X174104761Y-65750000D01*
X174200000Y-65845238D01*
X174247619Y-65940476D01*
X174295238Y-66130952D01*
X174295238Y-66273809D01*
X174247619Y-66464285D01*
X174200000Y-66559523D01*
X174104761Y-66654761D01*
X173961904Y-66702380D01*
X173723809Y-66702380D01*
X175057142Y-66178571D02*
X175200000Y-66226190D01*
X175247619Y-66273809D01*
X175295238Y-66369047D01*
X175295238Y-66511904D01*
X175247619Y-66607142D01*
X175200000Y-66654761D01*
X175104761Y-66702380D01*
X174723809Y-66702380D01*
X174723809Y-65702380D01*
X175057142Y-65702380D01*
X175152380Y-65750000D01*
X175200000Y-65797619D01*
X175247619Y-65892857D01*
X175247619Y-65988095D01*
X175200000Y-66083333D01*
X175152380Y-66130952D01*
X175057142Y-66178571D01*
X174723809Y-66178571D01*
X176247619Y-65750000D02*
X176152380Y-65702380D01*
X176009523Y-65702380D01*
X175866666Y-65750000D01*
X175771428Y-65845238D01*
X175723809Y-65940476D01*
X175676190Y-66130952D01*
X175676190Y-66273809D01*
X175723809Y-66464285D01*
X175771428Y-66559523D01*
X175866666Y-66654761D01*
X176009523Y-66702380D01*
X176104761Y-66702380D01*
X176247619Y-66654761D01*
X176295238Y-66607142D01*
X176295238Y-66273809D01*
X176104761Y-66273809D01*
X160333333Y-89207142D02*
X160285714Y-89254761D01*
X160142857Y-89302380D01*
X160047619Y-89302380D01*
X159904761Y-89254761D01*
X159809523Y-89159523D01*
X159761904Y-89064285D01*
X159714285Y-88873809D01*
X159714285Y-88730952D01*
X159761904Y-88540476D01*
X159809523Y-88445238D01*
X159904761Y-88350000D01*
X160047619Y-88302380D01*
X160142857Y-88302380D01*
X160285714Y-88350000D01*
X160333333Y-88397619D01*
X160666666Y-88302380D02*
X161285714Y-88302380D01*
X160952380Y-88683333D01*
X161095238Y-88683333D01*
X161190476Y-88730952D01*
X161238095Y-88778571D01*
X161285714Y-88873809D01*
X161285714Y-89111904D01*
X161238095Y-89207142D01*
X161190476Y-89254761D01*
X161095238Y-89302380D01*
X160809523Y-89302380D01*
X160714285Y-89254761D01*
X160666666Y-89207142D01*
X158833333Y-82857142D02*
X158785714Y-82904761D01*
X158642857Y-82952380D01*
X158547619Y-82952380D01*
X158404761Y-82904761D01*
X158309523Y-82809523D01*
X158261904Y-82714285D01*
X158214285Y-82523809D01*
X158214285Y-82380952D01*
X158261904Y-82190476D01*
X158309523Y-82095238D01*
X158404761Y-82000000D01*
X158547619Y-81952380D01*
X158642857Y-81952380D01*
X158785714Y-82000000D01*
X158833333Y-82047619D01*
X159214285Y-82047619D02*
X159261904Y-82000000D01*
X159357142Y-81952380D01*
X159595238Y-81952380D01*
X159690476Y-82000000D01*
X159738095Y-82047619D01*
X159785714Y-82142857D01*
X159785714Y-82238095D01*
X159738095Y-82380952D01*
X159166666Y-82952380D01*
X159785714Y-82952380D01*
M02*
