M48
; DRILL file {KiCad 5.1.5+dfsg1-2build2} date Tue 14 Dec 2021 17:07:33 -03
; FORMAT={-:-/ absolute / metric / decimal}
; #@! TF.CreationDate,2021-12-14T17:07:33-03:00
; #@! TF.GenerationSoftware,Kicad,Pcbnew,5.1.5+dfsg1-2build2
; #@! TF.FileFunction,Plated,1,2,PTH
FMAT,2
METRIC
T1C0.500
T2C1.000
T3C1.300
%
G90
G05
T1
X93.1Y-68.95
X95.35Y-67.05
X96.05Y-101.05
X97.25Y-68.95
X99.9Y-67.1
X101.3Y-78.8
X102.0Y-68.25
X103.05Y-116.95
X103.7Y-77.5
X104.85Y-68.15
X107.5Y-79.7
X107.5Y-81.6
X107.7Y-94.55
X107.9Y-77.8
X107.95Y-116.9
X108.0Y-103.0
X109.5Y-82.95
X110.8Y-84.75
X113.05Y-116.95
X113.7Y-83.7
X118.05Y-116.95
X119.45Y-83.85
X123.0Y-117.0
X123.9Y-76.25
X124.1Y-91.6
X125.9Y-103.9
X125.9Y-105.4
X125.9Y-107.0
X126.7Y-83.5
X127.2Y-79.55
X128.05Y-117.0
X128.4Y-84.5
X131.8Y-96.0
X133.05Y-117.0
X135.75Y-97.6
X137.75Y-84.5
X138.25Y-100.45
X138.3Y-97.7
X139.3Y-66.7
X139.3Y-74.05
X141.8Y-114.9
X142.0Y-98.0
X144.5Y-96.9
X144.7Y-82.95
X145.0Y-109.0
X146.0Y-105.8
X146.4Y-79.55
X147.0Y-96.4
X147.0Y-115.0
X147.55Y-69.0
X148.35Y-84.05
X150.05Y-76.0
X150.05Y-81.35
X150.5Y-109.0
X150.5Y-115.0
X150.6Y-67.65
X154.95Y-76.0
X155.65Y-85.45
X157.0Y-115.0
X157.75Y-67.7
X158.0Y-109.0
X158.0Y-111.5
X159.0Y-76.5
X160.5Y-80.1
X161.0Y-112.5
X162.95Y-77.3
X164.0Y-71.0
X165.5Y-108.5
X165.65Y-79.85
X165.8Y-88.9
X167.25Y-72.1
X168.35Y-77.35
X169.7Y-72.1
X172.15Y-117.95
X172.3Y-101.8
X172.5Y-77.4
X172.6Y-79.0
X173.5Y-87.0
X175.0Y-88.0
X175.0Y-94.0
X175.2Y-82.0
X175.6Y-78.45
X175.8Y-101.7
X175.85Y-117.95
X177.0Y-97.5
X177.5Y-74.6
X178.9Y-87.05
X178.9Y-91.75
T2
X110.1Y-99.3
X118.1Y-93.55
X161.0Y-73.5
X126.84Y-69.0
X126.84Y-71.54
X129.38Y-69.0
X129.38Y-71.54
X131.92Y-69.0
X131.92Y-71.54
X134.46Y-69.0
X134.46Y-71.54
X137.0Y-69.0
X137.0Y-71.54
X169.88Y-68.5
X172.42Y-68.5
X174.96Y-68.5
X177.5Y-68.5
X100.0Y-87.46
X100.0Y-90.0
X102.54Y-87.46
X102.54Y-90.0
X105.08Y-87.46
X105.08Y-90.0
X107.62Y-87.46
X107.62Y-90.0
X110.16Y-87.46
X110.16Y-90.0
X112.7Y-87.46
X112.7Y-90.0
X115.24Y-87.46
X115.24Y-90.0
X117.78Y-87.46
X117.78Y-90.0
X120.32Y-87.46
X120.32Y-90.0
X122.86Y-87.46
X122.86Y-90.0
X125.4Y-87.46
X125.4Y-90.0
X127.94Y-87.46
X127.94Y-90.0
X130.48Y-87.46
X130.48Y-90.0
X133.02Y-87.46
X133.02Y-90.0
X135.56Y-87.46
X135.56Y-90.0
X138.1Y-87.46
X138.1Y-90.0
X140.64Y-87.46
X140.64Y-90.0
X143.18Y-87.46
X143.18Y-90.0
X145.72Y-87.46
X145.72Y-90.0
X148.26Y-87.46
X148.26Y-90.0
T3
X113.0Y-72.0
X118.0Y-72.0
X118.0Y-113.0
X123.0Y-113.0
X128.0Y-113.0
X133.0Y-113.0
X138.0Y-113.0
X93.0Y-113.0
X98.0Y-113.0
X103.0Y-113.0
X108.0Y-113.0
X113.0Y-113.0
X93.0Y-72.0
X98.0Y-72.0
X103.0Y-72.0
X108.0Y-72.0
T0
M30
